<?xml version="1.0" encoding="utf-8" standalone="no"?>
<!DOCTYPE svg PUBLIC "-//W3C//DTD SVG 1.1//EN"
  "http://www.w3.org/Graphics/SVG/1.1/DTD/svg11.dtd">
<svg xmlns:xlink="http://www.w3.org/1999/xlink" width="227.078066pt" height="140.125451pt" viewBox="0 0 227.078066 140.125451" xmlns="http://www.w3.org/2000/svg" version="1.1">
 <metadata>
  <rdf:RDF xmlns:dc="http://purl.org/dc/elements/1.1/" xmlns:cc="http://creativecommons.org/ns#" xmlns:rdf="http://www.w3.org/1999/02/22-rdf-syntax-ns#">
   <cc:Work>
    <dc:type rdf:resource="http://purl.org/dc/dcmitype/StillImage"/>
    <dc:date>2022-06-18T11:35:29.466966</dc:date>
    <dc:format>image/svg+xml</dc:format>
    <dc:creator>
     <cc:Agent>
      <dc:title>Matplotlib v3.5.1, https://matplotlib.org/</dc:title>
     </cc:Agent>
    </dc:creator>
   </cc:Work>
  </rdf:RDF>
 </metadata>
 <defs>
  <style type="text/css">*{stroke-linejoin: round; stroke-linecap: butt}</style>
 </defs>
 <g id="figure_1">
  <g id="patch_1">
   <path d="M 0 140.125451 
L 227.078066 140.125451 
L 227.078066 0 
L 0 0 
L 0 140.125451 
z
" style="fill: none"/>
  </g>
  <g id="axes_1">
   <g id="patch_2">
    <path d="M 30.744984 117.350791 
L 187.596696 117.350791 
L 187.596696 0.72 
L 30.744984 0.72 
L 30.744984 117.350791 
z
" style="fill: none"/>
   </g>
   <g id="matplotlib.axis_1">
    <g id="xtick_1">
     <g id="line2d_1">
      <defs>
       <path id="m1707a15427" d="M 0 0 
L 0 2 
" style="stroke: #000000; stroke-width: 0.35"/>
      </defs>
      <g>
       <use xlink:href="#m1707a15427" x="30.744984" y="117.350791" style="stroke: #000000; stroke-width: 0.35"/>
      </g>
     </g>
     <g id="text_1">
      <!-- $\mathdefault{0.0}$ -->
      <g transform="translate(25.33464 127.885593)scale(0.08 -0.08)">
       <defs>
        <path id="CMR17-30" d="M 2688 2038 
C 2688 2430 2682 3099 2413 3613 
C 2176 4063 1798 4224 1466 4224 
C 1158 4224 768 4082 525 3620 
C 269 3137 243 2539 243 2038 
C 243 1671 250 1112 448 623 
C 723 -39 1216 -128 1466 -128 
C 1760 -128 2208 -7 2470 604 
C 2662 1048 2688 1568 2688 2038 
z
M 1466 -26 
C 1056 -26 813 328 723 816 
C 653 1196 653 1749 653 2109 
C 653 2604 653 3015 736 3407 
C 858 3954 1216 4121 1466 4121 
C 1728 4121 2067 3947 2189 3420 
C 2272 3054 2278 2623 2278 2109 
C 2278 1691 2278 1176 2202 797 
C 2067 96 1690 -26 1466 -26 
z
" transform="scale(0.015625)"/>
        <path id="CMMI12-3a" d="M 1178 307 
C 1178 492 1024 620 870 620 
C 685 620 557 467 557 313 
C 557 128 710 0 864 0 
C 1050 0 1178 153 1178 307 
z
" transform="scale(0.015625)"/>
       </defs>
       <use xlink:href="#CMR17-30" transform="scale(0.996264)"/>
       <use xlink:href="#CMMI12-3a" transform="translate(45.690477 0)scale(0.996264)"/>
       <use xlink:href="#CMR17-30" transform="translate(72.787654 0)scale(0.996264)"/>
      </g>
     </g>
    </g>
    <g id="xtick_2">
     <g id="line2d_2">
      <g>
       <use xlink:href="#m1707a15427" x="56.886936" y="117.350791" style="stroke: #000000; stroke-width: 0.35"/>
      </g>
     </g>
     <g id="text_2">
      <!-- $\mathdefault{0.5}$ -->
      <g transform="translate(51.476592 127.885593)scale(0.08 -0.08)">
       <defs>
        <path id="CMR17-35" d="M 730 3750 
C 794 3724 1056 3641 1325 3641 
C 1920 3641 2246 3961 2432 4140 
C 2432 4191 2432 4224 2394 4224 
C 2387 4224 2374 4224 2323 4198 
C 2099 4102 1837 4032 1517 4032 
C 1325 4032 1037 4055 723 4191 
C 653 4224 640 4224 634 4224 
C 602 4224 595 4217 595 4090 
L 595 2231 
C 595 2113 595 2080 659 2080 
C 691 2080 704 2093 736 2139 
C 941 2435 1222 2560 1542 2560 
C 1766 2560 2246 2415 2246 1293 
C 2246 1087 2246 716 2054 422 
C 1894 159 1645 25 1370 25 
C 947 25 518 319 403 812 
C 429 806 480 793 506 793 
C 589 793 749 838 749 1036 
C 749 1209 627 1280 506 1280 
C 358 1280 262 1190 262 1011 
C 262 454 704 -128 1382 -128 
C 2042 -128 2669 441 2669 1267 
C 2669 2054 2170 2662 1549 2662 
C 1222 2662 947 2540 730 2304 
L 730 3750 
z
" transform="scale(0.015625)"/>
       </defs>
       <use xlink:href="#CMR17-30" transform="scale(0.996264)"/>
       <use xlink:href="#CMMI12-3a" transform="translate(45.690477 0)scale(0.996264)"/>
       <use xlink:href="#CMR17-35" transform="translate(72.787654 0)scale(0.996264)"/>
      </g>
     </g>
    </g>
    <g id="xtick_3">
     <g id="line2d_3">
      <g>
       <use xlink:href="#m1707a15427" x="83.028888" y="117.350791" style="stroke: #000000; stroke-width: 0.35"/>
      </g>
     </g>
     <g id="text_3">
      <!-- $\mathdefault{1.0}$ -->
      <g transform="translate(77.618544 127.885593)scale(0.08 -0.08)">
       <defs>
        <path id="CMR17-31" d="M 1702 4083 
C 1702 4217 1696 4224 1606 4224 
C 1357 3927 979 3833 621 3820 
C 602 3820 570 3820 563 3808 
C 557 3795 557 3782 557 3648 
C 755 3648 1088 3686 1344 3839 
L 1344 467 
C 1344 243 1331 166 781 166 
L 589 166 
L 589 0 
C 896 6 1216 12 1523 12 
C 1830 12 2150 6 2458 0 
L 2458 166 
L 2266 166 
C 1715 166 1702 236 1702 467 
L 1702 4083 
z
" transform="scale(0.015625)"/>
       </defs>
       <use xlink:href="#CMR17-31" transform="scale(0.996264)"/>
       <use xlink:href="#CMMI12-3a" transform="translate(45.690477 0)scale(0.996264)"/>
       <use xlink:href="#CMR17-30" transform="translate(72.787654 0)scale(0.996264)"/>
      </g>
     </g>
    </g>
    <g id="xtick_4">
     <g id="line2d_4">
      <g>
       <use xlink:href="#m1707a15427" x="109.17084" y="117.350791" style="stroke: #000000; stroke-width: 0.35"/>
      </g>
     </g>
     <g id="text_4">
      <!-- $\mathdefault{1.5}$ -->
      <g transform="translate(103.760496 127.885593)scale(0.08 -0.08)">
       <use xlink:href="#CMR17-31" transform="scale(0.996264)"/>
       <use xlink:href="#CMMI12-3a" transform="translate(45.690477 0)scale(0.996264)"/>
       <use xlink:href="#CMR17-35" transform="translate(72.787654 0)scale(0.996264)"/>
      </g>
     </g>
    </g>
    <g id="xtick_5">
     <g id="line2d_5">
      <g>
       <use xlink:href="#m1707a15427" x="135.312792" y="117.350791" style="stroke: #000000; stroke-width: 0.35"/>
      </g>
     </g>
     <g id="text_5">
      <!-- $\mathdefault{2.0}$ -->
      <g transform="translate(129.902448 127.885593)scale(0.08 -0.08)">
       <defs>
        <path id="CMR17-32" d="M 2669 990 
L 2554 990 
C 2490 537 2438 460 2413 422 
C 2381 371 1920 371 1830 371 
L 602 371 
C 832 620 1280 1073 1824 1596 
C 2214 1966 2669 2400 2669 3033 
C 2669 3788 2067 4224 1395 4224 
C 691 4224 262 3603 262 3027 
C 262 2777 448 2745 525 2745 
C 589 2745 781 2783 781 3007 
C 781 3206 614 3264 525 3264 
C 486 3264 448 3257 422 3244 
C 544 3788 915 4057 1306 4057 
C 1862 4057 2227 3616 2227 3033 
C 2227 2477 1901 1998 1536 1583 
L 262 147 
L 262 0 
L 2515 0 
L 2669 990 
z
" transform="scale(0.015625)"/>
       </defs>
       <use xlink:href="#CMR17-32" transform="scale(0.996264)"/>
       <use xlink:href="#CMMI12-3a" transform="translate(45.690477 0)scale(0.996264)"/>
       <use xlink:href="#CMR17-30" transform="translate(72.787654 0)scale(0.996264)"/>
      </g>
     </g>
    </g>
    <g id="xtick_6">
     <g id="line2d_6">
      <g>
       <use xlink:href="#m1707a15427" x="161.454744" y="117.350791" style="stroke: #000000; stroke-width: 0.35"/>
      </g>
     </g>
     <g id="text_6">
      <!-- $\mathdefault{2.5}$ -->
      <g transform="translate(156.0444 127.885593)scale(0.08 -0.08)">
       <use xlink:href="#CMR17-32" transform="scale(0.996264)"/>
       <use xlink:href="#CMMI12-3a" transform="translate(45.690477 0)scale(0.996264)"/>
       <use xlink:href="#CMR17-35" transform="translate(72.787654 0)scale(0.996264)"/>
      </g>
     </g>
    </g>
    <g id="xtick_7">
     <g id="line2d_7">
      <g>
       <use xlink:href="#m1707a15427" x="187.596696" y="117.350791" style="stroke: #000000; stroke-width: 0.35"/>
      </g>
     </g>
     <g id="text_7">
      <!-- $\mathdefault{3.0}$ -->
      <g transform="translate(182.186352 127.885593)scale(0.08 -0.08)">
       <defs>
        <path id="CMR17-33" d="M 1414 2176 
C 1984 2176 2234 1673 2234 1094 
C 2234 322 1824 25 1453 25 
C 1114 25 563 193 390 691 
C 422 678 454 678 486 678 
C 640 678 755 780 755 947 
C 755 1132 614 1216 486 1216 
C 378 1216 211 1164 211 927 
C 211 335 787 -128 1466 -128 
C 2176 -128 2720 432 2720 1087 
C 2720 1718 2208 2176 1600 2246 
C 2086 2347 2554 2776 2554 3353 
C 2554 3856 2048 4224 1472 4224 
C 890 4224 378 3862 378 3347 
C 378 3123 544 3084 627 3084 
C 762 3084 877 3167 877 3334 
C 877 3500 762 3584 627 3584 
C 602 3584 570 3584 544 3571 
C 730 3999 1235 4076 1459 4076 
C 1683 4076 2106 3966 2106 3347 
C 2106 3167 2080 2851 1862 2574 
C 1670 2329 1453 2316 1242 2297 
C 1210 2297 1062 2284 1037 2284 
C 992 2278 966 2272 966 2227 
C 966 2182 973 2176 1101 2176 
L 1414 2176 
z
" transform="scale(0.015625)"/>
       </defs>
       <use xlink:href="#CMR17-33" transform="scale(0.996264)"/>
       <use xlink:href="#CMMI12-3a" transform="translate(45.690477 0)scale(0.996264)"/>
       <use xlink:href="#CMR17-30" transform="translate(72.787654 0)scale(0.996264)"/>
      </g>
     </g>
    </g>
    <g id="text_8">
     <!-- $2vt/L$ -->
     <g transform="translate(98.323403 137.412923)scale(0.08 -0.08)">
      <defs>
       <path id="CMMI12-76" d="M 2925 2388 
C 2925 2790 2720 2816 2669 2816 
C 2515 2816 2374 2662 2374 2534 
C 2374 2458 2419 2413 2445 2388 
C 2509 2330 2675 2158 2675 1826 
C 2675 1558 2291 64 1523 64 
C 1133 64 1056 389 1056 625 
C 1056 945 1203 1392 1376 1851 
C 1478 2113 1504 2177 1504 2305 
C 1504 2573 1312 2816 998 2816 
C 410 2816 173 1890 173 1838 
C 173 1813 198 1781 243 1781 
C 301 1781 307 1807 333 1896 
C 486 2445 736 2687 979 2687 
C 1037 2687 1146 2687 1146 2477 
C 1146 2311 1075 2126 979 1883 
C 672 1066 672 868 672 715 
C 672 574 691 313 890 134 
C 1120 -64 1440 -64 1498 -64 
C 2560 -64 2925 2024 2925 2388 
z
" transform="scale(0.015625)"/>
       <path id="CMMI12-74" d="M 1286 2566 
L 1875 2566 
C 1997 2566 2061 2566 2061 2681 
C 2061 2752 2022 2752 1894 2752 
L 1331 2752 
L 1568 3664 
C 1594 3752 1594 3764 1594 3808 
C 1594 3910 1510 3968 1427 3968 
C 1376 3968 1229 3948 1178 3746 
L 928 2752 
L 326 2752 
C 198 2752 141 2752 141 2630 
C 141 2566 186 2566 307 2566 
L 877 2566 
L 454 881 
C 403 657 384 593 384 510 
C 384 210 595 -64 954 -64 
C 1600 -64 1946 868 1946 913 
C 1946 951 1920 970 1882 970 
C 1869 970 1843 970 1830 944 
C 1824 938 1818 932 1773 830 
C 1638 510 1344 64 973 64 
C 781 64 768 223 768 364 
C 768 370 768 491 787 568 
L 1286 2566 
z
" transform="scale(0.015625)"/>
       <path id="CMMI12-3d" d="M 2746 4563 
C 2746 4569 2784 4665 2784 4678 
C 2784 4755 2720 4800 2669 4800 
C 2637 4800 2579 4800 2528 4659 
L 384 -1364 
C 384 -1370 346 -1466 346 -1479 
C 346 -1556 410 -1600 461 -1600 
C 499 -1600 557 -1594 602 -1460 
L 2746 4563 
z
" transform="scale(0.015625)"/>
       <path id="CMMI12-4c" d="M 2349 3860 
C 2406 4102 2426 4166 2989 4166 
C 3162 4166 3206 4166 3206 4287 
C 3206 4352 3136 4352 3110 4352 
C 2982 4352 2835 4339 2707 4339 
L 1850 4339 
C 1728 4339 1587 4352 1466 4352 
C 1414 4352 1344 4352 1344 4230 
C 1344 4166 1402 4166 1498 4166 
C 1888 4166 1888 4115 1888 4045 
C 1888 4032 1888 3994 1862 3898 
L 998 472 
C 941 249 928 185 480 185 
C 358 185 294 185 294 70 
C 294 0 333 0 461 0 
L 3328 0 
C 3469 0 3475 6 3520 121 
L 4013 1478 
C 4026 1510 4038 1548 4038 1567 
C 4038 1605 4006 1631 3974 1631 
C 3968 1631 3936 1631 3923 1605 
C 3910 1599 3910 1586 3859 1465 
C 3654 905 3366 185 2285 185 
L 1670 185 
C 1581 185 1568 185 1530 191 
C 1459 198 1453 211 1453 262 
C 1453 306 1466 344 1478 402 
L 2349 3860 
z
" transform="scale(0.015625)"/>
      </defs>
      <use xlink:href="#CMR17-32" transform="scale(0.996264)"/>
      <use xlink:href="#CMMI12-76" transform="translate(45.690477 0)scale(0.996264)"/>
      <use xlink:href="#CMMI12-74" transform="translate(96.425651 0)scale(0.996264)"/>
      <use xlink:href="#CMMI12-3d" transform="translate(131.651981 0)scale(0.996264)"/>
      <use xlink:href="#CMMI12-4c" transform="translate(180.426899 0)scale(0.996264)"/>
     </g>
    </g>
   </g>
   <g id="matplotlib.axis_2">
    <g id="ytick_1">
     <g id="line2d_8">
      <defs>
       <path id="m429f1b8e25" d="M 0 0 
L -2 0 
" style="stroke: #000000; stroke-width: 0.35"/>
      </defs>
      <g>
       <use xlink:href="#m429f1b8e25" x="30.744984" y="117.350791" style="stroke: #000000; stroke-width: 0.35"/>
      </g>
     </g>
     <g id="text_9">
      <!-- $\mathdefault{0.96}$ -->
      <g transform="translate(10.690112 120.118192)scale(0.08 -0.08)">
       <defs>
        <path id="CMR17-39" d="M 2253 1871 
C 2253 448 1670 25 1190 25 
C 1043 25 685 43 538 281 
C 704 256 826 345 826 505 
C 826 678 685 736 595 736 
C 538 736 365 710 365 492 
C 365 68 742 -128 1203 -128 
C 1939 -128 2688 665 2688 2090 
C 2688 3857 1971 4224 1485 4224 
C 851 4224 243 3664 243 2800 
C 243 2000 762 1408 1414 1408 
C 1952 1408 2189 1910 2253 2122 
L 2253 1871 
z
M 1427 1510 
C 1254 1510 1011 1542 813 1929 
C 678 2181 678 2477 678 2793 
C 678 3174 678 3438 858 3722 
C 947 3857 1114 4076 1485 4076 
C 2240 4076 2240 2909 2240 2651 
C 2240 2193 2035 1510 1427 1510 
z
" transform="scale(0.015625)"/>
        <path id="CMR17-36" d="M 678 2198 
C 678 3712 1395 4076 1811 4076 
C 1946 4076 2272 4049 2400 3782 
C 2298 3782 2106 3782 2106 3558 
C 2106 3385 2246 3328 2336 3328 
C 2394 3328 2566 3353 2566 3571 
C 2566 3987 2246 4224 1805 4224 
C 1043 4224 243 3411 243 2011 
C 243 257 966 -128 1478 -128 
C 2099 -128 2688 431 2688 1295 
C 2688 2101 2170 2688 1517 2688 
C 1126 2688 838 2430 678 1979 
L 678 2198 
z
M 1478 25 
C 691 25 691 1212 691 1450 
C 691 1914 909 2585 1504 2585 
C 1613 2585 1926 2585 2138 2140 
C 2253 1889 2253 1624 2253 1302 
C 2253 954 2253 696 2118 438 
C 1978 173 1773 25 1478 25 
z
" transform="scale(0.015625)"/>
       </defs>
       <use xlink:href="#CMR17-30" transform="scale(0.996264)"/>
       <use xlink:href="#CMMI12-3a" transform="translate(45.690477 0)scale(0.996264)"/>
       <use xlink:href="#CMR17-39" transform="translate(72.787654 0)scale(0.996264)"/>
       <use xlink:href="#CMR17-36" transform="translate(118.478131 0)scale(0.996264)"/>
      </g>
     </g>
    </g>
    <g id="ytick_2">
     <g id="line2d_9">
      <g>
       <use xlink:href="#m429f1b8e25" x="30.744984" y="90.843793" style="stroke: #000000; stroke-width: 0.35"/>
      </g>
     </g>
     <g id="text_10">
      <!-- $\mathdefault{0.97}$ -->
      <g transform="translate(10.690112 93.611194)scale(0.08 -0.08)">
       <defs>
        <path id="CMR17-37" d="M 2886 3955 
L 2886 4096 
L 1382 4096 
C 634 4096 621 4166 595 4288 
L 480 4288 
L 294 3104 
L 410 3104 
C 429 3226 474 3552 550 3673 
C 589 3724 1062 3724 1171 3724 
L 2579 3724 
L 1869 2670 
C 1395 1961 1069 1003 1069 166 
C 1069 89 1069 -128 1299 -128 
C 1530 -128 1530 89 1530 172 
L 1530 466 
C 1530 1514 1709 2204 2003 2644 
L 2886 3955 
z
" transform="scale(0.015625)"/>
       </defs>
       <use xlink:href="#CMR17-30" transform="scale(0.996264)"/>
       <use xlink:href="#CMMI12-3a" transform="translate(45.690477 0)scale(0.996264)"/>
       <use xlink:href="#CMR17-39" transform="translate(72.787654 0)scale(0.996264)"/>
       <use xlink:href="#CMR17-37" transform="translate(118.478131 0)scale(0.996264)"/>
      </g>
     </g>
    </g>
    <g id="ytick_3">
     <g id="line2d_10">
      <g>
       <use xlink:href="#m429f1b8e25" x="30.744984" y="64.336795" style="stroke: #000000; stroke-width: 0.35"/>
      </g>
     </g>
     <g id="text_11">
      <!-- $\mathdefault{0.98}$ -->
      <g transform="translate(10.690112 67.104196)scale(0.08 -0.08)">
       <defs>
        <path id="CMR17-38" d="M 1741 2289 
C 2144 2494 2554 2803 2554 3298 
C 2554 3884 1990 4224 1472 4224 
C 890 4224 378 3800 378 3215 
C 378 3054 416 2777 666 2533 
C 730 2469 998 2276 1171 2154 
C 883 2006 211 1652 211 945 
C 211 282 838 -128 1459 -128 
C 2144 -128 2720 366 2720 1022 
C 2720 1607 2330 1877 2074 2051 
L 1741 2289 
z
M 902 2855 
C 851 2887 595 3086 595 3388 
C 595 3781 998 4076 1459 4076 
C 1965 4076 2336 3716 2336 3298 
C 2336 2700 1670 2359 1638 2359 
C 1632 2359 1626 2359 1574 2398 
L 902 2855 
z
M 2080 1536 
C 2176 1466 2483 1253 2483 861 
C 2483 385 2010 25 1472 25 
C 890 25 448 443 448 951 
C 448 1459 838 1884 1280 2083 
L 2080 1536 
z
" transform="scale(0.015625)"/>
       </defs>
       <use xlink:href="#CMR17-30" transform="scale(0.996264)"/>
       <use xlink:href="#CMMI12-3a" transform="translate(45.690477 0)scale(0.996264)"/>
       <use xlink:href="#CMR17-39" transform="translate(72.787654 0)scale(0.996264)"/>
       <use xlink:href="#CMR17-38" transform="translate(118.478131 0)scale(0.996264)"/>
      </g>
     </g>
    </g>
    <g id="ytick_4">
     <g id="line2d_11">
      <g>
       <use xlink:href="#m429f1b8e25" x="30.744984" y="37.829797" style="stroke: #000000; stroke-width: 0.35"/>
      </g>
     </g>
     <g id="text_12">
      <!-- $\mathdefault{0.99}$ -->
      <g transform="translate(10.690112 40.597198)scale(0.08 -0.08)">
       <use xlink:href="#CMR17-30" transform="scale(0.996264)"/>
       <use xlink:href="#CMMI12-3a" transform="translate(45.690477 0)scale(0.996264)"/>
       <use xlink:href="#CMR17-39" transform="translate(72.787654 0)scale(0.996264)"/>
       <use xlink:href="#CMR17-39" transform="translate(118.478131 0)scale(0.996264)"/>
      </g>
     </g>
    </g>
    <g id="ytick_5">
     <g id="line2d_12">
      <g>
       <use xlink:href="#m429f1b8e25" x="30.744984" y="11.322799" style="stroke: #000000; stroke-width: 0.35"/>
      </g>
     </g>
     <g id="text_13">
      <!-- $\mathdefault{1.00}$ -->
      <g transform="translate(10.690112 14.0902)scale(0.08 -0.08)">
       <use xlink:href="#CMR17-31" transform="scale(0.996264)"/>
       <use xlink:href="#CMMI12-3a" transform="translate(45.690477 0)scale(0.996264)"/>
       <use xlink:href="#CMR17-30" transform="translate(72.787654 0)scale(0.996264)"/>
       <use xlink:href="#CMR17-30" transform="translate(118.478131 0)scale(0.996264)"/>
      </g>
     </g>
    </g>
    <g id="text_14">
     <!-- $N\rho_1(q,t)$ -->
     <g transform="translate(6.697584 75.801852)rotate(-90)scale(0.08 -0.08)">
      <defs>
       <path id="CMMI12-4e" d="M 4736 3682 
C 4806 3956 4909 4147 5395 4166 
C 5414 4166 5491 4172 5491 4281 
C 5491 4352 5434 4352 5408 4352 
C 5280 4352 4954 4339 4826 4339 
L 4518 4339 
C 4429 4339 4314 4352 4224 4352 
C 4186 4352 4109 4352 4109 4230 
C 4109 4166 4160 4166 4205 4166 
C 4589 4153 4614 4007 4614 3892 
C 4614 3835 4608 3816 4589 3726 
L 3866 854 
L 2496 4243 
C 2451 4345 2445 4352 2304 4352 
L 1523 4352 
C 1395 4352 1338 4352 1338 4230 
C 1338 4166 1382 4166 1504 4166 
C 1536 4166 1914 4166 1914 4109 
C 1914 4096 1901 4045 1894 4026 
L 1043 650 
C 966 338 813 204 390 185 
C 358 185 294 179 294 64 
C 294 0 358 0 378 0 
C 506 0 832 12 960 12 
L 1267 12 
C 1357 12 1466 0 1555 0 
C 1600 0 1670 0 1670 121 
C 1670 179 1606 185 1581 185 
C 1370 191 1165 230 1165 459 
C 1165 510 1178 567 1190 618 
L 2054 4026 
C 2093 3962 2093 3949 2118 3892 
L 3642 115 
C 3674 38 3686 0 3744 0 
C 3808 0 3814 19 3840 128 
L 4736 3682 
z
" transform="scale(0.015625)"/>
       <path id="CMMI12-1a" d="M 198 -1085 
C 192 -1116 179 -1154 179 -1191 
C 179 -1287 256 -1351 352 -1351 
C 448 -1351 538 -1287 576 -1198 
C 602 -1141 781 -390 986 389 
C 1114 70 1350 -64 1600 -64 
C 2323 -64 3142 830 3142 1794 
C 3142 2477 2726 2816 2285 2816 
C 1722 2816 1037 2234 826 1385 
L 198 -1085 
z
M 1594 64 
C 1158 64 1050 568 1050 645 
C 1050 683 1210 1289 1229 1385 
C 1555 2656 2182 2687 2278 2687 
C 2566 2687 2726 2426 2726 2049 
C 2726 1724 2554 1091 2445 823 
C 2253 383 1920 64 1594 64 
z
" transform="scale(0.015625)"/>
       <path id="CMR17-28" d="M 1958 -1562 
C 1958 -1556 1958 -1543 1939 -1524 
C 1645 -1223 858 -403 858 1596 
C 858 3595 1632 4408 1946 4729 
C 1946 4735 1958 4748 1958 4767 
C 1958 4787 1939 4800 1914 4800 
C 1843 4800 1299 4325 986 3620 
C 666 2909 576 2218 576 1603 
C 576 1141 621 360 1005 -467 
C 1312 -1133 1837 -1600 1914 -1600 
C 1946 -1600 1958 -1588 1958 -1562 
z
" transform="scale(0.015625)"/>
       <path id="CMMI12-71" d="M 2822 2751 
C 2822 2783 2797 2809 2765 2809 
C 2714 2809 2464 2579 2342 2356 
C 2227 2643 2029 2816 1754 2816 
C 1030 2816 250 1883 250 938 
C 250 306 621 -64 1056 -64 
C 1395 -64 1677 191 1811 338 
L 1818 332 
L 1574 -613 
L 1517 -838 
C 1459 -1025 1363 -1025 1062 -1031 
C 992 -1031 928 -1031 928 -1152 
C 928 -1197 966 -1216 1011 -1216 
C 1101 -1216 1216 -1204 1306 -1204 
L 1958 -1204 
C 2054 -1204 2163 -1216 2259 -1216 
C 2298 -1216 2374 -1216 2374 -1095 
C 2374 -1031 2323 -1031 2227 -1031 
C 1926 -1031 1907 -987 1907 -937 
C 1907 -906 1914 -900 1933 -819 
L 2822 2751 
z
M 1920 759 
C 1888 651 1888 638 1798 517 
C 1658 338 1376 64 1075 64 
C 813 64 666 300 666 676 
C 666 1028 864 1743 986 2011 
C 1203 2458 1504 2687 1754 2687 
C 2176 2687 2259 2164 2259 2113 
C 2259 2107 2240 2024 2234 2011 
L 1920 759 
z
" transform="scale(0.015625)"/>
       <path id="CMMI12-3b" d="M 1248 -26 
C 1248 345 1126 620 864 620 
C 659 620 557 454 557 313 
C 557 172 653 0 870 0 
C 954 0 1024 25 1082 83 
C 1094 96 1101 96 1107 96 
C 1120 96 1120 6 1120 -26 
C 1120 -233 1082 -642 710 -1051 
C 640 -1127 640 -1140 640 -1152 
C 640 -1184 672 -1216 704 -1216 
C 755 -1216 1248 -749 1248 -26 
z
" transform="scale(0.015625)"/>
       <path id="CMR17-29" d="M 1683 1596 
C 1683 2057 1638 2839 1254 3665 
C 947 4332 422 4800 346 4800 
C 326 4800 301 4793 301 4761 
C 301 4748 307 4742 314 4729 
C 621 4408 1402 3595 1402 1603 
C 1402 -396 627 -1210 314 -1530 
C 307 -1543 301 -1549 301 -1562 
C 301 -1594 326 -1600 346 -1600 
C 416 -1600 960 -1127 1274 -422 
C 1594 289 1683 981 1683 1596 
z
" transform="scale(0.015625)"/>
      </defs>
      <use xlink:href="#CMMI12-4e" transform="scale(0.996264)"/>
      <use xlink:href="#CMMI12-1a" transform="translate(88.521773 0)scale(0.996264)"/>
      <use xlink:href="#CMR17-31" transform="translate(138.836145 -14.943915)scale(0.697382)"/>
      <use xlink:href="#CMR17-28" transform="translate(171.317459 0)scale(0.996264)"/>
      <use xlink:href="#CMMI12-71" transform="translate(206.598227 0)scale(0.996264)"/>
      <use xlink:href="#CMMI12-3b" transform="translate(253.424551 0)scale(0.996264)"/>
      <use xlink:href="#CMMI12-74" transform="translate(297.126133 0)scale(0.996264)"/>
      <use xlink:href="#CMR17-29" transform="translate(332.352464 0)scale(0.996264)"/>
     </g>
    </g>
   </g>
   <g id="line2d_13">
    <path d="M 0 0 
" clip-path="url(#pe7ef4d0e30)" style="fill: none; stroke: #5e4fa2; stroke-width: 1.2; stroke-linecap: round"/>
   </g>
   <g id="line2d_14">
    <path d="M 0 0 
" clip-path="url(#pe7ef4d0e30)" style="fill: none; stroke: #66c2a5; stroke-width: 1.2; stroke-linecap: round"/>
   </g>
   <g id="line2d_15">
    <path d="M 0 0 
" clip-path="url(#pe7ef4d0e30)" style="fill: none; stroke: #e6f598; stroke-width: 1.2; stroke-linecap: round"/>
   </g>
   <g id="line2d_16">
    <path d="M 0 0 
" clip-path="url(#pe7ef4d0e30)" style="fill: none; stroke: #fee08b; stroke-width: 1.2; stroke-linecap: round"/>
   </g>
   <g id="line2d_17">
    <path d="M 0 0 
" clip-path="url(#pe7ef4d0e30)" style="fill: none; stroke: #f46d43; stroke-width: 1.2; stroke-linecap: round"/>
   </g>
   <g id="line2d_18">
    <path d="M 0 0 
" clip-path="url(#pe7ef4d0e30)" style="fill: none; stroke: #9e0142; stroke-width: 1.2; stroke-linecap: round"/>
   </g>
   <g id="line2d_19">
    <path d="M 30.744984 11.322686 
L 31.471796 13.074798 
L 32.198608 18.102554 
L 32.92542 25.764726 
L 35.832668 63.464339 
L 36.55948 70.513673 
L 37.286292 75.870412 
L 38.013104 79.689488 
L 38.739916 82.330708 
L 40.19354 85.903193 
L 40.920352 87.646393 
L 41.647164 89.70011 
L 43.100788 94.840535 
L 44.554412 100.351893 
L 45.281224 102.684068 
L 46.008036 104.483103 
L 46.734848 105.664008 
L 47.46166 106.245764 
L 48.188472 106.345375 
L 50.368908 105.745137 
L 51.09572 105.893105 
L 51.822532 106.396928 
L 52.549344 107.23689 
L 55.456592 111.349758 
L 56.183404 111.803392 
L 56.910216 111.847744 
L 57.637028 111.501563 
L 58.36384 110.839942 
L 61.271088 107.349449 
L 61.9979 106.733474 
L 63.451524 105.932052 
L 64.905148 105.251649 
L 65.63196 104.733251 
L 66.358772 103.992851 
L 67.085584 102.98236 
L 67.812396 101.681654 
L 68.539208 100.094322 
L 69.992832 96.141092 
L 71.446456 91.288567 
L 72.90008 85.578984 
L 74.353704 78.886664 
L 75.807328 70.989583 
L 77.260952 61.693392 
L 79.441388 45.38289 
L 81.621824 29.075329 
L 82.348636 24.765858 
L 83.075448 21.557005 
L 83.80226 19.768106 
L 84.529072 19.663691 
L 85.255884 21.414764 
L 85.982696 25.064098 
L 86.709508 30.506008 
L 87.43632 37.484125 
L 88.889944 54.404675 
L 90.343568 71.941195 
L 91.797192 86.511946 
L 92.524004 92.020385 
L 93.250816 96.261076 
L 93.977628 99.319586 
L 94.70444 101.359708 
L 95.431252 102.581534 
L 96.158064 103.185115 
L 96.884876 103.345227 
L 97.611688 103.201491 
L 99.065312 102.411788 
L 100.518935 101.514667 
L 101.245747 101.242334 
L 101.972559 101.204523 
L 102.699371 101.46948 
L 103.426183 102.071139 
L 104.152995 102.997123 
L 105.606619 105.533912 
L 107.060243 108.196716 
L 107.787055 109.271148 
L 108.513867 110.061204 
L 109.240679 110.530744 
L 109.967491 110.680254 
L 110.694303 110.536057 
L 111.421115 110.136995 
L 112.147927 109.52359 
L 113.601551 107.793459 
L 115.781987 104.453718 
L 117.962423 101.178454 
L 120.142859 98.218719 
L 120.869671 97.051959 
L 121.596483 95.655108 
L 122.323295 93.957295 
L 123.050107 91.911702 
L 124.503731 86.708037 
L 125.957355 80.055175 
L 127.410979 72.063591 
L 129.591415 58.060734 
L 132.498663 38.635877 
L 133.952287 30.487901 
L 134.679099 27.255555 
L 135.405911 24.807231 
L 136.132723 23.336255 
L 136.859535 23.038512 
L 137.586347 24.084986 
L 138.313159 26.589033 
L 139.039971 30.574204 
L 139.766783 35.954227 
L 141.220407 49.992101 
L 144.127655 81.089127 
L 144.854467 87.438019 
L 145.581279 92.78599 
L 146.308091 97.094583 
L 147.034903 100.417922 
L 147.761715 102.880309 
L 148.488527 104.644633 
L 149.215339 105.880117 
L 149.942151 106.731859 
L 150.668963 107.299095 
L 151.395775 107.625166 
L 152.122587 107.702394 
L 152.849399 107.491088 
L 153.576211 106.947863 
L 154.303023 106.057755 
L 155.756647 103.462465 
L 157.210271 100.795477 
L 157.937083 99.959334 
L 158.663895 99.711344 
L 159.390707 100.159646 
L 160.117519 101.311957 
L 160.844331 103.065505 
L 163.024767 109.631555 
L 163.751579 111.309777 
L 164.478391 112.317694 
L 165.205203 112.515752 
L 165.932015 111.865893 
L 166.658827 110.433291 
L 167.385639 108.37193 
L 170.292887 98.521866 
L 171.019699 96.740253 
L 171.746511 95.450038 
L 172.473322 94.598219 
L 174.653758 92.880583 
L 175.38057 91.762644 
L 176.107382 89.976956 
L 176.834194 87.374709 
L 177.561006 83.903248 
L 179.01463 74.66588 
L 181.921878 53.25526 
L 183.375502 44.777684 
L 184.829126 38.57669 
L 186.28275 33.904574 
L 187.736374 30.154675 
L 188.463186 28.752101 
L 189.189998 27.906751 
L 189.91681 27.869426 
L 190.643622 28.891701 
L 191.370434 31.175959 
L 192.097246 34.832531 
L 192.824058 39.852912 
L 193.55087 46.10379 
L 195.004494 61.229989 
L 197.18493 85.005947 
L 198.638554 97.492233 
L 199.365366 102.036318 
L 200.092178 105.361918 
L 200.81899 107.533486 
L 201.545802 108.704079 
L 202.272614 109.089972 
L 202.999426 108.935499 
L 204.45305 107.89469 
L 206.633486 106.286572 
L 208.08711 105.156889 
L 209.540734 103.591464 
L 210.994358 101.829476 
L 211.72117 101.115338 
L 212.447982 100.663941 
L 213.174794 100.564625 
L 213.901606 100.866177 
L 214.628418 101.568352 
L 215.35523 102.618599 
L 218.262478 107.758154 
L 218.98929 108.441725 
L 219.716102 108.565355 
L 220.442914 108.030926 
L 221.169726 106.80279 
L 221.896538 104.915322 
L 222.62335 102.470476 
L 224.803786 93.506399 
L 226.25741 87.985858 
L 227.711034 83.777841 
L 228.078066 82.919322 
L 228.078066 82.919322 
" clip-path="url(#pe7ef4d0e30)" style="fill: none; stroke: #5e4fa2; stroke-width: 1.2; stroke-linecap: round"/>
   </g>
   <g id="line2d_20">
    <path d="M 30.744984 11.322624 
L 31.471796 13.058028 
L 32.198608 17.982955 
L 32.92542 25.316881 
L 35.105856 50.497663 
L 35.832668 56.64064 
L 36.55948 60.824668 
L 37.286292 63.147574 
L 38.013104 64.003156 
L 38.739916 63.926927 
L 40.19354 62.940696 
L 40.920352 62.61898 
L 43.100788 62.172907 
L 43.8276 61.611126 
L 44.554412 60.598854 
L 45.281224 59.117199 
L 46.734848 55.124066 
L 48.188472 50.865217 
L 49.642096 47.484521 
L 50.368908 46.239174 
L 51.822532 44.355641 
L 54.002968 41.769097 
L 55.456592 39.989422 
L 56.183404 39.285212 
L 56.910216 38.8301 
L 57.637028 38.689129 
L 58.36384 38.885518 
L 59.090652 39.400648 
L 59.817464 40.18527 
L 61.271088 42.32365 
L 62.724712 44.944785 
L 64.178336 47.954537 
L 66.358772 53.092932 
L 68.539208 58.306214 
L 69.992832 61.403149 
L 71.446456 63.965067 
L 72.173268 64.935244 
L 72.90008 65.592162 
L 73.626892 65.822964 
L 74.353704 65.494192 
L 75.080516 64.467549 
L 75.807328 62.618166 
L 76.53414 59.859887 
L 77.260952 56.168778 
L 77.987764 51.604709 
L 79.441388 40.585383 
L 80.895012 29.167881 
L 81.621824 24.331543 
L 82.348636 20.642211 
L 83.075448 18.460445 
L 83.80226 18.047849 
L 84.529072 19.532179 
L 85.255884 22.886842 
L 85.982696 27.920477 
L 87.43632 41.500912 
L 88.889944 56.178776 
L 89.616756 62.475133 
L 90.343568 67.428767 
L 91.07038 70.742383 
L 91.797192 72.317458 
L 92.524004 72.259347 
L 93.250816 70.850127 
L 93.977628 68.489797 
L 96.158064 59.939524 
L 96.884876 57.632087 
L 97.611688 55.803751 
L 98.3385 54.405037 
L 99.792123 52.426579 
L 103.426183 48.214433 
L 104.879807 46.335126 
L 106.333431 44.118182 
L 108.513867 40.445328 
L 109.240679 39.536522 
L 109.967491 39.023593 
L 110.694303 39.006488 
L 111.421115 39.510956 
L 112.147927 40.476875 
L 113.601551 43.217268 
L 115.055175 45.969346 
L 117.962423 50.64133 
L 118.689235 52.268599 
L 119.416047 54.271351 
L 120.869671 59.17943 
L 122.323295 64.163782 
L 123.050107 66.15164 
L 123.776919 67.562268 
L 124.503731 68.283125 
L 125.230543 68.263113 
L 125.957355 67.5012 
L 126.684167 66.033013 
L 127.410979 63.916643 
L 128.137791 61.220926 
L 129.591415 54.391075 
L 131.045039 46.163409 
L 133.952287 28.645628 
L 134.679099 25.019154 
L 135.405911 22.250334 
L 136.132723 20.696664 
L 136.859535 20.697425 
L 137.586347 22.504937 
L 138.313159 26.213254 
L 139.039971 31.704954 
L 140.493595 46.440022 
L 141.947219 61.886162 
L 142.674031 68.128504 
L 143.400843 72.665662 
L 144.127655 75.231534 
L 144.854467 75.813455 
L 145.581279 74.631572 
L 146.308091 72.082361 
L 147.761715 64.891768 
L 149.215339 58.036095 
L 149.942151 55.519168 
L 150.668963 53.742219 
L 151.395775 52.630591 
L 152.122587 52.00725 
L 154.303023 50.804205 
L 155.029835 50.055018 
L 156.483459 47.881478 
L 157.937083 45.574588 
L 158.663895 44.683974 
L 159.390707 44.044539 
L 160.117519 43.632056 
L 161.571143 43.188181 
L 163.751579 42.71129 
L 164.478391 42.725224 
L 165.205203 42.983698 
L 165.932015 43.56987 
L 166.658827 44.518814 
L 167.385639 45.804792 
L 168.839263 49.049493 
L 171.746511 55.807696 
L 173.926946 61.01126 
L 176.107382 66.797498 
L 176.834194 68.344229 
L 177.561006 69.343635 
L 178.287818 69.574356 
L 179.01463 68.863604 
L 179.741442 67.121744 
L 180.468254 64.36276 
L 181.195066 60.704411 
L 182.64869 51.549063 
L 184.829126 36.996192 
L 186.28275 29.14711 
L 187.009562 26.257375 
L 187.736374 24.284303 
L 188.463186 23.421328 
L 189.189998 23.855767 
L 189.91681 25.727552 
L 190.643622 29.081661 
L 191.370434 33.828827 
L 192.824058 46.391935 
L 194.277682 60.041971 
L 195.004494 65.99673 
L 195.731306 70.784806 
L 196.458118 74.114657 
L 197.18493 75.844673 
L 197.911742 75.986421 
L 198.638554 74.692 
L 199.365366 72.231649 
L 200.81899 65.283016 
L 202.272614 58.283736 
L 202.999426 55.589571 
L 203.726238 53.659798 
L 204.45305 52.487682 
L 205.179862 51.930648 
L 207.360298 51.408026 
L 208.08711 50.822077 
L 208.813922 49.846454 
L 210.267546 47.091769 
L 210.994358 45.687692 
L 211.72117 44.539489 
L 212.447982 43.793498 
L 213.174794 43.508809 
L 213.901606 43.652171 
L 214.628418 44.118379 
L 217.535666 46.578503 
L 218.98929 47.472926 
L 219.716102 48.063324 
L 220.442914 48.914861 
L 221.169726 50.123267 
L 221.896538 51.726011 
L 223.350162 55.906045 
L 224.803786 60.441343 
L 225.530598 62.408593 
L 226.25741 64.003546 
L 226.984222 65.186343 
L 228.078066 66.272331 
L 228.078066 66.272331 
" clip-path="url(#pe7ef4d0e30)" style="fill: none; stroke: #66c2a5; stroke-width: 1.2; stroke-linecap: round"/>
   </g>
   <g id="line2d_21">
    <path d="M 30.744984 11.322569 
L 31.471796 12.791867 
L 32.198608 16.91386 
L 33.652232 29.6665 
L 34.379044 36.064273 
L 35.105856 41.159888 
L 35.832668 44.397032 
L 36.55948 45.665094 
L 37.286292 45.238848 
L 38.013104 43.6385 
L 40.19354 37.069614 
L 41.647164 33.751582 
L 44.554412 28.249328 
L 45.281224 27.094983 
L 46.008036 26.249495 
L 46.734848 25.813795 
L 47.46166 25.825929 
L 48.188472 26.256937 
L 48.915284 27.027781 
L 50.368908 29.192115 
L 54.72978 36.369469 
L 55.456592 37.274269 
L 56.183404 37.967052 
L 56.910216 38.4011 
L 57.637028 38.548518 
L 58.36384 38.404921 
L 59.090652 37.989361 
L 59.817464 37.338557 
L 61.271088 35.522563 
L 63.451524 32.15364 
L 65.63196 28.772611 
L 66.358772 27.845307 
L 67.085584 27.14281 
L 67.812396 26.757016 
L 68.539208 26.774894 
L 69.26602 27.26192 
L 69.992832 28.245723 
L 70.719644 29.709372 
L 71.446456 31.590323 
L 72.90008 36.164905 
L 74.353704 40.86635 
L 75.080516 42.860956 
L 75.807328 44.388243 
L 76.53414 45.272665 
L 77.260952 45.346796 
L 77.987764 44.472566 
L 78.714576 42.572613 
L 79.441388 39.663654 
L 80.1682 35.886243 
L 82.348636 22.753972 
L 83.075448 19.391464 
L 83.80226 17.374257 
L 84.529072 17.056854 
L 85.255884 18.591386 
L 85.982696 21.881164 
L 86.709508 26.575344 
L 88.889944 42.849253 
L 89.616756 46.680768 
L 90.343568 48.82748 
L 91.07038 49.11757 
L 91.797192 47.67815 
L 92.524004 44.904419 
L 94.70444 34.578895 
L 95.431252 32.293852 
L 96.158064 31.048282 
L 96.884876 30.750118 
L 97.611688 31.107621 
L 99.065312 32.220135 
L 99.792123 32.330776 
L 100.518935 31.978931 
L 102.699371 29.992137 
L 103.426183 30.01527 
L 104.152995 30.742271 
L 104.879807 32.161991 
L 107.787055 39.870744 
L 108.513867 40.902391 
L 109.240679 41.317705 
L 109.967491 41.204774 
L 110.694303 40.728084 
L 114.328363 37.550733 
L 115.781987 36.259954 
L 117.235611 34.62436 
L 120.869671 29.944335 
L 121.596483 29.298882 
L 122.323295 29.016148 
L 123.050107 29.267473 
L 123.776919 30.199609 
L 124.503731 31.882661 
L 125.230543 34.269677 
L 128.137791 45.685734 
L 128.864603 47.263139 
L 129.591415 47.800661 
L 130.318227 47.242541 
L 131.045039 45.65826 
L 131.771851 43.207398 
L 133.225475 36.568415 
L 135.405911 25.933854 
L 136.132723 23.323364 
L 136.859535 21.698882 
L 137.586347 21.33527 
L 138.313159 22.401282 
L 139.039971 24.899722 
L 139.766783 28.629153 
L 141.947219 42.473421 
L 142.674031 45.996821 
L 143.400843 48.141537 
L 144.127655 48.691723 
L 144.854467 47.687776 
L 145.581279 45.408104 
L 148.488527 33.399311 
L 149.215339 31.928374 
L 149.942151 31.464459 
L 150.668963 31.861794 
L 152.849399 34.802239 
L 153.576211 35.138391 
L 154.303023 34.789645 
L 155.029835 33.808138 
L 156.483459 31.032268 
L 157.210271 30.018111 
L 157.937083 29.741491 
L 158.663895 30.404486 
L 159.390707 32.007437 
L 160.117519 34.348672 
L 161.571143 39.744102 
L 162.297955 41.964542 
L 163.024767 43.436415 
L 163.751579 44.023502 
L 164.478391 43.756475 
L 165.205203 42.801985 
L 166.658827 39.81808 
L 168.112451 36.853518 
L 169.566075 34.670835 
L 171.019699 33.076659 
L 172.473322 31.776954 
L 173.200134 31.283249 
L 173.926946 30.983682 
L 174.653758 30.961303 
L 175.38057 31.284525 
L 176.107382 31.988267 
L 176.834194 33.063116 
L 178.287818 36.064019 
L 180.468254 41.107042 
L 181.195066 42.511343 
L 181.921878 43.631786 
L 182.64869 44.380898 
L 183.375502 44.656046 
L 184.102314 44.34139 
L 184.829126 43.32487 
L 185.555938 41.533482 
L 186.28275 38.977629 
L 187.736374 32.244302 
L 189.189998 25.712335 
L 189.91681 23.639335 
L 190.643622 22.860649 
L 191.370434 23.547985 
L 192.097246 25.653602 
L 192.824058 28.912814 
L 195.004494 40.903889 
L 195.731306 43.960839 
L 196.458118 45.921164 
L 197.18493 46.632287 
L 197.911742 46.104324 
L 198.638554 44.489676 
L 199.365366 42.057211 
L 201.545802 33.525178 
L 202.272614 31.54085 
L 202.999426 30.475688 
L 203.726238 30.43142 
L 204.45305 31.333826 
L 205.179862 32.932352 
L 206.633486 36.60667 
L 207.360298 37.813167 
L 208.08711 38.166917 
L 208.813922 37.570376 
L 209.540734 36.147716 
L 211.72117 30.679917 
L 212.447982 29.93873 
L 213.174794 30.253346 
L 213.901606 31.650028 
L 214.628418 33.94491 
L 216.808854 42.273323 
L 217.535666 44.076267 
L 218.262478 44.872498 
L 218.98929 44.588351 
L 219.716102 43.326625 
L 220.442914 41.336959 
L 222.62335 34.438409 
L 223.350162 32.806159 
L 224.076974 31.731097 
L 224.803786 31.155252 
L 225.530598 30.934028 
L 226.984222 30.913387 
L 228.078066 31.010651 
L 228.078066 31.010651 
" clip-path="url(#pe7ef4d0e30)" style="fill: none; stroke: #e6f598; stroke-width: 1.2; stroke-linecap: round"/>
   </g>
   <g id="line2d_22">
    <path d="M 30.744984 11.322614 
L 31.471796 12.388887 
L 32.198608 15.347057 
L 34.379044 28.028286 
L 35.105856 30.721102 
L 35.832668 31.803512 
L 36.55948 31.322476 
L 37.286292 29.638589 
L 39.466728 22.621015 
L 40.19354 20.960841 
L 40.920352 19.87801 
L 41.647164 19.301094 
L 42.373976 19.112429 
L 43.100788 19.209442 
L 43.8276 19.535916 
L 44.554412 20.072378 
L 45.281224 20.808185 
L 48.915284 25.137403 
L 49.642096 25.490845 
L 50.368908 25.582634 
L 51.09572 25.45595 
L 52.549344 24.760253 
L 54.002968 23.684453 
L 57.637028 20.494696 
L 58.36384 20.264267 
L 59.090652 20.331312 
L 59.817464 20.705184 
L 60.544276 21.351248 
L 61.9979 23.166846 
L 63.451524 25.086702 
L 64.178336 25.886206 
L 64.905148 26.496915 
L 65.63196 26.868219 
L 66.358772 26.961202 
L 67.085584 26.748894 
L 67.812396 26.223018 
L 68.539208 25.404559 
L 69.992832 23.148161 
L 71.446456 20.813162 
L 72.173268 19.965825 
L 72.90008 19.510943 
L 73.626892 19.549089 
L 74.353704 20.130179 
L 75.080516 21.245991 
L 75.807328 22.817305 
L 77.987764 28.499873 
L 78.714576 29.902764 
L 79.441388 30.641309 
L 80.1682 30.538402 
L 80.895012 29.524499 
L 81.621824 27.663139 
L 83.075448 22.370763 
L 83.80226 19.701416 
L 84.529072 17.596393 
L 85.255884 16.429334 
L 85.982696 16.427358 
L 86.709508 17.611661 
L 87.43632 19.779513 
L 89.616756 27.639009 
L 90.343568 29.018934 
L 91.07038 29.233136 
L 91.797192 28.306145 
L 92.524004 26.514492 
L 93.977628 22.237979 
L 94.70444 20.728446 
L 95.431252 20.059269 
L 96.158064 20.257027 
L 96.884876 21.110392 
L 98.3385 23.25878 
L 99.065312 23.815471 
L 99.792123 23.776113 
L 100.518935 23.220184 
L 101.972559 21.725729 
L 102.699371 21.483934 
L 103.426183 21.882959 
L 104.152995 22.905558 
L 105.606619 25.780699 
L 106.333431 26.869762 
L 107.060243 27.292841 
L 107.787055 26.929572 
L 108.513867 25.878357 
L 110.694303 21.717805 
L 111.421115 21.049149 
L 112.147927 20.958126 
L 112.874739 21.324209 
L 114.328363 22.513649 
L 115.055175 22.929005 
L 115.781987 23.126205 
L 117.235611 23.270484 
L 117.962423 23.529229 
L 118.689235 24.043729 
L 120.869671 26.159672 
L 121.596483 26.378936 
L 122.323295 26.074996 
L 123.050107 25.245711 
L 124.503731 22.632668 
L 125.230543 21.333324 
L 125.957355 20.343536 
L 126.684167 19.797648 
L 127.410979 19.73197 
L 128.137791 20.099106 
L 128.864603 20.805849 
L 130.318227 22.835974 
L 132.498663 26.122427 
L 133.225475 26.877315 
L 133.952287 27.243122 
L 134.679099 27.104768 
L 135.405911 26.415139 
L 136.132723 25.223632 
L 138.313159 20.577102 
L 139.039971 19.531053 
L 139.766783 19.075302 
L 140.493595 19.258042 
L 141.220407 20.002054 
L 144.127655 24.397186 
L 144.854467 24.76613 
L 145.581279 24.610097 
L 146.308091 23.968064 
L 147.761715 21.810241 
L 148.488527 20.730699 
L 149.215339 19.961027 
L 149.942151 19.676283 
L 150.668963 19.948888 
L 151.395775 20.716644 
L 152.849399 22.870752 
L 153.576211 23.659942 
L 154.303023 23.907668 
L 155.029835 23.509468 
L 155.756647 22.542317 
L 157.210271 20.004154 
L 157.937083 19.152359 
L 158.663895 18.959468 
L 159.390707 19.5014 
L 160.117519 20.643422 
L 161.571143 23.398504 
L 162.297955 24.246507 
L 163.024767 24.385517 
L 163.751579 23.78162 
L 164.478391 22.602456 
L 165.932015 19.834696 
L 166.658827 18.927952 
L 167.385639 18.619927 
L 168.112451 18.911209 
L 168.839263 19.640177 
L 170.292887 21.341872 
L 171.019699 21.819715 
L 171.746511 21.888031 
L 172.473322 21.597377 
L 173.926946 20.659225 
L 174.653758 20.431343 
L 175.38057 20.543261 
L 176.107382 20.981744 
L 177.561006 22.19936 
L 178.287818 22.517842 
L 179.01463 22.38902 
L 179.741442 21.762807 
L 181.195066 19.549844 
L 181.921878 18.496959 
L 182.64869 17.868023 
L 183.375502 17.851174 
L 184.102314 18.479685 
L 184.829126 19.619331 
L 186.28275 22.319685 
L 187.009562 23.279902 
L 187.736374 23.710258 
L 188.463186 23.581372 
L 189.189998 22.998094 
L 191.370434 20.466255 
L 192.097246 19.880587 
L 192.824058 19.505233 
L 193.55087 19.301052 
L 195.004494 19.237724 
L 195.731306 19.361307 
L 196.458118 19.612466 
L 197.911742 20.467643 
L 198.638554 20.931319 
L 199.365366 21.256034 
L 200.092178 21.321664 
L 200.81899 21.074361 
L 202.999426 19.402059 
L 203.726238 19.182661 
L 204.45305 19.402306 
L 205.179862 20.049916 
L 206.633486 21.874802 
L 207.360298 22.477083 
L 208.08711 22.53631 
L 208.813922 21.963039 
L 209.540734 20.850642 
L 210.994358 18.130233 
L 211.72117 17.215962 
L 212.447982 16.959394 
L 213.174794 17.439827 
L 213.901606 18.553919 
L 216.082042 22.8749 
L 216.808854 23.62838 
L 217.535666 23.74085 
L 218.262478 23.232617 
L 218.98929 22.246422 
L 221.169726 18.736128 
L 221.896538 18.109674 
L 222.62335 17.960134 
L 223.350162 18.275293 
L 224.076974 18.953876 
L 225.530598 20.705071 
L 226.25741 21.400528 
L 226.984222 21.791187 
L 227.711034 21.842685 
L 228.078066 21.729471 
L 228.078066 21.729471 
" clip-path="url(#pe7ef4d0e30)" style="fill: none; stroke: #fee08b; stroke-width: 1.2; stroke-linecap: round"/>
   </g>
   <g id="line2d_23">
    <path d="M 30.744984 11.322568 
L 31.471796 11.999912 
L 32.198608 13.858561 
L 34.379044 21.197263 
L 35.105856 22.342423 
L 35.832668 22.354697 
L 36.55948 21.367214 
L 38.739916 16.29673 
L 39.466728 15.213612 
L 40.19354 14.77039 
L 40.920352 14.92713 
L 41.647164 15.536557 
L 44.554412 19.045957 
L 45.281224 19.610927 
L 46.008036 19.934819 
L 46.734848 19.994845 
L 47.46166 19.78942 
L 48.188472 19.348601 
L 51.09572 16.917298 
L 51.822532 16.617336 
L 52.549344 16.53632 
L 53.276156 16.647555 
L 54.72978 17.221635 
L 56.910216 18.202909 
L 58.36384 18.63676 
L 59.090652 18.72836 
L 59.817464 18.702548 
L 60.544276 18.54246 
L 61.9979 17.85664 
L 64.178336 16.590277 
L 64.905148 16.332007 
L 65.63196 16.216584 
L 66.358772 16.253096 
L 67.085584 16.432309 
L 68.539208 17.120076 
L 70.719644 18.333209 
L 71.446456 18.540104 
L 72.173268 18.540514 
L 72.90008 18.29733 
L 73.626892 17.815709 
L 76.53414 15.136403 
L 77.260952 14.890969 
L 77.987764 15.005337 
L 78.714576 15.483344 
L 79.441388 16.259947 
L 81.621824 18.960233 
L 82.348636 19.435079 
L 83.075448 19.495281 
L 83.80226 19.121584 
L 84.529072 18.37971 
L 86.709508 15.591399 
L 87.43632 15.098078 
L 88.163132 15.019431 
L 88.889944 15.33303 
L 91.07038 17.137558 
L 91.797192 17.405226 
L 92.524004 17.318296 
L 93.250816 16.914586 
L 94.70444 15.735049 
L 95.431252 15.320345 
L 96.158064 15.193345 
L 96.884876 15.364751 
L 99.065312 16.499594 
L 99.792123 16.584883 
L 100.518935 16.40653 
L 102.699371 15.317149 
L 103.426183 15.256602 
L 104.152995 15.470958 
L 106.333431 16.728296 
L 107.060243 16.822251 
L 107.787055 16.597295 
L 109.240679 15.508521 
L 109.967491 14.982202 
L 110.694303 14.695538 
L 111.421115 14.732473 
L 112.147927 15.067714 
L 113.601551 16.092004 
L 114.328363 16.449361 
L 115.055175 16.560173 
L 115.781987 16.431992 
L 117.962423 15.727189 
L 118.689235 15.749654 
L 120.869671 16.285115 
L 121.596483 16.250454 
L 122.323295 16.014081 
L 123.776919 15.264805 
L 124.503731 15.02936 
L 125.230543 15.042056 
L 125.957355 15.323841 
L 128.137791 16.802412 
L 128.864603 17.062001 
L 129.591415 17.094826 
L 131.045039 16.729952 
L 132.498663 16.451988 
L 135.405911 16.501812 
L 137.586347 16.116718 
L 138.313159 16.206703 
L 139.039971 16.512019 
L 141.220407 17.955671 
L 141.947219 18.122172 
L 142.674031 17.940284 
L 143.400843 17.421986 
L 145.581279 15.180934 
L 146.308091 14.765487 
L 147.034903 14.691659 
L 147.761715 14.955511 
L 148.488527 15.490153 
L 151.395775 18.370915 
L 152.122587 18.844776 
L 152.849399 19.078638 
L 153.576211 19.01839 
L 154.303023 18.639086 
L 155.029835 17.967627 
L 157.210271 15.412889 
L 157.937083 14.967456 
L 158.663895 14.960806 
L 159.390707 15.406285 
L 160.117519 16.206506 
L 161.571143 18.086965 
L 162.297955 18.740358 
L 163.024767 19.009836 
L 163.751579 18.874822 
L 164.478391 18.413071 
L 166.658827 16.568408 
L 167.385639 16.216767 
L 168.112451 16.064702 
L 169.566075 16.16189 
L 172.473322 16.735577 
L 173.926946 17.363486 
L 176.107382 18.732472 
L 176.834194 18.983579 
L 177.561006 18.955975 
L 178.287818 18.592686 
L 179.01463 17.90696 
L 181.195066 15.241743 
L 181.921878 14.826652 
L 182.64869 14.937493 
L 183.375502 15.609897 
L 184.102314 16.747158 
L 185.555938 19.476926 
L 186.28275 20.494687 
L 187.009562 20.976216 
L 187.736374 20.839388 
L 188.463186 20.15006 
L 191.370434 16.094942 
L 192.097246 15.69426 
L 192.824058 15.640221 
L 193.55087 15.856309 
L 195.004494 16.752036 
L 197.911742 19.059929 
L 198.638554 19.413965 
L 199.365366 19.467889 
L 200.092178 19.132988 
L 200.81899 18.403624 
L 202.999426 15.360664 
L 203.726238 14.86822 
L 204.45305 14.956139 
L 205.179862 15.625153 
L 207.360298 19.05153 
L 208.08711 19.717235 
L 208.813922 19.826362 
L 209.540734 19.398944 
L 210.994358 17.6538 
L 211.72117 16.8213 
L 212.447982 16.280243 
L 213.174794 16.106619 
L 213.901606 16.266206 
L 216.808854 17.724129 
L 217.535666 17.790096 
L 218.98929 17.526826 
L 220.442914 17.132276 
L 221.896538 16.984346 
L 223.350162 17.185635 
L 225.530598 17.624625 
L 226.25741 17.574059 
L 226.984222 17.348682 
L 228.078066 16.718646 
L 228.078066 16.718646 
" clip-path="url(#pe7ef4d0e30)" style="fill: none; stroke: #f46d43; stroke-width: 1.2; stroke-linecap: round"/>
   </g>
   <g id="line2d_24">
    <path d="M 30.744984 11.322532 
L 31.471796 11.764109 
L 32.198608 12.964093 
L 33.652232 16.192227 
L 34.379044 17.358631 
L 35.105856 17.812963 
L 35.832668 17.493709 
L 36.55948 16.55901 
L 38.013104 14.130552 
L 38.739916 13.306277 
L 39.466728 13.022086 
L 40.19354 13.293507 
L 40.920352 13.996989 
L 42.373976 15.851894 
L 43.100788 16.593356 
L 43.8276 17.038825 
L 44.554412 17.155814 
L 45.281224 16.977624 
L 46.008036 16.577959 
L 48.915284 14.579773 
L 49.642096 14.368675 
L 50.368908 14.364237 
L 51.09572 14.562338 
L 52.549344 15.370199 
L 54.002968 16.18291 
L 54.72978 16.393628 
L 55.456592 16.418532 
L 56.183404 16.265265 
L 57.637028 15.601848 
L 59.090652 14.88183 
L 59.817464 14.636856 
L 60.544276 14.510278 
L 61.271088 14.511866 
L 62.724712 14.850334 
L 64.905148 15.647441 
L 65.63196 15.794502 
L 66.358772 15.818442 
L 67.085584 15.71111 
L 68.539208 15.196896 
L 69.992832 14.621621 
L 71.446456 14.368707 
L 72.90008 14.539859 
L 75.807328 15.262632 
L 77.260952 15.323137 
L 79.441388 14.999456 
L 80.895012 14.846045 
L 82.348636 14.985529 
L 85.982696 15.741653 
L 87.43632 15.629131 
L 92.524004 14.716041 
L 93.977628 14.69835 
L 95.431252 14.920213 
L 98.3385 15.638211 
L 99.792123 15.589474 
L 103.426183 14.892269 
L 104.879807 15.103103 
L 106.333431 15.355153 
L 107.787055 15.28137 
L 110.694303 14.72394 
L 112.147927 14.939534 
L 113.601551 15.326115 
L 114.328363 15.427965 
L 115.781987 15.299762 
L 117.962423 14.831796 
L 119.416047 14.869058 
L 121.596483 15.1085 
L 123.050107 14.964086 
L 124.503731 14.740866 
L 125.957355 14.739467 
L 128.137791 14.898032 
L 131.045039 14.673138 
L 131.771851 14.789024 
L 133.225475 15.380735 
L 134.679099 16.023838 
L 135.405911 16.154064 
L 136.132723 16.095188 
L 137.586347 15.512879 
L 139.039971 14.766901 
L 140.493595 14.293957 
L 141.947219 14.122329 
L 143.400843 14.159193 
L 144.854467 14.460464 
L 147.034903 15.221194 
L 147.761715 15.343583 
L 148.488527 15.308955 
L 149.942151 14.810061 
L 151.395775 14.240097 
L 152.122587 14.161187 
L 152.849399 14.284976 
L 154.303023 15.002168 
L 155.756647 15.748089 
L 156.483459 15.911657 
L 157.210271 15.886221 
L 157.937083 15.691425 
L 161.571143 14.187864 
L 162.297955 14.121973 
L 163.024767 14.181915 
L 164.478391 14.624159 
L 166.658827 15.478696 
L 167.385639 15.597379 
L 168.112451 15.573962 
L 169.566075 15.164116 
L 171.019699 14.631651 
L 172.473322 14.422265 
L 173.926946 14.641124 
L 177.561006 15.593325 
L 179.01463 15.623642 
L 180.468254 15.292182 
L 182.64869 14.604765 
L 183.375502 14.565952 
L 184.102314 14.695146 
L 185.555938 15.35294 
L 187.009562 16.018773 
L 187.736374 16.150632 
L 188.463186 16.106282 
L 189.91681 15.640406 
L 191.370434 15.1255 
L 192.824058 14.867274 
L 196.458118 14.515469 
L 197.911742 14.705883 
L 200.092178 15.387386 
L 200.81899 15.468359 
L 201.545802 15.392776 
L 202.999426 14.872571 
L 204.45305 14.374307 
L 205.179862 14.322846 
L 205.906674 14.433262 
L 209.540734 15.529174 
L 210.994358 15.436726 
L 214.628418 14.917743 
L 216.808854 14.863585 
L 218.98929 15.10304 
L 221.169726 15.32083 
L 223.350162 15.205277 
L 228.078066 14.819832 
L 228.078066 14.819832 
" clip-path="url(#pe7ef4d0e30)" style="fill: none; stroke: #9e0142; stroke-width: 1.2; stroke-linecap: round"/>
   </g>
   <g id="line2d_25">
    <path d="M 30.744984 11.322532 
L 31.471796 11.764109 
L 32.198608 12.964093 
L 33.652232 16.192227 
L 34.379044 17.358631 
L 35.105856 17.812963 
L 35.832668 17.493709 
L 36.55948 16.55901 
L 38.013104 14.130552 
L 38.739916 13.306277 
L 39.466728 13.022086 
L 40.19354 13.293507 
L 40.920352 13.996989 
L 42.373976 15.851894 
L 43.100788 16.593356 
L 43.8276 17.038825 
L 44.554412 17.155814 
L 45.281224 16.977624 
L 46.008036 16.577959 
L 48.915284 14.579773 
L 49.642096 14.368675 
L 50.368908 14.364237 
L 51.09572 14.562338 
L 52.549344 15.370199 
L 54.002968 16.18291 
L 54.72978 16.393628 
L 55.456592 16.418532 
L 56.183404 16.265265 
L 57.637028 15.601848 
L 59.090652 14.88183 
L 59.817464 14.636856 
L 60.544276 14.510278 
L 61.271088 14.511866 
L 62.724712 14.850334 
L 64.905148 15.647441 
L 65.63196 15.794502 
L 66.358772 15.818442 
L 67.085584 15.71111 
L 68.539208 15.196896 
L 69.992832 14.621621 
L 71.446456 14.368707 
L 72.90008 14.539859 
L 75.807328 15.262632 
L 77.260952 15.323137 
L 79.441388 14.999456 
L 80.895012 14.846045 
L 82.348636 14.985529 
L 85.982696 15.741653 
L 87.43632 15.629131 
L 92.524004 14.716041 
L 93.977628 14.69835 
L 95.431252 14.920213 
L 98.3385 15.638211 
L 99.792123 15.589474 
L 103.426183 14.892269 
L 104.879807 15.103103 
L 106.333431 15.355153 
L 107.787055 15.28137 
L 110.694303 14.72394 
L 112.147927 14.939534 
L 113.601551 15.326115 
L 114.328363 15.427965 
L 115.781987 15.299762 
L 117.962423 14.831796 
L 119.416047 14.869058 
L 121.596483 15.1085 
L 123.050107 14.964086 
L 124.503731 14.740866 
L 125.957355 14.739467 
L 128.137791 14.898032 
L 131.045039 14.673138 
L 131.771851 14.789024 
L 133.225475 15.380735 
L 134.679099 16.023838 
L 135.405911 16.154064 
L 136.132723 16.095188 
L 137.586347 15.512879 
L 139.039971 14.766901 
L 140.493595 14.293957 
L 141.947219 14.122329 
L 143.400843 14.159193 
L 144.854467 14.460464 
L 147.034903 15.221194 
L 147.761715 15.343583 
L 148.488527 15.308955 
L 149.942151 14.810061 
L 151.395775 14.240097 
L 152.122587 14.161187 
L 152.849399 14.284976 
L 154.303023 15.002168 
L 155.756647 15.748089 
L 156.483459 15.911657 
L 157.210271 15.886221 
L 157.937083 15.691425 
L 161.571143 14.187864 
L 162.297955 14.121973 
L 163.024767 14.181915 
L 164.478391 14.624159 
L 166.658827 15.478696 
L 167.385639 15.597379 
L 168.112451 15.573962 
L 169.566075 15.164116 
L 171.019699 14.631651 
L 172.473322 14.422265 
L 173.926946 14.641124 
L 177.561006 15.593325 
L 179.01463 15.623642 
L 180.468254 15.292182 
L 182.64869 14.604765 
L 183.375502 14.565952 
L 184.102314 14.695146 
L 185.555938 15.35294 
L 187.009562 16.018773 
L 187.736374 16.150632 
L 188.463186 16.106282 
L 189.91681 15.640406 
L 191.370434 15.1255 
L 192.824058 14.867274 
L 196.458118 14.515469 
L 197.911742 14.705883 
L 200.092178 15.387386 
L 200.81899 15.468359 
L 201.545802 15.392776 
L 202.999426 14.872571 
L 204.45305 14.374307 
L 205.179862 14.322846 
L 205.906674 14.433262 
L 209.540734 15.529174 
L 210.994358 15.436726 
L 214.628418 14.917743 
L 216.808854 14.863585 
L 218.98929 15.10304 
L 221.169726 15.32083 
L 223.350162 15.205277 
L 228.078066 14.819832 
L 228.078066 14.819832 
" clip-path="url(#pe7ef4d0e30)" style="fill: none; stroke: #5e4fa2; stroke-width: 1.2; stroke-linecap: round"/>
   </g>
   <g id="line2d_26">
    <path d="M 30.744984 11.322568 
L 31.471796 11.999912 
L 32.198608 13.858561 
L 34.379044 21.197263 
L 35.105856 22.342423 
L 35.832668 22.354697 
L 36.55948 21.367214 
L 38.739916 16.29673 
L 39.466728 15.213612 
L 40.19354 14.77039 
L 40.920352 14.92713 
L 41.647164 15.536557 
L 44.554412 19.045957 
L 45.281224 19.610927 
L 46.008036 19.934819 
L 46.734848 19.994845 
L 47.46166 19.78942 
L 48.188472 19.348601 
L 51.09572 16.917298 
L 51.822532 16.617336 
L 52.549344 16.53632 
L 53.276156 16.647555 
L 54.72978 17.221635 
L 56.910216 18.202909 
L 58.36384 18.63676 
L 59.090652 18.72836 
L 59.817464 18.702548 
L 60.544276 18.54246 
L 61.9979 17.85664 
L 64.178336 16.590277 
L 64.905148 16.332007 
L 65.63196 16.216584 
L 66.358772 16.253096 
L 67.085584 16.432309 
L 68.539208 17.120076 
L 70.719644 18.333209 
L 71.446456 18.540104 
L 72.173268 18.540514 
L 72.90008 18.29733 
L 73.626892 17.815709 
L 76.53414 15.136403 
L 77.260952 14.890969 
L 77.987764 15.005337 
L 78.714576 15.483344 
L 79.441388 16.259947 
L 81.621824 18.960233 
L 82.348636 19.435079 
L 83.075448 19.495281 
L 83.80226 19.121584 
L 84.529072 18.37971 
L 86.709508 15.591399 
L 87.43632 15.098078 
L 88.163132 15.019431 
L 88.889944 15.33303 
L 91.07038 17.137558 
L 91.797192 17.405226 
L 92.524004 17.318296 
L 93.250816 16.914586 
L 94.70444 15.735049 
L 95.431252 15.320345 
L 96.158064 15.193345 
L 96.884876 15.364751 
L 99.065312 16.499594 
L 99.792123 16.584883 
L 100.518935 16.40653 
L 102.699371 15.317149 
L 103.426183 15.256602 
L 104.152995 15.470958 
L 106.333431 16.728296 
L 107.060243 16.822251 
L 107.787055 16.597295 
L 109.240679 15.508521 
L 109.967491 14.982202 
L 110.694303 14.695538 
L 111.421115 14.732473 
L 112.147927 15.067714 
L 113.601551 16.092004 
L 114.328363 16.449361 
L 115.055175 16.560173 
L 115.781987 16.431992 
L 117.962423 15.727189 
L 118.689235 15.749654 
L 120.869671 16.285115 
L 121.596483 16.250454 
L 122.323295 16.014081 
L 123.776919 15.264805 
L 124.503731 15.02936 
L 125.230543 15.042056 
L 125.957355 15.323841 
L 128.137791 16.802412 
L 128.864603 17.062001 
L 129.591415 17.094826 
L 131.045039 16.729952 
L 132.498663 16.451988 
L 135.405911 16.501812 
L 137.586347 16.116718 
L 138.313159 16.206703 
L 139.039971 16.512019 
L 141.220407 17.955671 
L 141.947219 18.122172 
L 142.674031 17.940284 
L 143.400843 17.421986 
L 145.581279 15.180934 
L 146.308091 14.765487 
L 147.034903 14.691659 
L 147.761715 14.955511 
L 148.488527 15.490153 
L 151.395775 18.370915 
L 152.122587 18.844776 
L 152.849399 19.078638 
L 153.576211 19.01839 
L 154.303023 18.639086 
L 155.029835 17.967627 
L 157.210271 15.412889 
L 157.937083 14.967456 
L 158.663895 14.960806 
L 159.390707 15.406285 
L 160.117519 16.206506 
L 161.571143 18.086965 
L 162.297955 18.740358 
L 163.024767 19.009836 
L 163.751579 18.874822 
L 164.478391 18.413071 
L 166.658827 16.568408 
L 167.385639 16.216767 
L 168.112451 16.064702 
L 169.566075 16.16189 
L 172.473322 16.735577 
L 173.926946 17.363486 
L 176.107382 18.732472 
L 176.834194 18.983579 
L 177.561006 18.955975 
L 178.287818 18.592686 
L 179.01463 17.90696 
L 181.195066 15.241743 
L 181.921878 14.826652 
L 182.64869 14.937493 
L 183.375502 15.609897 
L 184.102314 16.747158 
L 185.555938 19.476926 
L 186.28275 20.494687 
L 187.009562 20.976216 
L 187.736374 20.839388 
L 188.463186 20.15006 
L 191.370434 16.094942 
L 192.097246 15.69426 
L 192.824058 15.640221 
L 193.55087 15.856309 
L 195.004494 16.752036 
L 197.911742 19.059929 
L 198.638554 19.413965 
L 199.365366 19.467889 
L 200.092178 19.132988 
L 200.81899 18.403624 
L 202.999426 15.360664 
L 203.726238 14.86822 
L 204.45305 14.956139 
L 205.179862 15.625153 
L 207.360298 19.05153 
L 208.08711 19.717235 
L 208.813922 19.826362 
L 209.540734 19.398944 
L 210.994358 17.6538 
L 211.72117 16.8213 
L 212.447982 16.280243 
L 213.174794 16.106619 
L 213.901606 16.266206 
L 216.808854 17.724129 
L 217.535666 17.790096 
L 218.98929 17.526826 
L 220.442914 17.132276 
L 221.896538 16.984346 
L 223.350162 17.185635 
L 225.530598 17.624625 
L 226.25741 17.574059 
L 226.984222 17.348682 
L 228.078066 16.718646 
L 228.078066 16.718646 
" clip-path="url(#pe7ef4d0e30)" style="fill: none; stroke: #66c2a5; stroke-width: 1.2; stroke-linecap: round"/>
   </g>
   <g id="line2d_27">
    <path d="M 30.744984 11.322614 
L 31.471796 12.388887 
L 32.198608 15.347057 
L 34.379044 28.028286 
L 35.105856 30.721102 
L 35.832668 31.803512 
L 36.55948 31.322476 
L 37.286292 29.638589 
L 39.466728 22.621015 
L 40.19354 20.960841 
L 40.920352 19.87801 
L 41.647164 19.301094 
L 42.373976 19.112429 
L 43.100788 19.209442 
L 43.8276 19.535916 
L 44.554412 20.072378 
L 45.281224 20.808185 
L 48.915284 25.137403 
L 49.642096 25.490845 
L 50.368908 25.582634 
L 51.09572 25.45595 
L 52.549344 24.760253 
L 54.002968 23.684453 
L 57.637028 20.494696 
L 58.36384 20.264267 
L 59.090652 20.331312 
L 59.817464 20.705184 
L 60.544276 21.351248 
L 61.9979 23.166846 
L 63.451524 25.086702 
L 64.178336 25.886206 
L 64.905148 26.496915 
L 65.63196 26.868219 
L 66.358772 26.961202 
L 67.085584 26.748894 
L 67.812396 26.223018 
L 68.539208 25.404559 
L 69.992832 23.148161 
L 71.446456 20.813162 
L 72.173268 19.965825 
L 72.90008 19.510943 
L 73.626892 19.549089 
L 74.353704 20.130179 
L 75.080516 21.245991 
L 75.807328 22.817305 
L 77.987764 28.499873 
L 78.714576 29.902764 
L 79.441388 30.641309 
L 80.1682 30.538402 
L 80.895012 29.524499 
L 81.621824 27.663139 
L 83.075448 22.370763 
L 83.80226 19.701416 
L 84.529072 17.596393 
L 85.255884 16.429334 
L 85.982696 16.427358 
L 86.709508 17.611661 
L 87.43632 19.779513 
L 89.616756 27.639009 
L 90.343568 29.018934 
L 91.07038 29.233136 
L 91.797192 28.306145 
L 92.524004 26.514492 
L 93.977628 22.237979 
L 94.70444 20.728446 
L 95.431252 20.059269 
L 96.158064 20.257027 
L 96.884876 21.110392 
L 98.3385 23.25878 
L 99.065312 23.815471 
L 99.792123 23.776113 
L 100.518935 23.220184 
L 101.972559 21.725729 
L 102.699371 21.483934 
L 103.426183 21.882959 
L 104.152995 22.905558 
L 105.606619 25.780699 
L 106.333431 26.869762 
L 107.060243 27.292841 
L 107.787055 26.929572 
L 108.513867 25.878357 
L 110.694303 21.717805 
L 111.421115 21.049149 
L 112.147927 20.958126 
L 112.874739 21.324209 
L 114.328363 22.513649 
L 115.055175 22.929005 
L 115.781987 23.126205 
L 117.235611 23.270484 
L 117.962423 23.529229 
L 118.689235 24.043729 
L 120.869671 26.159672 
L 121.596483 26.378936 
L 122.323295 26.074996 
L 123.050107 25.245711 
L 124.503731 22.632668 
L 125.230543 21.333324 
L 125.957355 20.343536 
L 126.684167 19.797648 
L 127.410979 19.73197 
L 128.137791 20.099106 
L 128.864603 20.805849 
L 130.318227 22.835974 
L 132.498663 26.122427 
L 133.225475 26.877315 
L 133.952287 27.243122 
L 134.679099 27.104768 
L 135.405911 26.415139 
L 136.132723 25.223632 
L 138.313159 20.577102 
L 139.039971 19.531053 
L 139.766783 19.075302 
L 140.493595 19.258042 
L 141.220407 20.002054 
L 144.127655 24.397186 
L 144.854467 24.76613 
L 145.581279 24.610097 
L 146.308091 23.968064 
L 147.761715 21.810241 
L 148.488527 20.730699 
L 149.215339 19.961027 
L 149.942151 19.676283 
L 150.668963 19.948888 
L 151.395775 20.716644 
L 152.849399 22.870752 
L 153.576211 23.659942 
L 154.303023 23.907668 
L 155.029835 23.509468 
L 155.756647 22.542317 
L 157.210271 20.004154 
L 157.937083 19.152359 
L 158.663895 18.959468 
L 159.390707 19.5014 
L 160.117519 20.643422 
L 161.571143 23.398504 
L 162.297955 24.246507 
L 163.024767 24.385517 
L 163.751579 23.78162 
L 164.478391 22.602456 
L 165.932015 19.834696 
L 166.658827 18.927952 
L 167.385639 18.619927 
L 168.112451 18.911209 
L 168.839263 19.640177 
L 170.292887 21.341872 
L 171.019699 21.819715 
L 171.746511 21.888031 
L 172.473322 21.597377 
L 173.926946 20.659225 
L 174.653758 20.431343 
L 175.38057 20.543261 
L 176.107382 20.981744 
L 177.561006 22.19936 
L 178.287818 22.517842 
L 179.01463 22.38902 
L 179.741442 21.762807 
L 181.195066 19.549844 
L 181.921878 18.496959 
L 182.64869 17.868023 
L 183.375502 17.851174 
L 184.102314 18.479685 
L 184.829126 19.619331 
L 186.28275 22.319685 
L 187.009562 23.279902 
L 187.736374 23.710258 
L 188.463186 23.581372 
L 189.189998 22.998094 
L 191.370434 20.466255 
L 192.097246 19.880587 
L 192.824058 19.505233 
L 193.55087 19.301052 
L 195.004494 19.237724 
L 195.731306 19.361307 
L 196.458118 19.612466 
L 197.911742 20.467643 
L 198.638554 20.931319 
L 199.365366 21.256034 
L 200.092178 21.321664 
L 200.81899 21.074361 
L 202.999426 19.402059 
L 203.726238 19.182661 
L 204.45305 19.402306 
L 205.179862 20.049916 
L 206.633486 21.874802 
L 207.360298 22.477083 
L 208.08711 22.53631 
L 208.813922 21.963039 
L 209.540734 20.850642 
L 210.994358 18.130233 
L 211.72117 17.215962 
L 212.447982 16.959394 
L 213.174794 17.439827 
L 213.901606 18.553919 
L 216.082042 22.8749 
L 216.808854 23.62838 
L 217.535666 23.74085 
L 218.262478 23.232617 
L 218.98929 22.246422 
L 221.169726 18.736128 
L 221.896538 18.109674 
L 222.62335 17.960134 
L 223.350162 18.275293 
L 224.076974 18.953876 
L 225.530598 20.705071 
L 226.25741 21.400528 
L 226.984222 21.791187 
L 227.711034 21.842685 
L 228.078066 21.729471 
L 228.078066 21.729471 
" clip-path="url(#pe7ef4d0e30)" style="fill: none; stroke: #e6f598; stroke-width: 1.2; stroke-linecap: round"/>
   </g>
   <g id="line2d_28">
    <path d="M 30.744984 11.322569 
L 31.471796 12.791867 
L 32.198608 16.91386 
L 33.652232 29.6665 
L 34.379044 36.064273 
L 35.105856 41.159888 
L 35.832668 44.397032 
L 36.55948 45.665094 
L 37.286292 45.238848 
L 38.013104 43.6385 
L 40.19354 37.069614 
L 41.647164 33.751582 
L 44.554412 28.249328 
L 45.281224 27.094983 
L 46.008036 26.249495 
L 46.734848 25.813795 
L 47.46166 25.825929 
L 48.188472 26.256937 
L 48.915284 27.027781 
L 50.368908 29.192115 
L 54.72978 36.369469 
L 55.456592 37.274269 
L 56.183404 37.967052 
L 56.910216 38.4011 
L 57.637028 38.548518 
L 58.36384 38.404921 
L 59.090652 37.989361 
L 59.817464 37.338557 
L 61.271088 35.522563 
L 63.451524 32.15364 
L 65.63196 28.772611 
L 66.358772 27.845307 
L 67.085584 27.14281 
L 67.812396 26.757016 
L 68.539208 26.774894 
L 69.26602 27.26192 
L 69.992832 28.245723 
L 70.719644 29.709372 
L 71.446456 31.590323 
L 72.90008 36.164905 
L 74.353704 40.86635 
L 75.080516 42.860956 
L 75.807328 44.388243 
L 76.53414 45.272665 
L 77.260952 45.346796 
L 77.987764 44.472566 
L 78.714576 42.572613 
L 79.441388 39.663654 
L 80.1682 35.886243 
L 82.348636 22.753972 
L 83.075448 19.391464 
L 83.80226 17.374257 
L 84.529072 17.056854 
L 85.255884 18.591386 
L 85.982696 21.881164 
L 86.709508 26.575344 
L 88.889944 42.849253 
L 89.616756 46.680768 
L 90.343568 48.82748 
L 91.07038 49.11757 
L 91.797192 47.67815 
L 92.524004 44.904419 
L 94.70444 34.578895 
L 95.431252 32.293852 
L 96.158064 31.048282 
L 96.884876 30.750118 
L 97.611688 31.107621 
L 99.065312 32.220135 
L 99.792123 32.330776 
L 100.518935 31.978931 
L 102.699371 29.992137 
L 103.426183 30.01527 
L 104.152995 30.742271 
L 104.879807 32.161991 
L 107.787055 39.870744 
L 108.513867 40.902391 
L 109.240679 41.317705 
L 109.967491 41.204774 
L 110.694303 40.728084 
L 114.328363 37.550733 
L 115.781987 36.259954 
L 117.235611 34.62436 
L 120.869671 29.944335 
L 121.596483 29.298882 
L 122.323295 29.016148 
L 123.050107 29.267473 
L 123.776919 30.199609 
L 124.503731 31.882661 
L 125.230543 34.269677 
L 128.137791 45.685734 
L 128.864603 47.263139 
L 129.591415 47.800661 
L 130.318227 47.242541 
L 131.045039 45.65826 
L 131.771851 43.207398 
L 133.225475 36.568415 
L 135.405911 25.933854 
L 136.132723 23.323364 
L 136.859535 21.698882 
L 137.586347 21.33527 
L 138.313159 22.401282 
L 139.039971 24.899722 
L 139.766783 28.629153 
L 141.947219 42.473421 
L 142.674031 45.996821 
L 143.400843 48.141537 
L 144.127655 48.691723 
L 144.854467 47.687776 
L 145.581279 45.408104 
L 148.488527 33.399311 
L 149.215339 31.928374 
L 149.942151 31.464459 
L 150.668963 31.861794 
L 152.849399 34.802239 
L 153.576211 35.138391 
L 154.303023 34.789645 
L 155.029835 33.808138 
L 156.483459 31.032268 
L 157.210271 30.018111 
L 157.937083 29.741491 
L 158.663895 30.404486 
L 159.390707 32.007437 
L 160.117519 34.348672 
L 161.571143 39.744102 
L 162.297955 41.964542 
L 163.024767 43.436415 
L 163.751579 44.023502 
L 164.478391 43.756475 
L 165.205203 42.801985 
L 166.658827 39.81808 
L 168.112451 36.853518 
L 169.566075 34.670835 
L 171.019699 33.076659 
L 172.473322 31.776954 
L 173.200134 31.283249 
L 173.926946 30.983682 
L 174.653758 30.961303 
L 175.38057 31.284525 
L 176.107382 31.988267 
L 176.834194 33.063116 
L 178.287818 36.064019 
L 180.468254 41.107042 
L 181.195066 42.511343 
L 181.921878 43.631786 
L 182.64869 44.380898 
L 183.375502 44.656046 
L 184.102314 44.34139 
L 184.829126 43.32487 
L 185.555938 41.533482 
L 186.28275 38.977629 
L 187.736374 32.244302 
L 189.189998 25.712335 
L 189.91681 23.639335 
L 190.643622 22.860649 
L 191.370434 23.547985 
L 192.097246 25.653602 
L 192.824058 28.912814 
L 195.004494 40.903889 
L 195.731306 43.960839 
L 196.458118 45.921164 
L 197.18493 46.632287 
L 197.911742 46.104324 
L 198.638554 44.489676 
L 199.365366 42.057211 
L 201.545802 33.525178 
L 202.272614 31.54085 
L 202.999426 30.475688 
L 203.726238 30.43142 
L 204.45305 31.333826 
L 205.179862 32.932352 
L 206.633486 36.60667 
L 207.360298 37.813167 
L 208.08711 38.166917 
L 208.813922 37.570376 
L 209.540734 36.147716 
L 211.72117 30.679917 
L 212.447982 29.93873 
L 213.174794 30.253346 
L 213.901606 31.650028 
L 214.628418 33.94491 
L 216.808854 42.273323 
L 217.535666 44.076267 
L 218.262478 44.872498 
L 218.98929 44.588351 
L 219.716102 43.326625 
L 220.442914 41.336959 
L 222.62335 34.438409 
L 223.350162 32.806159 
L 224.076974 31.731097 
L 224.803786 31.155252 
L 225.530598 30.934028 
L 226.984222 30.913387 
L 228.078066 31.010651 
L 228.078066 31.010651 
" clip-path="url(#pe7ef4d0e30)" style="fill: none; stroke: #fee08b; stroke-width: 1.2; stroke-linecap: round"/>
   </g>
   <g id="line2d_29">
    <path d="M 30.744984 11.322624 
L 31.471796 13.058028 
L 32.198608 17.982955 
L 32.92542 25.316881 
L 35.105856 50.497663 
L 35.832668 56.64064 
L 36.55948 60.824668 
L 37.286292 63.147574 
L 38.013104 64.003156 
L 38.739916 63.926927 
L 40.19354 62.940696 
L 40.920352 62.61898 
L 43.100788 62.172907 
L 43.8276 61.611126 
L 44.554412 60.598854 
L 45.281224 59.117199 
L 46.734848 55.124066 
L 48.188472 50.865217 
L 49.642096 47.484521 
L 50.368908 46.239174 
L 51.822532 44.355641 
L 54.002968 41.769097 
L 55.456592 39.989422 
L 56.183404 39.285212 
L 56.910216 38.8301 
L 57.637028 38.689129 
L 58.36384 38.885518 
L 59.090652 39.400648 
L 59.817464 40.18527 
L 61.271088 42.32365 
L 62.724712 44.944785 
L 64.178336 47.954537 
L 66.358772 53.092932 
L 68.539208 58.306214 
L 69.992832 61.403149 
L 71.446456 63.965067 
L 72.173268 64.935244 
L 72.90008 65.592162 
L 73.626892 65.822964 
L 74.353704 65.494192 
L 75.080516 64.467549 
L 75.807328 62.618166 
L 76.53414 59.859887 
L 77.260952 56.168778 
L 77.987764 51.604709 
L 79.441388 40.585383 
L 80.895012 29.167881 
L 81.621824 24.331543 
L 82.348636 20.642211 
L 83.075448 18.460445 
L 83.80226 18.047849 
L 84.529072 19.532179 
L 85.255884 22.886842 
L 85.982696 27.920477 
L 87.43632 41.500912 
L 88.889944 56.178776 
L 89.616756 62.475133 
L 90.343568 67.428767 
L 91.07038 70.742383 
L 91.797192 72.317458 
L 92.524004 72.259347 
L 93.250816 70.850127 
L 93.977628 68.489797 
L 96.158064 59.939524 
L 96.884876 57.632087 
L 97.611688 55.803751 
L 98.3385 54.405037 
L 99.792123 52.426579 
L 103.426183 48.214433 
L 104.879807 46.335126 
L 106.333431 44.118182 
L 108.513867 40.445328 
L 109.240679 39.536522 
L 109.967491 39.023593 
L 110.694303 39.006488 
L 111.421115 39.510956 
L 112.147927 40.476875 
L 113.601551 43.217268 
L 115.055175 45.969346 
L 117.962423 50.64133 
L 118.689235 52.268599 
L 119.416047 54.271351 
L 120.869671 59.17943 
L 122.323295 64.163782 
L 123.050107 66.15164 
L 123.776919 67.562268 
L 124.503731 68.283125 
L 125.230543 68.263113 
L 125.957355 67.5012 
L 126.684167 66.033013 
L 127.410979 63.916643 
L 128.137791 61.220926 
L 129.591415 54.391075 
L 131.045039 46.163409 
L 133.952287 28.645628 
L 134.679099 25.019154 
L 135.405911 22.250334 
L 136.132723 20.696664 
L 136.859535 20.697425 
L 137.586347 22.504937 
L 138.313159 26.213254 
L 139.039971 31.704954 
L 140.493595 46.440022 
L 141.947219 61.886162 
L 142.674031 68.128504 
L 143.400843 72.665662 
L 144.127655 75.231534 
L 144.854467 75.813455 
L 145.581279 74.631572 
L 146.308091 72.082361 
L 147.761715 64.891768 
L 149.215339 58.036095 
L 149.942151 55.519168 
L 150.668963 53.742219 
L 151.395775 52.630591 
L 152.122587 52.00725 
L 154.303023 50.804205 
L 155.029835 50.055018 
L 156.483459 47.881478 
L 157.937083 45.574588 
L 158.663895 44.683974 
L 159.390707 44.044539 
L 160.117519 43.632056 
L 161.571143 43.188181 
L 163.751579 42.71129 
L 164.478391 42.725224 
L 165.205203 42.983698 
L 165.932015 43.56987 
L 166.658827 44.518814 
L 167.385639 45.804792 
L 168.839263 49.049493 
L 171.746511 55.807696 
L 173.926946 61.01126 
L 176.107382 66.797498 
L 176.834194 68.344229 
L 177.561006 69.343635 
L 178.287818 69.574356 
L 179.01463 68.863604 
L 179.741442 67.121744 
L 180.468254 64.36276 
L 181.195066 60.704411 
L 182.64869 51.549063 
L 184.829126 36.996192 
L 186.28275 29.14711 
L 187.009562 26.257375 
L 187.736374 24.284303 
L 188.463186 23.421328 
L 189.189998 23.855767 
L 189.91681 25.727552 
L 190.643622 29.081661 
L 191.370434 33.828827 
L 192.824058 46.391935 
L 194.277682 60.041971 
L 195.004494 65.99673 
L 195.731306 70.784806 
L 196.458118 74.114657 
L 197.18493 75.844673 
L 197.911742 75.986421 
L 198.638554 74.692 
L 199.365366 72.231649 
L 200.81899 65.283016 
L 202.272614 58.283736 
L 202.999426 55.589571 
L 203.726238 53.659798 
L 204.45305 52.487682 
L 205.179862 51.930648 
L 207.360298 51.408026 
L 208.08711 50.822077 
L 208.813922 49.846454 
L 210.267546 47.091769 
L 210.994358 45.687692 
L 211.72117 44.539489 
L 212.447982 43.793498 
L 213.174794 43.508809 
L 213.901606 43.652171 
L 214.628418 44.118379 
L 217.535666 46.578503 
L 218.98929 47.472926 
L 219.716102 48.063324 
L 220.442914 48.914861 
L 221.169726 50.123267 
L 221.896538 51.726011 
L 223.350162 55.906045 
L 224.803786 60.441343 
L 225.530598 62.408593 
L 226.25741 64.003546 
L 226.984222 65.186343 
L 228.078066 66.272331 
L 228.078066 66.272331 
" clip-path="url(#pe7ef4d0e30)" style="fill: none; stroke: #f46d43; stroke-width: 1.2; stroke-linecap: round"/>
   </g>
   <g id="line2d_30">
    <path d="M 30.744984 11.322686 
L 31.471796 13.074798 
L 32.198608 18.102554 
L 32.92542 25.764726 
L 35.832668 63.464339 
L 36.55948 70.513673 
L 37.286292 75.870412 
L 38.013104 79.689488 
L 38.739916 82.330708 
L 40.19354 85.903193 
L 40.920352 87.646393 
L 41.647164 89.70011 
L 43.100788 94.840535 
L 44.554412 100.351893 
L 45.281224 102.684068 
L 46.008036 104.483103 
L 46.734848 105.664008 
L 47.46166 106.245764 
L 48.188472 106.345375 
L 50.368908 105.745137 
L 51.09572 105.893105 
L 51.822532 106.396928 
L 52.549344 107.23689 
L 55.456592 111.349758 
L 56.183404 111.803392 
L 56.910216 111.847744 
L 57.637028 111.501563 
L 58.36384 110.839942 
L 61.271088 107.349449 
L 61.9979 106.733474 
L 63.451524 105.932052 
L 64.905148 105.251649 
L 65.63196 104.733251 
L 66.358772 103.992851 
L 67.085584 102.98236 
L 67.812396 101.681654 
L 68.539208 100.094322 
L 69.992832 96.141092 
L 71.446456 91.288567 
L 72.90008 85.578984 
L 74.353704 78.886664 
L 75.807328 70.989583 
L 77.260952 61.693392 
L 79.441388 45.38289 
L 81.621824 29.075329 
L 82.348636 24.765858 
L 83.075448 21.557005 
L 83.80226 19.768106 
L 84.529072 19.663691 
L 85.255884 21.414764 
L 85.982696 25.064098 
L 86.709508 30.506008 
L 87.43632 37.484125 
L 88.889944 54.404675 
L 90.343568 71.941195 
L 91.797192 86.511946 
L 92.524004 92.020385 
L 93.250816 96.261076 
L 93.977628 99.319586 
L 94.70444 101.359708 
L 95.431252 102.581534 
L 96.158064 103.185115 
L 96.884876 103.345227 
L 97.611688 103.201491 
L 99.065312 102.411788 
L 100.518935 101.514667 
L 101.245747 101.242334 
L 101.972559 101.204523 
L 102.699371 101.46948 
L 103.426183 102.071139 
L 104.152995 102.997123 
L 105.606619 105.533912 
L 107.060243 108.196716 
L 107.787055 109.271148 
L 108.513867 110.061204 
L 109.240679 110.530744 
L 109.967491 110.680254 
L 110.694303 110.536057 
L 111.421115 110.136995 
L 112.147927 109.52359 
L 113.601551 107.793459 
L 115.781987 104.453718 
L 117.962423 101.178454 
L 120.142859 98.218719 
L 120.869671 97.051959 
L 121.596483 95.655108 
L 122.323295 93.957295 
L 123.050107 91.911702 
L 124.503731 86.708037 
L 125.957355 80.055175 
L 127.410979 72.063591 
L 129.591415 58.060734 
L 132.498663 38.635877 
L 133.952287 30.487901 
L 134.679099 27.255555 
L 135.405911 24.807231 
L 136.132723 23.336255 
L 136.859535 23.038512 
L 137.586347 24.084986 
L 138.313159 26.589033 
L 139.039971 30.574204 
L 139.766783 35.954227 
L 141.220407 49.992101 
L 144.127655 81.089127 
L 144.854467 87.438019 
L 145.581279 92.78599 
L 146.308091 97.094583 
L 147.034903 100.417922 
L 147.761715 102.880309 
L 148.488527 104.644633 
L 149.215339 105.880117 
L 149.942151 106.731859 
L 150.668963 107.299095 
L 151.395775 107.625166 
L 152.122587 107.702394 
L 152.849399 107.491088 
L 153.576211 106.947863 
L 154.303023 106.057755 
L 155.756647 103.462465 
L 157.210271 100.795477 
L 157.937083 99.959334 
L 158.663895 99.711344 
L 159.390707 100.159646 
L 160.117519 101.311957 
L 160.844331 103.065505 
L 163.024767 109.631555 
L 163.751579 111.309777 
L 164.478391 112.317694 
L 165.205203 112.515752 
L 165.932015 111.865893 
L 166.658827 110.433291 
L 167.385639 108.37193 
L 170.292887 98.521866 
L 171.019699 96.740253 
L 171.746511 95.450038 
L 172.473322 94.598219 
L 174.653758 92.880583 
L 175.38057 91.762644 
L 176.107382 89.976956 
L 176.834194 87.374709 
L 177.561006 83.903248 
L 179.01463 74.66588 
L 181.921878 53.25526 
L 183.375502 44.777684 
L 184.829126 38.57669 
L 186.28275 33.904574 
L 187.736374 30.154675 
L 188.463186 28.752101 
L 189.189998 27.906751 
L 189.91681 27.869426 
L 190.643622 28.891701 
L 191.370434 31.175959 
L 192.097246 34.832531 
L 192.824058 39.852912 
L 193.55087 46.10379 
L 195.004494 61.229989 
L 197.18493 85.005947 
L 198.638554 97.492233 
L 199.365366 102.036318 
L 200.092178 105.361918 
L 200.81899 107.533486 
L 201.545802 108.704079 
L 202.272614 109.089972 
L 202.999426 108.935499 
L 204.45305 107.89469 
L 206.633486 106.286572 
L 208.08711 105.156889 
L 209.540734 103.591464 
L 210.994358 101.829476 
L 211.72117 101.115338 
L 212.447982 100.663941 
L 213.174794 100.564625 
L 213.901606 100.866177 
L 214.628418 101.568352 
L 215.35523 102.618599 
L 218.262478 107.758154 
L 218.98929 108.441725 
L 219.716102 108.565355 
L 220.442914 108.030926 
L 221.169726 106.80279 
L 221.896538 104.915322 
L 222.62335 102.470476 
L 224.803786 93.506399 
L 226.25741 87.985858 
L 227.711034 83.777841 
L 228.078066 82.919322 
L 228.078066 82.919322 
" clip-path="url(#pe7ef4d0e30)" style="fill: none; stroke: #9e0142; stroke-width: 1.2; stroke-linecap: round"/>
   </g>
   <g id="line2d_31">
    <path d="M 0 0 
" clip-path="url(#pe7ef4d0e30)" style="fill: none; stroke: #5e4fa2; stroke-width: 1.2; stroke-linecap: round"/>
   </g>
   <g id="line2d_32">
    <path d="M 0 0 
" clip-path="url(#pe7ef4d0e30)" style="fill: none; stroke: #66c2a5; stroke-width: 1.2; stroke-linecap: round"/>
   </g>
   <g id="line2d_33">
    <path d="M 0 0 
" clip-path="url(#pe7ef4d0e30)" style="fill: none; stroke: #e6f598; stroke-width: 1.2; stroke-linecap: round"/>
   </g>
   <g id="line2d_34">
    <path d="M 0 0 
" clip-path="url(#pe7ef4d0e30)" style="fill: none; stroke: #fee08b; stroke-width: 1.2; stroke-linecap: round"/>
   </g>
   <g id="line2d_35">
    <path d="M 0 0 
" clip-path="url(#pe7ef4d0e30)" style="fill: none; stroke: #f46d43; stroke-width: 1.2; stroke-linecap: round"/>
   </g>
   <g id="line2d_36">
    <path d="M 0 0 
" clip-path="url(#pe7ef4d0e30)" style="fill: none; stroke: #9e0142; stroke-width: 1.2; stroke-linecap: round"/>
   </g>
   <g id="patch_3">
    <path d="M 30.744984 117.350791 
L 30.744984 0.72 
" style="fill: none; stroke: #000000; stroke-width: 0.35; stroke-linejoin: miter; stroke-linecap: square"/>
   </g>
   <g id="patch_4">
    <path d="M 187.596696 117.350791 
L 187.596696 0.72 
" style="fill: none; stroke: #000000; stroke-width: 0.35; stroke-linejoin: miter; stroke-linecap: square"/>
   </g>
   <g id="patch_5">
    <path d="M 30.744984 117.350791 
L 187.596696 117.350791 
" style="fill: none; stroke: #000000; stroke-width: 0.35; stroke-linejoin: miter; stroke-linecap: square"/>
   </g>
   <g id="patch_6">
    <path d="M 30.744984 0.72 
L 187.596696 0.72 
" style="fill: none; stroke: #000000; stroke-width: 0.35; stroke-linejoin: miter; stroke-linecap: square"/>
   </g>
  </g>
  <g id="axes_2">
   <g id="patch_7">
    <path d="M 197.399928 117.350791 
L 203.231468 117.350791 
L 203.231468 0.72 
L 197.399928 0.72 
L 197.399928 117.350791 
z
" style="fill: none"/>
   </g>
   <g id="patch_8">
    <path clip-path="url(#p89d707029a)" style="fill: #ffffff; stroke: #ffffff; stroke-width: 0.01; stroke-linejoin: miter"/>
   </g>
   <g id="QuadMesh_1">
    <path d="M 197.399928 117.350791 
L 203.231468 117.350791 
L 203.231468 97.912326 
L 197.399928 97.912326 
L 197.399928 117.350791 
" clip-path="url(#p89d707029a)" style="fill: #5e4fa2"/>
    <path d="M 197.399928 97.912326 
L 203.231468 97.912326 
L 203.231468 78.473861 
L 197.399928 78.473861 
L 197.399928 97.912326 
" clip-path="url(#p89d707029a)" style="fill: #66c2a5"/>
    <path d="M 197.399928 78.473861 
L 203.231468 78.473861 
L 203.231468 59.035396 
L 197.399928 59.035396 
L 197.399928 78.473861 
" clip-path="url(#p89d707029a)" style="fill: #e6f598"/>
    <path d="M 197.399928 59.035396 
L 203.231468 59.035396 
L 203.231468 39.59693 
L 197.399928 39.59693 
L 197.399928 59.035396 
" clip-path="url(#p89d707029a)" style="fill: #fee08b"/>
    <path d="M 197.399928 39.59693 
L 203.231468 39.59693 
L 203.231468 20.158465 
L 197.399928 20.158465 
L 197.399928 39.59693 
" clip-path="url(#p89d707029a)" style="fill: #f46d43"/>
    <path d="M 197.399928 20.158465 
L 203.231468 20.158465 
L 203.231468 0.72 
L 197.399928 0.72 
L 197.399928 20.158465 
" clip-path="url(#p89d707029a)" style="fill: #9e0142"/>
   </g>
   <g id="matplotlib.axis_3">
    <g id="ytick_6">
     <g id="line2d_37">
      <defs>
       <path id="m898e160d6d" d="M 0 0 
L 2 0 
" style="stroke: #000000; stroke-width: 0.35"/>
      </defs>
      <g>
       <use xlink:href="#m898e160d6d" x="203.231468" y="107.260311" style="stroke: #000000; stroke-width: 0.35"/>
      </g>
     </g>
     <g id="text_15">
      <!-- $\frac{\pi}{\bar{L}}$ -->
      <g transform="translate(208.231468 110.176363)scale(0.08 -0.08)">
       <defs>
        <path id="CMMI12-19" d="M 1658 2406 
L 2381 2406 
C 2208 1691 2099 1225 2099 715 
C 2099 625 2099 -64 2362 -64 
C 2496 -64 2611 57 2611 166 
C 2611 198 2611 210 2566 306 
C 2394 746 2394 1295 2394 1340 
C 2394 1378 2394 1832 2528 2406 
L 3245 2406 
C 3328 2406 3539 2406 3539 2611 
C 3539 2752 3418 2752 3302 2752 
L 1197 2752 
C 1050 2752 832 2752 538 2438 
C 371 2253 166 1915 166 1876 
C 166 1838 198 1825 237 1825 
C 282 1825 288 1844 320 1883 
C 653 2406 986 2406 1146 2406 
L 1510 2406 
C 1370 1927 1210 1372 685 255 
C 634 153 634 140 634 102 
C 634 -32 749 -64 806 -64 
C 992 -64 1043 102 1120 370 
C 1222 695 1222 708 1286 964 
L 1658 2406 
z
" transform="scale(0.015625)"/>
        <path id="CMR17-16" d="M 2554 3520 
L 2554 3667 
L 378 3667 
L 378 3520 
L 2554 3520 
z
" transform="scale(0.015625)"/>
       </defs>
       <use xlink:href="#CMMI12-19" transform="translate(2.611104 39.226102)scale(0.697382)"/>
       <use xlink:href="#CMR17-16" transform="translate(9.134903 -20.092089)scale(0.697382)"/>
       <use xlink:href="#CMMI12-4c" transform="translate(0 -37.724819)scale(0.697382)"/>
       <path d="M 0 22.914133 
L 46.459414 22.914133 
L 46.459414 26.899083 
L 0 26.899083 
L 0 22.914133 
z
"/>
      </g>
     </g>
    </g>
    <g id="ytick_7">
     <g id="line2d_38">
      <g>
       <use xlink:href="#m898e160d6d" x="203.231468" y="87.821846" style="stroke: #000000; stroke-width: 0.35"/>
      </g>
     </g>
     <g id="text_16">
      <!-- $\frac{3\pi}{\bar{L}}$ -->
      <g transform="translate(208.231468 91.377171)scale(0.08 -0.08)">
       <use xlink:href="#CMR17-33" transform="translate(0 39.226102)scale(0.697382)"/>
       <use xlink:href="#CMMI12-19" transform="translate(31.983182 39.226102)scale(0.697382)"/>
       <use xlink:href="#CMR17-16" transform="translate(22.515405 -20.092089)scale(0.697382)"/>
       <use xlink:href="#CMMI12-4c" transform="translate(13.380502 -37.724819)scale(0.697382)"/>
       <path d="M 0 22.914133 
L 73.220403 22.914133 
L 73.220403 26.899083 
L 0 26.899083 
L 0 22.914133 
z
"/>
      </g>
     </g>
    </g>
    <g id="ytick_8">
     <g id="line2d_39">
      <g>
       <use xlink:href="#m898e160d6d" x="203.231468" y="68.383381" style="stroke: #000000; stroke-width: 0.35"/>
      </g>
     </g>
     <g id="text_17">
      <!-- $\frac{5\pi}{\bar{L}}$ -->
      <g transform="translate(208.231468 71.938705)scale(0.08 -0.08)">
       <use xlink:href="#CMR17-35" transform="translate(0 39.226102)scale(0.697382)"/>
       <use xlink:href="#CMMI12-19" transform="translate(31.983182 39.226102)scale(0.697382)"/>
       <use xlink:href="#CMR17-16" transform="translate(22.515405 -20.092089)scale(0.697382)"/>
       <use xlink:href="#CMMI12-4c" transform="translate(13.380502 -37.724819)scale(0.697382)"/>
       <path d="M 0 22.914133 
L 73.220403 22.914133 
L 73.220403 26.899083 
L 0 26.899083 
L 0 22.914133 
z
"/>
      </g>
     </g>
    </g>
    <g id="ytick_9">
     <g id="line2d_40">
      <g>
       <use xlink:href="#m898e160d6d" x="203.231468" y="48.944916" style="stroke: #000000; stroke-width: 0.35"/>
      </g>
     </g>
     <g id="text_18">
      <!-- $\frac{7\pi}{\bar{L}}$ -->
      <g transform="translate(208.231468 52.50024)scale(0.08 -0.08)">
       <use xlink:href="#CMR17-37" transform="translate(0 39.226102)scale(0.697382)"/>
       <use xlink:href="#CMMI12-19" transform="translate(31.983182 39.226102)scale(0.697382)"/>
       <use xlink:href="#CMR17-16" transform="translate(22.515405 -20.092089)scale(0.697382)"/>
       <use xlink:href="#CMMI12-4c" transform="translate(13.380502 -37.724819)scale(0.697382)"/>
       <path d="M 0 22.914133 
L 73.220403 22.914133 
L 73.220403 26.899083 
L 0 26.899083 
L 0 22.914133 
z
"/>
      </g>
     </g>
    </g>
    <g id="ytick_10">
     <g id="line2d_41">
      <g>
       <use xlink:href="#m898e160d6d" x="203.231468" y="29.50645" style="stroke: #000000; stroke-width: 0.35"/>
      </g>
     </g>
     <g id="text_19">
      <!-- $\frac{9\pi}{\bar{L}}$ -->
      <g transform="translate(208.231468 33.061775)scale(0.08 -0.08)">
       <use xlink:href="#CMR17-39" transform="translate(0 39.226102)scale(0.697382)"/>
       <use xlink:href="#CMMI12-19" transform="translate(31.983182 39.226102)scale(0.697382)"/>
       <use xlink:href="#CMR17-16" transform="translate(22.515405 -20.092089)scale(0.697382)"/>
       <use xlink:href="#CMMI12-4c" transform="translate(13.380502 -37.724819)scale(0.697382)"/>
       <path d="M 0 22.914133 
L 73.220403 22.914133 
L 73.220403 26.899083 
L 0 26.899083 
L 0 22.914133 
z
"/>
      </g>
     </g>
    </g>
    <g id="ytick_11">
     <g id="line2d_42">
      <g>
       <use xlink:href="#m898e160d6d" x="203.231468" y="10.067985" style="stroke: #000000; stroke-width: 0.35"/>
      </g>
     </g>
     <g id="text_20">
      <!-- $k_F$ -->
      <g transform="translate(208.231468 12.835386)scale(0.08 -0.08)">
       <defs>
        <path id="CMMI12-6b" d="M 1798 4255 
C 1805 4281 1818 4319 1818 4351 
C 1818 4416 1754 4416 1741 4416 
C 1734 4416 1504 4396 1389 4383 
C 1280 4377 1184 4364 1069 4358 
C 915 4345 870 4339 870 4223 
C 870 4159 934 4159 998 4159 
C 1325 4159 1325 4103 1325 4040 
C 1325 4014 1325 4002 1293 3888 
L 378 250 
C 352 153 352 141 352 102 
C 352 -39 461 -64 525 -64 
C 704 -64 742 76 794 275 
L 1094 1476 
C 1555 1425 1830 1232 1830 924 
C 1830 885 1830 860 1811 763 
C 1786 667 1786 590 1786 558 
C 1786 185 2029 -64 2355 -64 
C 2650 -64 2803 205 2854 295 
C 2989 532 3072 892 3072 917 
C 3072 949 3046 975 3008 975 
C 2950 975 2944 949 2918 847 
C 2829 513 2694 64 2368 64 
C 2240 64 2157 128 2157 372 
C 2157 494 2182 635 2208 731 
C 2234 847 2234 853 2234 930 
C 2234 1309 1894 1521 1306 1598 
C 1536 1739 1766 1989 1856 2086 
C 2221 2495 2470 2687 2765 2687 
C 2912 2687 2950 2655 2995 2624 
C 2758 2598 2669 2431 2669 2303 
C 2669 2150 2790 2099 2880 2099 
C 3053 2099 3206 2246 3206 2451 
C 3206 2634 3059 2816 2771 2816 
C 2419 2816 2131 2579 1677 2067 
C 1613 1989 1376 1746 1139 1656 
L 1798 4255 
z
" transform="scale(0.015625)"/>
        <path id="CMMI12-46" d="M 1901 2054 
L 2515 2054 
C 3002 2054 3040 1947 3040 1764 
C 3040 1683 3027 1595 2995 1456 
C 2982 1431 2976 1399 2976 1387 
C 2976 1343 3002 1318 3046 1318 
C 3098 1318 3104 1343 3130 1444 
L 3501 2929 
C 3501 2955 3482 2993 3437 2993 
C 3379 2993 3373 2968 3347 2858 
C 3213 2375 3085 2240 2528 2240 
L 1946 2240 
L 2362 3908 
C 2419 4134 2432 4153 2694 4153 
L 3552 4153 
C 4352 4153 4467 3915 4467 3457 
C 4467 3419 4467 3277 4448 3109 
C 4442 3084 4429 3000 4429 2974 
C 4429 2922 4461 2903 4499 2903 
C 4544 2903 4570 2929 4582 3045 
L 4717 4172 
C 4717 4191 4730 4255 4730 4268 
C 4730 4339 4672 4339 4557 4339 
L 1523 4339 
C 1402 4339 1338 4339 1338 4223 
C 1338 4153 1382 4153 1491 4153 
C 1888 4153 1888 4108 1888 4037 
C 1888 4005 1882 3979 1862 3908 
L 998 468 
C 941 248 928 185 480 185 
C 358 185 294 185 294 70 
C 294 0 352 0 390 0 
C 512 0 640 12 762 12 
L 1594 12 
C 1734 12 1888 0 2029 0 
C 2086 0 2163 0 2163 115 
C 2163 185 2125 185 1984 185 
C 1478 185 1466 229 1466 324 
C 1466 355 1478 405 1491 449 
L 1901 2054 
z
" transform="scale(0.015625)"/>
       </defs>
       <use xlink:href="#CMMI12-6b" transform="scale(0.996264)"/>
       <use xlink:href="#CMMI12-46" transform="translate(50.735189 -14.943915)scale(0.697382)"/>
      </g>
     </g>
    </g>
    <g id="text_21">
     <!-- $q$ -->
     <g transform="translate(224.80832 60.92579)rotate(-90)scale(0.08 -0.08)">
      <use xlink:href="#CMMI12-71" transform="scale(0.996264)"/>
     </g>
    </g>
   </g>
   <g id="LineCollection_1"/>
   <g id="patch_9">
    <path d="M 197.399928 117.350791 
L 200.315698 117.350791 
L 203.231468 117.350791 
L 203.231468 0.72 
L 200.315698 0.72 
L 197.399928 0.72 
L 197.399928 117.350791 
z
" style="fill: none; stroke: #000000; stroke-width: 0.35; stroke-linejoin: miter; stroke-linecap: square"/>
   </g>
  </g>
 </g>
 <defs>
  <clipPath id="pe7ef4d0e30">
   <rect x="30.744984" y="0.72" width="156.851712" height="116.630791"/>
  </clipPath>
  <clipPath id="p89d707029a">
   <rect x="197.399928" y="0.72" width="5.83154" height="116.630791"/>
  </clipPath>
 </defs>
</svg>
