<?xml version="1.0" encoding="utf-8" standalone="no"?>
<!DOCTYPE svg PUBLIC "-//W3C//DTD SVG 1.1//EN"
  "http://www.w3.org/Graphics/SVG/1.1/DTD/svg11.dtd">
<svg xmlns:xlink="http://www.w3.org/1999/xlink" width="223.295442pt" height="139.239886pt" viewBox="0 0 223.295442 139.239886" xmlns="http://www.w3.org/2000/svg" version="1.1">
 <metadata>
  <rdf:RDF xmlns:dc="http://purl.org/dc/elements/1.1/" xmlns:cc="http://creativecommons.org/ns#" xmlns:rdf="http://www.w3.org/1999/02/22-rdf-syntax-ns#">
   <cc:Work>
    <dc:type rdf:resource="http://purl.org/dc/dcmitype/StillImage"/>
    <dc:date>2022-06-18T11:35:30.560967</dc:date>
    <dc:format>image/svg+xml</dc:format>
    <dc:creator>
     <cc:Agent>
      <dc:title>Matplotlib v3.5.1, https://matplotlib.org/</dc:title>
     </cc:Agent>
    </dc:creator>
   </cc:Work>
  </rdf:RDF>
 </metadata>
 <defs>
  <style type="text/css">*{stroke-linejoin: round; stroke-linecap: butt}</style>
 </defs>
 <g id="figure_1">
  <g id="patch_1">
   <path d="M 0 139.239886 
L 223.295442 139.239886 
L 223.295442 0 
L 0 0 
L 0 139.239886 
z
" style="fill: none"/>
  </g>
  <g id="axes_1">
   <g id="patch_2">
    <path d="M 26.510802 117.350791 
L 222.575442 117.350791 
L 222.575442 0.72 
L 26.510802 0.72 
L 26.510802 117.350791 
z
" style="fill: none"/>
   </g>
   <g id="matplotlib.axis_1">
    <g id="xtick_1">
     <g id="line2d_1">
      <defs>
       <path id="m0d50543800" d="M 0 0 
L 0 2 
" style="stroke: #000000; stroke-width: 0.35"/>
      </defs>
      <g>
       <use xlink:href="#m0d50543800" x="40.515419" y="117.350791" style="stroke: #000000; stroke-width: 0.35"/>
      </g>
     </g>
     <g id="text_1">
      <!-- $-6$ -->
      <g transform="translate(35.105074 127.885593)scale(0.08 -0.08)">
       <defs>
        <path id="CMSY10-0" d="M 4218 1472 
C 4326 1472 4442 1472 4442 1600 
C 4442 1728 4326 1728 4218 1728 
L 755 1728 
C 646 1728 531 1728 531 1600 
C 531 1472 646 1472 755 1472 
L 4218 1472 
z
" transform="scale(0.015625)"/>
        <path id="CMR17-36" d="M 678 2198 
C 678 3712 1395 4076 1811 4076 
C 1946 4076 2272 4049 2400 3782 
C 2298 3782 2106 3782 2106 3558 
C 2106 3385 2246 3328 2336 3328 
C 2394 3328 2566 3353 2566 3571 
C 2566 3987 2246 4224 1805 4224 
C 1043 4224 243 3411 243 2011 
C 243 257 966 -128 1478 -128 
C 2099 -128 2688 431 2688 1295 
C 2688 2101 2170 2688 1517 2688 
C 1126 2688 838 2430 678 1979 
L 678 2198 
z
M 1478 25 
C 691 25 691 1212 691 1450 
C 691 1914 909 2585 1504 2585 
C 1613 2585 1926 2585 2138 2140 
C 2253 1889 2253 1624 2253 1302 
C 2253 954 2253 696 2118 438 
C 1978 173 1773 25 1478 25 
z
" transform="scale(0.015625)"/>
       </defs>
       <use xlink:href="#CMSY10-0" transform="scale(0.996264)"/>
       <use xlink:href="#CMR17-36" transform="translate(77.487468 0)scale(0.996264)"/>
      </g>
     </g>
    </g>
    <g id="xtick_2">
     <g id="line2d_2">
      <g>
       <use xlink:href="#m0d50543800" x="68.524653" y="117.350791" style="stroke: #000000; stroke-width: 0.35"/>
      </g>
     </g>
     <g id="text_2">
      <!-- $-4$ -->
      <g transform="translate(63.114308 127.885593)scale(0.08 -0.08)">
       <defs>
        <path id="CMR17-34" d="M 2150 4147 
C 2150 4281 2144 4288 2029 4288 
L 128 1254 
L 128 1088 
L 1779 1088 
L 1779 460 
C 1779 230 1766 166 1318 166 
L 1197 166 
L 1197 0 
C 1402 12 1747 12 1965 12 
C 2182 12 2528 12 2733 0 
L 2733 166 
L 2611 166 
C 2163 166 2150 230 2150 460 
L 2150 1088 
L 2803 1088 
L 2803 1254 
L 2150 1254 
L 2150 4147 
z
M 1798 3723 
L 1798 1254 
L 256 1254 
L 1798 3723 
z
" transform="scale(0.015625)"/>
       </defs>
       <use xlink:href="#CMSY10-0" transform="scale(0.996264)"/>
       <use xlink:href="#CMR17-34" transform="translate(77.487468 0)scale(0.996264)"/>
      </g>
     </g>
    </g>
    <g id="xtick_3">
     <g id="line2d_3">
      <g>
       <use xlink:href="#m0d50543800" x="96.533887" y="117.350791" style="stroke: #000000; stroke-width: 0.35"/>
      </g>
     </g>
    </g>
    <g id="xtick_4">
     <g id="line2d_4">
      <g>
       <use xlink:href="#m0d50543800" x="102.54472" y="117.350791" style="stroke: #000000; stroke-width: 0.35"/>
      </g>
     </g>
     <g id="text_3">
      <!-- $-k_F$ -->
      <g transform="translate(94.730442 127.885593)scale(0.08 -0.08)">
       <defs>
        <path id="CMMI12-6b" d="M 1798 4255 
C 1805 4281 1818 4319 1818 4351 
C 1818 4416 1754 4416 1741 4416 
C 1734 4416 1504 4396 1389 4383 
C 1280 4377 1184 4364 1069 4358 
C 915 4345 870 4339 870 4223 
C 870 4159 934 4159 998 4159 
C 1325 4159 1325 4103 1325 4040 
C 1325 4014 1325 4002 1293 3888 
L 378 250 
C 352 153 352 141 352 102 
C 352 -39 461 -64 525 -64 
C 704 -64 742 76 794 275 
L 1094 1476 
C 1555 1425 1830 1232 1830 924 
C 1830 885 1830 860 1811 763 
C 1786 667 1786 590 1786 558 
C 1786 185 2029 -64 2355 -64 
C 2650 -64 2803 205 2854 295 
C 2989 532 3072 892 3072 917 
C 3072 949 3046 975 3008 975 
C 2950 975 2944 949 2918 847 
C 2829 513 2694 64 2368 64 
C 2240 64 2157 128 2157 372 
C 2157 494 2182 635 2208 731 
C 2234 847 2234 853 2234 930 
C 2234 1309 1894 1521 1306 1598 
C 1536 1739 1766 1989 1856 2086 
C 2221 2495 2470 2687 2765 2687 
C 2912 2687 2950 2655 2995 2624 
C 2758 2598 2669 2431 2669 2303 
C 2669 2150 2790 2099 2880 2099 
C 3053 2099 3206 2246 3206 2451 
C 3206 2634 3059 2816 2771 2816 
C 2419 2816 2131 2579 1677 2067 
C 1613 1989 1376 1746 1139 1656 
L 1798 4255 
z
" transform="scale(0.015625)"/>
        <path id="CMMI12-46" d="M 1901 2054 
L 2515 2054 
C 3002 2054 3040 1947 3040 1764 
C 3040 1683 3027 1595 2995 1456 
C 2982 1431 2976 1399 2976 1387 
C 2976 1343 3002 1318 3046 1318 
C 3098 1318 3104 1343 3130 1444 
L 3501 2929 
C 3501 2955 3482 2993 3437 2993 
C 3379 2993 3373 2968 3347 2858 
C 3213 2375 3085 2240 2528 2240 
L 1946 2240 
L 2362 3908 
C 2419 4134 2432 4153 2694 4153 
L 3552 4153 
C 4352 4153 4467 3915 4467 3457 
C 4467 3419 4467 3277 4448 3109 
C 4442 3084 4429 3000 4429 2974 
C 4429 2922 4461 2903 4499 2903 
C 4544 2903 4570 2929 4582 3045 
L 4717 4172 
C 4717 4191 4730 4255 4730 4268 
C 4730 4339 4672 4339 4557 4339 
L 1523 4339 
C 1402 4339 1338 4339 1338 4223 
C 1338 4153 1382 4153 1491 4153 
C 1888 4153 1888 4108 1888 4037 
C 1888 4005 1882 3979 1862 3908 
L 998 468 
C 941 248 928 185 480 185 
C 358 185 294 185 294 70 
C 294 0 352 0 390 0 
C 512 0 640 12 762 12 
L 1594 12 
C 1734 12 1888 0 2029 0 
C 2086 0 2163 0 2163 115 
C 2163 185 2125 185 1984 185 
C 1478 185 1466 229 1466 324 
C 1466 355 1478 405 1491 449 
L 1901 2054 
z
" transform="scale(0.015625)"/>
       </defs>
       <use xlink:href="#CMSY10-0" transform="scale(0.996264)"/>
       <use xlink:href="#CMMI12-6b" transform="translate(77.487468 0)scale(0.996264)"/>
       <use xlink:href="#CMMI12-46" transform="translate(128.222656 -14.943915)scale(0.697382)"/>
      </g>
     </g>
    </g>
    <g id="xtick_5">
     <g id="line2d_5">
      <g>
       <use xlink:href="#m0d50543800" x="124.543122" y="117.350791" style="stroke: #000000; stroke-width: 0.35"/>
      </g>
     </g>
     <g id="text_4">
      <!-- $0$ -->
      <g transform="translate(122.42603 127.885593)scale(0.08 -0.08)">
       <defs>
        <path id="CMR17-30" d="M 2688 2038 
C 2688 2430 2682 3099 2413 3613 
C 2176 4063 1798 4224 1466 4224 
C 1158 4224 768 4082 525 3620 
C 269 3137 243 2539 243 2038 
C 243 1671 250 1112 448 623 
C 723 -39 1216 -128 1466 -128 
C 1760 -128 2208 -7 2470 604 
C 2662 1048 2688 1568 2688 2038 
z
M 1466 -26 
C 1056 -26 813 328 723 816 
C 653 1196 653 1749 653 2109 
C 653 2604 653 3015 736 3407 
C 858 3954 1216 4121 1466 4121 
C 1728 4121 2067 3947 2189 3420 
C 2272 3054 2278 2623 2278 2109 
C 2278 1691 2278 1176 2202 797 
C 2067 96 1690 -26 1466 -26 
z
" transform="scale(0.015625)"/>
       </defs>
       <use xlink:href="#CMR17-30" transform="scale(0.996264)"/>
      </g>
     </g>
    </g>
    <g id="xtick_6">
     <g id="line2d_6">
      <g>
       <use xlink:href="#m0d50543800" x="146.541523" y="117.350791" style="stroke: #000000; stroke-width: 0.35"/>
      </g>
     </g>
     <g id="text_5">
      <!-- $k_F$ -->
      <g transform="translate(142.020497 127.885593)scale(0.08 -0.08)">
       <use xlink:href="#CMMI12-6b" transform="scale(0.996264)"/>
       <use xlink:href="#CMMI12-46" transform="translate(50.735189 -14.943915)scale(0.697382)"/>
      </g>
     </g>
    </g>
    <g id="xtick_7">
     <g id="line2d_7">
      <g>
       <use xlink:href="#m0d50543800" x="152.552356" y="117.350791" style="stroke: #000000; stroke-width: 0.35"/>
      </g>
     </g>
    </g>
    <g id="xtick_8">
     <g id="line2d_8">
      <g>
       <use xlink:href="#m0d50543800" x="180.56159" y="117.350791" style="stroke: #000000; stroke-width: 0.35"/>
      </g>
     </g>
     <g id="text_6">
      <!-- $4$ -->
      <g transform="translate(178.444499 127.885593)scale(0.08 -0.08)">
       <use xlink:href="#CMR17-34" transform="scale(0.996264)"/>
      </g>
     </g>
    </g>
    <g id="xtick_9">
     <g id="line2d_9">
      <g>
       <use xlink:href="#m0d50543800" x="208.570824" y="117.350791" style="stroke: #000000; stroke-width: 0.35"/>
      </g>
     </g>
     <g id="text_7">
      <!-- $6$ -->
      <g transform="translate(206.453733 127.885593)scale(0.08 -0.08)">
       <use xlink:href="#CMR17-36" transform="scale(0.996264)"/>
      </g>
     </g>
    </g>
    <g id="text_8">
     <!-- $q$ -->
     <g transform="translate(122.652727 136.97014)scale(0.08 -0.08)">
      <defs>
       <path id="CMMI12-71" d="M 2822 2751 
C 2822 2783 2797 2809 2765 2809 
C 2714 2809 2464 2579 2342 2356 
C 2227 2643 2029 2816 1754 2816 
C 1030 2816 250 1883 250 938 
C 250 306 621 -64 1056 -64 
C 1395 -64 1677 191 1811 338 
L 1818 332 
L 1574 -613 
L 1517 -838 
C 1459 -1025 1363 -1025 1062 -1031 
C 992 -1031 928 -1031 928 -1152 
C 928 -1197 966 -1216 1011 -1216 
C 1101 -1216 1216 -1204 1306 -1204 
L 1958 -1204 
C 2054 -1204 2163 -1216 2259 -1216 
C 2298 -1216 2374 -1216 2374 -1095 
C 2374 -1031 2323 -1031 2227 -1031 
C 1926 -1031 1907 -987 1907 -937 
C 1907 -906 1914 -900 1933 -819 
L 2822 2751 
z
M 1920 759 
C 1888 651 1888 638 1798 517 
C 1658 338 1376 64 1075 64 
C 813 64 666 300 666 676 
C 666 1028 864 1743 986 2011 
C 1203 2458 1504 2687 1754 2687 
C 2176 2687 2259 2164 2259 2113 
C 2259 2107 2240 2024 2234 2011 
L 1920 759 
z
" transform="scale(0.015625)"/>
      </defs>
      <use xlink:href="#CMMI12-71" transform="scale(0.996264)"/>
     </g>
    </g>
   </g>
   <g id="matplotlib.axis_2">
    <g id="ytick_1">
     <g id="line2d_10">
      <defs>
       <path id="m9b669bb57c" d="M 0 0 
L -2 0 
" style="stroke: #000000; stroke-width: 0.35"/>
      </defs>
      <g>
       <use xlink:href="#m9b669bb57c" x="26.510802" y="112.049392" style="stroke: #000000; stroke-width: 0.35"/>
      </g>
     </g>
     <g id="text_9">
      <!-- $\mathdefault{0.0}$ -->
      <g transform="translate(10.690112 114.816792)scale(0.08 -0.08)">
       <defs>
        <path id="CMMI12-3a" d="M 1178 307 
C 1178 492 1024 620 870 620 
C 685 620 557 467 557 313 
C 557 128 710 0 864 0 
C 1050 0 1178 153 1178 307 
z
" transform="scale(0.015625)"/>
       </defs>
       <use xlink:href="#CMR17-30" transform="scale(0.996264)"/>
       <use xlink:href="#CMMI12-3a" transform="translate(45.690477 0)scale(0.996264)"/>
       <use xlink:href="#CMR17-30" transform="translate(72.787654 0)scale(0.996264)"/>
      </g>
     </g>
    </g>
    <g id="ytick_2">
     <g id="line2d_11">
      <g>
       <use xlink:href="#m9b669bb57c" x="26.510802" y="90.843793" style="stroke: #000000; stroke-width: 0.35"/>
      </g>
     </g>
     <g id="text_10">
      <!-- $\mathdefault{0.2}$ -->
      <g transform="translate(10.690112 93.611194)scale(0.08 -0.08)">
       <defs>
        <path id="CMR17-32" d="M 2669 990 
L 2554 990 
C 2490 537 2438 460 2413 422 
C 2381 371 1920 371 1830 371 
L 602 371 
C 832 620 1280 1073 1824 1596 
C 2214 1966 2669 2400 2669 3033 
C 2669 3788 2067 4224 1395 4224 
C 691 4224 262 3603 262 3027 
C 262 2777 448 2745 525 2745 
C 589 2745 781 2783 781 3007 
C 781 3206 614 3264 525 3264 
C 486 3264 448 3257 422 3244 
C 544 3788 915 4057 1306 4057 
C 1862 4057 2227 3616 2227 3033 
C 2227 2477 1901 1998 1536 1583 
L 262 147 
L 262 0 
L 2515 0 
L 2669 990 
z
" transform="scale(0.015625)"/>
       </defs>
       <use xlink:href="#CMR17-30" transform="scale(0.996264)"/>
       <use xlink:href="#CMMI12-3a" transform="translate(45.690477 0)scale(0.996264)"/>
       <use xlink:href="#CMR17-32" transform="translate(72.787654 0)scale(0.996264)"/>
      </g>
     </g>
    </g>
    <g id="ytick_3">
     <g id="line2d_12">
      <g>
       <use xlink:href="#m9b669bb57c" x="26.510802" y="69.638195" style="stroke: #000000; stroke-width: 0.35"/>
      </g>
     </g>
     <g id="text_11">
      <!-- $\mathdefault{0.4}$ -->
      <g transform="translate(10.690112 72.405596)scale(0.08 -0.08)">
       <use xlink:href="#CMR17-30" transform="scale(0.996264)"/>
       <use xlink:href="#CMMI12-3a" transform="translate(45.690477 0)scale(0.996264)"/>
       <use xlink:href="#CMR17-34" transform="translate(72.787654 0)scale(0.996264)"/>
      </g>
     </g>
    </g>
    <g id="ytick_4">
     <g id="line2d_13">
      <g>
       <use xlink:href="#m9b669bb57c" x="26.510802" y="48.432596" style="stroke: #000000; stroke-width: 0.35"/>
      </g>
     </g>
     <g id="text_12">
      <!-- $\mathdefault{0.6}$ -->
      <g transform="translate(10.690112 51.199997)scale(0.08 -0.08)">
       <use xlink:href="#CMR17-30" transform="scale(0.996264)"/>
       <use xlink:href="#CMMI12-3a" transform="translate(45.690477 0)scale(0.996264)"/>
       <use xlink:href="#CMR17-36" transform="translate(72.787654 0)scale(0.996264)"/>
      </g>
     </g>
    </g>
    <g id="ytick_5">
     <g id="line2d_14">
      <g>
       <use xlink:href="#m9b669bb57c" x="26.510802" y="27.226998" style="stroke: #000000; stroke-width: 0.35"/>
      </g>
     </g>
     <g id="text_13">
      <!-- $\mathdefault{0.8}$ -->
      <g transform="translate(10.690112 29.994399)scale(0.08 -0.08)">
       <defs>
        <path id="CMR17-38" d="M 1741 2289 
C 2144 2494 2554 2803 2554 3298 
C 2554 3884 1990 4224 1472 4224 
C 890 4224 378 3800 378 3215 
C 378 3054 416 2777 666 2533 
C 730 2469 998 2276 1171 2154 
C 883 2006 211 1652 211 945 
C 211 282 838 -128 1459 -128 
C 2144 -128 2720 366 2720 1022 
C 2720 1607 2330 1877 2074 2051 
L 1741 2289 
z
M 902 2855 
C 851 2887 595 3086 595 3388 
C 595 3781 998 4076 1459 4076 
C 1965 4076 2336 3716 2336 3298 
C 2336 2700 1670 2359 1638 2359 
C 1632 2359 1626 2359 1574 2398 
L 902 2855 
z
M 2080 1536 
C 2176 1466 2483 1253 2483 861 
C 2483 385 2010 25 1472 25 
C 890 25 448 443 448 951 
C 448 1459 838 1884 1280 2083 
L 2080 1536 
z
" transform="scale(0.015625)"/>
       </defs>
       <use xlink:href="#CMR17-30" transform="scale(0.996264)"/>
       <use xlink:href="#CMMI12-3a" transform="translate(45.690477 0)scale(0.996264)"/>
       <use xlink:href="#CMR17-38" transform="translate(72.787654 0)scale(0.996264)"/>
      </g>
     </g>
    </g>
    <g id="ytick_6">
     <g id="line2d_15">
      <g>
       <use xlink:href="#m9b669bb57c" x="26.510802" y="6.0214" style="stroke: #000000; stroke-width: 0.35"/>
      </g>
     </g>
     <g id="text_14">
      <!-- $\mathdefault{1.0}$ -->
      <g transform="translate(10.690112 8.7888)scale(0.08 -0.08)">
       <defs>
        <path id="CMR17-31" d="M 1702 4083 
C 1702 4217 1696 4224 1606 4224 
C 1357 3927 979 3833 621 3820 
C 602 3820 570 3820 563 3808 
C 557 3795 557 3782 557 3648 
C 755 3648 1088 3686 1344 3839 
L 1344 467 
C 1344 243 1331 166 781 166 
L 589 166 
L 589 0 
C 896 6 1216 12 1523 12 
C 1830 12 2150 6 2458 0 
L 2458 166 
L 2266 166 
C 1715 166 1702 236 1702 467 
L 1702 4083 
z
" transform="scale(0.015625)"/>
       </defs>
       <use xlink:href="#CMR17-31" transform="scale(0.996264)"/>
       <use xlink:href="#CMMI12-3a" transform="translate(45.690477 0)scale(0.996264)"/>
       <use xlink:href="#CMR17-30" transform="translate(72.787654 0)scale(0.996264)"/>
      </g>
     </g>
    </g>
    <g id="text_15">
     <!-- $N\rho_1(q)$ -->
     <g transform="translate(6.697584 72.390982)rotate(-90)scale(0.08 -0.08)">
      <defs>
       <path id="CMMI12-4e" d="M 4736 3682 
C 4806 3956 4909 4147 5395 4166 
C 5414 4166 5491 4172 5491 4281 
C 5491 4352 5434 4352 5408 4352 
C 5280 4352 4954 4339 4826 4339 
L 4518 4339 
C 4429 4339 4314 4352 4224 4352 
C 4186 4352 4109 4352 4109 4230 
C 4109 4166 4160 4166 4205 4166 
C 4589 4153 4614 4007 4614 3892 
C 4614 3835 4608 3816 4589 3726 
L 3866 854 
L 2496 4243 
C 2451 4345 2445 4352 2304 4352 
L 1523 4352 
C 1395 4352 1338 4352 1338 4230 
C 1338 4166 1382 4166 1504 4166 
C 1536 4166 1914 4166 1914 4109 
C 1914 4096 1901 4045 1894 4026 
L 1043 650 
C 966 338 813 204 390 185 
C 358 185 294 179 294 64 
C 294 0 358 0 378 0 
C 506 0 832 12 960 12 
L 1267 12 
C 1357 12 1466 0 1555 0 
C 1600 0 1670 0 1670 121 
C 1670 179 1606 185 1581 185 
C 1370 191 1165 230 1165 459 
C 1165 510 1178 567 1190 618 
L 2054 4026 
C 2093 3962 2093 3949 2118 3892 
L 3642 115 
C 3674 38 3686 0 3744 0 
C 3808 0 3814 19 3840 128 
L 4736 3682 
z
" transform="scale(0.015625)"/>
       <path id="CMMI12-1a" d="M 198 -1085 
C 192 -1116 179 -1154 179 -1191 
C 179 -1287 256 -1351 352 -1351 
C 448 -1351 538 -1287 576 -1198 
C 602 -1141 781 -390 986 389 
C 1114 70 1350 -64 1600 -64 
C 2323 -64 3142 830 3142 1794 
C 3142 2477 2726 2816 2285 2816 
C 1722 2816 1037 2234 826 1385 
L 198 -1085 
z
M 1594 64 
C 1158 64 1050 568 1050 645 
C 1050 683 1210 1289 1229 1385 
C 1555 2656 2182 2687 2278 2687 
C 2566 2687 2726 2426 2726 2049 
C 2726 1724 2554 1091 2445 823 
C 2253 383 1920 64 1594 64 
z
" transform="scale(0.015625)"/>
       <path id="CMR17-28" d="M 1958 -1562 
C 1958 -1556 1958 -1543 1939 -1524 
C 1645 -1223 858 -403 858 1596 
C 858 3595 1632 4408 1946 4729 
C 1946 4735 1958 4748 1958 4767 
C 1958 4787 1939 4800 1914 4800 
C 1843 4800 1299 4325 986 3620 
C 666 2909 576 2218 576 1603 
C 576 1141 621 360 1005 -467 
C 1312 -1133 1837 -1600 1914 -1600 
C 1946 -1600 1958 -1588 1958 -1562 
z
" transform="scale(0.015625)"/>
       <path id="CMR17-29" d="M 1683 1596 
C 1683 2057 1638 2839 1254 3665 
C 947 4332 422 4800 346 4800 
C 326 4800 301 4793 301 4761 
C 301 4748 307 4742 314 4729 
C 621 4408 1402 3595 1402 1603 
C 1402 -396 627 -1210 314 -1530 
C 307 -1543 301 -1549 301 -1562 
C 301 -1594 326 -1600 346 -1600 
C 416 -1600 960 -1127 1274 -422 
C 1594 289 1683 981 1683 1596 
z
" transform="scale(0.015625)"/>
      </defs>
      <use xlink:href="#CMMI12-4e" transform="scale(0.996264)"/>
      <use xlink:href="#CMMI12-1a" transform="translate(88.521773 0)scale(0.996264)"/>
      <use xlink:href="#CMR17-31" transform="translate(138.836145 -14.943915)scale(0.697382)"/>
      <use xlink:href="#CMR17-28" transform="translate(171.317459 0)scale(0.996264)"/>
      <use xlink:href="#CMMI12-71" transform="translate(206.598227 0)scale(0.996264)"/>
      <use xlink:href="#CMR17-29" transform="translate(253.424551 0)scale(0.996264)"/>
     </g>
    </g>
   </g>
   <g id="line2d_16">
    <path d="M -1 111.985789 
L 20.908955 111.802698 
L 33.51311 111.508629 
L 41.91588 111.134607 
L 48.918189 110.628991 
L 54.520036 110.026617 
L 58.721421 109.409663 
L 62.922806 108.600871 
L 67.124191 107.538671 
L 69.925115 106.650106 
L 72.726038 105.581721 
L 75.526962 104.295379 
L 78.327885 102.744124 
L 81.128808 100.869776 
L 83.929732 98.599644 
L 86.730655 95.84189 
L 88.131117 94.244595 
L 89.531579 92.478639 
L 90.93204 90.523431 
L 92.332502 88.354984 
L 93.732964 85.944996 
L 95.133426 83.259476 
L 96.533887 80.256592 
L 97.934349 76.882937 
L 99.334811 73.066191 
L 100.735272 68.697309 
L 102.135734 63.562065 
L 103.536196 57.843971 
L 104.936658 53.122623 
L 106.337119 49.099604 
L 107.737581 45.622824 
L 109.138043 42.603316 
L 110.538504 39.979611 
L 111.938966 37.70586 
L 113.339428 35.746425 
L 114.73989 34.072973 
L 116.140351 32.662747 
L 117.540813 31.497452 
L 118.941275 30.562513 
L 120.341736 29.84656 
L 121.742198 29.341065 
L 123.14266 29.040098 
L 124.543122 28.940161 
L 125.943583 29.040098 
L 127.344045 29.341065 
L 128.744507 29.84656 
L 130.144968 30.562513 
L 131.54543 31.497452 
L 132.945892 32.662747 
L 134.346354 34.072973 
L 135.746815 35.746425 
L 137.147277 37.70586 
L 138.547739 39.979611 
L 139.9482 42.603316 
L 141.348662 45.622824 
L 142.749124 49.099604 
L 144.149586 53.122623 
L 145.550047 57.843971 
L 146.950509 63.562065 
L 148.350971 68.697309 
L 149.751432 73.066191 
L 151.151894 76.882937 
L 152.552356 80.256592 
L 153.952818 83.259476 
L 155.353279 85.944996 
L 156.753741 88.354984 
L 158.154203 90.523431 
L 160.955126 94.244595 
L 163.75605 97.288374 
L 166.556973 99.789407 
L 169.357896 101.851494 
L 172.15882 103.556205 
L 174.959743 104.968497 
L 177.760667 106.140591 
L 180.56159 107.114775 
L 184.762975 108.27854 
L 188.96436 109.16406 
L 193.165746 109.839161 
L 198.767592 110.497951 
L 205.769901 111.050608 
L 214.172671 111.459202 
L 224.295442 111.735167 
L 224.295442 111.735167 
" clip-path="url(#p6af7aa99e4)" style="fill: none; stroke: #9e0142; stroke-width: 1.3; stroke-linecap: round"/>
   </g>
   <g id="line2d_17">
    <path d="M -1 112.046466 
L 51.719112 111.928739 
L 65.72373 111.69557 
L 74.1265 111.347774 
L 79.728347 110.912823 
L 83.929732 110.384109 
L 86.730655 109.872076 
L 89.531579 109.160237 
L 92.332502 108.135694 
L 93.732964 107.44501 
L 95.133426 106.578774 
L 96.533887 105.463028 
L 97.934349 103.968295 
L 99.334811 101.833054 
L 100.735272 98.372994 
L 102.135734 89.920633 
L 103.536196 23.686123 
L 104.936658 18.441058 
L 106.337119 15.685713 
L 107.737581 13.880567 
L 109.138043 12.587315 
L 110.538504 11.615431 
L 111.938966 10.864205 
L 113.339428 10.273916 
L 116.140351 9.436031 
L 118.941275 8.920695 
L 121.742198 8.639333 
L 124.543122 8.549745 
L 127.344045 8.639333 
L 130.144968 8.920695 
L 132.945892 9.436031 
L 135.746815 10.273916 
L 137.147277 10.864205 
L 138.547739 11.615431 
L 139.9482 12.587315 
L 141.348662 13.880567 
L 142.749124 15.685713 
L 144.149586 18.441058 
L 145.550047 23.686123 
L 146.950509 89.920633 
L 148.350971 98.372994 
L 149.751432 101.833054 
L 151.151894 103.968295 
L 152.552356 105.463028 
L 153.952818 106.578774 
L 155.353279 107.44501 
L 156.753741 108.135694 
L 159.554664 109.160237 
L 162.355588 109.872076 
L 165.156511 110.384109 
L 169.357896 110.912823 
L 174.959743 111.347774 
L 181.962052 111.653811 
L 193.165746 111.883852 
L 212.77221 112.010267 
L 224.295442 112.032093 
L 224.295442 112.032093 
" clip-path="url(#p6af7aa99e4)" style="fill: none; stroke: #fdbf6f; stroke-width: 1.3; stroke-linecap: round"/>
   </g>
   <g id="line2d_18">
    <path d="M -1 112.048777 
L 69.925115 111.937257 
L 82.52927 111.70856 
L 89.531579 111.358519 
L 93.732964 110.92259 
L 96.533887 110.400937 
L 97.934349 109.995315 
L 99.334811 109.397515 
L 100.735272 108.380396 
L 102.135734 105.591435 
L 103.536196 10.901964 
L 104.936658 9.282127 
L 106.337119 8.490396 
L 107.737581 7.991462 
L 110.538504 7.386583 
L 113.339428 7.039423 
L 117.540813 6.753866 
L 123.14266 6.611337 
L 128.744507 6.656487 
L 134.346354 6.92042 
L 138.547739 7.386583 
L 141.348662 7.991462 
L 142.749124 8.490396 
L 144.149586 9.282127 
L 145.550047 10.901964 
L 146.950509 105.591435 
L 148.350971 108.380396 
L 149.751432 109.397515 
L 151.151894 109.995315 
L 153.952818 110.69689 
L 156.753741 111.099934 
L 160.955126 111.454569 
L 167.957435 111.750511 
L 179.161128 111.937257 
L 201.568516 112.030061 
L 224.295442 112.045688 
L 224.295442 112.045688 
" clip-path="url(#p6af7aa99e4)" style="fill: none; stroke: #bfe5a0; stroke-width: 1.3; stroke-linecap: round"/>
   </g>
   <g id="line2d_19">
    <path d="M -1 112.049392 
L 102.135734 112.049392 
L 103.536196 6.0214 
L 145.550047 6.0214 
L 146.950509 112.049392 
L 224.295442 112.049392 
L 224.295442 112.049392 
" clip-path="url(#p6af7aa99e4)" style="fill: none; stroke: #5e4fa2; stroke-width: 1.3; stroke-linecap: round"/>
   </g>
   <g id="patch_3">
    <path d="M 26.510802 117.350791 
L 26.510802 0.72 
" style="fill: none; stroke: #000000; stroke-width: 0.35; stroke-linejoin: miter; stroke-linecap: square"/>
   </g>
   <g id="patch_4">
    <path d="M 222.575442 117.350791 
L 222.575442 0.72 
" style="fill: none; stroke: #000000; stroke-width: 0.35; stroke-linejoin: miter; stroke-linecap: square"/>
   </g>
   <g id="patch_5">
    <path d="M 26.510802 117.350791 
L 222.575442 117.350791 
" style="fill: none; stroke: #000000; stroke-width: 0.35; stroke-linejoin: miter; stroke-linecap: square"/>
   </g>
   <g id="patch_6">
    <path d="M 26.510802 0.72 
L 222.575442 0.72 
" style="fill: none; stroke: #000000; stroke-width: 0.35; stroke-linejoin: miter; stroke-linecap: square"/>
   </g>
   <g id="legend_1">
    <g id="line2d_20">
     <path d="M 165.291662 10.72 
L 171.291662 10.72 
L 177.291662 10.72 
" style="fill: none; stroke: #5e4fa2; stroke-width: 1.3; stroke-linecap: round"/>
    </g>
    <g id="text_16">
     <!-- $\gamma_{\rm eq}=0.0$ -->
     <g transform="translate(181.291662 13.52)scale(0.08 -0.08)">
      <defs>
       <path id="CMMI12-d" d="M 2419 785 
C 2406 1097 2394 1586 2150 2158 
C 2022 2476 1805 2816 1338 2816 
C 550 2816 122 1815 122 1649 
C 122 1592 166 1592 186 1592 
C 243 1592 243 1605 275 1688 
C 410 2081 819 2393 1261 2393 
C 2150 2393 2278 1408 2278 779 
C 2278 378 2234 245 2195 118 
C 2074 -276 1862 -1064 1862 -1242 
C 1862 -1293 1882 -1351 1933 -1351 
C 2029 -1351 2086 -1140 2157 -886 
C 2310 -327 2349 -47 2381 207 
C 2400 360 2765 1409 3270 2407 
C 3315 2509 3405 2681 3405 2700 
C 3405 2707 3398 2752 3341 2752 
C 3328 2752 3296 2752 3283 2726 
C 3270 2713 3046 2280 2854 1848 
C 2758 1630 2630 1344 2419 785 
z
" transform="scale(0.015625)"/>
       <path id="CMR17-65" d="M 2438 1503 
C 2464 1529 2464 1542 2464 1606 
C 2464 2251 2118 2816 1389 2816 
C 710 2816 173 2175 173 1394 
C 173 554 781 -64 1459 -64 
C 2176 -64 2458 619 2458 755 
C 2458 800 2419 800 2406 800 
C 2362 800 2355 787 2330 709 
C 2189 270 1837 51 1504 51 
C 1229 51 954 206 781 490 
C 582 819 582 1200 582 1503 
L 2438 1503 
z
M 589 1600 
C 634 2511 1126 2713 1382 2713 
C 1818 2713 2112 2308 2118 1600 
L 589 1600 
z
" transform="scale(0.015625)"/>
       <path id="CMR17-71" d="M 2630 2816 
L 2528 2816 
L 2336 2177 
C 2189 2519 1920 2816 1491 2816 
C 838 2816 211 2228 211 1376 
C 211 529 800 -64 1440 -64 
C 1933 -64 2208 316 2291 458 
L 2291 -834 
C 2291 -1081 2266 -1114 1856 -1114 
L 1856 -1280 
C 2010 -1268 2291 -1268 2458 -1268 
C 2624 -1268 2912 -1268 3066 -1280 
L 3066 -1114 
C 2656 -1114 2630 -1088 2630 -834 
L 2630 2816 
z
M 2304 871 
C 2304 594 2074 335 2054 316 
C 1856 90 1626 38 1472 38 
C 992 38 621 652 621 1369 
C 621 2125 1043 2700 1536 2700 
C 2048 2700 2304 2112 2304 1776 
L 2304 871 
z
" transform="scale(0.015625)"/>
       <path id="CMR17-3d" d="M 4115 2048 
C 4211 2048 4307 2048 4307 2156 
C 4307 2272 4198 2272 4090 2272 
L 512 2272 
C 403 2272 294 2272 294 2156 
C 294 2048 390 2048 486 2048 
L 4115 2048 
z
M 4090 927 
C 4198 927 4307 927 4307 1043 
C 4307 1152 4211 1152 4115 1152 
L 486 1152 
C 390 1152 294 1152 294 1043 
C 294 927 403 927 512 927 
L 4090 927 
z
" transform="scale(0.015625)"/>
      </defs>
      <use xlink:href="#CMMI12-d" transform="scale(0.996264)"/>
      <use xlink:href="#CMR17-65" transform="translate(50.599133 -14.943915)scale(0.697382)"/>
      <use xlink:href="#CMR17-71" transform="translate(78.938964 -14.943915)scale(0.697382)"/>
      <use xlink:href="#CMR17-3d" transform="translate(140.915993 0)scale(0.996264)"/>
      <use xlink:href="#CMR17-30" transform="translate(240.30479 0)scale(0.996264)"/>
      <use xlink:href="#CMMI12-3a" transform="translate(285.995267 0)scale(0.996264)"/>
      <use xlink:href="#CMR17-30" transform="translate(313.092444 0)scale(0.996264)"/>
     </g>
    </g>
    <g id="line2d_21">
     <path d="M 165.291662 20.478577 
L 171.291662 20.478577 
L 177.291662 20.478577 
" style="fill: none; stroke: #bfe5a0; stroke-width: 1.3; stroke-linecap: round"/>
    </g>
    <g id="text_17">
     <!-- $\gamma_{\rm eq}=0.2$ -->
     <g transform="translate(181.291662 23.278577)scale(0.08 -0.08)">
      <use xlink:href="#CMMI12-d" transform="scale(0.996264)"/>
      <use xlink:href="#CMR17-65" transform="translate(50.599133 -14.943915)scale(0.697382)"/>
      <use xlink:href="#CMR17-71" transform="translate(78.938964 -14.943915)scale(0.697382)"/>
      <use xlink:href="#CMR17-3d" transform="translate(140.915993 0)scale(0.996264)"/>
      <use xlink:href="#CMR17-30" transform="translate(240.30479 0)scale(0.996264)"/>
      <use xlink:href="#CMMI12-3a" transform="translate(285.995267 0)scale(0.996264)"/>
      <use xlink:href="#CMR17-32" transform="translate(313.092444 0)scale(0.996264)"/>
     </g>
    </g>
    <g id="line2d_22">
     <path d="M 165.291662 30.237154 
L 171.291662 30.237154 
L 177.291662 30.237154 
" style="fill: none; stroke: #fdbf6f; stroke-width: 1.3; stroke-linecap: round"/>
    </g>
    <g id="text_18">
     <!-- $\gamma_{\rm eq}=0.4$ -->
     <g transform="translate(181.291662 33.037154)scale(0.08 -0.08)">
      <use xlink:href="#CMMI12-d" transform="scale(0.996264)"/>
      <use xlink:href="#CMR17-65" transform="translate(50.599133 -14.943915)scale(0.697382)"/>
      <use xlink:href="#CMR17-71" transform="translate(78.938964 -14.943915)scale(0.697382)"/>
      <use xlink:href="#CMR17-3d" transform="translate(140.915993 0)scale(0.996264)"/>
      <use xlink:href="#CMR17-30" transform="translate(240.30479 0)scale(0.996264)"/>
      <use xlink:href="#CMMI12-3a" transform="translate(285.995267 0)scale(0.996264)"/>
      <use xlink:href="#CMR17-34" transform="translate(313.092444 0)scale(0.996264)"/>
     </g>
    </g>
    <g id="line2d_23">
     <path d="M 165.291662 39.995731 
L 171.291662 39.995731 
L 177.291662 39.995731 
" style="fill: none; stroke: #9e0142; stroke-width: 1.3; stroke-linecap: round"/>
    </g>
    <g id="text_19">
     <!-- $\gamma_{\rm eq}=1.3$ -->
     <g transform="translate(181.291662 42.795731)scale(0.08 -0.08)">
      <defs>
       <path id="CMR17-33" d="M 1414 2176 
C 1984 2176 2234 1673 2234 1094 
C 2234 322 1824 25 1453 25 
C 1114 25 563 193 390 691 
C 422 678 454 678 486 678 
C 640 678 755 780 755 947 
C 755 1132 614 1216 486 1216 
C 378 1216 211 1164 211 927 
C 211 335 787 -128 1466 -128 
C 2176 -128 2720 432 2720 1087 
C 2720 1718 2208 2176 1600 2246 
C 2086 2347 2554 2776 2554 3353 
C 2554 3856 2048 4224 1472 4224 
C 890 4224 378 3862 378 3347 
C 378 3123 544 3084 627 3084 
C 762 3084 877 3167 877 3334 
C 877 3500 762 3584 627 3584 
C 602 3584 570 3584 544 3571 
C 730 3999 1235 4076 1459 4076 
C 1683 4076 2106 3966 2106 3347 
C 2106 3167 2080 2851 1862 2574 
C 1670 2329 1453 2316 1242 2297 
C 1210 2297 1062 2284 1037 2284 
C 992 2278 966 2272 966 2227 
C 966 2182 973 2176 1101 2176 
L 1414 2176 
z
" transform="scale(0.015625)"/>
      </defs>
      <use xlink:href="#CMMI12-d" transform="scale(0.996264)"/>
      <use xlink:href="#CMR17-65" transform="translate(50.599133 -14.943915)scale(0.697382)"/>
      <use xlink:href="#CMR17-71" transform="translate(78.938964 -14.943915)scale(0.697382)"/>
      <use xlink:href="#CMR17-3d" transform="translate(140.915993 0)scale(0.996264)"/>
      <use xlink:href="#CMR17-31" transform="translate(240.30479 0)scale(0.996264)"/>
      <use xlink:href="#CMMI12-3a" transform="translate(285.995267 0)scale(0.996264)"/>
      <use xlink:href="#CMR17-33" transform="translate(313.092444 0)scale(0.996264)"/>
     </g>
    </g>
   </g>
  </g>
 </g>
 <defs>
  <clipPath id="p6af7aa99e4">
   <rect x="26.510802" y="0.72" width="196.06464" height="116.630791"/>
  </clipPath>
 </defs>
</svg>
