<?xml version="1.0" encoding="utf-8" standalone="no"?>
<!DOCTYPE svg PUBLIC "-//W3C//DTD SVG 1.1//EN"
  "http://www.w3.org/Graphics/SVG/1.1/DTD/svg11.dtd">
<svg xmlns:xlink="http://www.w3.org/1999/xlink" width="226.64406pt" height="215.935465pt" viewBox="0 0 226.64406 215.935465" xmlns="http://www.w3.org/2000/svg" version="1.1">
 <metadata>
  <rdf:RDF xmlns:dc="http://purl.org/dc/elements/1.1/" xmlns:cc="http://creativecommons.org/ns#" xmlns:rdf="http://www.w3.org/1999/02/22-rdf-syntax-ns#">
   <cc:Work>
    <dc:type rdf:resource="http://purl.org/dc/dcmitype/StillImage"/>
    <dc:date>2022-06-20T22:33:32.575073</dc:date>
    <dc:format>image/svg+xml</dc:format>
    <dc:creator>
     <cc:Agent>
      <dc:title>Matplotlib v3.5.1, https://matplotlib.org/</dc:title>
     </cc:Agent>
    </dc:creator>
   </cc:Work>
  </rdf:RDF>
 </metadata>
 <defs>
  <style type="text/css">*{stroke-linejoin: round; stroke-linecap: butt}</style>
 </defs>
 <g id="figure_1">
  <g id="patch_1">
   <path d="M 0 215.935465 
L 226.64406 215.935465 
L 226.64406 -0 
L 0 -0 
L 0 215.935465 
z
" style="fill: none"/>
  </g>
  <g id="axes_1">
   <g id="patch_2">
    <path d="M 29.85942 94.137867 
L 225.92406 94.137867 
L 225.92406 0.72 
L 29.85942 0.72 
L 29.85942 94.137867 
z
" style="fill: none"/>
   </g>
   <g id="matplotlib.axis_1">
    <g id="xtick_1">
     <g id="line2d_1">
      <defs>
       <path id="m7e3ca21ef5" d="M 0 0 
L 0 2 
" style="stroke: #000000; stroke-width: 0.35"/>
      </defs>
      <g>
       <use xlink:href="#m7e3ca21ef5" x="29.85942" y="94.137867" style="stroke: #000000; stroke-width: 0.35"/>
      </g>
     </g>
    </g>
    <g id="xtick_2">
     <g id="line2d_2">
      <g>
       <use xlink:href="#m7e3ca21ef5" x="56.001372" y="94.137867" style="stroke: #000000; stroke-width: 0.35"/>
      </g>
     </g>
    </g>
    <g id="xtick_3">
     <g id="line2d_3">
      <g>
       <use xlink:href="#m7e3ca21ef5" x="82.143324" y="94.137867" style="stroke: #000000; stroke-width: 0.35"/>
      </g>
     </g>
    </g>
    <g id="xtick_4">
     <g id="line2d_4">
      <g>
       <use xlink:href="#m7e3ca21ef5" x="108.285276" y="94.137867" style="stroke: #000000; stroke-width: 0.35"/>
      </g>
     </g>
    </g>
    <g id="xtick_5">
     <g id="line2d_5">
      <g>
       <use xlink:href="#m7e3ca21ef5" x="134.427228" y="94.137867" style="stroke: #000000; stroke-width: 0.35"/>
      </g>
     </g>
    </g>
    <g id="xtick_6">
     <g id="line2d_6">
      <g>
       <use xlink:href="#m7e3ca21ef5" x="160.56918" y="94.137867" style="stroke: #000000; stroke-width: 0.35"/>
      </g>
     </g>
    </g>
    <g id="xtick_7">
     <g id="line2d_7">
      <g>
       <use xlink:href="#m7e3ca21ef5" x="186.711132" y="94.137867" style="stroke: #000000; stroke-width: 0.35"/>
      </g>
     </g>
    </g>
    <g id="xtick_8">
     <g id="line2d_8">
      <g>
       <use xlink:href="#m7e3ca21ef5" x="212.853084" y="94.137867" style="stroke: #000000; stroke-width: 0.35"/>
      </g>
     </g>
    </g>
   </g>
   <g id="matplotlib.axis_2">
    <g id="ytick_1">
     <g id="line2d_9">
      <defs>
       <path id="me00d154961" d="M 0 0 
L -2 0 
" style="stroke: #000000; stroke-width: 0.35"/>
      </defs>
      <g>
       <use xlink:href="#me00d154961" x="29.85942" y="80.792457" style="stroke: #000000; stroke-width: 0.35"/>
      </g>
     </g>
     <g id="text_1">
      <!-- 0.00 -->
      <g transform="translate(9.804547 83.559858)scale(0.08 -0.08)">
       <defs>
        <path id="CMR17-30" d="M 2688 2038 
C 2688 2430 2682 3099 2413 3613 
C 2176 4063 1798 4224 1466 4224 
C 1158 4224 768 4082 525 3620 
C 269 3137 243 2539 243 2038 
C 243 1671 250 1112 448 623 
C 723 -39 1216 -128 1466 -128 
C 1760 -128 2208 -7 2470 604 
C 2662 1048 2688 1568 2688 2038 
z
M 1466 -26 
C 1056 -26 813 328 723 816 
C 653 1196 653 1749 653 2109 
C 653 2604 653 3015 736 3407 
C 858 3954 1216 4121 1466 4121 
C 1728 4121 2067 3947 2189 3420 
C 2272 3054 2278 2623 2278 2109 
C 2278 1691 2278 1176 2202 797 
C 2067 96 1690 -26 1466 -26 
z
" transform="scale(0.015625)"/>
        <path id="CMR17-2e" d="M 1062 262 
C 1062 422 934 524 800 524 
C 672 524 538 422 538 262 
C 538 102 666 0 800 0 
C 928 0 1062 102 1062 262 
z
" transform="scale(0.015625)"/>
       </defs>
       <use xlink:href="#CMR17-30" transform="scale(0.996264)"/>
       <use xlink:href="#CMR17-2e" transform="translate(45.690477 0)scale(0.996264)"/>
       <use xlink:href="#CMR17-30" transform="translate(70.561536 0)scale(0.996264)"/>
       <use xlink:href="#CMR17-30" transform="translate(116.252013 0)scale(0.996264)"/>
      </g>
     </g>
    </g>
    <g id="ytick_2">
     <g id="line2d_10">
      <g>
       <use xlink:href="#me00d154961" x="29.85942" y="58.550108" style="stroke: #000000; stroke-width: 0.35"/>
      </g>
     </g>
     <g id="text_2">
      <!-- 0.05 -->
      <g transform="translate(9.804547 61.317509)scale(0.08 -0.08)">
       <defs>
        <path id="CMR17-35" d="M 730 3750 
C 794 3724 1056 3641 1325 3641 
C 1920 3641 2246 3961 2432 4140 
C 2432 4191 2432 4224 2394 4224 
C 2387 4224 2374 4224 2323 4198 
C 2099 4102 1837 4032 1517 4032 
C 1325 4032 1037 4055 723 4191 
C 653 4224 640 4224 634 4224 
C 602 4224 595 4217 595 4090 
L 595 2231 
C 595 2113 595 2080 659 2080 
C 691 2080 704 2093 736 2139 
C 941 2435 1222 2560 1542 2560 
C 1766 2560 2246 2415 2246 1293 
C 2246 1087 2246 716 2054 422 
C 1894 159 1645 25 1370 25 
C 947 25 518 319 403 812 
C 429 806 480 793 506 793 
C 589 793 749 838 749 1036 
C 749 1209 627 1280 506 1280 
C 358 1280 262 1190 262 1011 
C 262 454 704 -128 1382 -128 
C 2042 -128 2669 441 2669 1267 
C 2669 2054 2170 2662 1549 2662 
C 1222 2662 947 2540 730 2304 
L 730 3750 
z
" transform="scale(0.015625)"/>
       </defs>
       <use xlink:href="#CMR17-30" transform="scale(0.996264)"/>
       <use xlink:href="#CMR17-2e" transform="translate(45.690477 0)scale(0.996264)"/>
       <use xlink:href="#CMR17-30" transform="translate(70.561536 0)scale(0.996264)"/>
       <use xlink:href="#CMR17-35" transform="translate(116.252013 0)scale(0.996264)"/>
      </g>
     </g>
    </g>
    <g id="ytick_3">
     <g id="line2d_11">
      <g>
       <use xlink:href="#me00d154961" x="29.85942" y="36.307759" style="stroke: #000000; stroke-width: 0.35"/>
      </g>
     </g>
     <g id="text_3">
      <!-- 0.10 -->
      <g transform="translate(9.804547 39.07516)scale(0.08 -0.08)">
       <defs>
        <path id="CMR17-31" d="M 1702 4083 
C 1702 4217 1696 4224 1606 4224 
C 1357 3927 979 3833 621 3820 
C 602 3820 570 3820 563 3808 
C 557 3795 557 3782 557 3648 
C 755 3648 1088 3686 1344 3839 
L 1344 467 
C 1344 243 1331 166 781 166 
L 589 166 
L 589 0 
C 896 6 1216 12 1523 12 
C 1830 12 2150 6 2458 0 
L 2458 166 
L 2266 166 
C 1715 166 1702 236 1702 467 
L 1702 4083 
z
" transform="scale(0.015625)"/>
       </defs>
       <use xlink:href="#CMR17-30" transform="scale(0.996264)"/>
       <use xlink:href="#CMR17-2e" transform="translate(45.690477 0)scale(0.996264)"/>
       <use xlink:href="#CMR17-31" transform="translate(70.561536 0)scale(0.996264)"/>
       <use xlink:href="#CMR17-30" transform="translate(116.252013 0)scale(0.996264)"/>
      </g>
     </g>
    </g>
    <g id="ytick_4">
     <g id="line2d_12">
      <g>
       <use xlink:href="#me00d154961" x="29.85942" y="14.06541" style="stroke: #000000; stroke-width: 0.35"/>
      </g>
     </g>
     <g id="text_4">
      <!-- 0.15 -->
      <g transform="translate(9.804547 16.83281)scale(0.08 -0.08)">
       <use xlink:href="#CMR17-30" transform="scale(0.996264)"/>
       <use xlink:href="#CMR17-2e" transform="translate(45.690477 0)scale(0.996264)"/>
       <use xlink:href="#CMR17-31" transform="translate(70.561536 0)scale(0.996264)"/>
       <use xlink:href="#CMR17-35" transform="translate(116.252013 0)scale(0.996264)"/>
      </g>
     </g>
    </g>
    <g id="text_5">
     <!-- $S_1-S_{\rm ff}$ -->
     <g transform="translate(6.254802 62.02982)rotate(-90)scale(0.08 -0.08)">
      <defs>
       <path id="CMMI12-53" d="M 4064 4422 
C 4064 4480 4019 4480 4006 4480 
C 3981 4480 3974 4473 3898 4377 
C 3859 4332 3597 4002 3590 3996 
C 3379 4409 2957 4480 2688 4480 
C 1875 4480 1139 3742 1139 3024 
C 1139 2547 1427 2268 1741 2160 
C 1811 2134 2189 2033 2381 1988 
C 2707 1899 2790 1874 2925 1734 
C 2950 1702 3078 1556 3078 1258 
C 3078 667 2528 57 1888 57 
C 1363 57 781 279 781 991 
C 781 1112 806 1264 826 1328 
C 826 1347 832 1378 832 1391 
C 832 1417 819 1448 768 1448 
C 710 1448 704 1436 678 1328 
L 352 25 
C 352 19 326 -64 326 -71 
C 326 -128 378 -128 390 -128 
C 416 -128 422 -122 499 -26 
L 794 356 
C 947 127 1280 -128 1875 -128 
C 2701 -128 3456 667 3456 1461 
C 3456 1728 3392 1963 3149 2198 
C 3014 2331 2899 2363 2310 2516 
C 1882 2630 1824 2649 1709 2751 
C 1600 2859 1517 3011 1517 3227 
C 1517 3761 2061 4307 2669 4307 
C 3296 4307 3590 3926 3590 3322 
C 3590 3157 3558 2986 3558 2960 
C 3558 2903 3610 2903 3629 2903 
C 3686 2903 3693 2922 3718 3024 
L 4064 4422 
z
" transform="scale(0.015625)"/>
       <path id="CMSY10-0" d="M 4218 1472 
C 4326 1472 4442 1472 4442 1600 
C 4442 1728 4326 1728 4218 1728 
L 755 1728 
C 646 1728 531 1728 531 1600 
C 531 1472 646 1472 755 1472 
L 4218 1472 
z
" transform="scale(0.015625)"/>
       <path id="CMR17-b" d="M 2554 2585 
L 3283 2585 
L 3283 2752 
L 2541 2752 
L 2541 3520 
C 2541 4047 2810 4377 3085 4377 
C 3168 4377 3264 4352 3328 4307 
C 3277 4294 3142 4250 3142 4091 
C 3142 3926 3270 3875 3360 3875 
C 3450 3875 3578 3926 3578 4091 
C 3578 4333 3347 4480 3091 4480 
C 2842 4480 2637 4358 2477 4206 
C 2330 4415 2086 4480 1837 4480 
C 1338 4480 634 4193 634 3494 
L 634 2752 
L 122 2752 
L 122 2585 
L 634 2585 
L 634 441 
C 634 198 608 166 198 166 
L 198 0 
C 352 12 634 12 794 12 
C 960 12 1242 12 1395 0 
L 1395 166 
C 986 166 960 192 960 441 
L 960 2585 
L 2227 2585 
L 2227 441 
C 2227 198 2202 166 1792 166 
L 1792 0 
C 1946 12 2240 12 2406 12 
C 2592 12 2918 12 3091 0 
L 3091 166 
C 2630 166 2554 166 2554 454 
L 2554 2585 
z
M 947 2752 
L 947 3494 
C 947 4072 1395 4377 1824 4377 
C 1920 4377 2170 4358 2323 4218 
C 2208 4212 2099 4161 2099 4002 
C 2099 3837 2246 3793 2259 3793 
C 2227 3679 2227 3552 2227 3507 
L 2227 2752 
L 947 2752 
z
" transform="scale(0.015625)"/>
      </defs>
      <use xlink:href="#CMMI12-53" transform="scale(0.996264)"/>
      <use xlink:href="#CMR17-31" transform="translate(59.994488 -14.943915)scale(0.697382)"/>
      <use xlink:href="#CMSY10-0" transform="translate(114.615009 0)scale(0.996264)"/>
      <use xlink:href="#CMMI12-53" transform="translate(214.241683 0)scale(0.996264)"/>
      <use xlink:href="#CMR17-b" transform="translate(274.236171 -14.943915)scale(0.697382)"/>
     </g>
    </g>
   </g>
   <g id="line2d_13">
    <defs>
     <path id="me667e7919c" d="M 0 3 
C 0.795609 3 1.55874 2.683901 2.12132 2.12132 
C 2.683901 1.55874 3 0.795609 3 0 
C 3 -0.795609 2.683901 -1.55874 2.12132 -2.12132 
C 1.55874 -2.683901 0.795609 -3 0 -3 
C -0.795609 -3 -1.55874 -2.683901 -2.12132 -2.12132 
C -2.683901 -1.55874 -3 -0.795609 -3 0 
C -3 0.795609 -2.683901 1.55874 -2.12132 2.12132 
C -1.55874 2.683901 -0.795609 3 0 3 
z
" style="stroke: #9e0142"/>
    </defs>
    <g clip-path="url(#p0d03328b0a)">
     <use xlink:href="#me667e7919c" x="683.40822" y="79.532541" style="fill: #ce7fa0; stroke: #9e0142"/>
     <use xlink:href="#me667e7919c" x="465.55862" y="79.107501" style="fill: #ce7fa0; stroke: #9e0142"/>
     <use xlink:href="#me667e7919c" x="356.63382" y="78.877797" style="fill: #ce7fa0; stroke: #9e0142"/>
     <use xlink:href="#me667e7919c" x="291.27894" y="78.741228" style="fill: #ce7fa0; stroke: #9e0142"/>
     <use xlink:href="#me667e7919c" x="247.70902" y="78.650132" style="fill: #ce7fa0; stroke: #9e0142"/>
     <use xlink:href="#me667e7919c" x="216.587648" y="78.585559" style="fill: #ce7fa0; stroke: #9e0142"/>
     <use xlink:href="#me667e7919c" x="193.24662" y="78.537419" style="fill: #ce7fa0; stroke: #9e0142"/>
     <use xlink:href="#me667e7919c" x="175.092486" y="78.500224" style="fill: #ce7fa0; stroke: #9e0142"/>
     <use xlink:href="#me667e7919c" x="160.56918" y="78.470645" style="fill: #ce7fa0; stroke: #9e0142"/>
     <use xlink:href="#me667e7919c" x="148.686474" y="78.446581" style="fill: #ce7fa0; stroke: #9e0142"/>
     <use xlink:href="#me667e7919c" x="138.78422" y="78.426632" style="fill: #ce7fa0; stroke: #9e0142"/>
     <use xlink:href="#me667e7919c" x="130.405389" y="78.409833" style="fill: #ce7fa0; stroke: #9e0142"/>
     <use xlink:href="#me667e7919c" x="123.223534" y="78.395499" style="fill: #ce7fa0; stroke: #9e0142"/>
     <use xlink:href="#me667e7919c" x="116.99926" y="78.383129" style="fill: #ce7fa0; stroke: #9e0142"/>
     <use xlink:href="#me667e7919c" x="111.55302" y="78.362868" style="fill: #ce7fa0; stroke: #9e0142"/>
     <use xlink:href="#me667e7919c" x="106.747514" y="78.346983" style="fill: #ce7fa0; stroke: #9e0142"/>
    </g>
   </g>
   <g id="line2d_14">
    <defs>
     <path id="m7de3fcd2dc" d="M -1.5 3 
L 0 1.5 
L 1.5 3 
L 3 1.5 
L 1.5 0 
L 3 -1.5 
L 1.5 -3 
L 0 -1.5 
L -1.5 -3 
L -3 -1.5 
L -1.5 0 
L -3 1.5 
z
" style="stroke: #9e0142; stroke-linejoin: miter"/>
    </defs>
    <g clip-path="url(#p0d03328b0a)">
     <use xlink:href="#m7de3fcd2dc" x="106.747514" y="78.362868" style="fill: #ebcbd8; stroke: #9e0142; stroke-linejoin: miter"/>
     <use xlink:href="#m7de3fcd2dc" x="102.475953" y="78.354471" style="fill: #ebcbd8; stroke: #9e0142; stroke-linejoin: miter"/>
     <use xlink:href="#m7de3fcd2dc" x="98.65403" y="78.346983" style="fill: #ebcbd8; stroke: #9e0142; stroke-linejoin: miter"/>
     <use xlink:href="#m7de3fcd2dc" x="95.2143" y="78.340264" style="fill: #ebcbd8; stroke: #9e0142; stroke-linejoin: miter"/>
     <use xlink:href="#m7de3fcd2dc" x="92.102163" y="78.334202" style="fill: #ebcbd8; stroke: #9e0142; stroke-linejoin: miter"/>
     <use xlink:href="#m7de3fcd2dc" x="89.272947" y="78.328706" style="fill: #ebcbd8; stroke: #9e0142; stroke-linejoin: miter"/>
     <use xlink:href="#m7de3fcd2dc" x="86.68975" y="78.323702" style="fill: #ebcbd8; stroke: #9e0142; stroke-linejoin: miter"/>
     <use xlink:href="#m7de3fcd2dc" x="84.32182" y="78.319126" style="fill: #ebcbd8; stroke: #9e0142; stroke-linejoin: miter"/>
     <use xlink:href="#m7de3fcd2dc" x="82.143324" y="78.314926" style="fill: #ebcbd8; stroke: #9e0142; stroke-linejoin: miter"/>
     <use xlink:href="#m7de3fcd2dc" x="73.42934" y="78.298227" style="fill: #ebcbd8; stroke: #9e0142; stroke-linejoin: miter"/>
     <use xlink:href="#m7de3fcd2dc" x="62.53686" y="78.277617" style="fill: #ebcbd8; stroke: #9e0142; stroke-linejoin: miter"/>
     <use xlink:href="#m7de3fcd2dc" x="56.001372" y="78.265419" style="fill: #ebcbd8; stroke: #9e0142; stroke-linejoin: miter"/>
    </g>
   </g>
   <g id="line2d_15">
    <path d="M 29.85942 78.21495 
L 42.930396 78.240002 
L 56.001372 78.265053 
L 69.072348 78.290105 
L 82.143324 78.315156 
L 95.2143 78.340208 
L 108.285276 78.365259 
L 121.356252 78.390311 
L 134.427228 78.415362 
L 147.498204 78.440414 
L 160.56918 78.465466 
L 173.640156 78.490517 
L 186.711132 78.515569 
L 199.782108 78.54062 
L 212.853084 78.565672 
L 225.92406 78.590723 
L 227.64406 78.59402 
" clip-path="url(#p0d03328b0a)" style="fill: none; stroke: #9e0142; stroke-linecap: round"/>
   </g>
   <g id="line2d_16">
    <defs>
     <path id="m6be5029a39" d="M 0 3 
C 0.795609 3 1.55874 2.683901 2.12132 2.12132 
C 2.683901 1.55874 3 0.795609 3 0 
C 3 -0.795609 2.683901 -1.55874 2.12132 -2.12132 
C 1.55874 -2.683901 0.795609 -3 0 -3 
C -0.795609 -3 -1.55874 -2.683901 -2.12132 -2.12132 
C -2.683901 -1.55874 -3 -0.795609 -3 0 
C -3 0.795609 -2.683901 1.55874 -2.12132 2.12132 
C -1.55874 2.683901 -0.795609 3 0 3 
z
" style="stroke: #fdbf6f"/>
    </defs>
    <g clip-path="url(#p0d03328b0a)">
     <use xlink:href="#m6be5029a39" x="683.40822" y="63.999591" style="fill: #fddeb6; stroke: #fdbf6f"/>
     <use xlink:href="#m6be5029a39" x="465.55862" y="59.760125" style="fill: #fddeb6; stroke: #fdbf6f"/>
     <use xlink:href="#m6be5029a39" x="356.63382" y="57.565388" style="fill: #fddeb6; stroke: #fdbf6f"/>
     <use xlink:href="#m6be5029a39" x="291.27894" y="56.275003" style="fill: #fddeb6; stroke: #fdbf6f"/>
     <use xlink:href="#m6be5029a39" x="247.70902" y="55.425289" style="fill: #fddeb6; stroke: #fdbf6f"/>
     <use xlink:href="#m6be5029a39" x="216.587648" y="54.827817" style="fill: #fddeb6; stroke: #fdbf6f"/>
     <use xlink:href="#m6be5029a39" x="193.24662" y="54.386216" style="fill: #fddeb6; stroke: #fdbf6f"/>
     <use xlink:href="#m6be5029a39" x="175.092486" y="54.047537" style="fill: #fddeb6; stroke: #fdbf6f"/>
     <use xlink:href="#m6be5029a39" x="160.56918" y="53.780124" style="fill: #fddeb6; stroke: #fdbf6f"/>
     <use xlink:href="#m6be5029a39" x="148.686474" y="53.563995" style="fill: #fddeb6; stroke: #fdbf6f"/>
     <use xlink:href="#m6be5029a39" x="138.78422" y="53.385936" style="fill: #fddeb6; stroke: #fdbf6f"/>
     <use xlink:href="#m6be5029a39" x="130.405389" y="53.23687" style="fill: #fddeb6; stroke: #fdbf6f"/>
     <use xlink:href="#m6be5029a39" x="123.223534" y="53.110371" style="fill: #fddeb6; stroke: #fdbf6f"/>
     <use xlink:href="#m6be5029a39" x="116.99926" y="53.001761" style="fill: #fddeb6; stroke: #fdbf6f"/>
     <use xlink:href="#m6be5029a39" x="111.55302" y="52.825135" style="fill: #fddeb6; stroke: #fdbf6f"/>
     <use xlink:href="#m6be5029a39" x="106.747514" y="52.687878" style="fill: #fddeb6; stroke: #fdbf6f"/>
    </g>
   </g>
   <g id="line2d_17">
    <defs>
     <path id="mdd29509ffd" d="M -1.5 3 
L 0 1.5 
L 1.5 3 
L 3 1.5 
L 1.5 0 
L 3 -1.5 
L 1.5 -3 
L 0 -1.5 
L -1.5 -3 
L -3 -1.5 
L -1.5 0 
L -3 1.5 
z
" style="stroke: #fdbf6f; stroke-linejoin: miter"/>
    </defs>
    <g clip-path="url(#p0d03328b0a)">
     <use xlink:href="#mdd29509ffd" x="106.747514" y="52.825133" style="fill: #fef1e1; stroke: #fdbf6f; stroke-linejoin: miter"/>
     <use xlink:href="#mdd29509ffd" x="102.475953" y="52.752438" style="fill: #fef1e1; stroke: #fdbf6f; stroke-linejoin: miter"/>
     <use xlink:href="#mdd29509ffd" x="98.65403" y="52.687877" style="fill: #fef1e1; stroke: #fdbf6f; stroke-linejoin: miter"/>
     <use xlink:href="#mdd29509ffd" x="95.2143" y="52.630182" style="fill: #fef1e1; stroke: #fdbf6f; stroke-linejoin: miter"/>
     <use xlink:href="#mdd29509ffd" x="92.102163" y="52.578331" style="fill: #fef1e1; stroke: #fdbf6f; stroke-linejoin: miter"/>
     <use xlink:href="#mdd29509ffd" x="89.272947" y="52.531495" style="fill: #fef1e1; stroke: #fdbf6f; stroke-linejoin: miter"/>
     <use xlink:href="#mdd29509ffd" x="86.68975" y="52.488994" style="fill: #fef1e1; stroke: #fdbf6f; stroke-linejoin: miter"/>
     <use xlink:href="#mdd29509ffd" x="84.32182" y="52.450261" style="fill: #fef1e1; stroke: #fdbf6f; stroke-linejoin: miter"/>
     <use xlink:href="#mdd29509ffd" x="82.143324" y="52.414827" style="fill: #fef1e1; stroke: #fdbf6f; stroke-linejoin: miter"/>
     <use xlink:href="#mdd29509ffd" x="73.42934" y="52.275147" style="fill: #fef1e1; stroke: #fdbf6f; stroke-linejoin: miter"/>
     <use xlink:href="#mdd29509ffd" x="62.53686" y="52.105851" style="fill: #fef1e1; stroke: #fdbf6f; stroke-linejoin: miter"/>
     <use xlink:href="#mdd29509ffd" x="56.001372" y="52.007684" style="fill: #fef1e1; stroke: #fdbf6f; stroke-linejoin: miter"/>
    </g>
   </g>
   <g id="line2d_18">
    <path d="M 29.85942 51.581136 
L 42.930396 51.79072 
L 56.001372 52.000304 
L 69.072348 52.209887 
L 82.143324 52.419471 
L 95.2143 52.629055 
L 108.285276 52.838638 
L 121.356252 53.048222 
L 134.427228 53.257806 
L 147.498204 53.467389 
L 160.56918 53.676973 
L 173.640156 53.886557 
L 186.711132 54.09614 
L 199.782108 54.305724 
L 212.853084 54.515308 
L 225.92406 54.724891 
L 227.64406 54.75247 
" clip-path="url(#p0d03328b0a)" style="fill: none; stroke: #fdbf6f; stroke-linecap: round"/>
   </g>
   <g id="line2d_19">
    <defs>
     <path id="md280e0f096" d="M 0 3 
C 0.795609 3 1.55874 2.683901 2.12132 2.12132 
C 2.683901 1.55874 3 0.795609 3 0 
C 3 -0.795609 2.683901 -1.55874 2.12132 -2.12132 
C 1.55874 -2.683901 0.795609 -3 0 -3 
C -0.795609 -3 -1.55874 -2.683901 -2.12132 -2.12132 
C -2.683901 -1.55874 -3 -0.795609 -3 0 
C -3 0.795609 -2.683901 1.55874 -2.12132 2.12132 
C -1.55874 2.683901 -0.795609 3 0 3 
z
" style="stroke: #bfe5a0"/>
    </defs>
    <g clip-path="url(#p0d03328b0a)">
     <use xlink:href="#md280e0f096" x="683.40822" y="50.507918" style="fill: #def1cf; stroke: #bfe5a0"/>
     <use xlink:href="#md280e0f096" x="465.55862" y="43.40532" style="fill: #def1cf; stroke: #bfe5a0"/>
     <use xlink:href="#md280e0f096" x="356.63382" y="39.904875" style="fill: #def1cf; stroke: #bfe5a0"/>
     <use xlink:href="#md280e0f096" x="291.27894" y="37.87997" style="fill: #def1cf; stroke: #bfe5a0"/>
     <use xlink:href="#md280e0f096" x="247.70902" y="36.564023" style="fill: #def1cf; stroke: #bfe5a0"/>
     <use xlink:href="#md280e0f096" x="216.587648" y="35.64643" style="fill: #def1cf; stroke: #bfe5a0"/>
     <use xlink:href="#md280e0f096" x="193.24662" y="34.972938" style="fill: #def1cf; stroke: #bfe5a0"/>
     <use xlink:href="#md280e0f096" x="175.092486" y="34.459393" style="fill: #def1cf; stroke: #bfe5a0"/>
     <use xlink:href="#md280e0f096" x="160.56918" y="34.055978" style="fill: #def1cf; stroke: #bfe5a0"/>
     <use xlink:href="#md280e0f096" x="148.686474" y="33.731432" style="fill: #def1cf; stroke: #bfe5a0"/>
     <use xlink:href="#md280e0f096" x="138.78422" y="33.465182" style="fill: #def1cf; stroke: #bfe5a0"/>
     <use xlink:href="#md280e0f096" x="130.405389" y="33.243163" style="fill: #def1cf; stroke: #bfe5a0"/>
     <use xlink:href="#md280e0f096" x="123.223534" y="33.055448" style="fill: #def1cf; stroke: #bfe5a0"/>
     <use xlink:href="#md280e0f096" x="116.99926" y="32.894841" style="fill: #def1cf; stroke: #bfe5a0"/>
     <use xlink:href="#md280e0f096" x="111.55302" y="32.634897" style="fill: #def1cf; stroke: #bfe5a0"/>
     <use xlink:href="#md280e0f096" x="106.747514" y="32.434108" style="fill: #def1cf; stroke: #bfe5a0"/>
    </g>
   </g>
   <g id="line2d_20">
    <defs>
     <path id="mf696e0b0e7" d="M -1.5 3 
L 0 1.5 
L 1.5 3 
L 3 1.5 
L 1.5 0 
L 3 -1.5 
L 1.5 -3 
L 0 -1.5 
L -1.5 -3 
L -3 -1.5 
L -1.5 0 
L -3 1.5 
z
" style="stroke: #bfe5a0; stroke-linejoin: miter"/>
    </defs>
    <g clip-path="url(#p0d03328b0a)">
     <use xlink:href="#mf696e0b0e7" x="106.747514" y="32.634895" style="fill: #f1f9eb; stroke: #bfe5a0; stroke-linejoin: miter"/>
     <use xlink:href="#mf696e0b0e7" x="102.475953" y="32.528407" style="fill: #f1f9eb; stroke: #bfe5a0; stroke-linejoin: miter"/>
     <use xlink:href="#mf696e0b0e7" x="98.65403" y="32.434106" style="fill: #f1f9eb; stroke: #bfe5a0; stroke-linejoin: miter"/>
     <use xlink:href="#mf696e0b0e7" x="95.2143" y="32.350065" style="fill: #f1f9eb; stroke: #bfe5a0; stroke-linejoin: miter"/>
     <use xlink:href="#mf696e0b0e7" x="92.102163" y="32.274737" style="fill: #f1f9eb; stroke: #bfe5a0; stroke-linejoin: miter"/>
     <use xlink:href="#mf696e0b0e7" x="89.272947" y="32.206868" style="fill: #f1f9eb; stroke: #bfe5a0; stroke-linejoin: miter"/>
     <use xlink:href="#mf696e0b0e7" x="86.68975" y="32.145431" style="fill: #f1f9eb; stroke: #bfe5a0; stroke-linejoin: miter"/>
     <use xlink:href="#mf696e0b0e7" x="84.32182" y="32.089575" style="fill: #f1f9eb; stroke: #bfe5a0; stroke-linejoin: miter"/>
     <use xlink:href="#mf696e0b0e7" x="82.143324" y="32.038591" style="fill: #f1f9eb; stroke: #bfe5a0; stroke-linejoin: miter"/>
     <use xlink:href="#mf696e0b0e7" x="73.42934" y="31.838835" style="fill: #f1f9eb; stroke: #bfe5a0; stroke-linejoin: miter"/>
     <use xlink:href="#mf696e0b0e7" x="62.53686" y="31.59991" style="fill: #f1f9eb; stroke: #bfe5a0; stroke-linejoin: miter"/>
     <use xlink:href="#mf696e0b0e7" x="56.001372" y="31.463487" style="fill: #f1f9eb; stroke: #bfe5a0; stroke-linejoin: miter"/>
    </g>
   </g>
   <g id="line2d_21">
    <path d="M 29.85942 30.848987 
L 42.930396 31.148745 
L 56.001372 31.448503 
L 69.072348 31.74826 
L 82.143324 32.048018 
L 95.2143 32.347776 
L 108.285276 32.647534 
L 121.356252 32.947292 
L 134.427228 33.247049 
L 147.498204 33.546807 
L 160.56918 33.846565 
L 173.640156 34.146323 
L 186.711132 34.446081 
L 199.782108 34.745838 
L 212.853084 35.045596 
L 225.92406 35.345354 
L 227.64406 35.384799 
" clip-path="url(#p0d03328b0a)" style="fill: none; stroke: #bfe5a0; stroke-linecap: round"/>
   </g>
   <g id="line2d_22">
    <defs>
     <path id="m9931f86180" d="M 0 3 
C 0.795609 3 1.55874 2.683901 2.12132 2.12132 
C 2.683901 1.55874 3 0.795609 3 0 
C 3 -0.795609 2.683901 -1.55874 2.12132 -2.12132 
C 1.55874 -2.683901 0.795609 -3 0 -3 
C -0.795609 -3 -1.55874 -2.683901 -2.12132 -2.12132 
C -2.683901 -1.55874 -3 -0.795609 -3 0 
C -3 0.795609 -2.683901 1.55874 -2.12132 2.12132 
C -1.55874 2.683901 -0.795609 3 0 3 
z
" style="stroke: #5e4fa2"/>
    </defs>
    <g clip-path="url(#p0d03328b0a)">
     <use xlink:href="#m9931f86180" x="683.40822" y="35.194461" style="fill: #aea6d0; stroke: #5e4fa2"/>
     <use xlink:href="#m9931f86180" x="465.55862" y="24.813035" style="fill: #aea6d0; stroke: #5e4fa2"/>
     <use xlink:href="#m9931f86180" x="356.63382" y="19.916788" style="fill: #aea6d0; stroke: #5e4fa2"/>
     <use xlink:href="#m9931f86180" x="291.27894" y="17.143355" style="fill: #aea6d0; stroke: #5e4fa2"/>
     <use xlink:href="#m9931f86180" x="247.70902" y="15.372619" style="fill: #aea6d0; stroke: #5e4fa2"/>
     <use xlink:href="#m9931f86180" x="216.587648" y="14.154012" style="fill: #aea6d0; stroke: #5e4fa2"/>
     <use xlink:href="#m9931f86180" x="193.24662" y="13.269246" style="fill: #aea6d0; stroke: #5e4fa2"/>
     <use xlink:href="#m9931f86180" x="175.092486" y="12.600741" style="fill: #aea6d0; stroke: #5e4fa2"/>
     <use xlink:href="#m9931f86180" x="160.56918" y="12.079758" style="fill: #aea6d0; stroke: #5e4fa2"/>
     <use xlink:href="#m9931f86180" x="148.686474" y="11.663572" style="fill: #aea6d0; stroke: #5e4fa2"/>
     <use xlink:href="#m9931f86180" x="138.78422" y="11.324305" style="fill: #aea6d0; stroke: #5e4fa2"/>
     <use xlink:href="#m9931f86180" x="130.405389" y="11.043036" style="fill: #aea6d0; stroke: #5e4fa2"/>
     <use xlink:href="#m9931f86180" x="123.223534" y="10.806493" style="fill: #aea6d0; stroke: #5e4fa2"/>
     <use xlink:href="#m9931f86180" x="116.99926" y="10.605113" style="fill: #aea6d0; stroke: #5e4fa2"/>
     <use xlink:href="#m9931f86180" x="111.55302" y="10.281348" style="fill: #aea6d0; stroke: #5e4fa2"/>
     <use xlink:href="#m9931f86180" x="106.747514" y="10.033333" style="fill: #aea6d0; stroke: #5e4fa2"/>
    </g>
   </g>
   <g id="line2d_23">
    <defs>
     <path id="mf9163201e4" d="M -1.5 3 
L 0 1.5 
L 1.5 3 
L 3 1.5 
L 1.5 0 
L 3 -1.5 
L 1.5 -3 
L 0 -1.5 
L -1.5 -3 
L -3 -1.5 
L -1.5 0 
L -3 1.5 
z
" style="stroke: #5e4fa2; stroke-linejoin: miter"/>
    </defs>
    <g clip-path="url(#p0d03328b0a)">
     <use xlink:href="#mf9163201e4" x="106.747514" y="10.281346" style="fill: #dedbec; stroke: #5e4fa2; stroke-linejoin: miter"/>
     <use xlink:href="#mf9163201e4" x="102.475953" y="10.149569" style="fill: #dedbec; stroke: #5e4fa2; stroke-linejoin: miter"/>
     <use xlink:href="#mf9163201e4" x="98.65403" y="10.033331" style="fill: #dedbec; stroke: #5e4fa2; stroke-linejoin: miter"/>
     <use xlink:href="#mf9163201e4" x="95.2143" y="9.930126" style="fill: #dedbec; stroke: #5e4fa2; stroke-linejoin: miter"/>
     <use xlink:href="#mf9163201e4" x="92.102163" y="9.837952" style="fill: #dedbec; stroke: #5e4fa2; stroke-linejoin: miter"/>
     <use xlink:href="#mf9163201e4" x="89.272947" y="9.755188" style="fill: #dedbec; stroke: #5e4fa2; stroke-linejoin: miter"/>
     <use xlink:href="#mf9163201e4" x="86.68975" y="9.680512" style="fill: #dedbec; stroke: #5e4fa2; stroke-linejoin: miter"/>
     <use xlink:href="#mf9163201e4" x="84.32182" y="9.612835" style="fill: #dedbec; stroke: #5e4fa2; stroke-linejoin: miter"/>
     <use xlink:href="#mf9163201e4" x="82.143324" y="9.55125" style="fill: #dedbec; stroke: #5e4fa2; stroke-linejoin: miter"/>
     <use xlink:href="#mf9163201e4" x="73.42934" y="9.311879" style="fill: #dedbec; stroke: #5e4fa2; stroke-linejoin: miter"/>
     <use xlink:href="#mf9163201e4" x="62.53686" y="9.030519" style="fill: #dedbec; stroke: #5e4fa2; stroke-linejoin: miter"/>
     <use xlink:href="#mf9163201e4" x="56.001372" y="8.873094" style="fill: #dedbec; stroke: #5e4fa2; stroke-linejoin: miter"/>
    </g>
   </g>
   <g id="line2d_24">
    <path d="M 29.85942 8.129435 
L 42.930396 8.488816 
L 56.001372 8.848198 
L 69.072348 9.207579 
L 82.143324 9.56696 
L 95.2143 9.926341 
L 108.285276 10.285723 
L 121.356252 10.645104 
L 134.427228 11.004485 
L 147.498204 11.363866 
L 160.56918 11.723248 
L 173.640156 12.082629 
L 186.711132 12.44201 
L 199.782108 12.801391 
L 212.853084 13.160773 
L 225.92406 13.520154 
L 227.64406 13.567445 
" clip-path="url(#p0d03328b0a)" style="fill: none; stroke: #5e4fa2; stroke-linecap: round"/>
   </g>
   <g id="patch_3">
    <path d="M 29.85942 94.137867 
L 29.85942 0.72 
" style="fill: none; stroke: #000000; stroke-width: 0.35; stroke-linejoin: miter; stroke-linecap: square"/>
   </g>
   <g id="patch_4">
    <path d="M 225.92406 94.137867 
L 225.92406 0.72 
" style="fill: none; stroke: #000000; stroke-width: 0.35; stroke-linejoin: miter; stroke-linecap: square"/>
   </g>
   <g id="patch_5">
    <path d="M 29.85942 94.137867 
L 225.92406 94.137867 
" style="fill: none; stroke: #000000; stroke-width: 0.35; stroke-linejoin: miter; stroke-linecap: square"/>
   </g>
   <g id="patch_6">
    <path d="M 29.85942 0.72 
L 225.92406 0.72 
" style="fill: none; stroke: #000000; stroke-width: 0.35; stroke-linejoin: miter; stroke-linecap: square"/>
   </g>
   <g id="text_6">
    <!-- $V/J=0.2$ -->
    <g style="fill: #9e0142" transform="translate(186.711132 73.421679)scale(0.08 -0.08)">
     <defs>
      <path id="CMMI12-56" d="M 3962 3644 
C 4179 3987 4378 4140 4704 4166 
C 4768 4172 4819 4172 4819 4287 
C 4819 4313 4806 4352 4749 4352 
C 4634 4352 4358 4339 4243 4339 
C 4058 4339 3866 4352 3686 4352 
C 3635 4352 3571 4352 3571 4230 
C 3571 4172 3629 4166 3654 4166 
C 3891 4146 3917 4032 3917 3956 
C 3917 3860 3827 3714 3821 3708 
L 1811 540 
L 1363 3968 
C 1363 4153 1696 4166 1766 4166 
C 1862 4166 1920 4166 1920 4287 
C 1920 4352 1850 4352 1830 4352 
C 1722 4352 1594 4339 1485 4339 
L 1126 4339 
C 659 4339 467 4352 461 4352 
C 422 4352 346 4352 346 4236 
C 346 4166 390 4166 493 4166 
C 819 4166 838 4108 858 3949 
L 1370 25 
C 1389 -109 1389 -128 1478 -128 
C 1555 -128 1587 -109 1651 -7 
L 3962 3644 
z
" transform="scale(0.015625)"/>
      <path id="CMMI12-3d" d="M 2746 4563 
C 2746 4569 2784 4665 2784 4678 
C 2784 4755 2720 4800 2669 4800 
C 2637 4800 2579 4800 2528 4659 
L 384 -1364 
C 384 -1370 346 -1466 346 -1479 
C 346 -1556 410 -1600 461 -1600 
C 499 -1600 557 -1594 602 -1460 
L 2746 4563 
z
" transform="scale(0.015625)"/>
      <path id="CMMI12-4a" d="M 3418 3911 
C 3469 4102 3482 4166 3795 4166 
C 3898 4166 3962 4166 3962 4281 
C 3962 4352 3904 4352 3878 4352 
C 3770 4352 3648 4339 3533 4339 
L 3181 4339 
C 2912 4339 2630 4352 2362 4352 
C 2304 4352 2227 4352 2227 4236 
C 2227 4172 2278 4172 2278 4166 
L 2438 4166 
C 2950 4166 2950 4115 2950 4019 
C 2950 4013 2950 3968 2925 3866 
L 2189 953 
C 2022 304 1594 0 1286 0 
C 1069 0 762 99 685 428 
C 710 422 742 415 768 415 
C 979 415 1146 601 1146 787 
C 1146 889 1082 1024 890 1024 
C 774 1024 506 959 506 543 
C 506 149 838 -128 1299 -128 
C 1882 -128 2509 304 2662 908 
L 3418 3911 
z
" transform="scale(0.015625)"/>
      <path id="CMR17-3d" d="M 4115 2048 
C 4211 2048 4307 2048 4307 2156 
C 4307 2272 4198 2272 4090 2272 
L 512 2272 
C 403 2272 294 2272 294 2156 
C 294 2048 390 2048 486 2048 
L 4115 2048 
z
M 4090 927 
C 4198 927 4307 927 4307 1043 
C 4307 1152 4211 1152 4115 1152 
L 486 1152 
C 390 1152 294 1152 294 1043 
C 294 927 403 927 512 927 
L 4090 927 
z
" transform="scale(0.015625)"/>
      <path id="CMMI12-3a" d="M 1178 307 
C 1178 492 1024 620 870 620 
C 685 620 557 467 557 313 
C 557 128 710 0 864 0 
C 1050 0 1178 153 1178 307 
z
" transform="scale(0.015625)"/>
      <path id="CMR17-32" d="M 2669 990 
L 2554 990 
C 2490 537 2438 460 2413 422 
C 2381 371 1920 371 1830 371 
L 602 371 
C 832 620 1280 1073 1824 1596 
C 2214 1966 2669 2400 2669 3033 
C 2669 3788 2067 4224 1395 4224 
C 691 4224 262 3603 262 3027 
C 262 2777 448 2745 525 2745 
C 589 2745 781 2783 781 3007 
C 781 3206 614 3264 525 3264 
C 486 3264 448 3257 422 3244 
C 544 3788 915 4057 1306 4057 
C 1862 4057 2227 3616 2227 3033 
C 2227 2477 1901 1998 1536 1583 
L 262 147 
L 262 0 
L 2515 0 
L 2669 990 
z
" transform="scale(0.015625)"/>
     </defs>
     <use xlink:href="#CMMI12-56" transform="scale(0.996264)"/>
     <use xlink:href="#CMMI12-3d" transform="translate(67.70845 0)scale(0.996264)"/>
     <use xlink:href="#CMMI12-4a" transform="translate(116.483369 0)scale(0.996264)"/>
     <use xlink:href="#CMR17-3d" transform="translate(207.300048 0)scale(0.996264)"/>
     <use xlink:href="#CMR17-30" transform="translate(306.688845 0)scale(0.996264)"/>
     <use xlink:href="#CMMI12-3a" transform="translate(352.379322 0)scale(0.996264)"/>
     <use xlink:href="#CMR17-32" transform="translate(379.476499 0)scale(0.996264)"/>
    </g>
   </g>
   <g id="text_7">
    <!-- $V/J=0.9$ -->
    <g style="fill: #fdbf6f" transform="translate(186.711132 49.270476)scale(0.08 -0.08)">
     <defs>
      <path id="CMR17-39" d="M 2253 1871 
C 2253 448 1670 25 1190 25 
C 1043 25 685 43 538 281 
C 704 256 826 345 826 505 
C 826 678 685 736 595 736 
C 538 736 365 710 365 492 
C 365 68 742 -128 1203 -128 
C 1939 -128 2688 665 2688 2090 
C 2688 3857 1971 4224 1485 4224 
C 851 4224 243 3664 243 2800 
C 243 2000 762 1408 1414 1408 
C 1952 1408 2189 1910 2253 2122 
L 2253 1871 
z
M 1427 1510 
C 1254 1510 1011 1542 813 1929 
C 678 2181 678 2477 678 2793 
C 678 3174 678 3438 858 3722 
C 947 3857 1114 4076 1485 4076 
C 2240 4076 2240 2909 2240 2651 
C 2240 2193 2035 1510 1427 1510 
z
" transform="scale(0.015625)"/>
     </defs>
     <use xlink:href="#CMMI12-56" transform="scale(0.996264)"/>
     <use xlink:href="#CMMI12-3d" transform="translate(67.70845 0)scale(0.996264)"/>
     <use xlink:href="#CMMI12-4a" transform="translate(116.483369 0)scale(0.996264)"/>
     <use xlink:href="#CMR17-3d" transform="translate(207.300048 0)scale(0.996264)"/>
     <use xlink:href="#CMR17-30" transform="translate(306.688845 0)scale(0.996264)"/>
     <use xlink:href="#CMMI12-3a" transform="translate(352.379322 0)scale(0.996264)"/>
     <use xlink:href="#CMR17-39" transform="translate(379.476499 0)scale(0.996264)"/>
    </g>
   </g>
   <g id="text_8">
    <!-- $V/J=1.3$ -->
    <g style="fill: #bfe5a0" transform="translate(186.711132 29.857198)scale(0.08 -0.08)">
     <defs>
      <path id="CMR17-33" d="M 1414 2176 
C 1984 2176 2234 1673 2234 1094 
C 2234 322 1824 25 1453 25 
C 1114 25 563 193 390 691 
C 422 678 454 678 486 678 
C 640 678 755 780 755 947 
C 755 1132 614 1216 486 1216 
C 378 1216 211 1164 211 927 
C 211 335 787 -128 1466 -128 
C 2176 -128 2720 432 2720 1087 
C 2720 1718 2208 2176 1600 2246 
C 2086 2347 2554 2776 2554 3353 
C 2554 3856 2048 4224 1472 4224 
C 890 4224 378 3862 378 3347 
C 378 3123 544 3084 627 3084 
C 762 3084 877 3167 877 3334 
C 877 3500 762 3584 627 3584 
C 602 3584 570 3584 544 3571 
C 730 3999 1235 4076 1459 4076 
C 1683 4076 2106 3966 2106 3347 
C 2106 3167 2080 2851 1862 2574 
C 1670 2329 1453 2316 1242 2297 
C 1210 2297 1062 2284 1037 2284 
C 992 2278 966 2272 966 2227 
C 966 2182 973 2176 1101 2176 
L 1414 2176 
z
" transform="scale(0.015625)"/>
     </defs>
     <use xlink:href="#CMMI12-56" transform="scale(0.996264)"/>
     <use xlink:href="#CMMI12-3d" transform="translate(67.70845 0)scale(0.996264)"/>
     <use xlink:href="#CMMI12-4a" transform="translate(116.483369 0)scale(0.996264)"/>
     <use xlink:href="#CMR17-3d" transform="translate(207.300048 0)scale(0.996264)"/>
     <use xlink:href="#CMR17-31" transform="translate(306.688845 0)scale(0.996264)"/>
     <use xlink:href="#CMMI12-3a" transform="translate(352.379322 0)scale(0.996264)"/>
     <use xlink:href="#CMR17-33" transform="translate(379.476499 0)scale(0.996264)"/>
    </g>
   </g>
   <g id="text_9">
    <!-- $V/J=1.7$ -->
    <g style="fill: #5e4fa2" transform="translate(186.711132 8.153506)scale(0.08 -0.08)">
     <defs>
      <path id="CMR17-37" d="M 2886 3955 
L 2886 4096 
L 1382 4096 
C 634 4096 621 4166 595 4288 
L 480 4288 
L 294 3104 
L 410 3104 
C 429 3226 474 3552 550 3673 
C 589 3724 1062 3724 1171 3724 
L 2579 3724 
L 1869 2670 
C 1395 1961 1069 1003 1069 166 
C 1069 89 1069 -128 1299 -128 
C 1530 -128 1530 89 1530 172 
L 1530 466 
C 1530 1514 1709 2204 2003 2644 
L 2886 3955 
z
" transform="scale(0.015625)"/>
     </defs>
     <use xlink:href="#CMMI12-56" transform="scale(0.996264)"/>
     <use xlink:href="#CMMI12-3d" transform="translate(67.70845 0)scale(0.996264)"/>
     <use xlink:href="#CMMI12-4a" transform="translate(116.483369 0)scale(0.996264)"/>
     <use xlink:href="#CMR17-3d" transform="translate(207.300048 0)scale(0.996264)"/>
     <use xlink:href="#CMR17-31" transform="translate(306.688845 0)scale(0.996264)"/>
     <use xlink:href="#CMMI12-3a" transform="translate(352.379322 0)scale(0.996264)"/>
     <use xlink:href="#CMR17-37" transform="translate(379.476499 0)scale(0.996264)"/>
    </g>
   </g>
   <g id="line2d_25">
    <defs>
     <path id="m3a67eec01c" d="M 0 3 
C 0.795609 3 1.55874 2.683901 2.12132 2.12132 
C 2.683901 1.55874 3 0.795609 3 0 
C 3 -0.795609 2.683901 -1.55874 2.12132 -2.12132 
C 1.55874 -2.683901 0.795609 -3 0 -3 
C -0.795609 -3 -1.55874 -2.683901 -2.12132 -2.12132 
C -2.683901 -1.55874 -3 -0.795609 -3 0 
C -3 0.795609 -2.683901 1.55874 -2.12132 2.12132 
C -1.55874 2.683901 -0.795609 3 0 3 
z
" style="stroke: #9e0142"/>
    </defs>
    <g>
     <use xlink:href="#m3a67eec01c" x="29.85942" y="78.21495" style="fill: #ffffff; stroke: #9e0142"/>
    </g>
   </g>
   <g id="line2d_26">
    <defs>
     <path id="m71bdb7e9dc" d="M 0 3 
C 0.795609 3 1.55874 2.683901 2.12132 2.12132 
C 2.683901 1.55874 3 0.795609 3 0 
C 3 -0.795609 2.683901 -1.55874 2.12132 -2.12132 
C 1.55874 -2.683901 0.795609 -3 0 -3 
C -0.795609 -3 -1.55874 -2.683901 -2.12132 -2.12132 
C -2.683901 -1.55874 -3 -0.795609 -3 0 
C -3 0.795609 -2.683901 1.55874 -2.12132 2.12132 
C -1.55874 2.683901 -0.795609 3 0 3 
z
" style="stroke: #fdbf6f"/>
    </defs>
    <g>
     <use xlink:href="#m71bdb7e9dc" x="29.85942" y="51.581136" style="fill: #ffffff; stroke: #fdbf6f"/>
    </g>
   </g>
   <g id="line2d_27">
    <defs>
     <path id="m254a4abedb" d="M 0 3 
C 0.795609 3 1.55874 2.683901 2.12132 2.12132 
C 2.683901 1.55874 3 0.795609 3 0 
C 3 -0.795609 2.683901 -1.55874 2.12132 -2.12132 
C 1.55874 -2.683901 0.795609 -3 0 -3 
C -0.795609 -3 -1.55874 -2.683901 -2.12132 -2.12132 
C -2.683901 -1.55874 -3 -0.795609 -3 0 
C -3 0.795609 -2.683901 1.55874 -2.12132 2.12132 
C -1.55874 2.683901 -0.795609 3 0 3 
z
" style="stroke: #bfe5a0"/>
    </defs>
    <g>
     <use xlink:href="#m254a4abedb" x="29.85942" y="30.848987" style="fill: #ffffff; stroke: #bfe5a0"/>
    </g>
   </g>
   <g id="line2d_28">
    <defs>
     <path id="m1a81663a8e" d="M 0 3 
C 0.795609 3 1.55874 2.683901 2.12132 2.12132 
C 2.683901 1.55874 3 0.795609 3 0 
C 3 -0.795609 2.683901 -1.55874 2.12132 -2.12132 
C 1.55874 -2.683901 0.795609 -3 0 -3 
C -0.795609 -3 -1.55874 -2.683901 -2.12132 -2.12132 
C -2.683901 -1.55874 -3 -0.795609 -3 0 
C -3 0.795609 -2.683901 1.55874 -2.12132 2.12132 
C -1.55874 2.683901 -0.795609 3 0 3 
z
" style="stroke: #5e4fa2"/>
    </defs>
    <g>
     <use xlink:href="#m1a81663a8e" x="29.85942" y="8.129435" style="fill: #ffffff; stroke: #5e4fa2"/>
    </g>
   </g>
  </g>
  <g id="axes_2">
   <g id="patch_7">
    <path d="M 29.85942 193.160805 
L 225.92406 193.160805 
L 225.92406 99.742939 
L 29.85942 99.742939 
L 29.85942 193.160805 
z
" style="fill: none"/>
   </g>
   <g id="matplotlib.axis_3">
    <g id="xtick_9">
     <g id="line2d_29">
      <g>
       <use xlink:href="#m7e3ca21ef5" x="29.85942" y="193.160805" style="stroke: #000000; stroke-width: 0.35"/>
      </g>
     </g>
     <g id="text_10">
      <!-- $\mathdefault{0.00}$ -->
      <g transform="translate(22.331984 203.695607)scale(0.08 -0.08)">
       <use xlink:href="#CMR17-30" transform="scale(0.996264)"/>
       <use xlink:href="#CMMI12-3a" transform="translate(45.690477 0)scale(0.996264)"/>
       <use xlink:href="#CMR17-30" transform="translate(72.787654 0)scale(0.996264)"/>
       <use xlink:href="#CMR17-30" transform="translate(118.478131 0)scale(0.996264)"/>
      </g>
     </g>
    </g>
    <g id="xtick_10">
     <g id="line2d_30">
      <g>
       <use xlink:href="#m7e3ca21ef5" x="56.001372" y="193.160805" style="stroke: #000000; stroke-width: 0.35"/>
      </g>
     </g>
     <g id="text_11">
      <!-- $\mathdefault{0.02}$ -->
      <g transform="translate(48.473936 203.695607)scale(0.08 -0.08)">
       <use xlink:href="#CMR17-30" transform="scale(0.996264)"/>
       <use xlink:href="#CMMI12-3a" transform="translate(45.690477 0)scale(0.996264)"/>
       <use xlink:href="#CMR17-30" transform="translate(72.787654 0)scale(0.996264)"/>
       <use xlink:href="#CMR17-32" transform="translate(118.478131 0)scale(0.996264)"/>
      </g>
     </g>
    </g>
    <g id="xtick_11">
     <g id="line2d_31">
      <g>
       <use xlink:href="#m7e3ca21ef5" x="82.143324" y="193.160805" style="stroke: #000000; stroke-width: 0.35"/>
      </g>
     </g>
     <g id="text_12">
      <!-- $\mathdefault{0.04}$ -->
      <g transform="translate(74.615888 203.695607)scale(0.08 -0.08)">
       <defs>
        <path id="CMR17-34" d="M 2150 4147 
C 2150 4281 2144 4288 2029 4288 
L 128 1254 
L 128 1088 
L 1779 1088 
L 1779 460 
C 1779 230 1766 166 1318 166 
L 1197 166 
L 1197 0 
C 1402 12 1747 12 1965 12 
C 2182 12 2528 12 2733 0 
L 2733 166 
L 2611 166 
C 2163 166 2150 230 2150 460 
L 2150 1088 
L 2803 1088 
L 2803 1254 
L 2150 1254 
L 2150 4147 
z
M 1798 3723 
L 1798 1254 
L 256 1254 
L 1798 3723 
z
" transform="scale(0.015625)"/>
       </defs>
       <use xlink:href="#CMR17-30" transform="scale(0.996264)"/>
       <use xlink:href="#CMMI12-3a" transform="translate(45.690477 0)scale(0.996264)"/>
       <use xlink:href="#CMR17-30" transform="translate(72.787654 0)scale(0.996264)"/>
       <use xlink:href="#CMR17-34" transform="translate(118.478131 0)scale(0.996264)"/>
      </g>
     </g>
    </g>
    <g id="xtick_12">
     <g id="line2d_32">
      <g>
       <use xlink:href="#m7e3ca21ef5" x="108.285276" y="193.160805" style="stroke: #000000; stroke-width: 0.35"/>
      </g>
     </g>
     <g id="text_13">
      <!-- $\mathdefault{0.06}$ -->
      <g transform="translate(100.75784 203.695607)scale(0.08 -0.08)">
       <defs>
        <path id="CMR17-36" d="M 678 2198 
C 678 3712 1395 4076 1811 4076 
C 1946 4076 2272 4049 2400 3782 
C 2298 3782 2106 3782 2106 3558 
C 2106 3385 2246 3328 2336 3328 
C 2394 3328 2566 3353 2566 3571 
C 2566 3987 2246 4224 1805 4224 
C 1043 4224 243 3411 243 2011 
C 243 257 966 -128 1478 -128 
C 2099 -128 2688 431 2688 1295 
C 2688 2101 2170 2688 1517 2688 
C 1126 2688 838 2430 678 1979 
L 678 2198 
z
M 1478 25 
C 691 25 691 1212 691 1450 
C 691 1914 909 2585 1504 2585 
C 1613 2585 1926 2585 2138 2140 
C 2253 1889 2253 1624 2253 1302 
C 2253 954 2253 696 2118 438 
C 1978 173 1773 25 1478 25 
z
" transform="scale(0.015625)"/>
       </defs>
       <use xlink:href="#CMR17-30" transform="scale(0.996264)"/>
       <use xlink:href="#CMMI12-3a" transform="translate(45.690477 0)scale(0.996264)"/>
       <use xlink:href="#CMR17-30" transform="translate(72.787654 0)scale(0.996264)"/>
       <use xlink:href="#CMR17-36" transform="translate(118.478131 0)scale(0.996264)"/>
      </g>
     </g>
    </g>
    <g id="xtick_13">
     <g id="line2d_33">
      <g>
       <use xlink:href="#m7e3ca21ef5" x="134.427228" y="193.160805" style="stroke: #000000; stroke-width: 0.35"/>
      </g>
     </g>
     <g id="text_14">
      <!-- $\mathdefault{0.08}$ -->
      <g transform="translate(126.899792 203.695607)scale(0.08 -0.08)">
       <defs>
        <path id="CMR17-38" d="M 1741 2289 
C 2144 2494 2554 2803 2554 3298 
C 2554 3884 1990 4224 1472 4224 
C 890 4224 378 3800 378 3215 
C 378 3054 416 2777 666 2533 
C 730 2469 998 2276 1171 2154 
C 883 2006 211 1652 211 945 
C 211 282 838 -128 1459 -128 
C 2144 -128 2720 366 2720 1022 
C 2720 1607 2330 1877 2074 2051 
L 1741 2289 
z
M 902 2855 
C 851 2887 595 3086 595 3388 
C 595 3781 998 4076 1459 4076 
C 1965 4076 2336 3716 2336 3298 
C 2336 2700 1670 2359 1638 2359 
C 1632 2359 1626 2359 1574 2398 
L 902 2855 
z
M 2080 1536 
C 2176 1466 2483 1253 2483 861 
C 2483 385 2010 25 1472 25 
C 890 25 448 443 448 951 
C 448 1459 838 1884 1280 2083 
L 2080 1536 
z
" transform="scale(0.015625)"/>
       </defs>
       <use xlink:href="#CMR17-30" transform="scale(0.996264)"/>
       <use xlink:href="#CMMI12-3a" transform="translate(45.690477 0)scale(0.996264)"/>
       <use xlink:href="#CMR17-30" transform="translate(72.787654 0)scale(0.996264)"/>
       <use xlink:href="#CMR17-38" transform="translate(118.478131 0)scale(0.996264)"/>
      </g>
     </g>
    </g>
    <g id="xtick_14">
     <g id="line2d_34">
      <g>
       <use xlink:href="#m7e3ca21ef5" x="160.56918" y="193.160805" style="stroke: #000000; stroke-width: 0.35"/>
      </g>
     </g>
     <g id="text_15">
      <!-- $\mathdefault{0.10}$ -->
      <g transform="translate(153.041744 203.695607)scale(0.08 -0.08)">
       <use xlink:href="#CMR17-30" transform="scale(0.996264)"/>
       <use xlink:href="#CMMI12-3a" transform="translate(45.690477 0)scale(0.996264)"/>
       <use xlink:href="#CMR17-31" transform="translate(72.787654 0)scale(0.996264)"/>
       <use xlink:href="#CMR17-30" transform="translate(118.478131 0)scale(0.996264)"/>
      </g>
     </g>
    </g>
    <g id="xtick_15">
     <g id="line2d_35">
      <g>
       <use xlink:href="#m7e3ca21ef5" x="186.711132" y="193.160805" style="stroke: #000000; stroke-width: 0.35"/>
      </g>
     </g>
     <g id="text_16">
      <!-- $\mathdefault{0.12}$ -->
      <g transform="translate(179.183696 203.695607)scale(0.08 -0.08)">
       <use xlink:href="#CMR17-30" transform="scale(0.996264)"/>
       <use xlink:href="#CMMI12-3a" transform="translate(45.690477 0)scale(0.996264)"/>
       <use xlink:href="#CMR17-31" transform="translate(72.787654 0)scale(0.996264)"/>
       <use xlink:href="#CMR17-32" transform="translate(118.478131 0)scale(0.996264)"/>
      </g>
     </g>
    </g>
    <g id="xtick_16">
     <g id="line2d_36">
      <g>
       <use xlink:href="#m7e3ca21ef5" x="212.853084" y="193.160805" style="stroke: #000000; stroke-width: 0.35"/>
      </g>
     </g>
     <g id="text_17">
      <!-- $\mathdefault{0.14}$ -->
      <g transform="translate(205.325648 203.695607)scale(0.08 -0.08)">
       <use xlink:href="#CMR17-30" transform="scale(0.996264)"/>
       <use xlink:href="#CMMI12-3a" transform="translate(45.690477 0)scale(0.996264)"/>
       <use xlink:href="#CMR17-31" transform="translate(72.787654 0)scale(0.996264)"/>
       <use xlink:href="#CMR17-34" transform="translate(118.478131 0)scale(0.996264)"/>
      </g>
     </g>
    </g>
    <g id="text_18">
     <!-- $1/N$ -->
     <g transform="translate(120.532086 213.222937)scale(0.08 -0.08)">
      <defs>
       <path id="CMMI12-4e" d="M 4736 3682 
C 4806 3956 4909 4147 5395 4166 
C 5414 4166 5491 4172 5491 4281 
C 5491 4352 5434 4352 5408 4352 
C 5280 4352 4954 4339 4826 4339 
L 4518 4339 
C 4429 4339 4314 4352 4224 4352 
C 4186 4352 4109 4352 4109 4230 
C 4109 4166 4160 4166 4205 4166 
C 4589 4153 4614 4007 4614 3892 
C 4614 3835 4608 3816 4589 3726 
L 3866 854 
L 2496 4243 
C 2451 4345 2445 4352 2304 4352 
L 1523 4352 
C 1395 4352 1338 4352 1338 4230 
C 1338 4166 1382 4166 1504 4166 
C 1536 4166 1914 4166 1914 4109 
C 1914 4096 1901 4045 1894 4026 
L 1043 650 
C 966 338 813 204 390 185 
C 358 185 294 179 294 64 
C 294 0 358 0 378 0 
C 506 0 832 12 960 12 
L 1267 12 
C 1357 12 1466 0 1555 0 
C 1600 0 1670 0 1670 121 
C 1670 179 1606 185 1581 185 
C 1370 191 1165 230 1165 459 
C 1165 510 1178 567 1190 618 
L 2054 4026 
C 2093 3962 2093 3949 2118 3892 
L 3642 115 
C 3674 38 3686 0 3744 0 
C 3808 0 3814 19 3840 128 
L 4736 3682 
z
" transform="scale(0.015625)"/>
      </defs>
      <use xlink:href="#CMR17-31" transform="scale(0.996264)"/>
      <use xlink:href="#CMMI12-3d" transform="translate(45.690477 0)scale(0.996264)"/>
      <use xlink:href="#CMMI12-4e" transform="translate(89.04596 0)scale(0.996264)"/>
     </g>
    </g>
   </g>
   <g id="matplotlib.axis_4">
    <g id="ytick_5">
     <g id="line2d_37">
      <g>
       <use xlink:href="#me00d154961" x="29.85942" y="113.897161" style="stroke: #000000; stroke-width: 0.35"/>
      </g>
     </g>
     <g id="text_19">
      <!-- 0.00 -->
      <g transform="translate(9.804547 116.664562)scale(0.08 -0.08)">
       <use xlink:href="#CMR17-30" transform="scale(0.996264)"/>
       <use xlink:href="#CMR17-2e" transform="translate(45.690477 0)scale(0.996264)"/>
       <use xlink:href="#CMR17-30" transform="translate(70.561536 0)scale(0.996264)"/>
       <use xlink:href="#CMR17-30" transform="translate(116.252013 0)scale(0.996264)"/>
      </g>
     </g>
    </g>
    <g id="ytick_6">
     <g id="line2d_38">
      <g>
       <use xlink:href="#me00d154961" x="29.85942" y="142.205605" style="stroke: #000000; stroke-width: 0.35"/>
      </g>
     </g>
     <g id="text_20">
      <!-- 0.10 -->
      <g transform="translate(9.804547 144.973006)scale(0.08 -0.08)">
       <use xlink:href="#CMR17-30" transform="scale(0.996264)"/>
       <use xlink:href="#CMR17-2e" transform="translate(45.690477 0)scale(0.996264)"/>
       <use xlink:href="#CMR17-31" transform="translate(70.561536 0)scale(0.996264)"/>
       <use xlink:href="#CMR17-30" transform="translate(116.252013 0)scale(0.996264)"/>
      </g>
     </g>
    </g>
    <g id="ytick_7">
     <g id="line2d_39">
      <g>
       <use xlink:href="#me00d154961" x="29.85942" y="170.51405" style="stroke: #000000; stroke-width: 0.35"/>
      </g>
     </g>
     <g id="text_21">
      <!-- 0.20 -->
      <g transform="translate(9.804547 173.281451)scale(0.08 -0.08)">
       <use xlink:href="#CMR17-30" transform="scale(0.996264)"/>
       <use xlink:href="#CMR17-2e" transform="translate(45.690477 0)scale(0.996264)"/>
       <use xlink:href="#CMR17-32" transform="translate(70.561536 0)scale(0.996264)"/>
       <use xlink:href="#CMR17-30" transform="translate(116.252013 0)scale(0.996264)"/>
      </g>
     </g>
    </g>
    <g id="text_22">
     <!-- $S_1-S_{\rm ff}$ -->
     <g transform="translate(6.254802 161.052758)rotate(-90)scale(0.08 -0.08)">
      <use xlink:href="#CMMI12-53" transform="scale(0.996264)"/>
      <use xlink:href="#CMR17-31" transform="translate(59.994488 -14.943915)scale(0.697382)"/>
      <use xlink:href="#CMSY10-0" transform="translate(114.615009 0)scale(0.996264)"/>
      <use xlink:href="#CMMI12-53" transform="translate(214.241683 0)scale(0.996264)"/>
      <use xlink:href="#CMR17-b" transform="translate(274.236171 -14.943915)scale(0.697382)"/>
     </g>
    </g>
   </g>
   <g id="line2d_40">
    <g clip-path="url(#p8b8c6cd168)">
     <use xlink:href="#me667e7919c" x="683.40822" y="114.698926" style="fill: #ce7fa0; stroke: #9e0142"/>
     <use xlink:href="#me667e7919c" x="465.55862" y="115.014426" style="fill: #ce7fa0; stroke: #9e0142"/>
     <use xlink:href="#me667e7919c" x="356.63382" y="115.183191" style="fill: #ce7fa0; stroke: #9e0142"/>
     <use xlink:href="#me667e7919c" x="291.27894" y="115.281929" style="fill: #ce7fa0; stroke: #9e0142"/>
     <use xlink:href="#me667e7919c" x="247.70902" y="115.347681" style="fill: #ce7fa0; stroke: #9e0142"/>
     <use xlink:href="#me667e7919c" x="216.587648" y="115.394058" style="fill: #ce7fa0; stroke: #9e0142"/>
     <use xlink:href="#me667e7919c" x="193.24662" y="115.428584" style="fill: #ce7fa0; stroke: #9e0142"/>
     <use xlink:href="#me667e7919c" x="175.092486" y="115.455208" style="fill: #ce7fa0; stroke: #9e0142"/>
     <use xlink:href="#me667e7919c" x="160.56918" y="115.476358" style="fill: #ce7fa0; stroke: #9e0142"/>
     <use xlink:href="#me667e7919c" x="148.686474" y="115.493547" style="fill: #ce7fa0; stroke: #9e0142"/>
     <use xlink:href="#me667e7919c" x="138.78422" y="115.507786" style="fill: #ce7fa0; stroke: #9e0142"/>
     <use xlink:href="#me667e7919c" x="130.405389" y="115.519768" style="fill: #ce7fa0; stroke: #9e0142"/>
     <use xlink:href="#me667e7919c" x="123.223534" y="115.529987" style="fill: #ce7fa0; stroke: #9e0142"/>
     <use xlink:href="#me667e7919c" x="116.99926" y="115.538801" style="fill: #ce7fa0; stroke: #9e0142"/>
     <use xlink:href="#me667e7919c" x="111.55302" y="115.553229" style="fill: #ce7fa0; stroke: #9e0142"/>
     <use xlink:href="#me667e7919c" x="106.747514" y="115.564533" style="fill: #ce7fa0; stroke: #9e0142"/>
    </g>
   </g>
   <g id="line2d_41">
    <g clip-path="url(#p8b8c6cd168)">
     <use xlink:href="#m7de3fcd2dc" x="106.747514" y="115.553229" style="fill: #ebcbd8; stroke: #9e0142; stroke-linejoin: miter"/>
     <use xlink:href="#m7de3fcd2dc" x="102.475953" y="115.559205" style="fill: #ebcbd8; stroke: #9e0142; stroke-linejoin: miter"/>
     <use xlink:href="#m7de3fcd2dc" x="98.65403" y="115.564533" style="fill: #ebcbd8; stroke: #9e0142; stroke-linejoin: miter"/>
     <use xlink:href="#m7de3fcd2dc" x="95.2143" y="115.569312" style="fill: #ebcbd8; stroke: #9e0142; stroke-linejoin: miter"/>
     <use xlink:href="#m7de3fcd2dc" x="92.102163" y="115.573623" style="fill: #ebcbd8; stroke: #9e0142; stroke-linejoin: miter"/>
     <use xlink:href="#m7de3fcd2dc" x="89.272947" y="115.57753" style="fill: #ebcbd8; stroke: #9e0142; stroke-linejoin: miter"/>
     <use xlink:href="#m7de3fcd2dc" x="86.68975" y="115.581087" style="fill: #ebcbd8; stroke: #9e0142; stroke-linejoin: miter"/>
     <use xlink:href="#m7de3fcd2dc" x="84.32182" y="115.584339" style="fill: #ebcbd8; stroke: #9e0142; stroke-linejoin: miter"/>
     <use xlink:href="#m7de3fcd2dc" x="82.143324" y="115.587324" style="fill: #ebcbd8; stroke: #9e0142; stroke-linejoin: miter"/>
     <use xlink:href="#m7de3fcd2dc" x="73.42934" y="115.599183" style="fill: #ebcbd8; stroke: #9e0142; stroke-linejoin: miter"/>
     <use xlink:href="#m7de3fcd2dc" x="62.53686" y="115.613807" style="fill: #ebcbd8; stroke: #9e0142; stroke-linejoin: miter"/>
     <use xlink:href="#m7de3fcd2dc" x="56.001372" y="115.622455" style="fill: #ebcbd8; stroke: #9e0142; stroke-linejoin: miter"/>
    </g>
   </g>
   <g id="line2d_42">
    <path d="M 29.85942 115.658319 
L 42.930396 115.640526 
L 56.001372 115.622733 
L 69.072348 115.60494 
L 82.143324 115.587148 
L 95.2143 115.569355 
L 108.285276 115.551562 
L 121.356252 115.533769 
L 134.427228 115.515976 
L 147.498204 115.498183 
L 160.56918 115.480391 
L 173.640156 115.462598 
L 186.711132 115.444805 
L 199.782108 115.427012 
L 212.853084 115.409219 
L 225.92406 115.391426 
L 227.64406 115.389085 
" clip-path="url(#p8b8c6cd168)" style="fill: none; stroke: #9e0142; stroke-linecap: round"/>
   </g>
   <g id="line2d_43">
    <g clip-path="url(#p8b8c6cd168)">
     <use xlink:href="#m6be5029a39" x="683.40822" y="124.58353" style="fill: #fddeb6; stroke: #fdbf6f"/>
     <use xlink:href="#m6be5029a39" x="465.55862" y="129.641789" style="fill: #fddeb6; stroke: #fdbf6f"/>
     <use xlink:href="#m6be5029a39" x="356.63382" y="132.260919" style="fill: #fddeb6; stroke: #fdbf6f"/>
     <use xlink:href="#m6be5029a39" x="291.27894" y="133.659047" style="fill: #fddeb6; stroke: #fdbf6f"/>
     <use xlink:href="#m6be5029a39" x="247.70902" y="134.580162" style="fill: #fddeb6; stroke: #fdbf6f"/>
     <use xlink:href="#m6be5029a39" x="216.587648" y="135.20146" style="fill: #fddeb6; stroke: #fdbf6f"/>
     <use xlink:href="#m6be5029a39" x="193.24662" y="135.65762" style="fill: #fddeb6; stroke: #fdbf6f"/>
     <use xlink:href="#m6be5029a39" x="175.092486" y="136.000336" style="fill: #fddeb6; stroke: #fdbf6f"/>
     <use xlink:href="#m6be5029a39" x="160.56918" y="136.268749" style="fill: #fddeb6; stroke: #fdbf6f"/>
     <use xlink:href="#m6be5029a39" x="148.686474" y="136.483048" style="fill: #fddeb6; stroke: #fdbf6f"/>
     <use xlink:href="#m6be5029a39" x="138.78422" y="136.658283" style="fill: #fddeb6; stroke: #fdbf6f"/>
     <use xlink:href="#m6be5029a39" x="130.405389" y="136.803749" style="fill: #fddeb6; stroke: #fdbf6f"/>
     <use xlink:href="#m6be5029a39" x="123.223534" y="136.926398" style="fill: #fddeb6; stroke: #fdbf6f"/>
     <use xlink:href="#m6be5029a39" x="116.99926" y="137.031022" style="fill: #fddeb6; stroke: #fdbf6f"/>
     <use xlink:href="#m6be5029a39" x="111.55302" y="137.199814" style="fill: #fddeb6; stroke: #fdbf6f"/>
     <use xlink:href="#m6be5029a39" x="106.747514" y="137.329719" style="fill: #fddeb6; stroke: #fdbf6f"/>
    </g>
   </g>
   <g id="line2d_44">
    <g clip-path="url(#p8b8c6cd168)">
     <use xlink:href="#mdd29509ffd" x="106.747514" y="137.199816" style="fill: #fef1e1; stroke: #fdbf6f; stroke-linejoin: miter"/>
     <use xlink:href="#mdd29509ffd" x="102.475953" y="137.268763" style="fill: #fef1e1; stroke: #fdbf6f; stroke-linejoin: miter"/>
     <use xlink:href="#mdd29509ffd" x="98.65403" y="137.329721" style="fill: #fef1e1; stroke: #fdbf6f; stroke-linejoin: miter"/>
     <use xlink:href="#mdd29509ffd" x="95.2143" y="137.383971" style="fill: #fef1e1; stroke: #fdbf6f; stroke-linejoin: miter"/>
     <use xlink:href="#mdd29509ffd" x="92.102163" y="137.432535" style="fill: #fef1e1; stroke: #fdbf6f; stroke-linejoin: miter"/>
     <use xlink:href="#mdd29509ffd" x="89.272947" y="137.476242" style="fill: #fef1e1; stroke: #fdbf6f; stroke-linejoin: miter"/>
     <use xlink:href="#mdd29509ffd" x="86.68975" y="137.515767" style="fill: #fef1e1; stroke: #fdbf6f; stroke-linejoin: miter"/>
     <use xlink:href="#mdd29509ffd" x="84.32182" y="137.55167" style="fill: #fef1e1; stroke: #fdbf6f; stroke-linejoin: miter"/>
     <use xlink:href="#mdd29509ffd" x="82.143324" y="137.584413" style="fill: #fef1e1; stroke: #fdbf6f; stroke-linejoin: miter"/>
     <use xlink:href="#mdd29509ffd" x="73.42934" y="137.712464" style="fill: #fef1e1; stroke: #fdbf6f; stroke-linejoin: miter"/>
     <use xlink:href="#mdd29509ffd" x="62.53686" y="137.865149" style="fill: #fef1e1; stroke: #fdbf6f; stroke-linejoin: miter"/>
     <use xlink:href="#mdd29509ffd" x="56.001372" y="137.952129" style="fill: #fef1e1; stroke: #fdbf6f; stroke-linejoin: miter"/>
    </g>
   </g>
   <g id="line2d_45">
    <path d="M 29.85942 138.347108 
L 42.930396 138.154792 
L 56.001372 137.962476 
L 69.072348 137.77016 
L 82.143324 137.577843 
L 95.2143 137.385527 
L 108.285276 137.193211 
L 121.356252 137.000895 
L 134.427228 136.808579 
L 147.498204 136.616262 
L 160.56918 136.423946 
L 173.640156 136.23163 
L 186.711132 136.039314 
L 199.782108 135.846998 
L 212.853084 135.654681 
L 225.92406 135.462365 
L 227.64406 135.437058 
" clip-path="url(#p8b8c6cd168)" style="fill: none; stroke: #fdbf6f; stroke-linecap: round"/>
   </g>
   <g id="line2d_46">
    <g clip-path="url(#p8b8c6cd168)">
     <use xlink:href="#md280e0f096" x="683.40822" y="133.16914" style="fill: #def1cf; stroke: #bfe5a0"/>
     <use xlink:href="#md280e0f096" x="465.55862" y="143.62163" style="fill: #def1cf; stroke: #bfe5a0"/>
     <use xlink:href="#md280e0f096" x="356.63382" y="149.134824" style="fill: #def1cf; stroke: #bfe5a0"/>
     <use xlink:href="#md280e0f096" x="291.27894" y="151.844639" style="fill: #def1cf; stroke: #bfe5a0"/>
     <use xlink:href="#md280e0f096" x="247.70902" y="153.614158" style="fill: #def1cf; stroke: #bfe5a0"/>
     <use xlink:href="#md280e0f096" x="216.587648" y="154.737813" style="fill: #def1cf; stroke: #bfe5a0"/>
     <use xlink:href="#md280e0f096" x="193.24662" y="155.556978" style="fill: #def1cf; stroke: #bfe5a0"/>
     <use xlink:href="#md280e0f096" x="175.092486" y="156.148215" style="fill: #def1cf; stroke: #bfe5a0"/>
     <use xlink:href="#md280e0f096" x="160.56918" y="156.606656" style="fill: #def1cf; stroke: #bfe5a0"/>
     <use xlink:href="#md280e0f096" x="148.686474" y="156.962585" style="fill: #def1cf; stroke: #bfe5a0"/>
     <use xlink:href="#md280e0f096" x="138.78422" y="157.250237" style="fill: #def1cf; stroke: #bfe5a0"/>
     <use xlink:href="#md280e0f096" x="130.405389" y="157.484129" style="fill: #def1cf; stroke: #bfe5a0"/>
     <use xlink:href="#md280e0f096" x="123.223534" y="157.678958" style="fill: #def1cf; stroke: #bfe5a0"/>
     <use xlink:href="#md280e0f096" x="116.99926" y="157.842463" style="fill: #def1cf; stroke: #bfe5a0"/>
     <use xlink:href="#md280e0f096" x="111.55302" y="158.10153" style="fill: #def1cf; stroke: #bfe5a0"/>
     <use xlink:href="#md280e0f096" x="106.747514" y="158.296217" style="fill: #def1cf; stroke: #bfe5a0"/>
    </g>
   </g>
   <g id="line2d_47">
    <g clip-path="url(#p8b8c6cd168)">
     <use xlink:href="#mf696e0b0e7" x="106.747514" y="158.101533" style="fill: #f1f9eb; stroke: #bfe5a0; stroke-linejoin: miter"/>
     <use xlink:href="#mf696e0b0e7" x="102.475953" y="158.205431" style="fill: #f1f9eb; stroke: #bfe5a0; stroke-linejoin: miter"/>
     <use xlink:href="#mf696e0b0e7" x="98.65403" y="158.29622" style="fill: #f1f9eb; stroke: #bfe5a0; stroke-linejoin: miter"/>
     <use xlink:href="#mf696e0b0e7" x="95.2143" y="158.376193" style="fill: #f1f9eb; stroke: #bfe5a0; stroke-linejoin: miter"/>
     <use xlink:href="#mf696e0b0e7" x="92.102163" y="158.447043" style="fill: #f1f9eb; stroke: #bfe5a0; stroke-linejoin: miter"/>
     <use xlink:href="#mf696e0b0e7" x="89.272947" y="158.510202" style="fill: #f1f9eb; stroke: #bfe5a0; stroke-linejoin: miter"/>
     <use xlink:href="#mf696e0b0e7" x="86.68975" y="158.566784" style="fill: #f1f9eb; stroke: #bfe5a0; stroke-linejoin: miter"/>
     <use xlink:href="#mf696e0b0e7" x="84.32182" y="158.617729" style="fill: #f1f9eb; stroke: #bfe5a0; stroke-linejoin: miter"/>
     <use xlink:href="#mf696e0b0e7" x="82.143324" y="158.663792" style="fill: #f1f9eb; stroke: #bfe5a0; stroke-linejoin: miter"/>
     <use xlink:href="#mf696e0b0e7" x="73.42934" y="158.839967" style="fill: #f1f9eb; stroke: #bfe5a0; stroke-linejoin: miter"/>
     <use xlink:href="#mf696e0b0e7" x="62.53686" y="159.04022" style="fill: #f1f9eb; stroke: #bfe5a0; stroke-linejoin: miter"/>
     <use xlink:href="#mf696e0b0e7" x="56.001372" y="159.14823" style="fill: #f1f9eb; stroke: #bfe5a0; stroke-linejoin: miter"/>
    </g>
   </g>
   <g id="line2d_48">
    <path d="M 29.85942 159.707097 
L 42.930396 159.441752 
L 56.001372 159.176407 
L 69.072348 158.911063 
L 82.143324 158.645718 
L 95.2143 158.380374 
L 108.285276 158.115029 
L 121.356252 157.849685 
L 134.427228 157.58434 
L 147.498204 157.318996 
L 160.56918 157.053651 
L 173.640156 156.788307 
L 186.711132 156.522962 
L 199.782108 156.257618 
L 212.853084 155.992273 
L 225.92406 155.726928 
L 227.64406 155.692012 
" clip-path="url(#p8b8c6cd168)" style="fill: none; stroke: #bfe5a0; stroke-linecap: round"/>
   </g>
   <g id="line2d_49">
    <g clip-path="url(#p8b8c6cd168)">
     <use xlink:href="#m9931f86180" x="683.40822" y="142.914068" style="fill: #aea6d0; stroke: #5e4fa2"/>
     <use xlink:href="#m9931f86180" x="465.55862" y="160.809321" style="fill: #aea6d0; stroke: #5e4fa2"/>
     <use xlink:href="#m9931f86180" x="356.63382" y="171.145198" style="fill: #aea6d0; stroke: #5e4fa2"/>
     <use xlink:href="#m9931f86180" x="291.27894" y="175.821578" style="fill: #aea6d0; stroke: #5e4fa2"/>
     <use xlink:href="#m9931f86180" x="247.70902" y="178.843168" style="fill: #aea6d0; stroke: #5e4fa2"/>
     <use xlink:href="#m9931f86180" x="216.587648" y="180.503393" style="fill: #aea6d0; stroke: #5e4fa2"/>
     <use xlink:href="#m9931f86180" x="193.24662" y="181.717769" style="fill: #aea6d0; stroke: #5e4fa2"/>
     <use xlink:href="#m9931f86180" x="175.092486" y="182.49144" style="fill: #aea6d0; stroke: #5e4fa2"/>
     <use xlink:href="#m9931f86180" x="160.56918" y="183.098133" style="fill: #aea6d0; stroke: #5e4fa2"/>
     <use xlink:href="#m9931f86180" x="148.686474" y="183.524401" style="fill: #aea6d0; stroke: #5e4fa2"/>
     <use xlink:href="#m9931f86180" x="138.78422" y="183.87193" style="fill: #aea6d0; stroke: #5e4fa2"/>
     <use xlink:href="#m9931f86180" x="130.405389" y="184.132994" style="fill: #aea6d0; stroke: #5e4fa2"/>
     <use xlink:href="#m9931f86180" x="123.223534" y="184.351155" style="fill: #aea6d0; stroke: #5e4fa2"/>
     <use xlink:href="#m9931f86180" x="116.99926" y="184.523069" style="fill: #aea6d0; stroke: #5e4fa2"/>
     <use xlink:href="#m9931f86180" x="111.55302" y="184.788689" style="fill: #aea6d0; stroke: #5e4fa2"/>
     <use xlink:href="#m9931f86180" x="106.747514" y="184.978029" style="fill: #aea6d0; stroke: #5e4fa2"/>
    </g>
   </g>
   <g id="line2d_50">
    <g clip-path="url(#p8b8c6cd168)">
     <use xlink:href="#mf9163201e4" x="106.747514" y="184.788694" style="fill: #dedbec; stroke: #5e4fa2; stroke-linejoin: miter"/>
     <use xlink:href="#mf9163201e4" x="102.475953" y="184.891668" style="fill: #dedbec; stroke: #5e4fa2; stroke-linejoin: miter"/>
     <use xlink:href="#mf9163201e4" x="98.65403" y="184.978034" style="fill: #dedbec; stroke: #5e4fa2; stroke-linejoin: miter"/>
     <use xlink:href="#mf9163201e4" x="95.2143" y="185.053392" style="fill: #dedbec; stroke: #5e4fa2; stroke-linejoin: miter"/>
     <use xlink:href="#mf9163201e4" x="92.102163" y="185.117929" style="fill: #dedbec; stroke: #5e4fa2; stroke-linejoin: miter"/>
     <use xlink:href="#mf9163201e4" x="89.272947" y="185.174803" style="fill: #dedbec; stroke: #5e4fa2; stroke-linejoin: miter"/>
     <use xlink:href="#mf9163201e4" x="86.68975" y="185.224323" style="fill: #dedbec; stroke: #5e4fa2; stroke-linejoin: miter"/>
     <use xlink:href="#mf9163201e4" x="84.32182" y="185.268344" style="fill: #dedbec; stroke: #5e4fa2; stroke-linejoin: miter"/>
     <use xlink:href="#mf9163201e4" x="82.143324" y="185.307185" style="fill: #dedbec; stroke: #5e4fa2; stroke-linejoin: miter"/>
     <use xlink:href="#mf9163201e4" x="73.42934" y="185.449105" style="fill: #dedbec; stroke: #5e4fa2; stroke-linejoin: miter"/>
     <use xlink:href="#mf9163201e4" x="62.53686" y="185.594296" style="fill: #dedbec; stroke: #5e4fa2; stroke-linejoin: miter"/>
     <use xlink:href="#mf9163201e4" x="56.001372" y="185.663637" style="fill: #dedbec; stroke: #5e4fa2; stroke-linejoin: miter"/>
    </g>
   </g>
   <g id="line2d_51">
    <path d="M 29.85942 186.143569 
L 42.930396 185.926818 
L 56.001372 185.710066 
L 69.072348 185.493314 
L 82.143324 185.276562 
L 95.2143 185.059811 
L 108.285276 184.843059 
L 121.356252 184.626307 
L 134.427228 184.409555 
L 147.498204 184.192804 
L 160.56918 183.976052 
L 173.640156 183.7593 
L 186.711132 183.542548 
L 199.782108 183.325797 
L 212.853084 183.109045 
L 225.92406 182.892293 
L 227.64406 182.863771 
" clip-path="url(#p8b8c6cd168)" style="fill: none; stroke: #5e4fa2; stroke-linecap: round"/>
   </g>
   <g id="patch_8">
    <path d="M 29.85942 193.160805 
L 29.85942 99.742939 
" style="fill: none; stroke: #000000; stroke-width: 0.35; stroke-linejoin: miter; stroke-linecap: square"/>
   </g>
   <g id="patch_9">
    <path d="M 225.92406 193.160805 
L 225.92406 99.742939 
" style="fill: none; stroke: #000000; stroke-width: 0.35; stroke-linejoin: miter; stroke-linecap: square"/>
   </g>
   <g id="patch_10">
    <path d="M 29.85942 193.160805 
L 225.92406 193.160805 
" style="fill: none; stroke: #000000; stroke-width: 0.35; stroke-linejoin: miter; stroke-linecap: square"/>
   </g>
   <g id="patch_11">
    <path d="M 29.85942 99.742939 
L 225.92406 99.742939 
" style="fill: none; stroke: #000000; stroke-width: 0.35; stroke-linejoin: miter; stroke-linecap: square"/>
   </g>
   <g id="text_23">
    <!-- $V/J=-0.2$ -->
    <g style="fill: #9e0142" transform="translate(180.175644 109.766895)scale(0.08 -0.08)">
     <use xlink:href="#CMMI12-56" transform="scale(0.996264)"/>
     <use xlink:href="#CMMI12-3d" transform="translate(67.70845 0)scale(0.996264)"/>
     <use xlink:href="#CMMI12-4a" transform="translate(116.483369 0)scale(0.996264)"/>
     <use xlink:href="#CMR17-3d" transform="translate(207.300048 0)scale(0.996264)"/>
     <use xlink:href="#CMSY10-0" transform="translate(306.688845 0)scale(0.996264)"/>
     <use xlink:href="#CMR17-30" transform="translate(384.176313 0)scale(0.996264)"/>
     <use xlink:href="#CMMI12-3a" transform="translate(429.86679 0)scale(0.996264)"/>
     <use xlink:href="#CMR17-32" transform="translate(456.963967 0)scale(0.996264)"/>
    </g>
   </g>
   <g id="text_24">
    <!-- $V/J=-0.9$ -->
    <g style="fill: #fdbf6f" transform="translate(180.175644 129.995931)scale(0.08 -0.08)">
     <use xlink:href="#CMMI12-56" transform="scale(0.996264)"/>
     <use xlink:href="#CMMI12-3d" transform="translate(67.70845 0)scale(0.996264)"/>
     <use xlink:href="#CMMI12-4a" transform="translate(116.483369 0)scale(0.996264)"/>
     <use xlink:href="#CMR17-3d" transform="translate(207.300048 0)scale(0.996264)"/>
     <use xlink:href="#CMSY10-0" transform="translate(306.688845 0)scale(0.996264)"/>
     <use xlink:href="#CMR17-30" transform="translate(384.176313 0)scale(0.996264)"/>
     <use xlink:href="#CMMI12-3a" transform="translate(429.86679 0)scale(0.996264)"/>
     <use xlink:href="#CMR17-39" transform="translate(456.963967 0)scale(0.996264)"/>
    </g>
   </g>
   <g id="text_25">
    <!-- $V/J=-1.3$ -->
    <g style="fill: #bfe5a0" transform="translate(180.175644 149.89529)scale(0.08 -0.08)">
     <use xlink:href="#CMMI12-56" transform="scale(0.996264)"/>
     <use xlink:href="#CMMI12-3d" transform="translate(67.70845 0)scale(0.996264)"/>
     <use xlink:href="#CMMI12-4a" transform="translate(116.483369 0)scale(0.996264)"/>
     <use xlink:href="#CMR17-3d" transform="translate(207.300048 0)scale(0.996264)"/>
     <use xlink:href="#CMSY10-0" transform="translate(306.688845 0)scale(0.996264)"/>
     <use xlink:href="#CMR17-31" transform="translate(384.176313 0)scale(0.996264)"/>
     <use xlink:href="#CMMI12-3a" transform="translate(429.86679 0)scale(0.996264)"/>
     <use xlink:href="#CMR17-33" transform="translate(456.963967 0)scale(0.996264)"/>
    </g>
   </g>
   <g id="text_26">
    <!-- $V/J=-1.7$ -->
    <g style="fill: #5e4fa2" transform="translate(180.175644 176.056081)scale(0.08 -0.08)">
     <use xlink:href="#CMMI12-56" transform="scale(0.996264)"/>
     <use xlink:href="#CMMI12-3d" transform="translate(67.70845 0)scale(0.996264)"/>
     <use xlink:href="#CMMI12-4a" transform="translate(116.483369 0)scale(0.996264)"/>
     <use xlink:href="#CMR17-3d" transform="translate(207.300048 0)scale(0.996264)"/>
     <use xlink:href="#CMSY10-0" transform="translate(306.688845 0)scale(0.996264)"/>
     <use xlink:href="#CMR17-31" transform="translate(384.176313 0)scale(0.996264)"/>
     <use xlink:href="#CMMI12-3a" transform="translate(429.86679 0)scale(0.996264)"/>
     <use xlink:href="#CMR17-37" transform="translate(456.963967 0)scale(0.996264)"/>
    </g>
   </g>
   <g id="line2d_52">
    <g>
     <use xlink:href="#m3a67eec01c" x="29.85942" y="115.658319" style="fill: #ffffff; stroke: #9e0142"/>
    </g>
   </g>
   <g id="line2d_53">
    <g>
     <use xlink:href="#m71bdb7e9dc" x="29.85942" y="138.347108" style="fill: #ffffff; stroke: #fdbf6f"/>
    </g>
   </g>
   <g id="line2d_54">
    <g>
     <use xlink:href="#m254a4abedb" x="29.85942" y="159.707097" style="fill: #ffffff; stroke: #bfe5a0"/>
    </g>
   </g>
   <g id="line2d_55">
    <g>
     <use xlink:href="#m1a81663a8e" x="29.85942" y="186.143569" style="fill: #ffffff; stroke: #5e4fa2"/>
    </g>
   </g>
  </g>
 </g>
 <defs>
  <clipPath id="p0d03328b0a">
   <rect x="29.85942" y="0.72" width="196.06464" height="93.417867"/>
  </clipPath>
  <clipPath id="p8b8c6cd168">
   <rect x="29.85942" y="99.742939" width="196.06464" height="93.417867"/>
  </clipPath>
 </defs>
</svg>
