<?xml version="1.0" encoding="utf-8" standalone="no"?>
<!DOCTYPE svg PUBLIC "-//W3C//DTD SVG 1.1//EN"
  "http://www.w3.org/Graphics/SVG/1.1/DTD/svg11.dtd">
<svg xmlns:xlink="http://www.w3.org/1999/xlink" width="226.64406pt" height="140.125451pt" viewBox="0 0 226.64406 140.125451" xmlns="http://www.w3.org/2000/svg" version="1.1">
 <metadata>
  <rdf:RDF xmlns:dc="http://purl.org/dc/elements/1.1/" xmlns:cc="http://creativecommons.org/ns#" xmlns:rdf="http://www.w3.org/1999/02/22-rdf-syntax-ns#">
   <cc:Work>
    <dc:type rdf:resource="http://purl.org/dc/dcmitype/StillImage"/>
    <dc:date>2022-06-20T22:33:33.722077</dc:date>
    <dc:format>image/svg+xml</dc:format>
    <dc:creator>
     <cc:Agent>
      <dc:title>Matplotlib v3.5.1, https://matplotlib.org/</dc:title>
     </cc:Agent>
    </dc:creator>
   </cc:Work>
  </rdf:RDF>
 </metadata>
 <defs>
  <style type="text/css">*{stroke-linejoin: round; stroke-linecap: butt}</style>
 </defs>
 <g id="figure_1">
  <g id="patch_1">
   <path d="M 0 140.125451 
L 226.64406 140.125451 
L 226.64406 0 
L 0 0 
L 0 140.125451 
z
" style="fill: none"/>
  </g>
  <g id="axes_1">
   <g id="patch_2">
    <path d="M 29.85942 117.350791 
L 225.92406 117.350791 
L 225.92406 0.72 
L 29.85942 0.72 
L 29.85942 117.350791 
z
" style="fill: none"/>
   </g>
   <g id="matplotlib.axis_1">
    <g id="xtick_1">
     <g id="line2d_1">
      <defs>
       <path id="m75e981ec23" d="M 0 0 
L 0 2 
" style="stroke: #000000; stroke-width: 0.35"/>
      </defs>
      <g>
       <use xlink:href="#m75e981ec23" x="34.366653" y="117.350791" style="stroke: #000000; stroke-width: 0.35"/>
      </g>
     </g>
     <g id="text_1">
      <!-- $\mathdefault{−2}$ -->
      <g transform="translate(28.956308 127.885593)scale(0.08 -0.08)">
       <defs>
        <path id="CMSY10-0" d="M 4218 1472 
C 4326 1472 4442 1472 4442 1600 
C 4442 1728 4326 1728 4218 1728 
L 755 1728 
C 646 1728 531 1728 531 1600 
C 531 1472 646 1472 755 1472 
L 4218 1472 
z
" transform="scale(0.015625)"/>
        <path id="CMR17-32" d="M 2669 990 
L 2554 990 
C 2490 537 2438 460 2413 422 
C 2381 371 1920 371 1830 371 
L 602 371 
C 832 620 1280 1073 1824 1596 
C 2214 1966 2669 2400 2669 3033 
C 2669 3788 2067 4224 1395 4224 
C 691 4224 262 3603 262 3027 
C 262 2777 448 2745 525 2745 
C 589 2745 781 2783 781 3007 
C 781 3206 614 3264 525 3264 
C 486 3264 448 3257 422 3244 
C 544 3788 915 4057 1306 4057 
C 1862 4057 2227 3616 2227 3033 
C 2227 2477 1901 1998 1536 1583 
L 262 147 
L 262 0 
L 2515 0 
L 2669 990 
z
" transform="scale(0.015625)"/>
       </defs>
       <use xlink:href="#CMSY10-0" transform="scale(0.996264)"/>
       <use xlink:href="#CMR17-32" transform="translate(77.487468 0)scale(0.996264)"/>
      </g>
     </g>
    </g>
    <g id="xtick_2">
     <g id="line2d_2">
      <g>
       <use xlink:href="#m75e981ec23" x="79.438984" y="117.350791" style="stroke: #000000; stroke-width: 0.35"/>
      </g>
     </g>
     <g id="text_2">
      <!-- $\mathdefault{−1}$ -->
      <g transform="translate(74.028639 127.885593)scale(0.08 -0.08)">
       <defs>
        <path id="CMR17-31" d="M 1702 4083 
C 1702 4217 1696 4224 1606 4224 
C 1357 3927 979 3833 621 3820 
C 602 3820 570 3820 563 3808 
C 557 3795 557 3782 557 3648 
C 755 3648 1088 3686 1344 3839 
L 1344 467 
C 1344 243 1331 166 781 166 
L 589 166 
L 589 0 
C 896 6 1216 12 1523 12 
C 1830 12 2150 6 2458 0 
L 2458 166 
L 2266 166 
C 1715 166 1702 236 1702 467 
L 1702 4083 
z
" transform="scale(0.015625)"/>
       </defs>
       <use xlink:href="#CMSY10-0" transform="scale(0.996264)"/>
       <use xlink:href="#CMR17-31" transform="translate(77.487468 0)scale(0.996264)"/>
      </g>
     </g>
    </g>
    <g id="xtick_3">
     <g id="line2d_3">
      <g>
       <use xlink:href="#m75e981ec23" x="124.511315" y="117.350791" style="stroke: #000000; stroke-width: 0.35"/>
      </g>
     </g>
     <g id="text_3">
      <!-- $\mathdefault{0}$ -->
      <g transform="translate(122.394224 127.885593)scale(0.08 -0.08)">
       <defs>
        <path id="CMR17-30" d="M 2688 2038 
C 2688 2430 2682 3099 2413 3613 
C 2176 4063 1798 4224 1466 4224 
C 1158 4224 768 4082 525 3620 
C 269 3137 243 2539 243 2038 
C 243 1671 250 1112 448 623 
C 723 -39 1216 -128 1466 -128 
C 1760 -128 2208 -7 2470 604 
C 2662 1048 2688 1568 2688 2038 
z
M 1466 -26 
C 1056 -26 813 328 723 816 
C 653 1196 653 1749 653 2109 
C 653 2604 653 3015 736 3407 
C 858 3954 1216 4121 1466 4121 
C 1728 4121 2067 3947 2189 3420 
C 2272 3054 2278 2623 2278 2109 
C 2278 1691 2278 1176 2202 797 
C 2067 96 1690 -26 1466 -26 
z
" transform="scale(0.015625)"/>
       </defs>
       <use xlink:href="#CMR17-30" transform="scale(0.996264)"/>
      </g>
     </g>
    </g>
    <g id="xtick_4">
     <g id="line2d_4">
      <g>
       <use xlink:href="#m75e981ec23" x="169.583646" y="117.350791" style="stroke: #000000; stroke-width: 0.35"/>
      </g>
     </g>
     <g id="text_4">
      <!-- $\mathdefault{1}$ -->
      <g transform="translate(167.466555 127.885593)scale(0.08 -0.08)">
       <use xlink:href="#CMR17-31" transform="scale(0.996264)"/>
      </g>
     </g>
    </g>
    <g id="xtick_5">
     <g id="line2d_5">
      <g>
       <use xlink:href="#m75e981ec23" x="214.655977" y="117.350791" style="stroke: #000000; stroke-width: 0.35"/>
      </g>
     </g>
     <g id="text_5">
      <!-- $\mathdefault{2}$ -->
      <g transform="translate(212.538886 127.885593)scale(0.08 -0.08)">
       <use xlink:href="#CMR17-32" transform="scale(0.996264)"/>
      </g>
     </g>
    </g>
    <g id="text_6">
     <!-- $V/J$ -->
     <g transform="translate(120.525511 137.412923)scale(0.08 -0.08)">
      <defs>
       <path id="CMMI12-56" d="M 3962 3644 
C 4179 3987 4378 4140 4704 4166 
C 4768 4172 4819 4172 4819 4287 
C 4819 4313 4806 4352 4749 4352 
C 4634 4352 4358 4339 4243 4339 
C 4058 4339 3866 4352 3686 4352 
C 3635 4352 3571 4352 3571 4230 
C 3571 4172 3629 4166 3654 4166 
C 3891 4146 3917 4032 3917 3956 
C 3917 3860 3827 3714 3821 3708 
L 1811 540 
L 1363 3968 
C 1363 4153 1696 4166 1766 4166 
C 1862 4166 1920 4166 1920 4287 
C 1920 4352 1850 4352 1830 4352 
C 1722 4352 1594 4339 1485 4339 
L 1126 4339 
C 659 4339 467 4352 461 4352 
C 422 4352 346 4352 346 4236 
C 346 4166 390 4166 493 4166 
C 819 4166 838 4108 858 3949 
L 1370 25 
C 1389 -109 1389 -128 1478 -128 
C 1555 -128 1587 -109 1651 -7 
L 3962 3644 
z
" transform="scale(0.015625)"/>
       <path id="CMMI12-3d" d="M 2746 4563 
C 2746 4569 2784 4665 2784 4678 
C 2784 4755 2720 4800 2669 4800 
C 2637 4800 2579 4800 2528 4659 
L 384 -1364 
C 384 -1370 346 -1466 346 -1479 
C 346 -1556 410 -1600 461 -1600 
C 499 -1600 557 -1594 602 -1460 
L 2746 4563 
z
" transform="scale(0.015625)"/>
       <path id="CMMI12-4a" d="M 3418 3911 
C 3469 4102 3482 4166 3795 4166 
C 3898 4166 3962 4166 3962 4281 
C 3962 4352 3904 4352 3878 4352 
C 3770 4352 3648 4339 3533 4339 
L 3181 4339 
C 2912 4339 2630 4352 2362 4352 
C 2304 4352 2227 4352 2227 4236 
C 2227 4172 2278 4172 2278 4166 
L 2438 4166 
C 2950 4166 2950 4115 2950 4019 
C 2950 4013 2950 3968 2925 3866 
L 2189 953 
C 2022 304 1594 0 1286 0 
C 1069 0 762 99 685 428 
C 710 422 742 415 768 415 
C 979 415 1146 601 1146 787 
C 1146 889 1082 1024 890 1024 
C 774 1024 506 959 506 543 
C 506 149 838 -128 1299 -128 
C 1882 -128 2509 304 2662 908 
L 3418 3911 
z
" transform="scale(0.015625)"/>
      </defs>
      <use xlink:href="#CMMI12-56" transform="scale(0.996264)"/>
      <use xlink:href="#CMMI12-3d" transform="translate(67.70845 0)scale(0.996264)"/>
      <use xlink:href="#CMMI12-4a" transform="translate(116.483369 0)scale(0.996264)"/>
     </g>
    </g>
   </g>
   <g id="matplotlib.axis_2">
    <g id="ytick_1">
     <g id="line2d_6">
      <defs>
       <path id="m164c1cb230" d="M 0 0 
L -2 0 
" style="stroke: #000000; stroke-width: 0.35"/>
      </defs>
      <g>
       <use xlink:href="#m164c1cb230" x="29.85942" y="113.762151" style="stroke: #000000; stroke-width: 0.35"/>
      </g>
     </g>
     <g id="text_7">
      <!-- $\mathdefault{0.00}$ -->
      <g transform="translate(9.804547 116.529552)scale(0.08 -0.08)">
       <defs>
        <path id="CMMI12-3a" d="M 1178 307 
C 1178 492 1024 620 870 620 
C 685 620 557 467 557 313 
C 557 128 710 0 864 0 
C 1050 0 1178 153 1178 307 
z
" transform="scale(0.015625)"/>
       </defs>
       <use xlink:href="#CMR17-30" transform="scale(0.996264)"/>
       <use xlink:href="#CMMI12-3a" transform="translate(45.690477 0)scale(0.996264)"/>
       <use xlink:href="#CMR17-30" transform="translate(72.787654 0)scale(0.996264)"/>
       <use xlink:href="#CMR17-30" transform="translate(118.478131 0)scale(0.996264)"/>
      </g>
     </g>
    </g>
    <g id="ytick_2">
     <g id="line2d_7">
      <g>
       <use xlink:href="#m164c1cb230" x="29.85942" y="95.818953" style="stroke: #000000; stroke-width: 0.35"/>
      </g>
     </g>
     <g id="text_8">
      <!-- $\mathdefault{0.05}$ -->
      <g transform="translate(9.804547 98.586354)scale(0.08 -0.08)">
       <defs>
        <path id="CMR17-35" d="M 730 3750 
C 794 3724 1056 3641 1325 3641 
C 1920 3641 2246 3961 2432 4140 
C 2432 4191 2432 4224 2394 4224 
C 2387 4224 2374 4224 2323 4198 
C 2099 4102 1837 4032 1517 4032 
C 1325 4032 1037 4055 723 4191 
C 653 4224 640 4224 634 4224 
C 602 4224 595 4217 595 4090 
L 595 2231 
C 595 2113 595 2080 659 2080 
C 691 2080 704 2093 736 2139 
C 941 2435 1222 2560 1542 2560 
C 1766 2560 2246 2415 2246 1293 
C 2246 1087 2246 716 2054 422 
C 1894 159 1645 25 1370 25 
C 947 25 518 319 403 812 
C 429 806 480 793 506 793 
C 589 793 749 838 749 1036 
C 749 1209 627 1280 506 1280 
C 358 1280 262 1190 262 1011 
C 262 454 704 -128 1382 -128 
C 2042 -128 2669 441 2669 1267 
C 2669 2054 2170 2662 1549 2662 
C 1222 2662 947 2540 730 2304 
L 730 3750 
z
" transform="scale(0.015625)"/>
       </defs>
       <use xlink:href="#CMR17-30" transform="scale(0.996264)"/>
       <use xlink:href="#CMMI12-3a" transform="translate(45.690477 0)scale(0.996264)"/>
       <use xlink:href="#CMR17-30" transform="translate(72.787654 0)scale(0.996264)"/>
       <use xlink:href="#CMR17-35" transform="translate(118.478131 0)scale(0.996264)"/>
      </g>
     </g>
    </g>
    <g id="ytick_3">
     <g id="line2d_8">
      <g>
       <use xlink:href="#m164c1cb230" x="29.85942" y="77.875754" style="stroke: #000000; stroke-width: 0.35"/>
      </g>
     </g>
     <g id="text_9">
      <!-- $\mathdefault{0.10}$ -->
      <g transform="translate(9.804547 80.643155)scale(0.08 -0.08)">
       <use xlink:href="#CMR17-30" transform="scale(0.996264)"/>
       <use xlink:href="#CMMI12-3a" transform="translate(45.690477 0)scale(0.996264)"/>
       <use xlink:href="#CMR17-31" transform="translate(72.787654 0)scale(0.996264)"/>
       <use xlink:href="#CMR17-30" transform="translate(118.478131 0)scale(0.996264)"/>
      </g>
     </g>
    </g>
    <g id="ytick_4">
     <g id="line2d_9">
      <g>
       <use xlink:href="#m164c1cb230" x="29.85942" y="59.932556" style="stroke: #000000; stroke-width: 0.35"/>
      </g>
     </g>
     <g id="text_10">
      <!-- $\mathdefault{0.15}$ -->
      <g transform="translate(9.804547 62.699956)scale(0.08 -0.08)">
       <use xlink:href="#CMR17-30" transform="scale(0.996264)"/>
       <use xlink:href="#CMMI12-3a" transform="translate(45.690477 0)scale(0.996264)"/>
       <use xlink:href="#CMR17-31" transform="translate(72.787654 0)scale(0.996264)"/>
       <use xlink:href="#CMR17-35" transform="translate(118.478131 0)scale(0.996264)"/>
      </g>
     </g>
    </g>
    <g id="ytick_5">
     <g id="line2d_10">
      <g>
       <use xlink:href="#m164c1cb230" x="29.85942" y="41.989357" style="stroke: #000000; stroke-width: 0.35"/>
      </g>
     </g>
     <g id="text_11">
      <!-- $\mathdefault{0.20}$ -->
      <g transform="translate(9.804547 44.756758)scale(0.08 -0.08)">
       <use xlink:href="#CMR17-30" transform="scale(0.996264)"/>
       <use xlink:href="#CMMI12-3a" transform="translate(45.690477 0)scale(0.996264)"/>
       <use xlink:href="#CMR17-32" transform="translate(72.787654 0)scale(0.996264)"/>
       <use xlink:href="#CMR17-30" transform="translate(118.478131 0)scale(0.996264)"/>
      </g>
     </g>
    </g>
    <g id="ytick_6">
     <g id="line2d_11">
      <g>
       <use xlink:href="#m164c1cb230" x="29.85942" y="24.046158" style="stroke: #000000; stroke-width: 0.35"/>
      </g>
     </g>
     <g id="text_12">
      <!-- $\mathdefault{0.25}$ -->
      <g transform="translate(9.804547 26.813559)scale(0.08 -0.08)">
       <use xlink:href="#CMR17-30" transform="scale(0.996264)"/>
       <use xlink:href="#CMMI12-3a" transform="translate(45.690477 0)scale(0.996264)"/>
       <use xlink:href="#CMR17-32" transform="translate(72.787654 0)scale(0.996264)"/>
       <use xlink:href="#CMR17-35" transform="translate(118.478131 0)scale(0.996264)"/>
      </g>
     </g>
    </g>
    <g id="ytick_7">
     <g id="line2d_12">
      <g>
       <use xlink:href="#m164c1cb230" x="29.85942" y="6.10296" style="stroke: #000000; stroke-width: 0.35"/>
      </g>
     </g>
     <g id="text_13">
      <!-- $\mathdefault{0.30}$ -->
      <g transform="translate(9.804547 8.87036)scale(0.08 -0.08)">
       <defs>
        <path id="CMR17-33" d="M 1414 2176 
C 1984 2176 2234 1673 2234 1094 
C 2234 322 1824 25 1453 25 
C 1114 25 563 193 390 691 
C 422 678 454 678 486 678 
C 640 678 755 780 755 947 
C 755 1132 614 1216 486 1216 
C 378 1216 211 1164 211 927 
C 211 335 787 -128 1466 -128 
C 2176 -128 2720 432 2720 1087 
C 2720 1718 2208 2176 1600 2246 
C 2086 2347 2554 2776 2554 3353 
C 2554 3856 2048 4224 1472 4224 
C 890 4224 378 3862 378 3347 
C 378 3123 544 3084 627 3084 
C 762 3084 877 3167 877 3334 
C 877 3500 762 3584 627 3584 
C 602 3584 570 3584 544 3571 
C 730 3999 1235 4076 1459 4076 
C 1683 4076 2106 3966 2106 3347 
C 2106 3167 2080 2851 1862 2574 
C 1670 2329 1453 2316 1242 2297 
C 1210 2297 1062 2284 1037 2284 
C 992 2278 966 2272 966 2227 
C 966 2182 973 2176 1101 2176 
L 1414 2176 
z
" transform="scale(0.015625)"/>
       </defs>
       <use xlink:href="#CMR17-30" transform="scale(0.996264)"/>
       <use xlink:href="#CMMI12-3a" transform="translate(45.690477 0)scale(0.996264)"/>
       <use xlink:href="#CMR17-33" transform="translate(72.787654 0)scale(0.996264)"/>
       <use xlink:href="#CMR17-30" transform="translate(118.478131 0)scale(0.996264)"/>
      </g>
     </g>
    </g>
    <g id="text_14">
     <!-- $A_{{\alpha}}$ -->
     <g transform="translate(6.254802 64.611402)rotate(-90)scale(0.08 -0.08)">
      <defs>
       <path id="CMMI12-41" d="M 1088 720 
C 864 335 646 205 339 185 
C 269 179 218 179 218 64 
C 218 25 250 0 294 0 
C 410 0 698 12 813 12 
C 998 12 1203 0 1382 0 
C 1421 0 1498 0 1498 121 
C 1498 179 1446 185 1408 185 
C 1261 198 1139 250 1139 407 
C 1139 498 1178 570 1261 714 
L 1747 1536 
L 3379 1536 
C 3386 1477 3386 1425 3392 1366 
C 3411 1196 3488 518 3488 394 
C 3488 198 3162 185 3059 185 
C 2989 185 2918 185 2918 70 
C 2918 0 2976 0 3014 0 
C 3123 0 3251 12 3360 12 
L 3725 12 
C 4115 12 4397 0 4403 0 
C 4448 0 4518 0 4518 121 
C 4518 185 4461 185 4365 185 
C 4013 185 4006 244 3987 440 
L 3597 4403 
C 3584 4531 3558 4544 3488 4544 
C 3424 4544 3386 4531 3328 4435 
L 1088 720 
z
M 1856 1721 
L 3142 3831 
L 3360 1721 
L 1856 1721 
z
" transform="scale(0.015625)"/>
       <path id="CMMI12-b" d="M 2963 1615 
C 2963 2234 2611 2816 1933 2816 
C 1094 2816 256 1902 256 996 
C 256 440 602 -64 1254 -64 
C 1651 -64 2125 89 2579 472 
C 2669 115 2867 -64 3142 -64 
C 3488 -64 3661 293 3661 376 
C 3661 434 3616 434 3597 434 
C 3546 434 3539 415 3520 364 
C 3462 204 3315 64 3162 64 
C 2963 64 2963 472 2963 862 
C 3616 1641 3770 2445 3770 2451 
C 3770 2509 3718 2509 3699 2509 
C 3642 2509 3635 2490 3610 2375 
C 3526 2094 3360 1596 2963 1072 
L 2963 1615 
z
M 2560 625 
C 1997 121 1491 64 1267 64 
C 813 64 685 466 685 766 
C 685 1040 826 1692 1024 2043 
C 1286 2490 1645 2687 1933 2687 
C 2554 2687 2554 1877 2554 1340 
C 2554 1181 2547 1015 2547 855 
C 2547 728 2554 696 2560 625 
z
" transform="scale(0.015625)"/>
      </defs>
      <use xlink:href="#CMMI12-41" transform="scale(0.996264)"/>
      <use xlink:href="#CMMI12-b" transform="translate(73.127885 -14.943915)scale(0.697382)"/>
     </g>
    </g>
   </g>
   <g id="line2d_13">
    <defs>
     <path id="m9331a1df25" d="M 0 2 
C 0.530406 2 1.03916 1.789267 1.414214 1.414214 
C 1.789267 1.03916 2 0.530406 2 0 
C 2 -0.530406 1.789267 -1.03916 1.414214 -1.414214 
C 1.03916 -1.789267 0.530406 -2 0 -2 
C -0.530406 -2 -1.03916 -1.789267 -1.414214 -1.414214 
C -1.789267 -1.03916 -2 -0.530406 -2 0 
C -2 0.530406 -1.789267 1.03916 -1.414214 1.414214 
C -1.03916 1.789267 -0.530406 2 0 2 
z
" style="stroke: #9e0142"/>
    </defs>
    <g clip-path="url(#pa38a705dbd)">
     <use xlink:href="#m9331a1df25" x="38.519763" y="-1" style="fill: #ce7fa0; stroke: #9e0142"/>
     <use xlink:href="#m9331a1df25" x="38.873886" y="0.250027" style="fill: #ce7fa0; stroke: #9e0142"/>
     <use xlink:href="#m9331a1df25" x="41.127503" y="6.605988" style="fill: #ce7fa0; stroke: #9e0142"/>
     <use xlink:href="#m9331a1df25" x="43.381119" y="12.19736" style="fill: #ce7fa0; stroke: #9e0142"/>
     <use xlink:href="#m9331a1df25" x="45.634736" y="17.336122" style="fill: #ce7fa0; stroke: #9e0142"/>
     <use xlink:href="#m9331a1df25" x="47.888352" y="22.175935" style="fill: #ce7fa0; stroke: #9e0142"/>
     <use xlink:href="#m9331a1df25" x="50.141969" y="26.80222" style="fill: #ce7fa0; stroke: #9e0142"/>
     <use xlink:href="#m9331a1df25" x="52.395585" y="31.265334" style="fill: #ce7fa0; stroke: #9e0142"/>
     <use xlink:href="#m9331a1df25" x="54.649202" y="35.595732" style="fill: #ce7fa0; stroke: #9e0142"/>
     <use xlink:href="#m9331a1df25" x="56.902818" y="39.811861" style="fill: #ce7fa0; stroke: #9e0142"/>
     <use xlink:href="#m9331a1df25" x="59.156435" y="43.924644" style="fill: #ce7fa0; stroke: #9e0142"/>
     <use xlink:href="#m9331a1df25" x="61.410052" y="47.940178" style="fill: #ce7fa0; stroke: #9e0142"/>
     <use xlink:href="#m9331a1df25" x="63.663668" y="51.861416" style="fill: #ce7fa0; stroke: #9e0142"/>
     <use xlink:href="#m9331a1df25" x="65.917285" y="55.689249" style="fill: #ce7fa0; stroke: #9e0142"/>
     <use xlink:href="#m9331a1df25" x="68.170901" y="59.423212" style="fill: #ce7fa0; stroke: #9e0142"/>
     <use xlink:href="#m9331a1df25" x="70.424518" y="63.061955" style="fill: #ce7fa0; stroke: #9e0142"/>
     <use xlink:href="#m9331a1df25" x="72.678134" y="66.603548" style="fill: #ce7fa0; stroke: #9e0142"/>
     <use xlink:href="#m9331a1df25" x="74.931751" y="70.045693" style="fill: #ce7fa0; stroke: #9e0142"/>
     <use xlink:href="#m9331a1df25" x="77.185367" y="73.385855" style="fill: #ce7fa0; stroke: #9e0142"/>
     <use xlink:href="#m9331a1df25" x="79.438984" y="76.62135" style="fill: #ce7fa0; stroke: #9e0142"/>
     <use xlink:href="#m9331a1df25" x="81.6926" y="79.749396" style="fill: #ce7fa0; stroke: #9e0142"/>
     <use xlink:href="#m9331a1df25" x="83.946217" y="82.767141" style="fill: #ce7fa0; stroke: #9e0142"/>
     <use xlink:href="#m9331a1df25" x="86.199834" y="85.671672" style="fill: #ce7fa0; stroke: #9e0142"/>
     <use xlink:href="#m9331a1df25" x="88.45345" y="88.460009" style="fill: #ce7fa0; stroke: #9e0142"/>
     <use xlink:href="#m9331a1df25" x="90.707067" y="91.129095" style="fill: #ce7fa0; stroke: #9e0142"/>
     <use xlink:href="#m9331a1df25" x="92.960683" y="93.675763" style="fill: #ce7fa0; stroke: #9e0142"/>
     <use xlink:href="#m9331a1df25" x="95.2143" y="96.096713" style="fill: #ce7fa0; stroke: #9e0142"/>
     <use xlink:href="#m9331a1df25" x="97.467916" y="98.388457" style="fill: #ce7fa0; stroke: #9e0142"/>
     <use xlink:href="#m9331a1df25" x="99.721533" y="100.547273" style="fill: #ce7fa0; stroke: #9e0142"/>
     <use xlink:href="#m9331a1df25" x="101.975149" y="102.56913" style="fill: #ce7fa0; stroke: #9e0142"/>
     <use xlink:href="#m9331a1df25" x="104.228766" y="104.449604" style="fill: #ce7fa0; stroke: #9e0142"/>
     <use xlink:href="#m9331a1df25" x="106.482383" y="106.183755" style="fill: #ce7fa0; stroke: #9e0142"/>
     <use xlink:href="#m9331a1df25" x="108.735999" y="107.765976" style="fill: #ce7fa0; stroke: #9e0142"/>
     <use xlink:href="#m9331a1df25" x="110.989616" y="109.189773" style="fill: #ce7fa0; stroke: #9e0142"/>
     <use xlink:href="#m9331a1df25" x="113.243232" y="110.447438" style="fill: #ce7fa0; stroke: #9e0142"/>
     <use xlink:href="#m9331a1df25" x="115.496849" y="111.529545" style="fill: #ce7fa0; stroke: #9e0142"/>
     <use xlink:href="#m9331a1df25" x="117.750465" y="112.424089" style="fill: #ce7fa0; stroke: #9e0142"/>
     <use xlink:href="#m9331a1df25" x="120.004082" y="113.114814" style="fill: #ce7fa0; stroke: #9e0142"/>
     <use xlink:href="#m9331a1df25" x="122.257698" y="113.577233" style="fill: #ce7fa0; stroke: #9e0142"/>
     <use xlink:href="#m9331a1df25" x="124.511315" y="113.762151" style="fill: #ce7fa0; stroke: #9e0142"/>
     <use xlink:href="#m9331a1df25" x="126.764932" y="113.580694" style="fill: #ce7fa0; stroke: #9e0142"/>
     <use xlink:href="#m9331a1df25" x="129.018548" y="113.138229" style="fill: #ce7fa0; stroke: #9e0142"/>
     <use xlink:href="#m9331a1df25" x="131.272165" y="112.494705" style="fill: #ce7fa0; stroke: #9e0142"/>
     <use xlink:href="#m9331a1df25" x="133.525781" y="111.682842" style="fill: #ce7fa0; stroke: #9e0142"/>
     <use xlink:href="#m9331a1df25" x="135.779398" y="110.725591" style="fill: #ce7fa0; stroke: #9e0142"/>
     <use xlink:href="#m9331a1df25" x="138.033014" y="109.640548" style="fill: #ce7fa0; stroke: #9e0142"/>
     <use xlink:href="#m9331a1df25" x="140.286631" y="108.441871" style="fill: #ce7fa0; stroke: #9e0142"/>
     <use xlink:href="#m9331a1df25" x="142.540247" y="107.141303" style="fill: #ce7fa0; stroke: #9e0142"/>
     <use xlink:href="#m9331a1df25" x="144.793864" y="105.748789" style="fill: #ce7fa0; stroke: #9e0142"/>
     <use xlink:href="#m9331a1df25" x="147.04748" y="104.27288" style="fill: #ce7fa0; stroke: #9e0142"/>
     <use xlink:href="#m9331a1df25" x="149.301097" y="102.721015" style="fill: #ce7fa0; stroke: #9e0142"/>
     <use xlink:href="#m9331a1df25" x="151.554714" y="101.099723" style="fill: #ce7fa0; stroke: #9e0142"/>
     <use xlink:href="#m9331a1df25" x="153.80833" y="99.414774" style="fill: #ce7fa0; stroke: #9e0142"/>
     <use xlink:href="#m9331a1df25" x="156.061947" y="97.671297" style="fill: #ce7fa0; stroke: #9e0142"/>
     <use xlink:href="#m9331a1df25" x="158.315563" y="95.873876" style="fill: #ce7fa0; stroke: #9e0142"/>
     <use xlink:href="#m9331a1df25" x="160.56918" y="94.026617" style="fill: #ce7fa0; stroke: #9e0142"/>
     <use xlink:href="#m9331a1df25" x="162.822796" y="92.133212" style="fill: #ce7fa0; stroke: #9e0142"/>
     <use xlink:href="#m9331a1df25" x="165.076413" y="90.196991" style="fill: #ce7fa0; stroke: #9e0142"/>
     <use xlink:href="#m9331a1df25" x="167.330029" y="88.220957" style="fill: #ce7fa0; stroke: #9e0142"/>
     <use xlink:href="#m9331a1df25" x="169.583646" y="86.207827" style="fill: #ce7fa0; stroke: #9e0142"/>
     <use xlink:href="#m9331a1df25" x="171.837263" y="84.160055" style="fill: #ce7fa0; stroke: #9e0142"/>
     <use xlink:href="#m9331a1df25" x="174.090879" y="82.07986" style="fill: #ce7fa0; stroke: #9e0142"/>
     <use xlink:href="#m9331a1df25" x="176.344496" y="79.969249" style="fill: #ce7fa0; stroke: #9e0142"/>
     <use xlink:href="#m9331a1df25" x="178.598112" y="77.830028" style="fill: #ce7fa0; stroke: #9e0142"/>
     <use xlink:href="#m9331a1df25" x="180.851729" y="75.663823" style="fill: #ce7fa0; stroke: #9e0142"/>
     <use xlink:href="#m9331a1df25" x="183.105345" y="73.47209" style="fill: #ce7fa0; stroke: #9e0142"/>
     <use xlink:href="#m9331a1df25" x="185.358962" y="71.256125" style="fill: #ce7fa0; stroke: #9e0142"/>
     <use xlink:href="#m9331a1df25" x="187.612578" y="69.01707" style="fill: #ce7fa0; stroke: #9e0142"/>
     <use xlink:href="#m9331a1df25" x="189.866195" y="66.755924" style="fill: #ce7fa0; stroke: #9e0142"/>
     <use xlink:href="#m9331a1df25" x="192.119812" y="64.473544" style="fill: #ce7fa0; stroke: #9e0142"/>
     <use xlink:href="#m9331a1df25" x="194.373428" y="62.170647" style="fill: #ce7fa0; stroke: #9e0142"/>
     <use xlink:href="#m9331a1df25" x="196.627045" y="59.847811" style="fill: #ce7fa0; stroke: #9e0142"/>
     <use xlink:href="#m9331a1df25" x="198.880661" y="57.505473" style="fill: #ce7fa0; stroke: #9e0142"/>
     <use xlink:href="#m9331a1df25" x="201.134278" y="55.143926" style="fill: #ce7fa0; stroke: #9e0142"/>
     <use xlink:href="#m9331a1df25" x="203.387894" y="52.763312" style="fill: #ce7fa0; stroke: #9e0142"/>
     <use xlink:href="#m9331a1df25" x="205.641511" y="50.363612" style="fill: #ce7fa0; stroke: #9e0142"/>
     <use xlink:href="#m9331a1df25" x="207.895127" y="47.944639" style="fill: #ce7fa0; stroke: #9e0142"/>
     <use xlink:href="#m9331a1df25" x="210.148744" y="45.506022" style="fill: #ce7fa0; stroke: #9e0142"/>
     <use xlink:href="#m9331a1df25" x="212.40236" y="43.047191" style="fill: #ce7fa0; stroke: #9e0142"/>
     <use xlink:href="#m9331a1df25" x="214.655977" y="40.56736" style="fill: #ce7fa0; stroke: #9e0142"/>
    </g>
   </g>
   <g id="line2d_14">
    <path d="M 58.024972 -1 
L 59.156435 4.089065 
L 61.410052 13.328291 
L 63.663668 21.801918 
L 65.917285 29.611557 
L 68.170901 36.837337 
L 70.424518 43.543543 
L 72.678134 49.782474 
L 74.931751 55.597253 
L 77.185367 61.023793 
L 79.438984 66.092319 
L 81.6926 70.828412 
L 83.946217 75.25389 
L 86.199834 79.38744 
L 88.45345 83.245135 
L 90.707067 86.840763 
L 92.960683 90.186189 
L 95.2143 93.291624 
L 97.467916 96.165588 
L 99.721533 98.81546 
L 101.975149 101.247088 
L 104.228766 103.465116 
L 106.482383 105.472909 
L 108.735999 107.272509 
L 110.989616 108.864495 
L 113.243232 110.247756 
L 115.496849 111.419068 
L 117.750465 112.372326 
L 120.004082 113.097018 
L 122.257698 113.57447 
L 124.511315 113.762151 
L 126.764932 113.57982 
L 129.018548 113.133875 
L 131.272165 112.4851 
L 133.525781 111.667084 
L 135.779398 110.703368 
L 138.033014 109.611856 
L 140.286631 108.406755 
L 142.540247 107.099628 
L 144.793864 105.700035 
L 147.04748 104.215957 
L 149.301097 102.654087 
L 151.554714 101.020043 
L 153.80833 99.318525 
L 156.061947 97.55343 
L 158.315563 95.727942 
L 160.56918 93.844661 
L 162.822796 91.905387 
L 165.076413 89.911548 
L 167.330029 87.863947 
L 169.583646 85.762785 
L 171.837263 83.607902 
L 174.090879 81.398217 
L 176.344496 79.132256 
L 178.598112 76.807734 
L 180.851729 74.421564 
L 183.105345 71.969705 
L 185.358962 69.446968 
L 187.612578 66.846747 
L 189.866195 64.160636 
L 192.119812 61.377891 
L 194.373428 58.484629 
L 196.627045 55.462554 
L 198.880661 52.287073 
L 201.134278 48.923953 
L 203.387894 45.323426 
L 205.641511 41.408521 
L 207.895127 37.048891 
L 210.148744 31.989209 
L 212.40236 25.56767 
" clip-path="url(#pa38a705dbd)" style="fill: none; stroke-dasharray: 3.7,1.6; stroke-dashoffset: 0; stroke: #9e0142; stroke-linecap: round"/>
   </g>
   <g id="line2d_15">
    <defs>
     <path id="mcb0eeb84b0" d="M 0 2 
C 0.530406 2 1.03916 1.789267 1.414214 1.414214 
C 1.789267 1.03916 2 0.530406 2 0 
C 2 -0.530406 1.789267 -1.03916 1.414214 -1.414214 
C 1.03916 -1.789267 0.530406 -2 0 -2 
C -0.530406 -2 -1.03916 -1.789267 -1.414214 -1.414214 
C -1.789267 -1.03916 -2 -0.530406 -2 0 
C -2 0.530406 -1.789267 1.03916 -1.414214 1.414214 
C -1.03916 1.789267 -0.530406 2 0 2 
z
" style="stroke: #bfe5a0"/>
    </defs>
    <g clip-path="url(#pa38a705dbd)">
     <use xlink:href="#mcb0eeb84b0" x="34.366653" y="12.70021" style="fill: #def1cf; stroke: #bfe5a0"/>
     <use xlink:href="#mcb0eeb84b0" x="36.620269" y="27.374722" style="fill: #def1cf; stroke: #bfe5a0"/>
     <use xlink:href="#mcb0eeb84b0" x="38.873886" y="34.952702" style="fill: #def1cf; stroke: #bfe5a0"/>
     <use xlink:href="#mcb0eeb84b0" x="41.127503" y="40.884426" style="fill: #def1cf; stroke: #bfe5a0"/>
     <use xlink:href="#mcb0eeb84b0" x="43.381119" y="46.005342" style="fill: #def1cf; stroke: #bfe5a0"/>
     <use xlink:href="#mcb0eeb84b0" x="45.634736" y="50.62672" style="fill: #def1cf; stroke: #bfe5a0"/>
     <use xlink:href="#mcb0eeb84b0" x="47.888352" y="54.900552" style="fill: #def1cf; stroke: #bfe5a0"/>
     <use xlink:href="#mcb0eeb84b0" x="50.141969" y="58.910236" style="fill: #def1cf; stroke: #bfe5a0"/>
     <use xlink:href="#mcb0eeb84b0" x="52.395585" y="62.704238" style="fill: #def1cf; stroke: #bfe5a0"/>
     <use xlink:href="#mcb0eeb84b0" x="54.649202" y="66.311578" style="fill: #def1cf; stroke: #bfe5a0"/>
     <use xlink:href="#mcb0eeb84b0" x="56.902818" y="69.749928" style="fill: #def1cf; stroke: #bfe5a0"/>
     <use xlink:href="#mcb0eeb84b0" x="59.156435" y="73.030199" style="fill: #def1cf; stroke: #bfe5a0"/>
     <use xlink:href="#mcb0eeb84b0" x="61.410052" y="76.159264" style="fill: #def1cf; stroke: #bfe5a0"/>
     <use xlink:href="#mcb0eeb84b0" x="63.663668" y="79.141621" style="fill: #def1cf; stroke: #bfe5a0"/>
     <use xlink:href="#mcb0eeb84b0" x="65.917285" y="81.980426" style="fill: #def1cf; stroke: #bfe5a0"/>
     <use xlink:href="#mcb0eeb84b0" x="68.170901" y="84.678129" style="fill: #def1cf; stroke: #bfe5a0"/>
     <use xlink:href="#mcb0eeb84b0" x="70.424518" y="87.23687" style="fill: #def1cf; stroke: #bfe5a0"/>
     <use xlink:href="#mcb0eeb84b0" x="72.678134" y="89.658709" style="fill: #def1cf; stroke: #bfe5a0"/>
     <use xlink:href="#mcb0eeb84b0" x="74.931751" y="91.945764" style="fill: #def1cf; stroke: #bfe5a0"/>
     <use xlink:href="#mcb0eeb84b0" x="77.185367" y="94.100278" style="fill: #def1cf; stroke: #bfe5a0"/>
     <use xlink:href="#mcb0eeb84b0" x="79.438984" y="96.124652" style="fill: #def1cf; stroke: #bfe5a0"/>
     <use xlink:href="#mcb0eeb84b0" x="81.6926" y="98.021445" style="fill: #def1cf; stroke: #bfe5a0"/>
     <use xlink:href="#mcb0eeb84b0" x="83.946217" y="99.793364" style="fill: #def1cf; stroke: #bfe5a0"/>
     <use xlink:href="#mcb0eeb84b0" x="86.199834" y="101.443247" style="fill: #def1cf; stroke: #bfe5a0"/>
     <use xlink:href="#mcb0eeb84b0" x="88.45345" y="102.974037" style="fill: #def1cf; stroke: #bfe5a0"/>
     <use xlink:href="#mcb0eeb84b0" x="90.707067" y="104.38876" style="fill: #def1cf; stroke: #bfe5a0"/>
     <use xlink:href="#mcb0eeb84b0" x="92.960683" y="105.690498" style="fill: #def1cf; stroke: #bfe5a0"/>
     <use xlink:href="#mcb0eeb84b0" x="95.2143" y="106.882371" style="fill: #def1cf; stroke: #bfe5a0"/>
     <use xlink:href="#mcb0eeb84b0" x="97.467916" y="107.967512" style="fill: #def1cf; stroke: #bfe5a0"/>
     <use xlink:href="#mcb0eeb84b0" x="99.721533" y="108.94905" style="fill: #def1cf; stroke: #bfe5a0"/>
     <use xlink:href="#mcb0eeb84b0" x="101.975149" y="109.830097" style="fill: #def1cf; stroke: #bfe5a0"/>
     <use xlink:href="#mcb0eeb84b0" x="104.228766" y="110.61373" style="fill: #def1cf; stroke: #bfe5a0"/>
     <use xlink:href="#mcb0eeb84b0" x="106.482383" y="111.302982" style="fill: #def1cf; stroke: #bfe5a0"/>
     <use xlink:href="#mcb0eeb84b0" x="108.735999" y="111.900831" style="fill: #def1cf; stroke: #bfe5a0"/>
     <use xlink:href="#mcb0eeb84b0" x="110.989616" y="112.410193" style="fill: #def1cf; stroke: #bfe5a0"/>
     <use xlink:href="#mcb0eeb84b0" x="113.243232" y="112.833914" style="fill: #def1cf; stroke: #bfe5a0"/>
     <use xlink:href="#mcb0eeb84b0" x="115.496849" y="113.174767" style="fill: #def1cf; stroke: #bfe5a0"/>
     <use xlink:href="#mcb0eeb84b0" x="117.750465" y="113.435447" style="fill: #def1cf; stroke: #bfe5a0"/>
     <use xlink:href="#mcb0eeb84b0" x="120.004082" y="113.618565" style="fill: #def1cf; stroke: #bfe5a0"/>
     <use xlink:href="#mcb0eeb84b0" x="122.257698" y="113.726652" style="fill: #def1cf; stroke: #bfe5a0"/>
     <use xlink:href="#mcb0eeb84b0" x="124.511315" y="113.762151" style="fill: #def1cf; stroke: #bfe5a0"/>
     <use xlink:href="#mcb0eeb84b0" x="126.764932" y="113.727424" style="fill: #def1cf; stroke: #bfe5a0"/>
     <use xlink:href="#mcb0eeb84b0" x="129.018548" y="113.624742" style="fill: #def1cf; stroke: #bfe5a0"/>
     <use xlink:href="#mcb0eeb84b0" x="131.272165" y="113.456294" style="fill: #def1cf; stroke: #bfe5a0"/>
     <use xlink:href="#mcb0eeb84b0" x="133.525781" y="113.224183" style="fill: #def1cf; stroke: #bfe5a0"/>
     <use xlink:href="#mcb0eeb84b0" x="135.779398" y="112.930428" style="fill: #def1cf; stroke: #bfe5a0"/>
     <use xlink:href="#mcb0eeb84b0" x="138.033014" y="112.576963" style="fill: #def1cf; stroke: #bfe5a0"/>
     <use xlink:href="#mcb0eeb84b0" x="140.286631" y="112.165643" style="fill: #def1cf; stroke: #bfe5a0"/>
     <use xlink:href="#mcb0eeb84b0" x="142.540247" y="111.698238" style="fill: #def1cf; stroke: #bfe5a0"/>
     <use xlink:href="#mcb0eeb84b0" x="144.793864" y="111.176444" style="fill: #def1cf; stroke: #bfe5a0"/>
     <use xlink:href="#mcb0eeb84b0" x="147.04748" y="110.601875" style="fill: #def1cf; stroke: #bfe5a0"/>
     <use xlink:href="#mcb0eeb84b0" x="149.301097" y="109.97607" style="fill: #def1cf; stroke: #bfe5a0"/>
     <use xlink:href="#mcb0eeb84b0" x="151.554714" y="109.300494" style="fill: #def1cf; stroke: #bfe5a0"/>
     <use xlink:href="#mcb0eeb84b0" x="153.80833" y="108.576536" style="fill: #def1cf; stroke: #bfe5a0"/>
     <use xlink:href="#mcb0eeb84b0" x="156.061947" y="107.805515" style="fill: #def1cf; stroke: #bfe5a0"/>
     <use xlink:href="#mcb0eeb84b0" x="158.315563" y="106.988679" style="fill: #def1cf; stroke: #bfe5a0"/>
     <use xlink:href="#mcb0eeb84b0" x="160.56918" y="106.127206" style="fill: #def1cf; stroke: #bfe5a0"/>
     <use xlink:href="#mcb0eeb84b0" x="162.822796" y="105.222205" style="fill: #def1cf; stroke: #bfe5a0"/>
     <use xlink:href="#mcb0eeb84b0" x="165.076413" y="104.274719" style="fill: #def1cf; stroke: #bfe5a0"/>
     <use xlink:href="#mcb0eeb84b0" x="167.330029" y="103.285723" style="fill: #def1cf; stroke: #bfe5a0"/>
     <use xlink:href="#mcb0eeb84b0" x="169.583646" y="102.256125" style="fill: #def1cf; stroke: #bfe5a0"/>
     <use xlink:href="#mcb0eeb84b0" x="171.837263" y="101.18677" style="fill: #def1cf; stroke: #bfe5a0"/>
     <use xlink:href="#mcb0eeb84b0" x="174.090879" y="100.078435" style="fill: #def1cf; stroke: #bfe5a0"/>
     <use xlink:href="#mcb0eeb84b0" x="176.344496" y="98.931832" style="fill: #def1cf; stroke: #bfe5a0"/>
     <use xlink:href="#mcb0eeb84b0" x="178.598112" y="97.747608" style="fill: #def1cf; stroke: #bfe5a0"/>
     <use xlink:href="#mcb0eeb84b0" x="180.851729" y="96.526341" style="fill: #def1cf; stroke: #bfe5a0"/>
     <use xlink:href="#mcb0eeb84b0" x="183.105345" y="95.268543" style="fill: #def1cf; stroke: #bfe5a0"/>
     <use xlink:href="#mcb0eeb84b0" x="185.358962" y="93.974653" style="fill: #def1cf; stroke: #bfe5a0"/>
     <use xlink:href="#mcb0eeb84b0" x="187.612578" y="92.64504" style="fill: #def1cf; stroke: #bfe5a0"/>
     <use xlink:href="#mcb0eeb84b0" x="189.866195" y="91.279997" style="fill: #def1cf; stroke: #bfe5a0"/>
     <use xlink:href="#mcb0eeb84b0" x="192.119812" y="89.879735" style="fill: #def1cf; stroke: #bfe5a0"/>
     <use xlink:href="#mcb0eeb84b0" x="194.373428" y="88.444384" style="fill: #def1cf; stroke: #bfe5a0"/>
     <use xlink:href="#mcb0eeb84b0" x="196.627045" y="86.97398" style="fill: #def1cf; stroke: #bfe5a0"/>
     <use xlink:href="#mcb0eeb84b0" x="198.880661" y="85.468462" style="fill: #def1cf; stroke: #bfe5a0"/>
     <use xlink:href="#mcb0eeb84b0" x="201.134278" y="83.927663" style="fill: #def1cf; stroke: #bfe5a0"/>
     <use xlink:href="#mcb0eeb84b0" x="203.387894" y="82.351296" style="fill: #def1cf; stroke: #bfe5a0"/>
     <use xlink:href="#mcb0eeb84b0" x="205.641511" y="80.738944" style="fill: #def1cf; stroke: #bfe5a0"/>
     <use xlink:href="#mcb0eeb84b0" x="207.895127" y="79.090043" style="fill: #def1cf; stroke: #bfe5a0"/>
     <use xlink:href="#mcb0eeb84b0" x="210.148744" y="77.403868" style="fill: #def1cf; stroke: #bfe5a0"/>
     <use xlink:href="#mcb0eeb84b0" x="212.40236" y="75.679508" style="fill: #def1cf; stroke: #bfe5a0"/>
     <use xlink:href="#mcb0eeb84b0" x="214.655977" y="73.91585" style="fill: #def1cf; stroke: #bfe5a0"/>
    </g>
   </g>
   <g id="line2d_16">
    <path d="M 46.799793 -1 
L 47.888352 6.639737 
L 50.141969 19.575525 
L 52.395585 30.43682 
L 54.649202 39.733076 
L 56.902818 47.805527 
L 59.156435 54.893371 
L 61.410052 61.170516 
L 63.663668 66.767281 
L 65.917285 71.783829 
L 68.170901 76.298874 
L 70.424518 80.375414 
L 72.678134 84.06474 
L 74.931751 87.409213 
L 77.185367 90.444294 
L 79.438984 93.199985 
L 81.6926 95.701967 
L 83.946217 97.972394 
L 86.199834 100.0306 
L 88.45345 101.893512 
L 90.707067 103.576091 
L 92.960683 105.091635 
L 95.2143 106.452025 
L 97.467916 107.668034 
L 99.721533 108.74909 
L 101.975149 109.704001 
L 104.228766 110.540681 
L 106.482383 111.266352 
L 108.735999 111.88759 
L 110.989616 112.410436 
L 113.243232 112.840428 
L 115.496849 113.182654 
L 117.750465 113.441796 
L 120.004082 113.622163 
L 122.257698 113.727728 
L 124.511315 113.762152 
L 126.764932 113.728807 
L 129.018548 113.630799 
L 131.272165 113.470986 
L 133.525781 113.251992 
L 135.779398 112.97622 
L 138.033014 112.645868 
L 140.286631 112.262934 
L 142.540247 111.829224 
L 144.793864 111.346363 
L 147.04748 110.815789 
L 149.301097 110.238787 
L 151.554714 109.616443 
L 153.80833 108.94968 
L 156.061947 108.239244 
L 158.315563 107.485599 
L 160.56918 106.689328 
L 162.822796 105.850508 
L 165.076413 104.969113 
L 167.330029 104.044889 
L 169.583646 103.077338 
L 171.837263 102.065683 
L 174.090879 101.008838 
L 176.344496 99.905357 
L 178.598112 98.753376 
L 180.851729 97.550536 
L 183.105345 96.293887 
L 185.358962 94.9797 
L 187.612578 93.603359 
L 189.866195 92.159062 
L 192.119812 90.639345 
L 194.373428 89.03476 
L 196.627045 87.3328 
L 198.880661 85.5167 
L 201.134278 83.563146 
L 203.387894 81.438283 
L 205.641511 79.089797 
L 207.895127 76.429174 
L 210.148744 73.283204 
L 212.40236 69.203558 
" clip-path="url(#pa38a705dbd)" style="fill: none; stroke-dasharray: 3.7,1.6; stroke-dashoffset: 0; stroke: #bfe5a0; stroke-linecap: round"/>
   </g>
   <g id="line2d_17">
    <defs>
     <path id="mbbd1e3e8c7" d="M 0 2 
C 0.530406 2 1.03916 1.789267 1.414214 1.414214 
C 1.789267 1.03916 2 0.530406 2 0 
C 2 -0.530406 1.789267 -1.03916 1.414214 -1.414214 
C 1.03916 -1.789267 0.530406 -2 0 -2 
C -0.530406 -2 -1.03916 -1.789267 -1.414214 -1.414214 
C -1.789267 -1.03916 -2 -0.530406 -2 0 
C -2 0.530406 -1.789267 1.03916 -1.414214 1.414214 
C -1.03916 1.789267 -0.530406 2 0 2 
z
" style="stroke: #5e4fa2"/>
    </defs>
    <g clip-path="url(#pa38a705dbd)">
     <use xlink:href="#mbbd1e3e8c7" x="34.366653" y="51.72887" style="fill: #aea6d0; stroke: #5e4fa2"/>
     <use xlink:href="#mbbd1e3e8c7" x="36.620269" y="61.671694" style="fill: #aea6d0; stroke: #5e4fa2"/>
     <use xlink:href="#mbbd1e3e8c7" x="38.873886" y="66.549895" style="fill: #aea6d0; stroke: #5e4fa2"/>
     <use xlink:href="#mbbd1e3e8c7" x="41.127503" y="70.267456" style="fill: #aea6d0; stroke: #5e4fa2"/>
     <use xlink:href="#mbbd1e3e8c7" x="43.381119" y="73.415362" style="fill: #aea6d0; stroke: #5e4fa2"/>
     <use xlink:href="#mbbd1e3e8c7" x="45.634736" y="76.213489" style="fill: #aea6d0; stroke: #5e4fa2"/>
     <use xlink:href="#mbbd1e3e8c7" x="47.888352" y="78.770015" style="fill: #aea6d0; stroke: #5e4fa2"/>
     <use xlink:href="#mbbd1e3e8c7" x="50.141969" y="81.145638" style="fill: #aea6d0; stroke: #5e4fa2"/>
     <use xlink:href="#mbbd1e3e8c7" x="52.395585" y="83.377076" style="fill: #aea6d0; stroke: #5e4fa2"/>
     <use xlink:href="#mbbd1e3e8c7" x="54.649202" y="85.487629" style="fill: #aea6d0; stroke: #5e4fa2"/>
     <use xlink:href="#mbbd1e3e8c7" x="56.902818" y="87.492568" style="fill: #aea6d0; stroke: #5e4fa2"/>
     <use xlink:href="#mbbd1e3e8c7" x="59.156435" y="89.402126" style="fill: #aea6d0; stroke: #5e4fa2"/>
     <use xlink:href="#mbbd1e3e8c7" x="61.410052" y="91.223267" style="fill: #aea6d0; stroke: #5e4fa2"/>
     <use xlink:href="#mbbd1e3e8c7" x="63.663668" y="92.960789" style="fill: #aea6d0; stroke: #5e4fa2"/>
     <use xlink:href="#mbbd1e3e8c7" x="65.917285" y="94.618035" style="fill: #aea6d0; stroke: #5e4fa2"/>
     <use xlink:href="#mbbd1e3e8c7" x="68.170901" y="96.197369" style="fill: #aea6d0; stroke: #5e4fa2"/>
     <use xlink:href="#mbbd1e3e8c7" x="70.424518" y="97.700506" style="fill: #aea6d0; stroke: #5e4fa2"/>
     <use xlink:href="#mbbd1e3e8c7" x="72.678134" y="99.128741" style="fill: #aea6d0; stroke: #5e4fa2"/>
     <use xlink:href="#mbbd1e3e8c7" x="74.931751" y="100.483115" style="fill: #aea6d0; stroke: #5e4fa2"/>
     <use xlink:href="#mbbd1e3e8c7" x="77.185367" y="101.764528" style="fill: #aea6d0; stroke: #5e4fa2"/>
     <use xlink:href="#mbbd1e3e8c7" x="79.438984" y="102.973825" style="fill: #aea6d0; stroke: #5e4fa2"/>
     <use xlink:href="#mbbd1e3e8c7" x="81.6926" y="104.111848" style="fill: #aea6d0; stroke: #5e4fa2"/>
     <use xlink:href="#mbbd1e3e8c7" x="83.946217" y="105.17948" style="fill: #aea6d0; stroke: #5e4fa2"/>
     <use xlink:href="#mbbd1e3e8c7" x="86.199834" y="106.177662" style="fill: #aea6d0; stroke: #5e4fa2"/>
     <use xlink:href="#mbbd1e3e8c7" x="88.45345" y="107.107412" style="fill: #aea6d0; stroke: #5e4fa2"/>
     <use xlink:href="#mbbd1e3e8c7" x="90.707067" y="107.969831" style="fill: #aea6d0; stroke: #5e4fa2"/>
     <use xlink:href="#mbbd1e3e8c7" x="92.960683" y="108.766098" style="fill: #aea6d0; stroke: #5e4fa2"/>
     <use xlink:href="#mbbd1e3e8c7" x="95.2143" y="109.497473" style="fill: #aea6d0; stroke: #5e4fa2"/>
     <use xlink:href="#mbbd1e3e8c7" x="97.467916" y="110.165283" style="fill: #aea6d0; stroke: #5e4fa2"/>
     <use xlink:href="#mbbd1e3e8c7" x="99.721533" y="110.770922" style="fill: #aea6d0; stroke: #5e4fa2"/>
     <use xlink:href="#mbbd1e3e8c7" x="101.975149" y="111.315834" style="fill: #aea6d0; stroke: #5e4fa2"/>
     <use xlink:href="#mbbd1e3e8c7" x="104.228766" y="111.801509" style="fill: #aea6d0; stroke: #5e4fa2"/>
     <use xlink:href="#mbbd1e3e8c7" x="106.482383" y="112.229469" style="fill: #aea6d0; stroke: #5e4fa2"/>
     <use xlink:href="#mbbd1e3e8c7" x="108.735999" y="112.601261" style="fill: #aea6d0; stroke: #5e4fa2"/>
     <use xlink:href="#mbbd1e3e8c7" x="110.989616" y="112.918446" style="fill: #aea6d0; stroke: #5e4fa2"/>
     <use xlink:href="#mbbd1e3e8c7" x="113.243232" y="113.182594" style="fill: #aea6d0; stroke: #5e4fa2"/>
     <use xlink:href="#mbbd1e3e8c7" x="115.496849" y="113.39527" style="fill: #aea6d0; stroke: #5e4fa2"/>
     <use xlink:href="#mbbd1e3e8c7" x="117.750465" y="113.558032" style="fill: #aea6d0; stroke: #5e4fa2"/>
     <use xlink:href="#mbbd1e3e8c7" x="120.004082" y="113.672423" style="fill: #aea6d0; stroke: #5e4fa2"/>
     <use xlink:href="#mbbd1e3e8c7" x="122.257698" y="113.739965" style="fill: #aea6d0; stroke: #5e4fa2"/>
     <use xlink:href="#mbbd1e3e8c7" x="124.511315" y="113.762151" style="fill: #aea6d0; stroke: #5e4fa2"/>
     <use xlink:href="#mbbd1e3e8c7" x="126.764932" y="113.740447" style="fill: #aea6d0; stroke: #5e4fa2"/>
     <use xlink:href="#mbbd1e3e8c7" x="129.018548" y="113.676282" style="fill: #aea6d0; stroke: #5e4fa2"/>
     <use xlink:href="#mbbd1e3e8c7" x="131.272165" y="113.571047" style="fill: #aea6d0; stroke: #5e4fa2"/>
     <use xlink:href="#mbbd1e3e8c7" x="133.525781" y="113.426093" style="fill: #aea6d0; stroke: #5e4fa2"/>
     <use xlink:href="#mbbd1e3e8c7" x="135.779398" y="113.242727" style="fill: #aea6d0; stroke: #5e4fa2"/>
     <use xlink:href="#mbbd1e3e8c7" x="138.033014" y="113.02221" style="fill: #aea6d0; stroke: #5e4fa2"/>
     <use xlink:href="#mbbd1e3e8c7" x="140.286631" y="112.765758" style="fill: #aea6d0; stroke: #5e4fa2"/>
     <use xlink:href="#mbbd1e3e8c7" x="142.540247" y="112.474538" style="fill: #aea6d0; stroke: #5e4fa2"/>
     <use xlink:href="#mbbd1e3e8c7" x="144.793864" y="112.149665" style="fill: #aea6d0; stroke: #5e4fa2"/>
     <use xlink:href="#mbbd1e3e8c7" x="147.04748" y="111.792208" style="fill: #aea6d0; stroke: #5e4fa2"/>
     <use xlink:href="#mbbd1e3e8c7" x="149.301097" y="111.403182" style="fill: #aea6d0; stroke: #5e4fa2"/>
     <use xlink:href="#mbbd1e3e8c7" x="151.554714" y="110.983554" style="fill: #aea6d0; stroke: #5e4fa2"/>
     <use xlink:href="#mbbd1e3e8c7" x="153.80833" y="110.534237" style="fill: #aea6d0; stroke: #5e4fa2"/>
     <use xlink:href="#mbbd1e3e8c7" x="156.061947" y="110.056093" style="fill: #aea6d0; stroke: #5e4fa2"/>
     <use xlink:href="#mbbd1e3e8c7" x="158.315563" y="109.549932" style="fill: #aea6d0; stroke: #5e4fa2"/>
     <use xlink:href="#mbbd1e3e8c7" x="160.56918" y="109.016515" style="fill: #aea6d0; stroke: #5e4fa2"/>
     <use xlink:href="#mbbd1e3e8c7" x="162.822796" y="108.456546" style="fill: #aea6d0; stroke: #5e4fa2"/>
     <use xlink:href="#mbbd1e3e8c7" x="165.076413" y="107.870683" style="fill: #aea6d0; stroke: #5e4fa2"/>
     <use xlink:href="#mbbd1e3e8c7" x="167.330029" y="107.259528" style="fill: #aea6d0; stroke: #5e4fa2"/>
     <use xlink:href="#mbbd1e3e8c7" x="169.583646" y="106.623632" style="fill: #aea6d0; stroke: #5e4fa2"/>
     <use xlink:href="#mbbd1e3e8c7" x="171.837263" y="105.963496" style="fill: #aea6d0; stroke: #5e4fa2"/>
     <use xlink:href="#mbbd1e3e8c7" x="174.090879" y="105.279566" style="fill: #aea6d0; stroke: #5e4fa2"/>
     <use xlink:href="#mbbd1e3e8c7" x="176.344496" y="104.572236" style="fill: #aea6d0; stroke: #5e4fa2"/>
     <use xlink:href="#mbbd1e3e8c7" x="178.598112" y="103.841849" style="fill: #aea6d0; stroke: #5e4fa2"/>
     <use xlink:href="#mbbd1e3e8c7" x="180.851729" y="103.088689" style="fill: #aea6d0; stroke: #5e4fa2"/>
     <use xlink:href="#mbbd1e3e8c7" x="183.105345" y="102.312988" style="fill: #aea6d0; stroke: #5e4fa2"/>
     <use xlink:href="#mbbd1e3e8c7" x="185.358962" y="101.514921" style="fill: #aea6d0; stroke: #5e4fa2"/>
     <use xlink:href="#mbbd1e3e8c7" x="187.612578" y="100.694604" style="fill: #aea6d0; stroke: #5e4fa2"/>
     <use xlink:href="#mbbd1e3e8c7" x="189.866195" y="99.852091" style="fill: #aea6d0; stroke: #5e4fa2"/>
     <use xlink:href="#mbbd1e3e8c7" x="192.119812" y="98.987374" style="fill: #aea6d0; stroke: #5e4fa2"/>
     <use xlink:href="#mbbd1e3e8c7" x="194.373428" y="98.100375" style="fill: #aea6d0; stroke: #5e4fa2"/>
     <use xlink:href="#mbbd1e3e8c7" x="196.627045" y="97.190947" style="fill: #aea6d0; stroke: #5e4fa2"/>
     <use xlink:href="#mbbd1e3e8c7" x="198.880661" y="96.258864" style="fill: #aea6d0; stroke: #5e4fa2"/>
     <use xlink:href="#mbbd1e3e8c7" x="201.134278" y="95.303816" style="fill: #aea6d0; stroke: #5e4fa2"/>
     <use xlink:href="#mbbd1e3e8c7" x="203.387894" y="94.325403" style="fill: #aea6d0; stroke: #5e4fa2"/>
     <use xlink:href="#mbbd1e3e8c7" x="205.641511" y="93.323122" style="fill: #aea6d0; stroke: #5e4fa2"/>
     <use xlink:href="#mbbd1e3e8c7" x="207.895127" y="92.296359" style="fill: #aea6d0; stroke: #5e4fa2"/>
     <use xlink:href="#mbbd1e3e8c7" x="210.148744" y="91.244374" style="fill: #aea6d0; stroke: #5e4fa2"/>
     <use xlink:href="#mbbd1e3e8c7" x="212.40236" y="90.166289" style="fill: #aea6d0; stroke: #5e4fa2"/>
     <use xlink:href="#mbbd1e3e8c7" x="214.655977" y="89.061064" style="fill: #aea6d0; stroke: #5e4fa2"/>
    </g>
   </g>
   <g id="line2d_18">
    <path d="M 41.410892 -1 
L 43.381119 17.63505 
L 45.634736 32.747215 
L 47.888352 44.205631 
L 50.141969 53.292824 
L 52.395585 60.733339 
L 54.649202 66.971414 
L 56.902818 72.296594 
L 59.156435 76.906797 
L 61.410052 80.942509 
L 63.663668 84.506705 
L 65.917285 87.676786 
L 68.170901 90.512283 
L 70.424518 93.05986 
L 72.678134 95.356698 
L 74.931751 97.432951 
L 77.185367 99.313293 
L 79.438984 101.018227 
L 81.6926 102.564965 
L 83.946217 103.968173 
L 86.199834 105.240237 
L 88.45345 106.392002 
L 90.707067 107.432896 
L 92.960683 108.371161 
L 95.2143 109.214109 
L 97.467916 109.968251 
L 99.721533 110.639402 
L 101.975149 111.232819 
L 104.228766 111.753257 
L 106.482383 112.205046 
L 108.735999 112.592141 
L 110.989616 112.91817 
L 113.243232 113.186472 
L 115.496849 113.400127 
L 117.750465 113.561981 
L 120.004082 113.674672 
L 122.257698 113.740642 
L 124.511315 113.762156 
L 126.764932 113.741316 
L 129.018548 113.680068 
L 131.272165 113.580217 
L 133.525781 113.443427 
L 135.779398 113.271236 
L 138.033014 113.065053 
L 140.286631 112.826169 
L 142.540247 112.55576 
L 144.793864 112.254884 
L 147.04748 111.92449 
L 149.301097 111.565415 
L 151.554714 111.178383 
L 153.80833 110.764009 
L 156.061947 110.322792 
L 158.315563 109.855115 
L 160.56918 109.361239 
L 162.822796 108.841291 
L 165.076413 108.295278 
L 167.330029 107.723045 
L 169.583646 107.124279 
L 171.837263 106.49848 
L 174.090879 105.844975 
L 176.344496 105.162821 
L 178.598112 104.450826 
L 180.851729 103.707469 
L 183.105345 102.930851 
L 185.358962 102.118537 
L 187.612578 101.267656 
L 189.866195 100.374406 
L 192.119812 99.434033 
L 194.373428 98.440425 
L 196.627045 97.385568 
L 198.880661 96.258695 
L 201.134278 95.044855 
L 203.387894 93.722355 
L 205.641511 92.257605 
L 207.895127 90.593886 
L 210.148744 88.620156 
L 212.40236 86.048993 
" clip-path="url(#pa38a705dbd)" style="fill: none; stroke-dasharray: 3.7,1.6; stroke-dashoffset: 0; stroke: #5e4fa2; stroke-linecap: round"/>
   </g>
   <g id="patch_3">
    <path d="M 29.85942 117.350791 
L 29.85942 0.72 
" style="fill: none; stroke: #000000; stroke-width: 0.35; stroke-linejoin: miter; stroke-linecap: square"/>
   </g>
   <g id="patch_4">
    <path d="M 225.92406 117.350791 
L 225.92406 0.72 
" style="fill: none; stroke: #000000; stroke-width: 0.35; stroke-linejoin: miter; stroke-linecap: square"/>
   </g>
   <g id="patch_5">
    <path d="M 29.85942 117.350791 
L 225.92406 117.350791 
" style="fill: none; stroke: #000000; stroke-width: 0.35; stroke-linejoin: miter; stroke-linecap: square"/>
   </g>
   <g id="patch_6">
    <path d="M 29.85942 0.72 
L 225.92406 0.72 
" style="fill: none; stroke: #000000; stroke-width: 0.35; stroke-linejoin: miter; stroke-linecap: square"/>
   </g>
   <g id="text_15">
    <!-- $\alpha=1.0$ -->
    <g style="fill: #9e0142" transform="translate(196.627045 22.624161)scale(0.08 -0.08)">
     <defs>
      <path id="CMR17-3d" d="M 4115 2048 
C 4211 2048 4307 2048 4307 2156 
C 4307 2272 4198 2272 4090 2272 
L 512 2272 
C 403 2272 294 2272 294 2156 
C 294 2048 390 2048 486 2048 
L 4115 2048 
z
M 4090 927 
C 4198 927 4307 927 4307 1043 
C 4307 1152 4211 1152 4115 1152 
L 486 1152 
C 390 1152 294 1152 294 1043 
C 294 927 403 927 512 927 
L 4090 927 
z
" transform="scale(0.015625)"/>
     </defs>
     <use xlink:href="#CMMI12-b" transform="scale(0.996264)"/>
     <use xlink:href="#CMR17-3d" transform="translate(90.355032 0)scale(0.996264)"/>
     <use xlink:href="#CMR17-31" transform="translate(189.743829 0)scale(0.996264)"/>
     <use xlink:href="#CMMI12-3a" transform="translate(235.434306 0)scale(0.996264)"/>
     <use xlink:href="#CMR17-30" transform="translate(262.531483 0)scale(0.996264)"/>
    </g>
   </g>
   <g id="text_16">
    <!-- $\alpha=2.0$ -->
    <g style="fill: #bfe5a0" transform="translate(196.627045 66.738571)scale(0.08 -0.08)">
     <use xlink:href="#CMMI12-b" transform="scale(0.996264)"/>
     <use xlink:href="#CMR17-3d" transform="translate(90.355032 0)scale(0.996264)"/>
     <use xlink:href="#CMR17-32" transform="translate(189.743829 0)scale(0.996264)"/>
     <use xlink:href="#CMMI12-3a" transform="translate(235.434306 0)scale(0.996264)"/>
     <use xlink:href="#CMR17-30" transform="translate(262.531483 0)scale(0.996264)"/>
    </g>
   </g>
   <g id="text_17">
    <!-- $\alpha=5.0$ -->
    <g style="fill: #5e4fa2" transform="translate(196.627045 107.004263)scale(0.08 -0.08)">
     <use xlink:href="#CMMI12-b" transform="scale(0.996264)"/>
     <use xlink:href="#CMR17-3d" transform="translate(90.355032 0)scale(0.996264)"/>
     <use xlink:href="#CMR17-35" transform="translate(189.743829 0)scale(0.996264)"/>
     <use xlink:href="#CMMI12-3a" transform="translate(235.434306 0)scale(0.996264)"/>
     <use xlink:href="#CMR17-30" transform="translate(262.531483 0)scale(0.996264)"/>
    </g>
   </g>
  </g>
 </g>
 <defs>
  <clipPath id="pa38a705dbd">
   <rect x="29.85942" y="0.72" width="196.06464" height="116.630791"/>
  </clipPath>
 </defs>
</svg>
