<?xml version="1.0" encoding="utf-8" standalone="no"?>
<!DOCTYPE svg PUBLIC "-//W3C//DTD SVG 1.1//EN"
  "http://www.w3.org/Graphics/SVG/1.1/DTD/svg11.dtd">
<svg xmlns:xlink="http://www.w3.org/1999/xlink" width="227.529624pt" height="140.125451pt" viewBox="0 0 227.529624 140.125451" xmlns="http://www.w3.org/2000/svg" version="1.1">
 <metadata>
  <rdf:RDF xmlns:dc="http://purl.org/dc/elements/1.1/" xmlns:cc="http://creativecommons.org/ns#" xmlns:rdf="http://www.w3.org/1999/02/22-rdf-syntax-ns#">
   <cc:Work>
    <dc:type rdf:resource="http://purl.org/dc/dcmitype/StillImage"/>
    <dc:date>2022-06-20T22:33:36.849073</dc:date>
    <dc:format>image/svg+xml</dc:format>
    <dc:creator>
     <cc:Agent>
      <dc:title>Matplotlib v3.5.1, https://matplotlib.org/</dc:title>
     </cc:Agent>
    </dc:creator>
   </cc:Work>
  </rdf:RDF>
 </metadata>
 <defs>
  <style type="text/css">*{stroke-linejoin: round; stroke-linecap: butt}</style>
 </defs>
 <g id="figure_1">
  <g id="patch_1">
   <path d="M 0 140.125451 
L 227.529624 140.125451 
L 227.529624 0 
L 0 0 
L 0 140.125451 
z
" style="fill: none"/>
  </g>
  <g id="axes_1">
   <g id="patch_2">
    <path d="M 30.744984 117.350791 
L 226.809624 117.350791 
L 226.809624 0.72 
L 30.744984 0.72 
L 30.744984 117.350791 
z
" style="fill: none"/>
   </g>
   <g id="matplotlib.axis_1">
    <g id="xtick_1">
     <g id="line2d_1">
      <defs>
       <path id="mbb13445e1e" d="M 0 0 
L 0 2 
" style="stroke: #000000; stroke-width: 0.35"/>
      </defs>
      <g>
       <use xlink:href="#mbb13445e1e" x="34.966472" y="117.350791" style="stroke: #000000; stroke-width: 0.35"/>
      </g>
     </g>
     <g id="text_1">
      <!-- $\mathdefault{−2}$ -->
      <g transform="translate(29.556127 127.885593)scale(0.08 -0.08)">
       <defs>
        <path id="CMSY10-0" d="M 4218 1472 
C 4326 1472 4442 1472 4442 1600 
C 4442 1728 4326 1728 4218 1728 
L 755 1728 
C 646 1728 531 1728 531 1600 
C 531 1472 646 1472 755 1472 
L 4218 1472 
z
" transform="scale(0.015625)"/>
        <path id="CMR17-32" d="M 2669 990 
L 2554 990 
C 2490 537 2438 460 2413 422 
C 2381 371 1920 371 1830 371 
L 602 371 
C 832 620 1280 1073 1824 1596 
C 2214 1966 2669 2400 2669 3033 
C 2669 3788 2067 4224 1395 4224 
C 691 4224 262 3603 262 3027 
C 262 2777 448 2745 525 2745 
C 589 2745 781 2783 781 3007 
C 781 3206 614 3264 525 3264 
C 486 3264 448 3257 422 3244 
C 544 3788 915 4057 1306 4057 
C 1862 4057 2227 3616 2227 3033 
C 2227 2477 1901 1998 1536 1583 
L 262 147 
L 262 0 
L 2515 0 
L 2669 990 
z
" transform="scale(0.015625)"/>
       </defs>
       <use xlink:href="#CMSY10-0" transform="scale(0.996264)"/>
       <use xlink:href="#CMR17-32" transform="translate(77.487468 0)scale(0.996264)"/>
      </g>
     </g>
    </g>
    <g id="xtick_2">
     <g id="line2d_2">
      <g>
       <use xlink:href="#mbb13445e1e" x="81.871888" y="117.350791" style="stroke: #000000; stroke-width: 0.35"/>
      </g>
     </g>
     <g id="text_2">
      <!-- $\mathdefault{−1}$ -->
      <g transform="translate(76.461543 127.885593)scale(0.08 -0.08)">
       <defs>
        <path id="CMR17-31" d="M 1702 4083 
C 1702 4217 1696 4224 1606 4224 
C 1357 3927 979 3833 621 3820 
C 602 3820 570 3820 563 3808 
C 557 3795 557 3782 557 3648 
C 755 3648 1088 3686 1344 3839 
L 1344 467 
C 1344 243 1331 166 781 166 
L 589 166 
L 589 0 
C 896 6 1216 12 1523 12 
C 1830 12 2150 6 2458 0 
L 2458 166 
L 2266 166 
C 1715 166 1702 236 1702 467 
L 1702 4083 
z
" transform="scale(0.015625)"/>
       </defs>
       <use xlink:href="#CMSY10-0" transform="scale(0.996264)"/>
       <use xlink:href="#CMR17-31" transform="translate(77.487468 0)scale(0.996264)"/>
      </g>
     </g>
    </g>
    <g id="xtick_3">
     <g id="line2d_3">
      <g>
       <use xlink:href="#mbb13445e1e" x="128.777304" y="117.350791" style="stroke: #000000; stroke-width: 0.35"/>
      </g>
     </g>
     <g id="text_3">
      <!-- $\mathdefault{0}$ -->
      <g transform="translate(126.660213 127.885593)scale(0.08 -0.08)">
       <defs>
        <path id="CMR17-30" d="M 2688 2038 
C 2688 2430 2682 3099 2413 3613 
C 2176 4063 1798 4224 1466 4224 
C 1158 4224 768 4082 525 3620 
C 269 3137 243 2539 243 2038 
C 243 1671 250 1112 448 623 
C 723 -39 1216 -128 1466 -128 
C 1760 -128 2208 -7 2470 604 
C 2662 1048 2688 1568 2688 2038 
z
M 1466 -26 
C 1056 -26 813 328 723 816 
C 653 1196 653 1749 653 2109 
C 653 2604 653 3015 736 3407 
C 858 3954 1216 4121 1466 4121 
C 1728 4121 2067 3947 2189 3420 
C 2272 3054 2278 2623 2278 2109 
C 2278 1691 2278 1176 2202 797 
C 2067 96 1690 -26 1466 -26 
z
" transform="scale(0.015625)"/>
       </defs>
       <use xlink:href="#CMR17-30" transform="scale(0.996264)"/>
      </g>
     </g>
    </g>
    <g id="xtick_4">
     <g id="line2d_4">
      <g>
       <use xlink:href="#mbb13445e1e" x="175.682721" y="117.350791" style="stroke: #000000; stroke-width: 0.35"/>
      </g>
     </g>
     <g id="text_4">
      <!-- $\mathdefault{1}$ -->
      <g transform="translate(173.565629 127.885593)scale(0.08 -0.08)">
       <use xlink:href="#CMR17-31" transform="scale(0.996264)"/>
      </g>
     </g>
    </g>
    <g id="xtick_5">
     <g id="line2d_5">
      <g>
       <use xlink:href="#mbb13445e1e" x="222.588137" y="117.350791" style="stroke: #000000; stroke-width: 0.35"/>
      </g>
     </g>
     <g id="text_5">
      <!-- $\mathdefault{2}$ -->
      <g transform="translate(220.471046 127.885593)scale(0.08 -0.08)">
       <use xlink:href="#CMR17-32" transform="scale(0.996264)"/>
      </g>
     </g>
    </g>
    <g id="text_6">
     <!-- $V/J$ -->
     <g transform="translate(121.411076 137.412923)scale(0.08 -0.08)">
      <defs>
       <path id="CMMI12-56" d="M 3962 3644 
C 4179 3987 4378 4140 4704 4166 
C 4768 4172 4819 4172 4819 4287 
C 4819 4313 4806 4352 4749 4352 
C 4634 4352 4358 4339 4243 4339 
C 4058 4339 3866 4352 3686 4352 
C 3635 4352 3571 4352 3571 4230 
C 3571 4172 3629 4166 3654 4166 
C 3891 4146 3917 4032 3917 3956 
C 3917 3860 3827 3714 3821 3708 
L 1811 540 
L 1363 3968 
C 1363 4153 1696 4166 1766 4166 
C 1862 4166 1920 4166 1920 4287 
C 1920 4352 1850 4352 1830 4352 
C 1722 4352 1594 4339 1485 4339 
L 1126 4339 
C 659 4339 467 4352 461 4352 
C 422 4352 346 4352 346 4236 
C 346 4166 390 4166 493 4166 
C 819 4166 838 4108 858 3949 
L 1370 25 
C 1389 -109 1389 -128 1478 -128 
C 1555 -128 1587 -109 1651 -7 
L 3962 3644 
z
" transform="scale(0.015625)"/>
       <path id="CMMI12-3d" d="M 2746 4563 
C 2746 4569 2784 4665 2784 4678 
C 2784 4755 2720 4800 2669 4800 
C 2637 4800 2579 4800 2528 4659 
L 384 -1364 
C 384 -1370 346 -1466 346 -1479 
C 346 -1556 410 -1600 461 -1600 
C 499 -1600 557 -1594 602 -1460 
L 2746 4563 
z
" transform="scale(0.015625)"/>
       <path id="CMMI12-4a" d="M 3418 3911 
C 3469 4102 3482 4166 3795 4166 
C 3898 4166 3962 4166 3962 4281 
C 3962 4352 3904 4352 3878 4352 
C 3770 4352 3648 4339 3533 4339 
L 3181 4339 
C 2912 4339 2630 4352 2362 4352 
C 2304 4352 2227 4352 2227 4236 
C 2227 4172 2278 4172 2278 4166 
L 2438 4166 
C 2950 4166 2950 4115 2950 4019 
C 2950 4013 2950 3968 2925 3866 
L 2189 953 
C 2022 304 1594 0 1286 0 
C 1069 0 762 99 685 428 
C 710 422 742 415 768 415 
C 979 415 1146 601 1146 787 
C 1146 889 1082 1024 890 1024 
C 774 1024 506 959 506 543 
C 506 149 838 -128 1299 -128 
C 1882 -128 2509 304 2662 908 
L 3418 3911 
z
" transform="scale(0.015625)"/>
      </defs>
      <use xlink:href="#CMMI12-56" transform="scale(0.996264)"/>
      <use xlink:href="#CMMI12-3d" transform="translate(67.70845 0)scale(0.996264)"/>
      <use xlink:href="#CMMI12-4a" transform="translate(116.483369 0)scale(0.996264)"/>
     </g>
    </g>
   </g>
   <g id="matplotlib.axis_2">
    <g id="ytick_1">
     <g id="line2d_6">
      <defs>
       <path id="m6e4136eae4" d="M 0 0 
L -2 0 
" style="stroke: #000000; stroke-width: 0.35"/>
      </defs>
      <g>
       <use xlink:href="#m6e4136eae4" x="30.744984" y="112.049392" style="stroke: #000000; stroke-width: 0.35"/>
      </g>
     </g>
     <g id="text_7">
      <!-- $\mathdefault{0.00}$ -->
      <g transform="translate(10.690112 114.816793)scale(0.08 -0.08)">
       <defs>
        <path id="CMMI12-3a" d="M 1178 307 
C 1178 492 1024 620 870 620 
C 685 620 557 467 557 313 
C 557 128 710 0 864 0 
C 1050 0 1178 153 1178 307 
z
" transform="scale(0.015625)"/>
       </defs>
       <use xlink:href="#CMR17-30" transform="scale(0.996264)"/>
       <use xlink:href="#CMMI12-3a" transform="translate(45.690477 0)scale(0.996264)"/>
       <use xlink:href="#CMR17-30" transform="translate(72.787654 0)scale(0.996264)"/>
       <use xlink:href="#CMR17-30" transform="translate(118.478131 0)scale(0.996264)"/>
      </g>
     </g>
    </g>
    <g id="ytick_2">
     <g id="line2d_7">
      <g>
       <use xlink:href="#m6e4136eae4" x="30.744984" y="92.44394" style="stroke: #000000; stroke-width: 0.35"/>
      </g>
     </g>
     <g id="text_8">
      <!-- $\mathdefault{0.25}$ -->
      <g transform="translate(10.690112 95.211341)scale(0.08 -0.08)">
       <defs>
        <path id="CMR17-35" d="M 730 3750 
C 794 3724 1056 3641 1325 3641 
C 1920 3641 2246 3961 2432 4140 
C 2432 4191 2432 4224 2394 4224 
C 2387 4224 2374 4224 2323 4198 
C 2099 4102 1837 4032 1517 4032 
C 1325 4032 1037 4055 723 4191 
C 653 4224 640 4224 634 4224 
C 602 4224 595 4217 595 4090 
L 595 2231 
C 595 2113 595 2080 659 2080 
C 691 2080 704 2093 736 2139 
C 941 2435 1222 2560 1542 2560 
C 1766 2560 2246 2415 2246 1293 
C 2246 1087 2246 716 2054 422 
C 1894 159 1645 25 1370 25 
C 947 25 518 319 403 812 
C 429 806 480 793 506 793 
C 589 793 749 838 749 1036 
C 749 1209 627 1280 506 1280 
C 358 1280 262 1190 262 1011 
C 262 454 704 -128 1382 -128 
C 2042 -128 2669 441 2669 1267 
C 2669 2054 2170 2662 1549 2662 
C 1222 2662 947 2540 730 2304 
L 730 3750 
z
" transform="scale(0.015625)"/>
       </defs>
       <use xlink:href="#CMR17-30" transform="scale(0.996264)"/>
       <use xlink:href="#CMMI12-3a" transform="translate(45.690477 0)scale(0.996264)"/>
       <use xlink:href="#CMR17-32" transform="translate(72.787654 0)scale(0.996264)"/>
       <use xlink:href="#CMR17-35" transform="translate(118.478131 0)scale(0.996264)"/>
      </g>
     </g>
    </g>
    <g id="ytick_3">
     <g id="line2d_8">
      <g>
       <use xlink:href="#m6e4136eae4" x="30.744984" y="72.838489" style="stroke: #000000; stroke-width: 0.35"/>
      </g>
     </g>
     <g id="text_9">
      <!-- $\mathdefault{0.50}$ -->
      <g transform="translate(10.690112 75.60589)scale(0.08 -0.08)">
       <use xlink:href="#CMR17-30" transform="scale(0.996264)"/>
       <use xlink:href="#CMMI12-3a" transform="translate(45.690477 0)scale(0.996264)"/>
       <use xlink:href="#CMR17-35" transform="translate(72.787654 0)scale(0.996264)"/>
       <use xlink:href="#CMR17-30" transform="translate(118.478131 0)scale(0.996264)"/>
      </g>
     </g>
    </g>
    <g id="ytick_4">
     <g id="line2d_9">
      <g>
       <use xlink:href="#m6e4136eae4" x="30.744984" y="53.233038" style="stroke: #000000; stroke-width: 0.35"/>
      </g>
     </g>
     <g id="text_10">
      <!-- $\mathdefault{0.75}$ -->
      <g transform="translate(10.690112 56.000439)scale(0.08 -0.08)">
       <defs>
        <path id="CMR17-37" d="M 2886 3955 
L 2886 4096 
L 1382 4096 
C 634 4096 621 4166 595 4288 
L 480 4288 
L 294 3104 
L 410 3104 
C 429 3226 474 3552 550 3673 
C 589 3724 1062 3724 1171 3724 
L 2579 3724 
L 1869 2670 
C 1395 1961 1069 1003 1069 166 
C 1069 89 1069 -128 1299 -128 
C 1530 -128 1530 89 1530 172 
L 1530 466 
C 1530 1514 1709 2204 2003 2644 
L 2886 3955 
z
" transform="scale(0.015625)"/>
       </defs>
       <use xlink:href="#CMR17-30" transform="scale(0.996264)"/>
       <use xlink:href="#CMMI12-3a" transform="translate(45.690477 0)scale(0.996264)"/>
       <use xlink:href="#CMR17-37" transform="translate(72.787654 0)scale(0.996264)"/>
       <use xlink:href="#CMR17-35" transform="translate(118.478131 0)scale(0.996264)"/>
      </g>
     </g>
    </g>
    <g id="ytick_5">
     <g id="line2d_10">
      <g>
       <use xlink:href="#m6e4136eae4" x="30.744984" y="33.627587" style="stroke: #000000; stroke-width: 0.35"/>
      </g>
     </g>
     <g id="text_11">
      <!-- $\mathdefault{1.00}$ -->
      <g transform="translate(10.690112 36.394987)scale(0.08 -0.08)">
       <use xlink:href="#CMR17-31" transform="scale(0.996264)"/>
       <use xlink:href="#CMMI12-3a" transform="translate(45.690477 0)scale(0.996264)"/>
       <use xlink:href="#CMR17-30" transform="translate(72.787654 0)scale(0.996264)"/>
       <use xlink:href="#CMR17-30" transform="translate(118.478131 0)scale(0.996264)"/>
      </g>
     </g>
    </g>
    <g id="ytick_6">
     <g id="line2d_11">
      <g>
       <use xlink:href="#m6e4136eae4" x="30.744984" y="14.022135" style="stroke: #000000; stroke-width: 0.35"/>
      </g>
     </g>
     <g id="text_12">
      <!-- $\mathdefault{1.25}$ -->
      <g transform="translate(10.690112 16.789536)scale(0.08 -0.08)">
       <use xlink:href="#CMR17-31" transform="scale(0.996264)"/>
       <use xlink:href="#CMMI12-3a" transform="translate(45.690477 0)scale(0.996264)"/>
       <use xlink:href="#CMR17-32" transform="translate(72.787654 0)scale(0.996264)"/>
       <use xlink:href="#CMR17-35" transform="translate(118.478131 0)scale(0.996264)"/>
      </g>
     </g>
    </g>
    <g id="text_13">
     <!-- $A_1(t\rightarrow\infty)$ -->
     <g transform="translate(6.697584 79.925358)rotate(-90)scale(0.08 -0.08)">
      <defs>
       <path id="CMMI12-41" d="M 1088 720 
C 864 335 646 205 339 185 
C 269 179 218 179 218 64 
C 218 25 250 0 294 0 
C 410 0 698 12 813 12 
C 998 12 1203 0 1382 0 
C 1421 0 1498 0 1498 121 
C 1498 179 1446 185 1408 185 
C 1261 198 1139 250 1139 407 
C 1139 498 1178 570 1261 714 
L 1747 1536 
L 3379 1536 
C 3386 1477 3386 1425 3392 1366 
C 3411 1196 3488 518 3488 394 
C 3488 198 3162 185 3059 185 
C 2989 185 2918 185 2918 70 
C 2918 0 2976 0 3014 0 
C 3123 0 3251 12 3360 12 
L 3725 12 
C 4115 12 4397 0 4403 0 
C 4448 0 4518 0 4518 121 
C 4518 185 4461 185 4365 185 
C 4013 185 4006 244 3987 440 
L 3597 4403 
C 3584 4531 3558 4544 3488 4544 
C 3424 4544 3386 4531 3328 4435 
L 1088 720 
z
M 1856 1721 
L 3142 3831 
L 3360 1721 
L 1856 1721 
z
" transform="scale(0.015625)"/>
       <path id="CMR17-28" d="M 1958 -1562 
C 1958 -1556 1958 -1543 1939 -1524 
C 1645 -1223 858 -403 858 1596 
C 858 3595 1632 4408 1946 4729 
C 1946 4735 1958 4748 1958 4767 
C 1958 4787 1939 4800 1914 4800 
C 1843 4800 1299 4325 986 3620 
C 666 2909 576 2218 576 1603 
C 576 1141 621 360 1005 -467 
C 1312 -1133 1837 -1600 1914 -1600 
C 1946 -1600 1958 -1588 1958 -1562 
z
" transform="scale(0.015625)"/>
       <path id="CMMI12-74" d="M 1286 2566 
L 1875 2566 
C 1997 2566 2061 2566 2061 2681 
C 2061 2752 2022 2752 1894 2752 
L 1331 2752 
L 1568 3664 
C 1594 3752 1594 3764 1594 3808 
C 1594 3910 1510 3968 1427 3968 
C 1376 3968 1229 3948 1178 3746 
L 928 2752 
L 326 2752 
C 198 2752 141 2752 141 2630 
C 141 2566 186 2566 307 2566 
L 877 2566 
L 454 881 
C 403 657 384 593 384 510 
C 384 210 595 -64 954 -64 
C 1600 -64 1946 868 1946 913 
C 1946 951 1920 970 1882 970 
C 1869 970 1843 970 1830 944 
C 1824 938 1818 932 1773 830 
C 1638 510 1344 64 973 64 
C 781 64 768 223 768 364 
C 768 370 768 491 787 568 
L 1286 2566 
z
" transform="scale(0.015625)"/>
       <path id="CMSY10-21" d="M 5338 1472 
C 4986 1203 4813 940 4762 857 
C 4474 415 4422 12 4422 6 
C 4422 -71 4499 -71 4550 -71 
C 4659 -71 4666 -58 4691 57 
C 4838 684 5216 1222 5939 1516 
C 6016 1542 6035 1555 6035 1600 
C 6035 1644 5997 1664 5984 1670 
C 5702 1779 4928 2099 4685 3174 
C 4666 3251 4659 3270 4550 3270 
C 4499 3270 4422 3270 4422 3193 
C 4422 3180 4480 2777 4749 2348 
C 4877 2156 5062 1932 5338 1728 
L 582 1728 
C 467 1728 352 1728 352 1600 
C 352 1472 467 1472 582 1472 
L 5338 1472 
z
" transform="scale(0.015625)"/>
       <path id="CMSY10-31" d="M 3251 1736 
C 2906 2170 2829 2266 2630 2426 
C 2272 2713 1914 2828 1587 2828 
C 838 2828 352 2126 352 1379 
C 352 645 826 -64 1562 -64 
C 2298 -64 2829 517 3142 1028 
C 3488 594 3565 498 3763 338 
C 4122 51 4480 -64 4806 -64 
C 5555 -64 6042 638 6042 1385 
C 6042 2119 5568 2828 4832 2828 
C 4096 2828 3565 2247 3251 1736 
z
M 3418 1519 
C 3680 1979 4154 2624 4877 2624 
C 5555 2624 5901 1960 5901 1385 
C 5901 760 5472 242 4909 242 
C 4538 242 4250 511 4115 645 
C 3955 817 3808 1015 3418 1519 
z
M 2976 1245 
C 2714 785 2240 140 1517 140 
C 838 140 493 804 493 1379 
C 493 2004 922 2521 1485 2521 
C 1856 2521 2144 2253 2278 2119 
C 2438 1947 2586 1749 2976 1245 
z
" transform="scale(0.015625)"/>
       <path id="CMR17-29" d="M 1683 1596 
C 1683 2057 1638 2839 1254 3665 
C 947 4332 422 4800 346 4800 
C 326 4800 301 4793 301 4761 
C 301 4748 307 4742 314 4729 
C 621 4408 1402 3595 1402 1603 
C 1402 -396 627 -1210 314 -1530 
C 307 -1543 301 -1549 301 -1562 
C 301 -1594 326 -1600 346 -1600 
C 416 -1600 960 -1127 1274 -422 
C 1594 289 1683 981 1683 1596 
z
" transform="scale(0.015625)"/>
      </defs>
      <use xlink:href="#CMMI12-41" transform="scale(0.996264)"/>
      <use xlink:href="#CMR17-31" transform="translate(73.127885 -14.943915)scale(0.697382)"/>
      <use xlink:href="#CMR17-28" transform="translate(105.609199 0)scale(0.996264)"/>
      <use xlink:href="#CMMI12-74" transform="translate(140.889967 0)scale(0.996264)"/>
      <use xlink:href="#CMSY10-21" transform="translate(203.790306 0)scale(0.996264)"/>
      <use xlink:href="#CMSY10-31" transform="translate(331.090989 0)scale(0.996264)"/>
      <use xlink:href="#CMR17-29" transform="translate(430.717664 0)scale(0.996264)"/>
     </g>
    </g>
   </g>
   <g id="line2d_12">
    <defs>
     <path id="me62c6f92b1" d="M 0 2 
C 0.530406 2 1.03916 1.789267 1.414214 1.414214 
C 1.789267 1.03916 2 0.530406 2 0 
C 2 -0.530406 1.789267 -1.03916 1.414214 -1.414214 
C 1.03916 -1.789267 0.530406 -2 0 -2 
C -0.530406 -2 -1.03916 -1.789267 -1.414214 -1.414214 
C -1.789267 -1.03916 -2 -0.530406 -2 0 
C -2 0.530406 -1.789267 1.03916 -1.414214 1.414214 
C -1.03916 1.789267 -0.530406 2 0 2 
z
" style="stroke: #5e4fa2"/>
    </defs>
    <g clip-path="url(#pd3896e96e0)">
     <use xlink:href="#me62c6f92b1" x="39.657014" y="6.461519" style="fill: #aea6d0; stroke: #5e4fa2"/>
     <use xlink:href="#me62c6f92b1" x="44.347555" y="33.855962" style="fill: #aea6d0; stroke: #5e4fa2"/>
     <use xlink:href="#me62c6f92b1" x="49.038097" y="49.800053" style="fill: #aea6d0; stroke: #5e4fa2"/>
     <use xlink:href="#me62c6f92b1" x="53.728638" y="60.863975" style="fill: #aea6d0; stroke: #5e4fa2"/>
     <use xlink:href="#me62c6f92b1" x="58.41918" y="69.274384" style="fill: #aea6d0; stroke: #5e4fa2"/>
     <use xlink:href="#me62c6f92b1" x="63.109722" y="76.039061" style="fill: #aea6d0; stroke: #5e4fa2"/>
     <use xlink:href="#me62c6f92b1" x="67.800263" y="81.685738" style="fill: #aea6d0; stroke: #5e4fa2"/>
     <use xlink:href="#me62c6f92b1" x="72.490805" y="86.517474" style="fill: #aea6d0; stroke: #5e4fa2"/>
     <use xlink:href="#me62c6f92b1" x="77.181347" y="90.719585" style="fill: #aea6d0; stroke: #5e4fa2"/>
     <use xlink:href="#me62c6f92b1" x="81.871888" y="94.410497" style="fill: #aea6d0; stroke: #5e4fa2"/>
     <use xlink:href="#me62c6f92b1" x="86.56243" y="97.668324" style="fill: #aea6d0; stroke: #5e4fa2"/>
     <use xlink:href="#me62c6f92b1" x="91.252971" y="100.545685" style="fill: #aea6d0; stroke: #5e4fa2"/>
     <use xlink:href="#me62c6f92b1" x="95.943513" y="103.078301" style="fill: #aea6d0; stroke: #5e4fa2"/>
     <use xlink:href="#me62c6f92b1" x="100.634055" y="105.290049" style="fill: #aea6d0; stroke: #5e4fa2"/>
     <use xlink:href="#me62c6f92b1" x="105.324596" y="107.195838" style="fill: #aea6d0; stroke: #5e4fa2"/>
     <use xlink:href="#me62c6f92b1" x="110.015138" y="108.802994" style="fill: #aea6d0; stroke: #5e4fa2"/>
     <use xlink:href="#me62c6f92b1" x="114.70568" y="110.111339" style="fill: #aea6d0; stroke: #5e4fa2"/>
     <use xlink:href="#me62c6f92b1" x="119.396221" y="111.11152" style="fill: #aea6d0; stroke: #5e4fa2"/>
     <use xlink:href="#me62c6f92b1" x="124.086763" y="111.77933" style="fill: #aea6d0; stroke: #5e4fa2"/>
     <use xlink:href="#me62c6f92b1" x="128.777304" y="112.043237" style="fill: #aea6d0; stroke: #5e4fa2"/>
     <use xlink:href="#me62c6f92b1" x="133.467846" y="111.794159" style="fill: #aea6d0; stroke: #5e4fa2"/>
     <use xlink:href="#me62c6f92b1" x="138.158388" y="111.209535" style="fill: #aea6d0; stroke: #5e4fa2"/>
     <use xlink:href="#me62c6f92b1" x="142.848929" y="110.402402" style="fill: #aea6d0; stroke: #5e4fa2"/>
     <use xlink:href="#me62c6f92b1" x="147.539471" y="109.428168" style="fill: #aea6d0; stroke: #5e4fa2"/>
     <use xlink:href="#me62c6f92b1" x="152.230013" y="108.322555" style="fill: #aea6d0; stroke: #5e4fa2"/>
     <use xlink:href="#me62c6f92b1" x="156.920554" y="107.110103" style="fill: #aea6d0; stroke: #5e4fa2"/>
     <use xlink:href="#me62c6f92b1" x="161.611096" y="105.80796" style="fill: #aea6d0; stroke: #5e4fa2"/>
     <use xlink:href="#me62c6f92b1" x="166.301637" y="104.427892" style="fill: #aea6d0; stroke: #5e4fa2"/>
     <use xlink:href="#me62c6f92b1" x="170.992179" y="102.977417" style="fill: #aea6d0; stroke: #5e4fa2"/>
     <use xlink:href="#me62c6f92b1" x="175.682721" y="101.460406" style="fill: #aea6d0; stroke: #5e4fa2"/>
     <use xlink:href="#me62c6f92b1" x="180.373262" y="99.877302" style="fill: #aea6d0; stroke: #5e4fa2"/>
     <use xlink:href="#me62c6f92b1" x="185.063804" y="98.224948" style="fill: #aea6d0; stroke: #5e4fa2"/>
     <use xlink:href="#me62c6f92b1" x="189.754346" y="96.495958" style="fill: #aea6d0; stroke: #5e4fa2"/>
     <use xlink:href="#me62c6f92b1" x="194.444887" y="94.677355" style="fill: #aea6d0; stroke: #5e4fa2"/>
     <use xlink:href="#me62c6f92b1" x="199.135429" y="92.74788" style="fill: #aea6d0; stroke: #5e4fa2"/>
     <use xlink:href="#me62c6f92b1" x="203.82597" y="90.672441" style="fill: #aea6d0; stroke: #5e4fa2"/>
     <use xlink:href="#me62c6f92b1" x="208.516512" y="88.389454" style="fill: #aea6d0; stroke: #5e4fa2"/>
     <use xlink:href="#me62c6f92b1" x="213.207054" y="85.775896" style="fill: #aea6d0; stroke: #5e4fa2"/>
     <use xlink:href="#me62c6f92b1" x="217.897595" y="82.509518" style="fill: #aea6d0; stroke: #5e4fa2"/>
    </g>
   </g>
   <g id="line2d_13">
    <path d="M 39.657014 6.0214 
L 44.347555 33.720332 
L 49.038097 49.713844 
L 53.728638 60.802158 
L 58.41918 69.230068 
L 63.109722 76.009347 
L 67.800263 81.668616 
L 72.490805 86.510728 
L 77.181347 90.720678 
L 81.871888 94.416869 
L 86.56243 97.677694 
L 91.252971 100.556208 
L 95.943513 103.08862 
L 100.634055 105.299245 
L 105.324596 107.203342 
L 110.015138 108.808561 
L 114.70568 110.114964 
L 119.396221 111.113415 
L 124.086763 111.779918 
L 128.777304 112.049392 
L 133.467846 111.794716 
L 138.158388 111.211247 
L 142.848929 110.405547 
L 147.539471 109.432849 
L 152.230013 108.328751 
L 156.920554 107.117697 
L 161.611096 105.816761 
L 166.301637 104.43763 
L 170.992179 102.987766 
L 175.682721 101.470989 
L 180.373262 99.88769 
L 185.063804 98.234654 
L 189.754346 96.504447 
L 194.444887 94.684036 
L 199.135429 92.752098 
L 203.82597 90.673455 
L 208.516512 88.386391 
L 213.207054 85.767624 
L 217.897595 82.49422 
" clip-path="url(#pd3896e96e0)" style="fill: none; stroke-dasharray: 3.7,1.6; stroke-dashoffset: 0; stroke: #9e0142; stroke-linecap: round"/>
   </g>
   <g id="patch_3">
    <path d="M 30.744984 117.350791 
L 30.744984 0.72 
" style="fill: none; stroke: #000000; stroke-width: 0.35; stroke-linejoin: miter; stroke-linecap: square"/>
   </g>
   <g id="patch_4">
    <path d="M 226.809624 117.350791 
L 226.809624 0.72 
" style="fill: none; stroke: #000000; stroke-width: 0.35; stroke-linejoin: miter; stroke-linecap: square"/>
   </g>
   <g id="patch_5">
    <path d="M 30.744984 117.350791 
L 226.809624 117.350791 
" style="fill: none; stroke: #000000; stroke-width: 0.35; stroke-linejoin: miter; stroke-linecap: square"/>
   </g>
   <g id="patch_6">
    <path d="M 30.744984 0.72 
L 226.809624 0.72 
" style="fill: none; stroke: #000000; stroke-width: 0.35; stroke-linejoin: miter; stroke-linecap: square"/>
   </g>
  </g>
  <g id="axes_2">
   <g id="patch_7">
    <path d="M 109.17084 70.698475 
L 226.809624 70.698475 
L 226.809624 0.72 
L 109.17084 0.72 
L 109.17084 70.698475 
z
" style="fill: none"/>
   </g>
   <g id="matplotlib.axis_3">
    <g id="xtick_6">
     <g id="line2d_14">
      <g>
       <use xlink:href="#mbb13445e1e" x="114.518058" y="70.698475" style="stroke: #000000; stroke-width: 0.35"/>
      </g>
     </g>
     <g id="text_14">
      <!-- $\mathdefault{0}$ -->
      <g transform="translate(112.400966 81.233276)scale(0.08 -0.08)">
       <use xlink:href="#CMR17-30" transform="scale(0.996264)"/>
      </g>
     </g>
    </g>
    <g id="xtick_7">
     <g id="line2d_15">
      <g>
       <use xlink:href="#mbb13445e1e" x="161.218647" y="70.698475" style="stroke: #000000; stroke-width: 0.35"/>
      </g>
     </g>
     <g id="text_15">
      <!-- $\mathdefault{10}$ -->
      <g transform="translate(156.984464 81.233276)scale(0.08 -0.08)">
       <use xlink:href="#CMR17-31" transform="scale(0.996264)"/>
       <use xlink:href="#CMR17-30" transform="translate(45.690477 0)scale(0.996264)"/>
      </g>
     </g>
    </g>
    <g id="xtick_8">
     <g id="line2d_16">
      <g>
       <use xlink:href="#mbb13445e1e" x="207.919236" y="70.698475" style="stroke: #000000; stroke-width: 0.35"/>
      </g>
     </g>
     <g id="text_16">
      <!-- $\mathdefault{20}$ -->
      <g transform="translate(203.685053 81.233276)scale(0.08 -0.08)">
       <use xlink:href="#CMR17-32" transform="scale(0.996264)"/>
       <use xlink:href="#CMR17-30" transform="translate(45.690477 0)scale(0.996264)"/>
      </g>
     </g>
    </g>
    <g id="text_17">
     <!-- $tv $ -->
     <g transform="translate(164.39948 90.317824)scale(0.08 -0.08)">
      <defs>
       <path id="CMMI12-76" d="M 2925 2388 
C 2925 2790 2720 2816 2669 2816 
C 2515 2816 2374 2662 2374 2534 
C 2374 2458 2419 2413 2445 2388 
C 2509 2330 2675 2158 2675 1826 
C 2675 1558 2291 64 1523 64 
C 1133 64 1056 389 1056 625 
C 1056 945 1203 1392 1376 1851 
C 1478 2113 1504 2177 1504 2305 
C 1504 2573 1312 2816 998 2816 
C 410 2816 173 1890 173 1838 
C 173 1813 198 1781 243 1781 
C 301 1781 307 1807 333 1896 
C 486 2445 736 2687 979 2687 
C 1037 2687 1146 2687 1146 2477 
C 1146 2311 1075 2126 979 1883 
C 672 1066 672 868 672 715 
C 672 574 691 313 890 134 
C 1120 -64 1440 -64 1498 -64 
C 2560 -64 2925 2024 2925 2388 
z
" transform="scale(0.015625)"/>
      </defs>
      <use xlink:href="#CMMI12-74" transform="scale(0.996264)"/>
      <use xlink:href="#CMMI12-76" transform="translate(35.22633 0)scale(0.996264)"/>
     </g>
    </g>
   </g>
   <g id="matplotlib.axis_4">
    <g id="ytick_7">
     <g id="line2d_17">
      <g>
       <use xlink:href="#m6e4136eae4" x="109.17084" y="67.517635" style="stroke: #000000; stroke-width: 0.35"/>
      </g>
     </g>
     <g id="text_18">
      <!-- $\mathdefault{0.00}$ -->
      <g transform="translate(89.115968 70.285036)scale(0.08 -0.08)">
       <use xlink:href="#CMR17-30" transform="scale(0.996264)"/>
       <use xlink:href="#CMMI12-3a" transform="translate(45.690477 0)scale(0.996264)"/>
       <use xlink:href="#CMR17-30" transform="translate(72.787654 0)scale(0.996264)"/>
       <use xlink:href="#CMR17-30" transform="translate(118.478131 0)scale(0.996264)"/>
      </g>
     </g>
    </g>
    <g id="ytick_8">
     <g id="line2d_18">
      <g>
       <use xlink:href="#m6e4136eae4" x="109.17084" y="44.012303" style="stroke: #000000; stroke-width: 0.35"/>
      </g>
     </g>
     <g id="text_19">
      <!-- $\mathdefault{0.05}$ -->
      <g transform="translate(89.115968 46.779704)scale(0.08 -0.08)">
       <use xlink:href="#CMR17-30" transform="scale(0.996264)"/>
       <use xlink:href="#CMMI12-3a" transform="translate(45.690477 0)scale(0.996264)"/>
       <use xlink:href="#CMR17-30" transform="translate(72.787654 0)scale(0.996264)"/>
       <use xlink:href="#CMR17-35" transform="translate(118.478131 0)scale(0.996264)"/>
      </g>
     </g>
    </g>
    <g id="ytick_9">
     <g id="line2d_19">
      <g>
       <use xlink:href="#m6e4136eae4" x="109.17084" y="20.50697" style="stroke: #000000; stroke-width: 0.35"/>
      </g>
     </g>
     <g id="text_20">
      <!-- $\mathdefault{0.10}$ -->
      <g transform="translate(89.115968 23.274371)scale(0.08 -0.08)">
       <use xlink:href="#CMR17-30" transform="scale(0.996264)"/>
       <use xlink:href="#CMMI12-3a" transform="translate(45.690477 0)scale(0.996264)"/>
       <use xlink:href="#CMR17-31" transform="translate(72.787654 0)scale(0.996264)"/>
       <use xlink:href="#CMR17-30" transform="translate(118.478131 0)scale(0.996264)"/>
      </g>
     </g>
    </g>
    <g id="text_21">
     <!-- $S_1(t)-S_{\rm ff}$ -->
     <g transform="translate(85.12344 55.132387)rotate(-90)scale(0.08 -0.08)">
      <defs>
       <path id="CMMI12-53" d="M 4064 4422 
C 4064 4480 4019 4480 4006 4480 
C 3981 4480 3974 4473 3898 4377 
C 3859 4332 3597 4002 3590 3996 
C 3379 4409 2957 4480 2688 4480 
C 1875 4480 1139 3742 1139 3024 
C 1139 2547 1427 2268 1741 2160 
C 1811 2134 2189 2033 2381 1988 
C 2707 1899 2790 1874 2925 1734 
C 2950 1702 3078 1556 3078 1258 
C 3078 667 2528 57 1888 57 
C 1363 57 781 279 781 991 
C 781 1112 806 1264 826 1328 
C 826 1347 832 1378 832 1391 
C 832 1417 819 1448 768 1448 
C 710 1448 704 1436 678 1328 
L 352 25 
C 352 19 326 -64 326 -71 
C 326 -128 378 -128 390 -128 
C 416 -128 422 -122 499 -26 
L 794 356 
C 947 127 1280 -128 1875 -128 
C 2701 -128 3456 667 3456 1461 
C 3456 1728 3392 1963 3149 2198 
C 3014 2331 2899 2363 2310 2516 
C 1882 2630 1824 2649 1709 2751 
C 1600 2859 1517 3011 1517 3227 
C 1517 3761 2061 4307 2669 4307 
C 3296 4307 3590 3926 3590 3322 
C 3590 3157 3558 2986 3558 2960 
C 3558 2903 3610 2903 3629 2903 
C 3686 2903 3693 2922 3718 3024 
L 4064 4422 
z
" transform="scale(0.015625)"/>
       <path id="CMR17-b" d="M 2554 2585 
L 3283 2585 
L 3283 2752 
L 2541 2752 
L 2541 3520 
C 2541 4047 2810 4377 3085 4377 
C 3168 4377 3264 4352 3328 4307 
C 3277 4294 3142 4250 3142 4091 
C 3142 3926 3270 3875 3360 3875 
C 3450 3875 3578 3926 3578 4091 
C 3578 4333 3347 4480 3091 4480 
C 2842 4480 2637 4358 2477 4206 
C 2330 4415 2086 4480 1837 4480 
C 1338 4480 634 4193 634 3494 
L 634 2752 
L 122 2752 
L 122 2585 
L 634 2585 
L 634 441 
C 634 198 608 166 198 166 
L 198 0 
C 352 12 634 12 794 12 
C 960 12 1242 12 1395 0 
L 1395 166 
C 986 166 960 192 960 441 
L 960 2585 
L 2227 2585 
L 2227 441 
C 2227 198 2202 166 1792 166 
L 1792 0 
C 1946 12 2240 12 2406 12 
C 2592 12 2918 12 3091 0 
L 3091 166 
C 2630 166 2554 166 2554 454 
L 2554 2585 
z
M 947 2752 
L 947 3494 
C 947 4072 1395 4377 1824 4377 
C 1920 4377 2170 4358 2323 4218 
C 2208 4212 2099 4161 2099 4002 
C 2099 3837 2246 3793 2259 3793 
C 2227 3679 2227 3552 2227 3507 
L 2227 2752 
L 947 2752 
z
" transform="scale(0.015625)"/>
      </defs>
      <use xlink:href="#CMMI12-53" transform="scale(0.996264)"/>
      <use xlink:href="#CMR17-31" transform="translate(59.994488 -14.943915)scale(0.697382)"/>
      <use xlink:href="#CMR17-28" transform="translate(92.475802 0)scale(0.996264)"/>
      <use xlink:href="#CMMI12-74" transform="translate(127.75657 0)scale(0.996264)"/>
      <use xlink:href="#CMR17-29" transform="translate(162.9829 0)scale(0.996264)"/>
      <use xlink:href="#CMSY10-0" transform="translate(220.402875 0)scale(0.996264)"/>
      <use xlink:href="#CMMI12-53" transform="translate(320.029549 0)scale(0.996264)"/>
      <use xlink:href="#CMR17-b" transform="translate(380.024037 -14.943915)scale(0.697382)"/>
     </g>
    </g>
   </g>
   <g id="line2d_20">
    <path d="M 114.518058 67.517635 
L 114.985064 61.56487 
L 115.45207 49.68211 
L 115.919076 37.296435 
L 116.386081 27.155951 
L 116.853087 19.911428 
L 117.320093 15.163774 
L 117.787099 12.214774 
L 118.254105 10.423043 
L 118.721111 9.317375 
L 119.188117 8.575791 
L 119.655123 8.04079 
L 120.122129 7.67648 
L 120.589134 7.480186 
L 121.05614 7.432211 
L 121.523146 7.44246 
L 121.990152 7.432211 
L 122.457158 7.480186 
L 122.924164 7.67648 
L 123.39117 8.04079 
L 123.858176 8.575791 
L 124.325182 9.317375 
L 124.792187 10.423043 
L 125.259193 12.214774 
L 125.726199 15.163774 
L 126.193205 19.911428 
L 126.660211 27.155951 
L 127.127217 37.296435 
L 127.594223 49.68211 
L 128.061229 61.56487 
" clip-path="url(#pbc8a3593b9)" style="fill: none; stroke: #9e0142; stroke-linecap: round"/>
   </g>
   <g id="line2d_21">
    <path d="M 114.518058 67.517635 
L 114.985064 61.571212 
L 115.45207 49.689362 
L 115.919076 37.280178 
L 116.386081 27.077102 
L 116.853087 19.723946 
L 117.320093 14.827908 
L 117.787099 11.70168 
L 118.254105 9.722127 
L 118.721111 8.425235 
L 119.188117 7.512791 
L 119.655123 6.82135 
L 120.122129 6.272348 
L 120.589134 5.840453 
L 121.05614 5.523292 
L 121.523146 5.312318 
L 121.990152 5.189304 
L 122.457158 5.129302 
L 122.924164 5.114271 
L 123.39117 5.125167 
L 123.858176 5.143221 
L 124.325182 5.161107 
L 124.792187 5.182312 
L 125.259193 5.213052 
L 125.726199 5.251341 
L 126.193205 5.271959 
L 126.660211 5.251341 
L 127.127217 5.213052 
L 127.594223 5.182312 
L 128.061229 5.161107 
L 128.528235 5.143221 
L 128.995241 5.125167 
L 129.462246 5.114271 
L 129.929252 5.129302 
L 130.396258 5.189304 
L 130.863264 5.312318 
L 131.33027 5.523292 
L 131.797276 5.840453 
L 132.264282 6.272348 
L 132.731288 6.82135 
L 133.198294 7.512791 
L 133.665299 8.425235 
L 134.132305 9.722127 
L 134.599311 11.70168 
L 135.066317 14.827908 
L 135.533323 19.723946 
L 136.000329 27.077102 
L 136.467335 37.280178 
L 136.934341 49.689362 
L 137.401347 61.571212 
" clip-path="url(#pbc8a3593b9)" style="fill: none; stroke: #d43d4f; stroke-linecap: round"/>
   </g>
   <g id="line2d_22">
    <path d="M 114.518058 67.517635 
L 114.985064 61.575096 
L 115.45207 49.698031 
L 115.919076 37.288687 
L 116.386081 27.076344 
L 116.853087 19.702583 
L 117.320093 14.776567 
L 117.787099 11.614101 
L 118.254105 9.59629 
L 118.721111 8.26321 
L 119.188117 7.318658 
L 119.655123 6.598711 
L 120.122129 6.024141 
L 120.589134 5.565856 
L 121.05614 5.215673 
L 121.523146 4.965544 
L 121.990152 4.801712 
L 122.457158 4.703182 
L 122.924164 4.646046 
L 123.39117 4.609669 
L 123.858176 4.578199 
L 124.325182 4.544353 
L 124.792187 4.508975 
L 125.259193 4.476288 
L 125.726199 4.45297 
L 126.193205 4.44736 
L 126.660211 4.461009 
L 127.127217 4.489831 
L 127.594223 4.526768 
L 128.061229 4.564342 
L 128.528235 4.598054 
L 128.995241 4.626769 
L 129.462246 4.652511 
L 129.929252 4.67862 
L 130.396258 4.703544 
L 130.863264 4.715278 
L 131.33027 4.703544 
L 131.797276 4.67862 
L 132.264282 4.652511 
L 132.731288 4.626769 
L 133.198294 4.598054 
L 133.665299 4.564342 
L 134.132305 4.526768 
L 134.599311 4.489831 
L 135.066317 4.461009 
L 135.533323 4.44736 
L 136.000329 4.45297 
L 136.467335 4.476288 
L 136.934341 4.508975 
L 137.401347 4.544353 
L 137.868352 4.578199 
L 138.335358 4.609669 
L 138.802364 4.646046 
L 139.26937 4.703182 
L 139.736376 4.801712 
L 140.203382 4.965544 
L 140.670388 5.215673 
L 141.137394 5.565856 
L 141.6044 6.024141 
L 142.071405 6.598711 
L 142.538411 7.318658 
L 143.005417 8.26321 
L 143.472423 9.59629 
L 143.939429 11.614101 
L 144.406435 14.776567 
L 144.873441 19.702583 
L 145.340447 27.076344 
L 145.807453 37.288687 
L 146.274458 49.698031 
L 146.741464 61.575096 
" clip-path="url(#pbc8a3593b9)" style="fill: none; stroke: #f46d43; stroke-linecap: round"/>
   </g>
   <g id="line2d_23">
    <path d="M 114.518058 67.517635 
L 114.985064 61.577008 
L 115.45207 49.70251 
L 115.919076 37.293932 
L 116.386081 27.078848 
L 116.853087 19.697803 
L 117.320093 14.760859 
L 117.787099 11.585053 
L 118.254105 9.553185 
L 118.721111 8.207092 
L 119.188117 7.251257 
L 119.655123 6.52185 
L 120.122129 5.938963 
L 120.589134 5.472208 
L 121.05614 5.112317 
L 121.523146 4.850351 
L 121.990152 4.672836 
L 122.457158 4.559751 
L 122.924164 4.487574 
L 123.39117 4.436202 
L 123.858176 4.391018 
L 124.325182 4.345109 
L 124.792187 4.299307 
L 125.259193 4.258324 
L 125.726199 4.227964 
L 126.193205 4.212146 
L 126.660211 4.210531 
L 127.127217 4.219726 
L 127.594223 4.234352 
L 128.061229 4.248389 
L 128.528235 4.257985 
L 128.995241 4.262612 
L 129.462246 4.264418 
L 129.929252 4.267012 
L 130.396258 4.273905 
L 130.863264 4.287336 
L 131.33027 4.307862 
L 131.797276 4.333578 
L 132.264282 4.361356 
L 132.731288 4.388178 
L 133.198294 4.411797 
L 133.665299 4.431937 
L 134.132305 4.449966 
L 134.599311 4.467253 
L 135.066317 4.482887 
L 135.533323 4.490125 
L 136.000329 4.482887 
L 136.467335 4.467253 
L 136.934341 4.449966 
L 137.401347 4.431937 
L 137.868352 4.411797 
L 138.335358 4.388178 
L 138.802364 4.361356 
L 139.26937 4.333578 
L 139.736376 4.307862 
L 140.203382 4.287336 
L 140.670388 4.273905 
L 141.137394 4.267012 
L 141.6044 4.264418 
L 142.071405 4.262612 
L 142.538411 4.257985 
L 143.005417 4.248389 
L 143.472423 4.234352 
L 143.939429 4.219726 
L 144.406435 4.210531 
L 144.873441 4.212146 
L 145.340447 4.227964 
L 145.807453 4.258324 
L 146.274458 4.299307 
L 146.741464 4.345109 
L 147.20847 4.391018 
L 147.675476 4.436202 
L 148.142482 4.487574 
L 148.609488 4.559751 
L 149.076494 4.672836 
L 149.5435 4.850351 
L 150.010506 5.112317 
L 150.477512 5.472208 
L 150.944517 5.938963 
L 151.411523 6.52185 
L 151.878529 7.251257 
L 152.345535 8.207092 
L 152.812541 9.553185 
L 153.279547 11.585053 
L 153.746553 14.760859 
L 154.213559 19.697803 
L 154.680565 27.078848 
L 155.14757 37.293932 
L 155.614576 49.70251 
L 156.081582 61.577008 
" clip-path="url(#pbc8a3593b9)" style="fill: none; stroke: #fdad60; stroke-linecap: round"/>
   </g>
   <g id="line2d_24">
    <path d="M 114.518058 67.517635 
L 114.985064 61.578057 
L 115.45207 49.704992 
L 115.919076 37.296987 
L 116.386081 27.080766 
L 116.853087 19.696297 
L 117.320093 14.754139 
L 117.787099 11.571934 
L 118.254105 9.533322 
L 118.721111 8.181055 
L 119.188117 7.219944 
L 119.655123 6.486205 
L 120.122129 5.899636 
L 120.589134 5.429156 
L 121.05614 5.06499 
L 121.523146 4.797866 
L 121.990152 4.614238 
L 122.457158 4.494503 
L 122.924164 4.41557 
L 123.39117 4.357776 
L 123.858176 4.306983 
L 124.325182 4.256313 
L 124.792187 4.206314 
L 125.259193 4.161104 
L 125.726199 4.125642 
L 126.193205 4.103648 
L 126.660211 4.095055 
L 127.127217 4.096957 
L 127.594223 4.104807 
L 128.061229 4.113342 
L 128.528235 4.119002 
L 128.995241 4.120621 
L 129.462246 4.119117 
L 129.929252 4.117271 
L 130.396258 4.117966 
L 130.863264 4.122921 
L 131.33027 4.132524 
L 131.797276 4.145557 
L 132.264282 4.160421 
L 132.731288 4.175053 
L 133.198294 4.187391 
L 133.665299 4.196844 
L 134.132305 4.204406 
L 134.599311 4.211797 
L 135.066317 4.221066 
L 135.533323 4.233661 
L 136.000329 4.249655 
L 136.467335 4.268168 
L 136.934341 4.287487 
L 137.401347 4.305735 
L 137.868352 4.321888 
L 138.335358 4.33579 
L 138.802364 4.348141 
L 139.26937 4.359929 
L 139.736376 4.370345 
L 140.203382 4.375023 
L 140.670388 4.370345 
L 141.137394 4.359929 
L 141.6044 4.348141 
L 142.071405 4.33579 
L 142.538411 4.321888 
L 143.005417 4.305735 
L 143.472423 4.287487 
L 143.939429 4.268168 
L 144.406435 4.249655 
L 144.873441 4.233661 
L 145.340447 4.221066 
L 145.807453 4.211797 
L 146.274458 4.204406 
L 146.741464 4.196844 
L 147.20847 4.187391 
L 147.675476 4.175053 
L 148.142482 4.160421 
L 148.609488 4.145557 
L 149.076494 4.132524 
L 149.5435 4.122921 
L 150.010506 4.117966 
L 150.477512 4.117271 
L 150.944517 4.119117 
L 151.411523 4.120621 
L 151.878529 4.119002 
L 152.345535 4.113342 
L 152.812541 4.104807 
L 153.279547 4.096957 
L 153.746553 4.095055 
L 154.213559 4.103648 
L 154.680565 4.125642 
L 155.14757 4.161104 
L 155.614576 4.206314 
L 156.081582 4.256313 
L 156.548588 4.306983 
L 157.015594 4.357776 
L 157.4826 4.41557 
L 157.949606 4.494503 
L 158.416612 4.614238 
L 158.883618 4.797866 
L 159.350623 5.06499 
L 159.817629 5.429156 
L 160.284635 5.899636 
L 160.751641 6.486205 
L 161.218647 7.219944 
L 161.685653 8.181055 
L 162.152659 9.533322 
L 162.619665 11.571934 
L 163.086671 14.754139 
L 163.553676 19.696297 
L 164.020682 27.080766 
L 164.487688 37.296987 
L 164.954694 49.704992 
L 165.4217 61.578057 
" clip-path="url(#pbc8a3593b9)" style="fill: none; stroke: #fee08b; stroke-linecap: round"/>
   </g>
   <g id="line2d_25">
    <path d="M 114.518058 67.517635 
L 114.985064 61.578691 
L 116.386081 27.082076 
L 116.853087 19.695714 
L 117.320093 14.750655 
L 117.787099 11.56488 
L 118.254105 9.522498 
L 118.721111 8.166809 
L 119.655123 6.466702 
L 120.589134 5.405721 
L 121.523146 4.769428 
L 122.457158 4.459224 
L 124.792187 4.156367 
L 126.660211 4.034389 
L 135.533323 4.110157 
L 147.675476 4.258493 
L 159.350623 4.032893 
L 164.954694 4.156367 
L 167.289724 4.459224 
L 168.223735 4.769428 
L 169.157747 5.405721 
L 170.091759 6.466702 
L 170.558765 7.202795 
L 171.025771 8.166809 
L 171.492777 9.522498 
L 171.959783 11.56488 
L 172.426788 14.750655 
L 172.893794 19.695714 
L 173.3608 27.082076 
L 174.294812 49.706488 
L 174.761818 61.578691 
L 174.761818 61.578691 
" clip-path="url(#pbc8a3593b9)" style="fill: none; stroke: #e0df99; stroke-linecap: round"/>
   </g>
   <g id="line2d_26">
    <path d="M 114.518058 67.517635 
L 114.985064 61.579103 
L 116.386081 27.082978 
L 116.853087 19.695454 
L 117.320093 14.748614 
L 117.787099 11.56064 
L 118.254105 9.515934 
L 118.721111 8.158145 
L 119.655123 6.454839 
L 120.589134 5.391514 
L 121.523146 4.752237 
L 122.457158 4.437927 
L 124.792187 4.12637 
L 127.127217 3.994545 
L 144.406435 4.182167 
L 152.812541 4.218596 
L 168.690741 3.983208 
L 174.294812 4.12637 
L 176.629841 4.437927 
L 177.563853 4.752237 
L 178.497865 5.391514 
L 179.431877 6.454839 
L 179.898883 7.192359 
L 180.365889 8.158145 
L 180.832894 9.515934 
L 181.2999 11.56064 
L 181.766906 14.748614 
L 182.233912 19.695454 
L 182.700918 27.082978 
L 183.63493 49.707455 
L 184.101936 61.579103 
L 184.101936 61.579103 
" clip-path="url(#pbc8a3593b9)" style="fill: none; stroke: #bdc97b; stroke-linecap: round"/>
   </g>
   <g id="line2d_27">
    <path d="M 114.518058 67.517635 
L 114.985064 61.579387 
L 116.386081 27.083617 
L 116.853087 19.695328 
L 117.320093 14.747314 
L 117.787099 11.557888 
L 118.254105 9.511644 
L 118.721111 8.152474 
L 119.655123 6.447072 
L 120.589134 5.382233 
L 121.523146 4.741027 
L 122.457158 4.424053 
L 124.325182 4.16128 
L 126.660211 3.974774 
L 135.066317 3.995567 
L 161.685653 4.145743 
L 179.898883 3.972059 
L 183.167924 4.057396 
L 185.969959 4.424053 
L 186.903971 4.741027 
L 187.837983 5.382233 
L 188.771995 6.447072 
L 189.239 7.185524 
L 189.706006 8.152474 
L 190.173012 9.511644 
L 190.640018 11.557888 
L 191.107024 14.747314 
L 191.57403 19.695328 
L 192.041036 27.083617 
L 192.975048 49.708114 
L 193.442054 61.579387 
L 193.442054 61.579387 
" clip-path="url(#pbc8a3593b9)" style="fill: none; stroke: #aadca4; stroke-linecap: round"/>
   </g>
   <g id="line2d_28">
    <path d="M 114.518058 67.517635 
L 114.985064 61.57959 
L 116.386081 27.084083 
L 116.853087 19.695262 
L 117.320093 14.746433 
L 117.787099 11.555998 
L 118.254105 9.508684 
L 118.721111 8.148556 
L 119.655123 6.441704 
L 120.589134 5.375828 
L 121.523146 4.733302 
L 122.457158 4.414497 
L 124.325182 4.148462 
L 126.660211 3.958749 
L 134.599311 3.965003 
L 150.944517 4.137309 
L 162.619665 4.179876 
L 189.239 3.952685 
L 192.508042 4.04348 
L 195.310077 4.414497 
L 196.244089 4.733302 
L 197.178101 5.375828 
L 198.112112 6.441704 
L 198.579118 7.1808 
L 199.046124 8.148556 
L 199.51313 9.508684 
L 199.980136 11.555998 
L 200.447142 14.746433 
L 200.914148 19.695262 
L 201.381154 27.084083 
L 202.315165 49.708583 
L 202.782171 61.57959 
L 202.782171 61.57959 
" clip-path="url(#pbc8a3593b9)" style="fill: none; stroke: #66c2a5; stroke-linecap: round"/>
   </g>
   <g id="line2d_29">
    <path d="M 114.518058 67.517635 
L 114.985064 61.579741 
L 116.386081 27.084433 
L 116.853087 19.695226 
L 117.320093 14.745808 
L 117.787099 11.554644 
L 118.254105 9.506553 
L 118.721111 8.145733 
L 119.655123 6.437835 
L 120.589134 5.371218 
L 121.523146 4.727747 
L 122.457158 4.407628 
L 124.325182 4.13926 
L 126.660211 3.947277 
L 134.599311 3.945011 
L 151.878529 4.106065 
L 171.025771 4.140626 
L 200.447142 3.947277 
L 202.782171 4.13926 
L 204.650195 4.407628 
L 205.584207 4.727747 
L 206.518218 5.371218 
L 207.45223 6.437835 
L 207.919236 7.177396 
L 208.386242 8.145733 
L 208.853248 9.506553 
L 209.320254 11.554644 
L 209.78726 14.745808 
L 210.254266 19.695226 
L 210.721271 27.084433 
L 211.655283 49.708929 
L 212.122289 61.579741 
L 212.122289 61.579741 
" clip-path="url(#pbc8a3593b9)" style="fill: none; stroke: #3387bc; stroke-linecap: round"/>
   </g>
   <g id="line2d_30">
    <path d="M 114.518058 67.494493 
L 114.985064 61.579857 
L 116.386081 27.084702 
L 116.853087 19.695206 
L 117.320093 14.745349 
L 117.787099 11.553639 
L 118.254105 9.504968 
L 118.721111 8.143632 
L 119.655123 6.434954 
L 120.589134 5.367787 
L 121.523146 4.723617 
L 122.457158 4.402522 
L 124.325182 4.132426 
L 126.660211 3.938775 
L 134.599311 3.930297 
L 152.345535 4.080481 
L 179.431877 4.112776 
L 211.188277 4.026097 
L 213.990313 4.402522 
L 214.924325 4.723617 
L 215.858336 5.367787 
L 216.792348 6.434954 
L 217.259354 7.174861 
L 217.72636 8.143632 
L 218.193366 9.504968 
L 218.660372 11.553639 
L 219.127378 14.745349 
L 219.594383 19.695206 
L 220.061389 27.084702 
L 220.995401 49.709191 
L 221.462407 61.579857 
L 221.462407 61.579857 
" clip-path="url(#pbc8a3593b9)" style="fill: none; stroke: #5e4fa2; stroke-linecap: round"/>
   </g>
   <g id="patch_8">
    <path d="M 109.17084 70.698475 
L 109.17084 0.72 
" style="fill: none; stroke: #000000; stroke-width: 0.35; stroke-linejoin: miter; stroke-linecap: square"/>
   </g>
   <g id="patch_9">
    <path d="M 226.809624 70.698475 
L 226.809624 0.72 
" style="fill: none; stroke: #000000; stroke-width: 0.35; stroke-linejoin: miter; stroke-linecap: square"/>
   </g>
   <g id="patch_10">
    <path d="M 109.17084 70.698475 
L 226.809624 70.698475 
" style="fill: none; stroke: #000000; stroke-width: 0.35; stroke-linejoin: miter; stroke-linecap: square"/>
   </g>
   <g id="patch_11">
    <path d="M 109.17084 0.72 
L 226.809624 0.72 
" style="fill: none; stroke: #000000; stroke-width: 0.35; stroke-linejoin: miter; stroke-linecap: square"/>
   </g>
   <g id="text_22">
    <!-- $06$ -->
    <g style="fill: #9e0142" transform="translate(123.39117 68.61647)scale(0.08 -0.08)">
     <defs>
      <path id="CMR17-36" d="M 678 2198 
C 678 3712 1395 4076 1811 4076 
C 1946 4076 2272 4049 2400 3782 
C 2298 3782 2106 3782 2106 3558 
C 2106 3385 2246 3328 2336 3328 
C 2394 3328 2566 3353 2566 3571 
C 2566 3987 2246 4224 1805 4224 
C 1043 4224 243 3411 243 2011 
C 243 257 966 -128 1478 -128 
C 2099 -128 2688 431 2688 1295 
C 2688 2101 2170 2688 1517 2688 
C 1126 2688 838 2430 678 1979 
L 678 2198 
z
M 1478 25 
C 691 25 691 1212 691 1450 
C 691 1914 909 2585 1504 2585 
C 1613 2585 1926 2585 2138 2140 
C 2253 1889 2253 1624 2253 1302 
C 2253 954 2253 696 2118 438 
C 1978 173 1773 25 1478 25 
z
" transform="scale(0.015625)"/>
     </defs>
     <use xlink:href="#CMR17-30" transform="scale(0.996264)"/>
     <use xlink:href="#CMR17-36" transform="translate(45.690477 0)scale(0.996264)"/>
    </g>
   </g>
   <g id="text_23">
    <!-- $10$ -->
    <g style="fill: #d43d4f" transform="translate(132.731288 68.622811)scale(0.08 -0.08)">
     <use xlink:href="#CMR17-31" transform="scale(0.996264)"/>
     <use xlink:href="#CMR17-30" transform="translate(45.690477 0)scale(0.996264)"/>
    </g>
   </g>
   <g id="text_24">
    <!-- $14$ -->
    <g style="fill: #f46d43" transform="translate(142.071405 68.626696)scale(0.08 -0.08)">
     <defs>
      <path id="CMR17-34" d="M 2150 4147 
C 2150 4281 2144 4288 2029 4288 
L 128 1254 
L 128 1088 
L 1779 1088 
L 1779 460 
C 1779 230 1766 166 1318 166 
L 1197 166 
L 1197 0 
C 1402 12 1747 12 1965 12 
C 2182 12 2528 12 2733 0 
L 2733 166 
L 2611 166 
C 2163 166 2150 230 2150 460 
L 2150 1088 
L 2803 1088 
L 2803 1254 
L 2150 1254 
L 2150 4147 
z
M 1798 3723 
L 1798 1254 
L 256 1254 
L 1798 3723 
z
" transform="scale(0.015625)"/>
     </defs>
     <use xlink:href="#CMR17-31" transform="scale(0.996264)"/>
     <use xlink:href="#CMR17-34" transform="translate(45.690477 0)scale(0.996264)"/>
    </g>
   </g>
   <g id="text_25">
    <!-- $18$ -->
    <g style="fill: #fdad60" transform="translate(151.411523 68.628607)scale(0.08 -0.08)">
     <defs>
      <path id="CMR17-38" d="M 1741 2289 
C 2144 2494 2554 2803 2554 3298 
C 2554 3884 1990 4224 1472 4224 
C 890 4224 378 3800 378 3215 
C 378 3054 416 2777 666 2533 
C 730 2469 998 2276 1171 2154 
C 883 2006 211 1652 211 945 
C 211 282 838 -128 1459 -128 
C 2144 -128 2720 366 2720 1022 
C 2720 1607 2330 1877 2074 2051 
L 1741 2289 
z
M 902 2855 
C 851 2887 595 3086 595 3388 
C 595 3781 998 4076 1459 4076 
C 1965 4076 2336 3716 2336 3298 
C 2336 2700 1670 2359 1638 2359 
C 1632 2359 1626 2359 1574 2398 
L 902 2855 
z
M 2080 1536 
C 2176 1466 2483 1253 2483 861 
C 2483 385 2010 25 1472 25 
C 890 25 448 443 448 951 
C 448 1459 838 1884 1280 2083 
L 2080 1536 
z
" transform="scale(0.015625)"/>
     </defs>
     <use xlink:href="#CMR17-31" transform="scale(0.996264)"/>
     <use xlink:href="#CMR17-38" transform="translate(45.690477 0)scale(0.996264)"/>
    </g>
   </g>
   <g id="text_26">
    <!-- $22$ -->
    <g style="fill: #fee08b" transform="translate(160.751641 68.629657)scale(0.08 -0.08)">
     <use xlink:href="#CMR17-32" transform="scale(0.996264)"/>
     <use xlink:href="#CMR17-32" transform="translate(45.690477 0)scale(0.996264)"/>
    </g>
   </g>
   <g id="text_27">
    <!-- $26$ -->
    <g style="fill: #e0df99" transform="translate(170.091759 68.630291)scale(0.08 -0.08)">
     <use xlink:href="#CMR17-32" transform="scale(0.996264)"/>
     <use xlink:href="#CMR17-36" transform="translate(45.690477 0)scale(0.996264)"/>
    </g>
   </g>
   <g id="text_28">
    <!-- $30$ -->
    <g style="fill: #bdc97b" transform="translate(179.431877 68.630703)scale(0.08 -0.08)">
     <defs>
      <path id="CMR17-33" d="M 1414 2176 
C 1984 2176 2234 1673 2234 1094 
C 2234 322 1824 25 1453 25 
C 1114 25 563 193 390 691 
C 422 678 454 678 486 678 
C 640 678 755 780 755 947 
C 755 1132 614 1216 486 1216 
C 378 1216 211 1164 211 927 
C 211 335 787 -128 1466 -128 
C 2176 -128 2720 432 2720 1087 
C 2720 1718 2208 2176 1600 2246 
C 2086 2347 2554 2776 2554 3353 
C 2554 3856 2048 4224 1472 4224 
C 890 4224 378 3862 378 3347 
C 378 3123 544 3084 627 3084 
C 762 3084 877 3167 877 3334 
C 877 3500 762 3584 627 3584 
C 602 3584 570 3584 544 3571 
C 730 3999 1235 4076 1459 4076 
C 1683 4076 2106 3966 2106 3347 
C 2106 3167 2080 2851 1862 2574 
C 1670 2329 1453 2316 1242 2297 
C 1210 2297 1062 2284 1037 2284 
C 992 2278 966 2272 966 2227 
C 966 2182 973 2176 1101 2176 
L 1414 2176 
z
" transform="scale(0.015625)"/>
     </defs>
     <use xlink:href="#CMR17-33" transform="scale(0.996264)"/>
     <use xlink:href="#CMR17-30" transform="translate(45.690477 0)scale(0.996264)"/>
    </g>
   </g>
   <g id="text_29">
    <!-- $34$ -->
    <g style="fill: #aadca4" transform="translate(188.771995 68.630986)scale(0.08 -0.08)">
     <use xlink:href="#CMR17-33" transform="scale(0.996264)"/>
     <use xlink:href="#CMR17-34" transform="translate(45.690477 0)scale(0.996264)"/>
    </g>
   </g>
   <g id="text_30">
    <!-- $38$ -->
    <g style="fill: #66c2a5" transform="translate(198.112112 68.63119)scale(0.08 -0.08)">
     <use xlink:href="#CMR17-33" transform="scale(0.996264)"/>
     <use xlink:href="#CMR17-38" transform="translate(45.690477 0)scale(0.996264)"/>
    </g>
   </g>
   <g id="text_31">
    <!-- $42$ -->
    <g style="fill: #3387bc" transform="translate(207.45223 68.631341)scale(0.08 -0.08)">
     <use xlink:href="#CMR17-34" transform="scale(0.996264)"/>
     <use xlink:href="#CMR17-32" transform="translate(45.690477 0)scale(0.996264)"/>
    </g>
   </g>
   <g id="text_32">
    <!-- $46$ -->
    <g style="fill: #5e4fa2" transform="translate(216.792348 68.631457)scale(0.08 -0.08)">
     <use xlink:href="#CMR17-34" transform="scale(0.996264)"/>
     <use xlink:href="#CMR17-36" transform="translate(45.690477 0)scale(0.996264)"/>
    </g>
   </g>
   <g id="text_33">
    <!-- $L$ -->
    <g transform="translate(116.152579 68.631457)scale(0.08 -0.08)">
     <defs>
      <path id="CMMI12-4c" d="M 2349 3860 
C 2406 4102 2426 4166 2989 4166 
C 3162 4166 3206 4166 3206 4287 
C 3206 4352 3136 4352 3110 4352 
C 2982 4352 2835 4339 2707 4339 
L 1850 4339 
C 1728 4339 1587 4352 1466 4352 
C 1414 4352 1344 4352 1344 4230 
C 1344 4166 1402 4166 1498 4166 
C 1888 4166 1888 4115 1888 4045 
C 1888 4032 1888 3994 1862 3898 
L 998 472 
C 941 249 928 185 480 185 
C 358 185 294 185 294 70 
C 294 0 333 0 461 0 
L 3328 0 
C 3469 0 3475 6 3520 121 
L 4013 1478 
C 4026 1510 4038 1548 4038 1567 
C 4038 1605 4006 1631 3974 1631 
C 3968 1631 3936 1631 3923 1605 
C 3910 1599 3910 1586 3859 1465 
C 3654 905 3366 185 2285 185 
L 1670 185 
C 1581 185 1568 185 1530 191 
C 1459 198 1453 211 1453 262 
C 1453 306 1466 344 1478 402 
L 2349 3860 
z
" transform="scale(0.015625)"/>
     </defs>
     <use xlink:href="#CMMI12-4c" transform="scale(0.996264)"/>
    </g>
   </g>
  </g>
 </g>
 <defs>
  <clipPath id="pd3896e96e0">
   <rect x="30.744984" y="0.72" width="196.06464" height="116.630791"/>
  </clipPath>
  <clipPath id="pbc8a3593b9">
   <rect x="109.17084" y="0.72" width="117.638784" height="69.978475"/>
  </clipPath>
 </defs>
</svg>
