<?xml version="1.0" encoding="utf-8" standalone="no"?>
<!DOCTYPE svg PUBLIC "-//W3C//DTD SVG 1.1//EN"
  "http://www.w3.org/Graphics/SVG/1.1/DTD/svg11.dtd">
<svg xmlns:xlink="http://www.w3.org/1999/xlink" width="226.64406pt" height="140.125451pt" viewBox="0 0 226.64406 140.125451" xmlns="http://www.w3.org/2000/svg" version="1.1">
 <metadata>
  <rdf:RDF xmlns:dc="http://purl.org/dc/elements/1.1/" xmlns:cc="http://creativecommons.org/ns#" xmlns:rdf="http://www.w3.org/1999/02/22-rdf-syntax-ns#">
   <cc:Work>
    <dc:type rdf:resource="http://purl.org/dc/dcmitype/StillImage"/>
    <dc:date>2022-06-18T11:35:36.006940</dc:date>
    <dc:format>image/svg+xml</dc:format>
    <dc:creator>
     <cc:Agent>
      <dc:title>Matplotlib v3.5.1, https://matplotlib.org/</dc:title>
     </cc:Agent>
    </dc:creator>
   </cc:Work>
  </rdf:RDF>
 </metadata>
 <defs>
  <style type="text/css">*{stroke-linejoin: round; stroke-linecap: butt}</style>
 </defs>
 <g id="figure_1">
  <g id="patch_1">
   <path d="M 0 140.125451 
L 226.64406 140.125451 
L 226.64406 0 
L 0 0 
L 0 140.125451 
z
" style="fill: none"/>
  </g>
  <g id="axes_1">
   <g id="patch_2">
    <path d="M 29.85942 117.350791 
L 225.92406 117.350791 
L 225.92406 0.72 
L 29.85942 0.72 
L 29.85942 117.350791 
z
" style="fill: none"/>
   </g>
   <g id="matplotlib.axis_1">
    <g id="xtick_1">
     <g id="line2d_1">
      <defs>
       <path id="m37fc56f9bd" d="M 0 0 
L 0 2 
" style="stroke: #000000; stroke-width: 0.35"/>
      </defs>
      <g>
       <use xlink:href="#m37fc56f9bd" x="34.080907" y="117.350791" style="stroke: #000000; stroke-width: 0.35"/>
      </g>
     </g>
     <g id="text_1">
      <!-- $\mathdefault{−2}$ -->
      <g transform="translate(28.670563 127.885593)scale(0.08 -0.08)">
       <defs>
        <path id="CMSY10-0" d="M 4218 1472 
C 4326 1472 4442 1472 4442 1600 
C 4442 1728 4326 1728 4218 1728 
L 755 1728 
C 646 1728 531 1728 531 1600 
C 531 1472 646 1472 755 1472 
L 4218 1472 
z
" transform="scale(0.015625)"/>
        <path id="CMR17-32" d="M 2669 990 
L 2554 990 
C 2490 537 2438 460 2413 422 
C 2381 371 1920 371 1830 371 
L 602 371 
C 832 620 1280 1073 1824 1596 
C 2214 1966 2669 2400 2669 3033 
C 2669 3788 2067 4224 1395 4224 
C 691 4224 262 3603 262 3027 
C 262 2777 448 2745 525 2745 
C 589 2745 781 2783 781 3007 
C 781 3206 614 3264 525 3264 
C 486 3264 448 3257 422 3244 
C 544 3788 915 4057 1306 4057 
C 1862 4057 2227 3616 2227 3033 
C 2227 2477 1901 1998 1536 1583 
L 262 147 
L 262 0 
L 2515 0 
L 2669 990 
z
" transform="scale(0.015625)"/>
       </defs>
       <use xlink:href="#CMSY10-0" transform="scale(0.996264)"/>
       <use xlink:href="#CMR17-32" transform="translate(77.487468 0)scale(0.996264)"/>
      </g>
     </g>
    </g>
    <g id="xtick_2">
     <g id="line2d_2">
      <g>
       <use xlink:href="#m37fc56f9bd" x="80.986324" y="117.350791" style="stroke: #000000; stroke-width: 0.35"/>
      </g>
     </g>
     <g id="text_2">
      <!-- $\mathdefault{−1}$ -->
      <g transform="translate(75.575979 127.885593)scale(0.08 -0.08)">
       <defs>
        <path id="CMR17-31" d="M 1702 4083 
C 1702 4217 1696 4224 1606 4224 
C 1357 3927 979 3833 621 3820 
C 602 3820 570 3820 563 3808 
C 557 3795 557 3782 557 3648 
C 755 3648 1088 3686 1344 3839 
L 1344 467 
C 1344 243 1331 166 781 166 
L 589 166 
L 589 0 
C 896 6 1216 12 1523 12 
C 1830 12 2150 6 2458 0 
L 2458 166 
L 2266 166 
C 1715 166 1702 236 1702 467 
L 1702 4083 
z
" transform="scale(0.015625)"/>
       </defs>
       <use xlink:href="#CMSY10-0" transform="scale(0.996264)"/>
       <use xlink:href="#CMR17-31" transform="translate(77.487468 0)scale(0.996264)"/>
      </g>
     </g>
    </g>
    <g id="xtick_3">
     <g id="line2d_3">
      <g>
       <use xlink:href="#m37fc56f9bd" x="127.89174" y="117.350791" style="stroke: #000000; stroke-width: 0.35"/>
      </g>
     </g>
     <g id="text_3">
      <!-- $\mathdefault{0}$ -->
      <g transform="translate(125.774648 127.885593)scale(0.08 -0.08)">
       <defs>
        <path id="CMR17-30" d="M 2688 2038 
C 2688 2430 2682 3099 2413 3613 
C 2176 4063 1798 4224 1466 4224 
C 1158 4224 768 4082 525 3620 
C 269 3137 243 2539 243 2038 
C 243 1671 250 1112 448 623 
C 723 -39 1216 -128 1466 -128 
C 1760 -128 2208 -7 2470 604 
C 2662 1048 2688 1568 2688 2038 
z
M 1466 -26 
C 1056 -26 813 328 723 816 
C 653 1196 653 1749 653 2109 
C 653 2604 653 3015 736 3407 
C 858 3954 1216 4121 1466 4121 
C 1728 4121 2067 3947 2189 3420 
C 2272 3054 2278 2623 2278 2109 
C 2278 1691 2278 1176 2202 797 
C 2067 96 1690 -26 1466 -26 
z
" transform="scale(0.015625)"/>
       </defs>
       <use xlink:href="#CMR17-30" transform="scale(0.996264)"/>
      </g>
     </g>
    </g>
    <g id="xtick_4">
     <g id="line2d_4">
      <g>
       <use xlink:href="#m37fc56f9bd" x="174.797156" y="117.350791" style="stroke: #000000; stroke-width: 0.35"/>
      </g>
     </g>
     <g id="text_4">
      <!-- $\mathdefault{1}$ -->
      <g transform="translate(172.680065 127.885593)scale(0.08 -0.08)">
       <use xlink:href="#CMR17-31" transform="scale(0.996264)"/>
      </g>
     </g>
    </g>
    <g id="xtick_5">
     <g id="line2d_5">
      <g>
       <use xlink:href="#m37fc56f9bd" x="221.702572" y="117.350791" style="stroke: #000000; stroke-width: 0.35"/>
      </g>
     </g>
     <g id="text_5">
      <!-- $\mathdefault{2}$ -->
      <g transform="translate(219.585481 127.885593)scale(0.08 -0.08)">
       <use xlink:href="#CMR17-32" transform="scale(0.996264)"/>
      </g>
     </g>
    </g>
    <g id="text_6">
     <!-- $V/J$ -->
     <g transform="translate(120.525511 137.412923)scale(0.08 -0.08)">
      <defs>
       <path id="CMMI12-56" d="M 3962 3644 
C 4179 3987 4378 4140 4704 4166 
C 4768 4172 4819 4172 4819 4287 
C 4819 4313 4806 4352 4749 4352 
C 4634 4352 4358 4339 4243 4339 
C 4058 4339 3866 4352 3686 4352 
C 3635 4352 3571 4352 3571 4230 
C 3571 4172 3629 4166 3654 4166 
C 3891 4146 3917 4032 3917 3956 
C 3917 3860 3827 3714 3821 3708 
L 1811 540 
L 1363 3968 
C 1363 4153 1696 4166 1766 4166 
C 1862 4166 1920 4166 1920 4287 
C 1920 4352 1850 4352 1830 4352 
C 1722 4352 1594 4339 1485 4339 
L 1126 4339 
C 659 4339 467 4352 461 4352 
C 422 4352 346 4352 346 4236 
C 346 4166 390 4166 493 4166 
C 819 4166 838 4108 858 3949 
L 1370 25 
C 1389 -109 1389 -128 1478 -128 
C 1555 -128 1587 -109 1651 -7 
L 3962 3644 
z
" transform="scale(0.015625)"/>
       <path id="CMMI12-3d" d="M 2746 4563 
C 2746 4569 2784 4665 2784 4678 
C 2784 4755 2720 4800 2669 4800 
C 2637 4800 2579 4800 2528 4659 
L 384 -1364 
C 384 -1370 346 -1466 346 -1479 
C 346 -1556 410 -1600 461 -1600 
C 499 -1600 557 -1594 602 -1460 
L 2746 4563 
z
" transform="scale(0.015625)"/>
       <path id="CMMI12-4a" d="M 3418 3911 
C 3469 4102 3482 4166 3795 4166 
C 3898 4166 3962 4166 3962 4281 
C 3962 4352 3904 4352 3878 4352 
C 3770 4352 3648 4339 3533 4339 
L 3181 4339 
C 2912 4339 2630 4352 2362 4352 
C 2304 4352 2227 4352 2227 4236 
C 2227 4172 2278 4172 2278 4166 
L 2438 4166 
C 2950 4166 2950 4115 2950 4019 
C 2950 4013 2950 3968 2925 3866 
L 2189 953 
C 2022 304 1594 0 1286 0 
C 1069 0 762 99 685 428 
C 710 422 742 415 768 415 
C 979 415 1146 601 1146 787 
C 1146 889 1082 1024 890 1024 
C 774 1024 506 959 506 543 
C 506 149 838 -128 1299 -128 
C 1882 -128 2509 304 2662 908 
L 3418 3911 
z
" transform="scale(0.015625)"/>
      </defs>
      <use xlink:href="#CMMI12-56" transform="scale(0.996264)"/>
      <use xlink:href="#CMMI12-3d" transform="translate(67.70845 0)scale(0.996264)"/>
      <use xlink:href="#CMMI12-4a" transform="translate(116.483369 0)scale(0.996264)"/>
     </g>
    </g>
   </g>
   <g id="matplotlib.axis_2">
    <g id="ytick_1">
     <g id="line2d_6">
      <defs>
       <path id="ma7c8aafee2" d="M 0 0 
L -2 0 
" style="stroke: #000000; stroke-width: 0.35"/>
      </defs>
      <g>
       <use xlink:href="#ma7c8aafee2" x="29.85942" y="112.049392" style="stroke: #000000; stroke-width: 0.35"/>
      </g>
     </g>
     <g id="text_7">
      <!-- $\mathdefault{0.00}$ -->
      <g transform="translate(9.804547 114.816793)scale(0.08 -0.08)">
       <defs>
        <path id="CMMI12-3a" d="M 1178 307 
C 1178 492 1024 620 870 620 
C 685 620 557 467 557 313 
C 557 128 710 0 864 0 
C 1050 0 1178 153 1178 307 
z
" transform="scale(0.015625)"/>
       </defs>
       <use xlink:href="#CMR17-30" transform="scale(0.996264)"/>
       <use xlink:href="#CMMI12-3a" transform="translate(45.690477 0)scale(0.996264)"/>
       <use xlink:href="#CMR17-30" transform="translate(72.787654 0)scale(0.996264)"/>
       <use xlink:href="#CMR17-30" transform="translate(118.478131 0)scale(0.996264)"/>
      </g>
     </g>
    </g>
    <g id="ytick_2">
     <g id="line2d_7">
      <g>
       <use xlink:href="#ma7c8aafee2" x="29.85942" y="92.44394" style="stroke: #000000; stroke-width: 0.35"/>
      </g>
     </g>
     <g id="text_8">
      <!-- $\mathdefault{0.25}$ -->
      <g transform="translate(9.804547 95.211341)scale(0.08 -0.08)">
       <defs>
        <path id="CMR17-35" d="M 730 3750 
C 794 3724 1056 3641 1325 3641 
C 1920 3641 2246 3961 2432 4140 
C 2432 4191 2432 4224 2394 4224 
C 2387 4224 2374 4224 2323 4198 
C 2099 4102 1837 4032 1517 4032 
C 1325 4032 1037 4055 723 4191 
C 653 4224 640 4224 634 4224 
C 602 4224 595 4217 595 4090 
L 595 2231 
C 595 2113 595 2080 659 2080 
C 691 2080 704 2093 736 2139 
C 941 2435 1222 2560 1542 2560 
C 1766 2560 2246 2415 2246 1293 
C 2246 1087 2246 716 2054 422 
C 1894 159 1645 25 1370 25 
C 947 25 518 319 403 812 
C 429 806 480 793 506 793 
C 589 793 749 838 749 1036 
C 749 1209 627 1280 506 1280 
C 358 1280 262 1190 262 1011 
C 262 454 704 -128 1382 -128 
C 2042 -128 2669 441 2669 1267 
C 2669 2054 2170 2662 1549 2662 
C 1222 2662 947 2540 730 2304 
L 730 3750 
z
" transform="scale(0.015625)"/>
       </defs>
       <use xlink:href="#CMR17-30" transform="scale(0.996264)"/>
       <use xlink:href="#CMMI12-3a" transform="translate(45.690477 0)scale(0.996264)"/>
       <use xlink:href="#CMR17-32" transform="translate(72.787654 0)scale(0.996264)"/>
       <use xlink:href="#CMR17-35" transform="translate(118.478131 0)scale(0.996264)"/>
      </g>
     </g>
    </g>
    <g id="ytick_3">
     <g id="line2d_8">
      <g>
       <use xlink:href="#ma7c8aafee2" x="29.85942" y="72.838489" style="stroke: #000000; stroke-width: 0.35"/>
      </g>
     </g>
     <g id="text_9">
      <!-- $\mathdefault{0.50}$ -->
      <g transform="translate(9.804547 75.60589)scale(0.08 -0.08)">
       <use xlink:href="#CMR17-30" transform="scale(0.996264)"/>
       <use xlink:href="#CMMI12-3a" transform="translate(45.690477 0)scale(0.996264)"/>
       <use xlink:href="#CMR17-35" transform="translate(72.787654 0)scale(0.996264)"/>
       <use xlink:href="#CMR17-30" transform="translate(118.478131 0)scale(0.996264)"/>
      </g>
     </g>
    </g>
    <g id="ytick_4">
     <g id="line2d_9">
      <g>
       <use xlink:href="#ma7c8aafee2" x="29.85942" y="53.233038" style="stroke: #000000; stroke-width: 0.35"/>
      </g>
     </g>
     <g id="text_10">
      <!-- $\mathdefault{0.75}$ -->
      <g transform="translate(9.804547 56.000439)scale(0.08 -0.08)">
       <defs>
        <path id="CMR17-37" d="M 2886 3955 
L 2886 4096 
L 1382 4096 
C 634 4096 621 4166 595 4288 
L 480 4288 
L 294 3104 
L 410 3104 
C 429 3226 474 3552 550 3673 
C 589 3724 1062 3724 1171 3724 
L 2579 3724 
L 1869 2670 
C 1395 1961 1069 1003 1069 166 
C 1069 89 1069 -128 1299 -128 
C 1530 -128 1530 89 1530 172 
L 1530 466 
C 1530 1514 1709 2204 2003 2644 
L 2886 3955 
z
" transform="scale(0.015625)"/>
       </defs>
       <use xlink:href="#CMR17-30" transform="scale(0.996264)"/>
       <use xlink:href="#CMMI12-3a" transform="translate(45.690477 0)scale(0.996264)"/>
       <use xlink:href="#CMR17-37" transform="translate(72.787654 0)scale(0.996264)"/>
       <use xlink:href="#CMR17-35" transform="translate(118.478131 0)scale(0.996264)"/>
      </g>
     </g>
    </g>
    <g id="ytick_5">
     <g id="line2d_10">
      <g>
       <use xlink:href="#ma7c8aafee2" x="29.85942" y="33.627587" style="stroke: #000000; stroke-width: 0.35"/>
      </g>
     </g>
     <g id="text_11">
      <!-- $\mathdefault{1.00}$ -->
      <g transform="translate(9.804547 36.394987)scale(0.08 -0.08)">
       <use xlink:href="#CMR17-31" transform="scale(0.996264)"/>
       <use xlink:href="#CMMI12-3a" transform="translate(45.690477 0)scale(0.996264)"/>
       <use xlink:href="#CMR17-30" transform="translate(72.787654 0)scale(0.996264)"/>
       <use xlink:href="#CMR17-30" transform="translate(118.478131 0)scale(0.996264)"/>
      </g>
     </g>
    </g>
    <g id="ytick_6">
     <g id="line2d_11">
      <g>
       <use xlink:href="#ma7c8aafee2" x="29.85942" y="14.022135" style="stroke: #000000; stroke-width: 0.35"/>
      </g>
     </g>
     <g id="text_12">
      <!-- $\mathdefault{1.25}$ -->
      <g transform="translate(9.804547 16.789536)scale(0.08 -0.08)">
       <use xlink:href="#CMR17-31" transform="scale(0.996264)"/>
       <use xlink:href="#CMMI12-3a" transform="translate(45.690477 0)scale(0.996264)"/>
       <use xlink:href="#CMR17-32" transform="translate(72.787654 0)scale(0.996264)"/>
       <use xlink:href="#CMR17-35" transform="translate(118.478131 0)scale(0.996264)"/>
      </g>
     </g>
    </g>
    <g id="text_13">
     <!-- $A_1$ -->
     <g transform="translate(6.254802 64.033339)rotate(-90)scale(0.08 -0.08)">
      <defs>
       <path id="CMMI12-41" d="M 1088 720 
C 864 335 646 205 339 185 
C 269 179 218 179 218 64 
C 218 25 250 0 294 0 
C 410 0 698 12 813 12 
C 998 12 1203 0 1382 0 
C 1421 0 1498 0 1498 121 
C 1498 179 1446 185 1408 185 
C 1261 198 1139 250 1139 407 
C 1139 498 1178 570 1261 714 
L 1747 1536 
L 3379 1536 
C 3386 1477 3386 1425 3392 1366 
C 3411 1196 3488 518 3488 394 
C 3488 198 3162 185 3059 185 
C 2989 185 2918 185 2918 70 
C 2918 0 2976 0 3014 0 
C 3123 0 3251 12 3360 12 
L 3725 12 
C 4115 12 4397 0 4403 0 
C 4448 0 4518 0 4518 121 
C 4518 185 4461 185 4365 185 
C 4013 185 4006 244 3987 440 
L 3597 4403 
C 3584 4531 3558 4544 3488 4544 
C 3424 4544 3386 4531 3328 4435 
L 1088 720 
z
M 1856 1721 
L 3142 3831 
L 3360 1721 
L 1856 1721 
z
" transform="scale(0.015625)"/>
      </defs>
      <use xlink:href="#CMMI12-41" transform="scale(0.996264)"/>
      <use xlink:href="#CMR17-31" transform="translate(73.127885 -14.943915)scale(0.697382)"/>
     </g>
    </g>
   </g>
   <g id="line2d_12">
    <defs>
     <path id="m6626d132b6" d="M 0 2 
C 0.530406 2 1.03916 1.789267 1.414214 1.414214 
C 1.789267 1.03916 2 0.530406 2 0 
C 2 -0.530406 1.789267 -1.03916 1.414214 -1.414214 
C 1.03916 -1.789267 0.530406 -2 0 -2 
C -0.530406 -2 -1.03916 -1.789267 -1.414214 -1.414214 
C -1.789267 -1.03916 -2 -0.530406 -2 0 
C -2 0.530406 -1.789267 1.03916 -1.414214 1.414214 
C -1.03916 1.789267 -0.530406 2 0 2 
z
" style="stroke: #5e4fa2"/>
    </defs>
    <g clip-path="url(#p62874ef9e7)">
     <use xlink:href="#m6626d132b6" x="38.771449" y="6.461519" style="fill: #aea6d0; stroke: #5e4fa2"/>
     <use xlink:href="#m6626d132b6" x="43.461991" y="33.855962" style="fill: #aea6d0; stroke: #5e4fa2"/>
     <use xlink:href="#m6626d132b6" x="48.152532" y="49.800053" style="fill: #aea6d0; stroke: #5e4fa2"/>
     <use xlink:href="#m6626d132b6" x="52.843074" y="60.863975" style="fill: #aea6d0; stroke: #5e4fa2"/>
     <use xlink:href="#m6626d132b6" x="57.533615" y="69.274384" style="fill: #aea6d0; stroke: #5e4fa2"/>
     <use xlink:href="#m6626d132b6" x="62.224157" y="76.039061" style="fill: #aea6d0; stroke: #5e4fa2"/>
     <use xlink:href="#m6626d132b6" x="66.914699" y="81.685738" style="fill: #aea6d0; stroke: #5e4fa2"/>
     <use xlink:href="#m6626d132b6" x="71.60524" y="86.517474" style="fill: #aea6d0; stroke: #5e4fa2"/>
     <use xlink:href="#m6626d132b6" x="76.295782" y="90.719585" style="fill: #aea6d0; stroke: #5e4fa2"/>
     <use xlink:href="#m6626d132b6" x="80.986324" y="94.410497" style="fill: #aea6d0; stroke: #5e4fa2"/>
     <use xlink:href="#m6626d132b6" x="85.676865" y="97.668324" style="fill: #aea6d0; stroke: #5e4fa2"/>
     <use xlink:href="#m6626d132b6" x="90.367407" y="100.545685" style="fill: #aea6d0; stroke: #5e4fa2"/>
     <use xlink:href="#m6626d132b6" x="95.057948" y="103.078301" style="fill: #aea6d0; stroke: #5e4fa2"/>
     <use xlink:href="#m6626d132b6" x="99.74849" y="105.290049" style="fill: #aea6d0; stroke: #5e4fa2"/>
     <use xlink:href="#m6626d132b6" x="104.439032" y="107.195838" style="fill: #aea6d0; stroke: #5e4fa2"/>
     <use xlink:href="#m6626d132b6" x="109.129573" y="108.802994" style="fill: #aea6d0; stroke: #5e4fa2"/>
     <use xlink:href="#m6626d132b6" x="113.820115" y="110.111339" style="fill: #aea6d0; stroke: #5e4fa2"/>
     <use xlink:href="#m6626d132b6" x="118.510657" y="111.11152" style="fill: #aea6d0; stroke: #5e4fa2"/>
     <use xlink:href="#m6626d132b6" x="123.201198" y="111.77933" style="fill: #aea6d0; stroke: #5e4fa2"/>
     <use xlink:href="#m6626d132b6" x="127.89174" y="112.043237" style="fill: #aea6d0; stroke: #5e4fa2"/>
     <use xlink:href="#m6626d132b6" x="132.582281" y="111.794159" style="fill: #aea6d0; stroke: #5e4fa2"/>
     <use xlink:href="#m6626d132b6" x="137.272823" y="111.209535" style="fill: #aea6d0; stroke: #5e4fa2"/>
     <use xlink:href="#m6626d132b6" x="141.963365" y="110.402402" style="fill: #aea6d0; stroke: #5e4fa2"/>
     <use xlink:href="#m6626d132b6" x="146.653906" y="109.428168" style="fill: #aea6d0; stroke: #5e4fa2"/>
     <use xlink:href="#m6626d132b6" x="151.344448" y="108.322555" style="fill: #aea6d0; stroke: #5e4fa2"/>
     <use xlink:href="#m6626d132b6" x="156.03499" y="107.110103" style="fill: #aea6d0; stroke: #5e4fa2"/>
     <use xlink:href="#m6626d132b6" x="160.725531" y="105.80796" style="fill: #aea6d0; stroke: #5e4fa2"/>
     <use xlink:href="#m6626d132b6" x="165.416073" y="104.427892" style="fill: #aea6d0; stroke: #5e4fa2"/>
     <use xlink:href="#m6626d132b6" x="170.106614" y="102.977417" style="fill: #aea6d0; stroke: #5e4fa2"/>
     <use xlink:href="#m6626d132b6" x="174.797156" y="101.460406" style="fill: #aea6d0; stroke: #5e4fa2"/>
     <use xlink:href="#m6626d132b6" x="179.487698" y="99.877302" style="fill: #aea6d0; stroke: #5e4fa2"/>
     <use xlink:href="#m6626d132b6" x="184.178239" y="98.224948" style="fill: #aea6d0; stroke: #5e4fa2"/>
     <use xlink:href="#m6626d132b6" x="188.868781" y="96.495958" style="fill: #aea6d0; stroke: #5e4fa2"/>
     <use xlink:href="#m6626d132b6" x="193.559323" y="94.677355" style="fill: #aea6d0; stroke: #5e4fa2"/>
     <use xlink:href="#m6626d132b6" x="198.249864" y="92.74788" style="fill: #aea6d0; stroke: #5e4fa2"/>
     <use xlink:href="#m6626d132b6" x="202.940406" y="90.672441" style="fill: #aea6d0; stroke: #5e4fa2"/>
     <use xlink:href="#m6626d132b6" x="207.630947" y="88.389454" style="fill: #aea6d0; stroke: #5e4fa2"/>
     <use xlink:href="#m6626d132b6" x="212.321489" y="85.775896" style="fill: #aea6d0; stroke: #5e4fa2"/>
     <use xlink:href="#m6626d132b6" x="217.012031" y="82.509518" style="fill: #aea6d0; stroke: #5e4fa2"/>
    </g>
   </g>
   <g id="line2d_13">
    <path d="M 38.771449 6.0214 
L 43.461991 33.720332 
L 48.152532 49.713844 
L 52.843074 60.802158 
L 57.533615 69.230068 
L 62.224157 76.009347 
L 66.914699 81.668616 
L 71.60524 86.510728 
L 76.295782 90.720678 
L 80.986324 94.416869 
L 85.676865 97.677694 
L 90.367407 100.556208 
L 95.057948 103.08862 
L 99.74849 105.299245 
L 104.439032 107.203342 
L 109.129573 108.808561 
L 113.820115 110.114964 
L 118.510657 111.113415 
L 123.201198 111.779918 
L 127.89174 112.049392 
L 132.582281 111.794716 
L 137.272823 111.211247 
L 141.963365 110.405547 
L 146.653906 109.432849 
L 151.344448 108.328751 
L 156.03499 107.117697 
L 160.725531 105.816761 
L 165.416073 104.43763 
L 170.106614 102.987766 
L 174.797156 101.470989 
L 179.487698 99.88769 
L 184.178239 98.234654 
L 188.868781 96.504447 
L 193.559323 94.684036 
L 198.249864 92.752098 
L 202.940406 90.673455 
L 207.630947 88.386391 
L 212.321489 85.767624 
L 217.012031 82.49422 
" clip-path="url(#p62874ef9e7)" style="fill: none; stroke-dasharray: 3.7,1.6; stroke-dashoffset: 0; stroke: #9e0142; stroke-linecap: round"/>
   </g>
   <g id="patch_3">
    <path d="M 29.85942 117.350791 
L 29.85942 0.72 
" style="fill: none; stroke: #000000; stroke-width: 0.35; stroke-linejoin: miter; stroke-linecap: square"/>
   </g>
   <g id="patch_4">
    <path d="M 225.92406 117.350791 
L 225.92406 0.72 
" style="fill: none; stroke: #000000; stroke-width: 0.35; stroke-linejoin: miter; stroke-linecap: square"/>
   </g>
   <g id="patch_5">
    <path d="M 29.85942 117.350791 
L 225.92406 117.350791 
" style="fill: none; stroke: #000000; stroke-width: 0.35; stroke-linejoin: miter; stroke-linecap: square"/>
   </g>
   <g id="patch_6">
    <path d="M 29.85942 0.72 
L 225.92406 0.72 
" style="fill: none; stroke: #000000; stroke-width: 0.35; stroke-linejoin: miter; stroke-linecap: square"/>
   </g>
  </g>
  <g id="axes_2">
   <g id="patch_7">
    <path d="M 108.285276 70.698475 
L 225.92406 70.698475 
L 225.92406 0.72 
L 108.285276 0.72 
L 108.285276 70.698475 
z
" style="fill: none"/>
   </g>
   <g id="matplotlib.axis_3">
    <g id="xtick_6">
     <g id="line2d_14">
      <g>
       <use xlink:href="#m37fc56f9bd" x="113.632493" y="70.698475" style="stroke: #000000; stroke-width: 0.35"/>
      </g>
     </g>
     <g id="text_14">
      <!-- $\mathdefault{0}$ -->
      <g transform="translate(111.515402 81.233276)scale(0.08 -0.08)">
       <use xlink:href="#CMR17-30" transform="scale(0.996264)"/>
      </g>
     </g>
    </g>
    <g id="xtick_7">
     <g id="line2d_15">
      <g>
       <use xlink:href="#m37fc56f9bd" x="160.333082" y="70.698475" style="stroke: #000000; stroke-width: 0.35"/>
      </g>
     </g>
     <g id="text_15">
      <!-- $\mathdefault{10}$ -->
      <g transform="translate(156.0989 81.233276)scale(0.08 -0.08)">
       <use xlink:href="#CMR17-31" transform="scale(0.996264)"/>
       <use xlink:href="#CMR17-30" transform="translate(45.690477 0)scale(0.996264)"/>
      </g>
     </g>
    </g>
    <g id="xtick_8">
     <g id="line2d_16">
      <g>
       <use xlink:href="#m37fc56f9bd" x="207.033672" y="70.698475" style="stroke: #000000; stroke-width: 0.35"/>
      </g>
     </g>
     <g id="text_16">
      <!-- $\mathdefault{20}$ -->
      <g transform="translate(202.799489 81.233276)scale(0.08 -0.08)">
       <use xlink:href="#CMR17-32" transform="scale(0.996264)"/>
       <use xlink:href="#CMR17-30" transform="translate(45.690477 0)scale(0.996264)"/>
      </g>
     </g>
    </g>
    <g id="text_17">
     <!-- $tv $ -->
     <g transform="translate(163.513916 90.317824)scale(0.08 -0.08)">
      <defs>
       <path id="CMMI12-74" d="M 1286 2566 
L 1875 2566 
C 1997 2566 2061 2566 2061 2681 
C 2061 2752 2022 2752 1894 2752 
L 1331 2752 
L 1568 3664 
C 1594 3752 1594 3764 1594 3808 
C 1594 3910 1510 3968 1427 3968 
C 1376 3968 1229 3948 1178 3746 
L 928 2752 
L 326 2752 
C 198 2752 141 2752 141 2630 
C 141 2566 186 2566 307 2566 
L 877 2566 
L 454 881 
C 403 657 384 593 384 510 
C 384 210 595 -64 954 -64 
C 1600 -64 1946 868 1946 913 
C 1946 951 1920 970 1882 970 
C 1869 970 1843 970 1830 944 
C 1824 938 1818 932 1773 830 
C 1638 510 1344 64 973 64 
C 781 64 768 223 768 364 
C 768 370 768 491 787 568 
L 1286 2566 
z
" transform="scale(0.015625)"/>
       <path id="CMMI12-76" d="M 2925 2388 
C 2925 2790 2720 2816 2669 2816 
C 2515 2816 2374 2662 2374 2534 
C 2374 2458 2419 2413 2445 2388 
C 2509 2330 2675 2158 2675 1826 
C 2675 1558 2291 64 1523 64 
C 1133 64 1056 389 1056 625 
C 1056 945 1203 1392 1376 1851 
C 1478 2113 1504 2177 1504 2305 
C 1504 2573 1312 2816 998 2816 
C 410 2816 173 1890 173 1838 
C 173 1813 198 1781 243 1781 
C 301 1781 307 1807 333 1896 
C 486 2445 736 2687 979 2687 
C 1037 2687 1146 2687 1146 2477 
C 1146 2311 1075 2126 979 1883 
C 672 1066 672 868 672 715 
C 672 574 691 313 890 134 
C 1120 -64 1440 -64 1498 -64 
C 2560 -64 2925 2024 2925 2388 
z
" transform="scale(0.015625)"/>
      </defs>
      <use xlink:href="#CMMI12-74" transform="scale(0.996264)"/>
      <use xlink:href="#CMMI12-76" transform="translate(35.22633 0)scale(0.996264)"/>
     </g>
    </g>
   </g>
   <g id="matplotlib.axis_4">
    <g id="ytick_7">
     <g id="line2d_17">
      <g>
       <use xlink:href="#ma7c8aafee2" x="108.285276" y="67.517635" style="stroke: #000000; stroke-width: 0.35"/>
      </g>
     </g>
     <g id="text_18">
      <!-- $\mathdefault{0.00}$ -->
      <g transform="translate(88.230403 70.285036)scale(0.08 -0.08)">
       <use xlink:href="#CMR17-30" transform="scale(0.996264)"/>
       <use xlink:href="#CMMI12-3a" transform="translate(45.690477 0)scale(0.996264)"/>
       <use xlink:href="#CMR17-30" transform="translate(72.787654 0)scale(0.996264)"/>
       <use xlink:href="#CMR17-30" transform="translate(118.478131 0)scale(0.996264)"/>
      </g>
     </g>
    </g>
    <g id="ytick_8">
     <g id="line2d_18">
      <g>
       <use xlink:href="#ma7c8aafee2" x="108.285276" y="44.012303" style="stroke: #000000; stroke-width: 0.35"/>
      </g>
     </g>
     <g id="text_19">
      <!-- $\mathdefault{0.05}$ -->
      <g transform="translate(88.230403 46.779704)scale(0.08 -0.08)">
       <use xlink:href="#CMR17-30" transform="scale(0.996264)"/>
       <use xlink:href="#CMMI12-3a" transform="translate(45.690477 0)scale(0.996264)"/>
       <use xlink:href="#CMR17-30" transform="translate(72.787654 0)scale(0.996264)"/>
       <use xlink:href="#CMR17-35" transform="translate(118.478131 0)scale(0.996264)"/>
      </g>
     </g>
    </g>
    <g id="ytick_9">
     <g id="line2d_19">
      <g>
       <use xlink:href="#ma7c8aafee2" x="108.285276" y="20.50697" style="stroke: #000000; stroke-width: 0.35"/>
      </g>
     </g>
     <g id="text_20">
      <!-- $\mathdefault{0.10}$ -->
      <g transform="translate(88.230403 23.274371)scale(0.08 -0.08)">
       <use xlink:href="#CMR17-30" transform="scale(0.996264)"/>
       <use xlink:href="#CMMI12-3a" transform="translate(45.690477 0)scale(0.996264)"/>
       <use xlink:href="#CMR17-31" transform="translate(72.787654 0)scale(0.996264)"/>
       <use xlink:href="#CMR17-30" transform="translate(118.478131 0)scale(0.996264)"/>
      </g>
     </g>
    </g>
    <g id="text_21">
     <!-- LL: $A_1$ -->
     <g transform="translate(84.680658 48.583315)rotate(-90)scale(0.08 -0.08)">
      <defs>
       <path id="CMR17-4c" d="M 3469 1612 
L 3354 1612 
C 3302 981 3219 166 2125 166 
L 1530 166 
C 1274 166 1261 198 1261 414 
L 1261 3892 
C 1261 4121 1274 4185 1760 4185 
L 1901 4185 
L 1901 4352 
C 1638 4339 1331 4339 1069 4339 
C 870 4339 512 4339 326 4352 
L 326 4185 
C 768 4185 838 4185 838 3898 
L 838 453 
C 838 166 768 166 326 166 
L 326 0 
L 3315 0 
L 3469 1612 
z
" transform="scale(0.015625)"/>
       <path id="CMR17-3a" d="M 1062 2489 
C 1062 2649 934 2752 800 2752 
C 672 2752 538 2649 538 2489 
C 538 2329 666 2227 800 2227 
C 928 2227 1062 2329 1062 2489 
z
M 1062 262 
C 1062 422 934 524 800 524 
C 672 524 538 422 538 262 
C 538 102 666 0 800 0 
C 928 0 1062 102 1062 262 
z
" transform="scale(0.015625)"/>
      </defs>
      <use xlink:href="#CMR17-4c" transform="scale(0.996264)"/>
      <use xlink:href="#CMR17-4c" transform="translate(57.381408 0)scale(0.996264)"/>
      <use xlink:href="#CMR17-3a" transform="translate(114.762816 0)scale(0.996264)"/>
      <use xlink:href="#CMMI12-41" transform="translate(169.709841 0)scale(0.996264)"/>
      <use xlink:href="#CMR17-31" transform="translate(242.837726 -14.943915)scale(0.697382)"/>
     </g>
    </g>
   </g>
   <g id="line2d_20">
    <path d="M 113.632493 67.517635 
L 114.099499 61.56487 
L 114.566505 49.68211 
L 115.033511 37.296435 
L 115.500517 27.155951 
L 115.967523 19.911428 
L 116.434529 15.163774 
L 116.901534 12.214774 
L 117.36854 10.423043 
L 117.835546 9.317375 
L 118.302552 8.575791 
L 118.769558 8.04079 
L 119.236564 7.67648 
L 119.70357 7.480186 
L 120.170576 7.432211 
L 120.637582 7.44246 
L 121.104588 7.432211 
L 121.571593 7.480186 
L 122.038599 7.67648 
L 122.505605 8.04079 
L 122.972611 8.575791 
L 123.439617 9.317375 
L 123.906623 10.423043 
L 124.373629 12.214774 
L 124.840635 15.163774 
L 125.307641 19.911428 
L 125.774646 27.155951 
L 126.241652 37.296435 
L 126.708658 49.68211 
L 127.175664 61.56487 
" clip-path="url(#pb606b514ff)" style="fill: none; stroke: #9e0142; stroke-linecap: round"/>
   </g>
   <g id="line2d_21">
    <path d="M 113.632493 67.517635 
L 114.099499 61.571212 
L 114.566505 49.689362 
L 115.033511 37.280178 
L 115.500517 27.077102 
L 115.967523 19.723946 
L 116.434529 14.827908 
L 116.901534 11.70168 
L 117.36854 9.722127 
L 117.835546 8.425235 
L 118.302552 7.512791 
L 118.769558 6.82135 
L 119.236564 6.272348 
L 119.70357 5.840453 
L 120.170576 5.523292 
L 120.637582 5.312318 
L 121.104588 5.189304 
L 121.571593 5.129302 
L 122.038599 5.114271 
L 122.505605 5.125167 
L 122.972611 5.143221 
L 123.439617 5.161107 
L 123.906623 5.182312 
L 124.373629 5.213052 
L 124.840635 5.251341 
L 125.307641 5.271959 
L 125.774646 5.251341 
L 126.241652 5.213052 
L 126.708658 5.182312 
L 127.175664 5.161107 
L 127.64267 5.143221 
L 128.109676 5.125167 
L 128.576682 5.114271 
L 129.043688 5.129302 
L 129.510694 5.189304 
L 129.977699 5.312318 
L 130.444705 5.523292 
L 130.911711 5.840453 
L 131.378717 6.272348 
L 131.845723 6.82135 
L 132.312729 7.512791 
L 132.779735 8.425235 
L 133.246741 9.722127 
L 133.713747 11.70168 
L 134.180752 14.827908 
L 134.647758 19.723946 
L 135.114764 27.077102 
L 135.58177 37.280178 
L 136.048776 49.689362 
L 136.515782 61.571212 
" clip-path="url(#pb606b514ff)" style="fill: none; stroke: #d43d4f; stroke-linecap: round"/>
   </g>
   <g id="line2d_22">
    <path d="M 113.632493 67.517635 
L 114.099499 61.575096 
L 114.566505 49.698031 
L 115.033511 37.288687 
L 115.500517 27.076344 
L 115.967523 19.702583 
L 116.434529 14.776567 
L 116.901534 11.614101 
L 117.36854 9.59629 
L 117.835546 8.26321 
L 118.302552 7.318658 
L 118.769558 6.598711 
L 119.236564 6.024141 
L 119.70357 5.565856 
L 120.170576 5.215673 
L 120.637582 4.965544 
L 121.104588 4.801712 
L 121.571593 4.703182 
L 122.038599 4.646046 
L 122.505605 4.609669 
L 122.972611 4.578199 
L 123.439617 4.544353 
L 123.906623 4.508975 
L 124.373629 4.476288 
L 124.840635 4.45297 
L 125.307641 4.44736 
L 125.774646 4.461009 
L 126.241652 4.489831 
L 126.708658 4.526768 
L 127.175664 4.564342 
L 127.64267 4.598054 
L 128.109676 4.626769 
L 128.576682 4.652511 
L 129.043688 4.67862 
L 129.510694 4.703544 
L 129.977699 4.715278 
L 130.444705 4.703544 
L 130.911711 4.67862 
L 131.378717 4.652511 
L 131.845723 4.626769 
L 132.312729 4.598054 
L 132.779735 4.564342 
L 133.246741 4.526768 
L 133.713747 4.489831 
L 134.180752 4.461009 
L 134.647758 4.44736 
L 135.114764 4.45297 
L 135.58177 4.476288 
L 136.048776 4.508975 
L 136.515782 4.544353 
L 136.982788 4.578199 
L 137.449794 4.609669 
L 137.9168 4.646046 
L 138.383805 4.703182 
L 138.850811 4.801712 
L 139.317817 4.965544 
L 139.784823 5.215673 
L 140.251829 5.565856 
L 140.718835 6.024141 
L 141.185841 6.598711 
L 141.652847 7.318658 
L 142.119853 8.26321 
L 142.586859 9.59629 
L 143.053864 11.614101 
L 143.52087 14.776567 
L 143.987876 19.702583 
L 144.454882 27.076344 
L 144.921888 37.288687 
L 145.388894 49.698031 
L 145.8559 61.575096 
" clip-path="url(#pb606b514ff)" style="fill: none; stroke: #f46d43; stroke-linecap: round"/>
   </g>
   <g id="line2d_23">
    <path d="M 113.632493 67.517635 
L 114.099499 61.577008 
L 114.566505 49.70251 
L 115.033511 37.293932 
L 115.500517 27.078848 
L 115.967523 19.697803 
L 116.434529 14.760859 
L 116.901534 11.585053 
L 117.36854 9.553185 
L 117.835546 8.207092 
L 118.302552 7.251257 
L 118.769558 6.52185 
L 119.236564 5.938963 
L 119.70357 5.472208 
L 120.170576 5.112317 
L 120.637582 4.850351 
L 121.104588 4.672836 
L 121.571593 4.559751 
L 122.038599 4.487574 
L 122.505605 4.436202 
L 122.972611 4.391018 
L 123.439617 4.345109 
L 123.906623 4.299307 
L 124.373629 4.258324 
L 124.840635 4.227964 
L 125.307641 4.212146 
L 125.774646 4.210531 
L 126.241652 4.219726 
L 126.708658 4.234352 
L 127.175664 4.248389 
L 127.64267 4.257985 
L 128.109676 4.262612 
L 128.576682 4.264418 
L 129.043688 4.267012 
L 129.510694 4.273905 
L 129.977699 4.287336 
L 130.444705 4.307862 
L 130.911711 4.333578 
L 131.378717 4.361356 
L 131.845723 4.388178 
L 132.312729 4.411797 
L 132.779735 4.431937 
L 133.246741 4.449966 
L 133.713747 4.467253 
L 134.180752 4.482887 
L 134.647758 4.490125 
L 135.114764 4.482887 
L 135.58177 4.467253 
L 136.048776 4.449966 
L 136.515782 4.431937 
L 136.982788 4.411797 
L 137.449794 4.388178 
L 137.9168 4.361356 
L 138.383805 4.333578 
L 138.850811 4.307862 
L 139.317817 4.287336 
L 139.784823 4.273905 
L 140.251829 4.267012 
L 140.718835 4.264418 
L 141.185841 4.262612 
L 141.652847 4.257985 
L 142.119853 4.248389 
L 142.586859 4.234352 
L 143.053864 4.219726 
L 143.52087 4.210531 
L 143.987876 4.212146 
L 144.454882 4.227964 
L 144.921888 4.258324 
L 145.388894 4.299307 
L 145.8559 4.345109 
L 146.322906 4.391018 
L 146.789912 4.436202 
L 147.256917 4.487574 
L 147.723923 4.559751 
L 148.190929 4.672836 
L 148.657935 4.850351 
L 149.124941 5.112317 
L 149.591947 5.472208 
L 150.058953 5.938963 
L 150.525959 6.52185 
L 150.992965 7.251257 
L 151.45997 8.207092 
L 151.926976 9.553185 
L 152.393982 11.585053 
L 152.860988 14.760859 
L 153.327994 19.697803 
L 153.795 27.078848 
L 154.262006 37.293932 
L 154.729012 49.70251 
L 155.196018 61.577008 
" clip-path="url(#pb606b514ff)" style="fill: none; stroke: #fdad60; stroke-linecap: round"/>
   </g>
   <g id="line2d_24">
    <path d="M 113.632493 67.517635 
L 114.099499 61.578057 
L 114.566505 49.704992 
L 115.033511 37.296987 
L 115.500517 27.080766 
L 115.967523 19.696297 
L 116.434529 14.754139 
L 116.901534 11.571934 
L 117.36854 9.533322 
L 117.835546 8.181055 
L 118.302552 7.219944 
L 118.769558 6.486205 
L 119.236564 5.899636 
L 119.70357 5.429156 
L 120.170576 5.06499 
L 120.637582 4.797866 
L 121.104588 4.614238 
L 121.571593 4.494503 
L 122.038599 4.41557 
L 122.505605 4.357776 
L 122.972611 4.306983 
L 123.439617 4.256313 
L 123.906623 4.206314 
L 124.373629 4.161104 
L 124.840635 4.125642 
L 125.307641 4.103648 
L 125.774646 4.095055 
L 126.241652 4.096957 
L 126.708658 4.104807 
L 127.175664 4.113342 
L 127.64267 4.119002 
L 128.109676 4.120621 
L 128.576682 4.119117 
L 129.043688 4.117271 
L 129.510694 4.117966 
L 129.977699 4.122921 
L 130.444705 4.132524 
L 130.911711 4.145557 
L 131.378717 4.160421 
L 131.845723 4.175053 
L 132.312729 4.187391 
L 132.779735 4.196844 
L 133.246741 4.204406 
L 133.713747 4.211797 
L 134.180752 4.221066 
L 134.647758 4.233661 
L 135.114764 4.249655 
L 135.58177 4.268168 
L 136.048776 4.287487 
L 136.515782 4.305735 
L 136.982788 4.321888 
L 137.449794 4.33579 
L 137.9168 4.348141 
L 138.383805 4.359929 
L 138.850811 4.370345 
L 139.317817 4.375023 
L 139.784823 4.370345 
L 140.251829 4.359929 
L 140.718835 4.348141 
L 141.185841 4.33579 
L 141.652847 4.321888 
L 142.119853 4.305735 
L 142.586859 4.287487 
L 143.053864 4.268168 
L 143.52087 4.249655 
L 143.987876 4.233661 
L 144.454882 4.221066 
L 144.921888 4.211797 
L 145.388894 4.204406 
L 145.8559 4.196844 
L 146.322906 4.187391 
L 146.789912 4.175053 
L 147.256917 4.160421 
L 147.723923 4.145557 
L 148.190929 4.132524 
L 148.657935 4.122921 
L 149.124941 4.117966 
L 149.591947 4.117271 
L 150.058953 4.119117 
L 150.525959 4.120621 
L 150.992965 4.119002 
L 151.45997 4.113342 
L 151.926976 4.104807 
L 152.393982 4.096957 
L 152.860988 4.095055 
L 153.327994 4.103648 
L 153.795 4.125642 
L 154.262006 4.161104 
L 154.729012 4.206314 
L 155.196018 4.256313 
L 155.663023 4.306983 
L 156.130029 4.357776 
L 156.597035 4.41557 
L 157.064041 4.494503 
L 157.531047 4.614238 
L 157.998053 4.797866 
L 158.465059 5.06499 
L 158.932065 5.429156 
L 159.399071 5.899636 
L 159.866076 6.486205 
L 160.333082 7.219944 
L 160.800088 8.181055 
L 161.267094 9.533322 
L 161.7341 11.571934 
L 162.201106 14.754139 
L 162.668112 19.696297 
L 163.135118 27.080766 
L 163.602124 37.296987 
L 164.06913 49.704992 
L 164.536135 61.578057 
" clip-path="url(#pb606b514ff)" style="fill: none; stroke: #fee08b; stroke-linecap: round"/>
   </g>
   <g id="line2d_25">
    <path d="M 113.632493 67.517635 
L 114.099499 61.578691 
L 115.500517 27.082076 
L 115.967523 19.695714 
L 116.434529 14.750655 
L 116.901534 11.56488 
L 117.36854 9.522498 
L 117.835546 8.166809 
L 118.769558 6.466702 
L 119.70357 5.405721 
L 120.637582 4.769428 
L 121.571593 4.459224 
L 123.906623 4.156367 
L 125.774646 4.034389 
L 134.647758 4.110157 
L 146.789912 4.258493 
L 158.465059 4.032893 
L 164.06913 4.156367 
L 166.404159 4.459224 
L 167.338171 4.769428 
L 168.272183 5.405721 
L 169.206194 6.466702 
L 169.6732 7.202795 
L 170.140206 8.166809 
L 170.607212 9.522498 
L 171.074218 11.56488 
L 171.541224 14.750655 
L 172.00823 19.695714 
L 172.475236 27.082076 
L 173.409247 49.706488 
L 173.876253 61.578691 
L 173.876253 61.578691 
" clip-path="url(#pb606b514ff)" style="fill: none; stroke: #e0df99; stroke-linecap: round"/>
   </g>
   <g id="line2d_26">
    <path d="M 113.632493 67.517635 
L 114.099499 61.579103 
L 115.500517 27.082978 
L 115.967523 19.695454 
L 116.434529 14.748614 
L 116.901534 11.56064 
L 117.36854 9.515934 
L 117.835546 8.158145 
L 118.769558 6.454839 
L 119.70357 5.391514 
L 120.637582 4.752237 
L 121.571593 4.437927 
L 123.906623 4.12637 
L 126.241652 3.994545 
L 143.52087 4.182167 
L 151.926976 4.218596 
L 167.805177 3.983208 
L 173.409247 4.12637 
L 175.744277 4.437927 
L 176.678289 4.752237 
L 177.6123 5.391514 
L 178.546312 6.454839 
L 179.013318 7.192359 
L 179.480324 8.158145 
L 179.94733 9.515934 
L 180.414336 11.56064 
L 180.881342 14.748614 
L 181.348347 19.695454 
L 181.815353 27.082978 
L 182.749365 49.707455 
L 183.216371 61.579103 
L 183.216371 61.579103 
" clip-path="url(#pb606b514ff)" style="fill: none; stroke: #bdc97b; stroke-linecap: round"/>
   </g>
   <g id="line2d_27">
    <path d="M 113.632493 67.517635 
L 114.099499 61.579387 
L 115.500517 27.083617 
L 115.967523 19.695328 
L 116.434529 14.747314 
L 116.901534 11.557888 
L 117.36854 9.511644 
L 117.835546 8.152474 
L 118.769558 6.447072 
L 119.70357 5.382233 
L 120.637582 4.741027 
L 121.571593 4.424053 
L 123.439617 4.16128 
L 125.774646 3.974774 
L 134.180752 3.995567 
L 160.800088 4.145743 
L 179.013318 3.972059 
L 182.282359 4.057396 
L 185.084395 4.424053 
L 186.018406 4.741027 
L 186.952418 5.382233 
L 187.88643 6.447072 
L 188.353436 7.185524 
L 188.820442 8.152474 
L 189.287448 9.511644 
L 189.754454 11.557888 
L 190.221459 14.747314 
L 190.688465 19.695328 
L 191.155471 27.083617 
L 192.089483 49.708114 
L 192.556489 61.579387 
L 192.556489 61.579387 
" clip-path="url(#pb606b514ff)" style="fill: none; stroke: #aadca4; stroke-linecap: round"/>
   </g>
   <g id="line2d_28">
    <path d="M 113.632493 67.517635 
L 114.099499 61.57959 
L 115.500517 27.084083 
L 115.967523 19.695262 
L 116.434529 14.746433 
L 116.901534 11.555998 
L 117.36854 9.508684 
L 117.835546 8.148556 
L 118.769558 6.441704 
L 119.70357 5.375828 
L 120.637582 4.733302 
L 121.571593 4.414497 
L 123.439617 4.148462 
L 125.774646 3.958749 
L 133.713747 3.965003 
L 150.058953 4.137309 
L 161.7341 4.179876 
L 188.353436 3.952685 
L 191.622477 4.04348 
L 194.424512 4.414497 
L 195.358524 4.733302 
L 196.292536 5.375828 
L 197.226548 6.441704 
L 197.693554 7.1808 
L 198.16056 8.148556 
L 198.627565 9.508684 
L 199.094571 11.555998 
L 199.561577 14.746433 
L 200.028583 19.695262 
L 200.495589 27.084083 
L 201.429601 49.708583 
L 201.896607 61.57959 
L 201.896607 61.57959 
" clip-path="url(#pb606b514ff)" style="fill: none; stroke: #66c2a5; stroke-linecap: round"/>
   </g>
   <g id="line2d_29">
    <path d="M 113.632493 67.517635 
L 114.099499 61.579741 
L 115.500517 27.084433 
L 115.967523 19.695226 
L 116.434529 14.745808 
L 116.901534 11.554644 
L 117.36854 9.506553 
L 117.835546 8.145733 
L 118.769558 6.437835 
L 119.70357 5.371218 
L 120.637582 4.727747 
L 121.571593 4.407628 
L 123.439617 4.13926 
L 125.774646 3.947277 
L 133.713747 3.945011 
L 150.992965 4.106065 
L 170.140206 4.140626 
L 199.561577 3.947277 
L 201.896607 4.13926 
L 203.76463 4.407628 
L 204.698642 4.727747 
L 205.632654 5.371218 
L 206.566666 6.437835 
L 207.033672 7.177396 
L 207.500677 8.145733 
L 207.967683 9.506553 
L 208.434689 11.554644 
L 208.901695 14.745808 
L 209.368701 19.695226 
L 209.835707 27.084433 
L 210.769719 49.708929 
L 211.236725 61.579741 
L 211.236725 61.579741 
" clip-path="url(#pb606b514ff)" style="fill: none; stroke: #3387bc; stroke-linecap: round"/>
   </g>
   <g id="line2d_30">
    <path d="M 113.632493 67.494493 
L 114.099499 61.579857 
L 115.500517 27.084702 
L 115.967523 19.695206 
L 116.434529 14.745349 
L 116.901534 11.553639 
L 117.36854 9.504968 
L 117.835546 8.143632 
L 118.769558 6.434954 
L 119.70357 5.367787 
L 120.637582 4.723617 
L 121.571593 4.402522 
L 123.439617 4.132426 
L 125.774646 3.938775 
L 133.713747 3.930297 
L 151.45997 4.080481 
L 178.546312 4.112776 
L 210.302713 4.026097 
L 213.104748 4.402522 
L 214.03876 4.723617 
L 214.972772 5.367787 
L 215.906783 6.434954 
L 216.373789 7.174861 
L 216.840795 8.143632 
L 217.307801 9.504968 
L 217.774807 11.553639 
L 218.241813 14.745349 
L 218.708819 19.695206 
L 219.175825 27.084702 
L 220.109836 49.709191 
L 220.576842 61.579857 
L 220.576842 61.579857 
" clip-path="url(#pb606b514ff)" style="fill: none; stroke: #5e4fa2; stroke-linecap: round"/>
   </g>
   <g id="patch_8">
    <path d="M 108.285276 70.698475 
L 108.285276 0.72 
" style="fill: none; stroke: #000000; stroke-width: 0.35; stroke-linejoin: miter; stroke-linecap: square"/>
   </g>
   <g id="patch_9">
    <path d="M 225.92406 70.698475 
L 225.92406 0.72 
" style="fill: none; stroke: #000000; stroke-width: 0.35; stroke-linejoin: miter; stroke-linecap: square"/>
   </g>
   <g id="patch_10">
    <path d="M 108.285276 70.698475 
L 225.92406 70.698475 
" style="fill: none; stroke: #000000; stroke-width: 0.35; stroke-linejoin: miter; stroke-linecap: square"/>
   </g>
   <g id="patch_11">
    <path d="M 108.285276 0.72 
L 225.92406 0.72 
" style="fill: none; stroke: #000000; stroke-width: 0.35; stroke-linejoin: miter; stroke-linecap: square"/>
   </g>
   <g id="text_22">
    <!-- $06$ -->
    <g style="fill: #9e0142" transform="translate(122.505605 68.61647)scale(0.08 -0.08)">
     <defs>
      <path id="CMR17-36" d="M 678 2198 
C 678 3712 1395 4076 1811 4076 
C 1946 4076 2272 4049 2400 3782 
C 2298 3782 2106 3782 2106 3558 
C 2106 3385 2246 3328 2336 3328 
C 2394 3328 2566 3353 2566 3571 
C 2566 3987 2246 4224 1805 4224 
C 1043 4224 243 3411 243 2011 
C 243 257 966 -128 1478 -128 
C 2099 -128 2688 431 2688 1295 
C 2688 2101 2170 2688 1517 2688 
C 1126 2688 838 2430 678 1979 
L 678 2198 
z
M 1478 25 
C 691 25 691 1212 691 1450 
C 691 1914 909 2585 1504 2585 
C 1613 2585 1926 2585 2138 2140 
C 2253 1889 2253 1624 2253 1302 
C 2253 954 2253 696 2118 438 
C 1978 173 1773 25 1478 25 
z
" transform="scale(0.015625)"/>
     </defs>
     <use xlink:href="#CMR17-30" transform="scale(0.996264)"/>
     <use xlink:href="#CMR17-36" transform="translate(45.690477 0)scale(0.996264)"/>
    </g>
   </g>
   <g id="text_23">
    <!-- $10$ -->
    <g style="fill: #d43d4f" transform="translate(131.845723 68.622811)scale(0.08 -0.08)">
     <use xlink:href="#CMR17-31" transform="scale(0.996264)"/>
     <use xlink:href="#CMR17-30" transform="translate(45.690477 0)scale(0.996264)"/>
    </g>
   </g>
   <g id="text_24">
    <!-- $14$ -->
    <g style="fill: #f46d43" transform="translate(141.185841 68.626696)scale(0.08 -0.08)">
     <defs>
      <path id="CMR17-34" d="M 2150 4147 
C 2150 4281 2144 4288 2029 4288 
L 128 1254 
L 128 1088 
L 1779 1088 
L 1779 460 
C 1779 230 1766 166 1318 166 
L 1197 166 
L 1197 0 
C 1402 12 1747 12 1965 12 
C 2182 12 2528 12 2733 0 
L 2733 166 
L 2611 166 
C 2163 166 2150 230 2150 460 
L 2150 1088 
L 2803 1088 
L 2803 1254 
L 2150 1254 
L 2150 4147 
z
M 1798 3723 
L 1798 1254 
L 256 1254 
L 1798 3723 
z
" transform="scale(0.015625)"/>
     </defs>
     <use xlink:href="#CMR17-31" transform="scale(0.996264)"/>
     <use xlink:href="#CMR17-34" transform="translate(45.690477 0)scale(0.996264)"/>
    </g>
   </g>
   <g id="text_25">
    <!-- $18$ -->
    <g style="fill: #fdad60" transform="translate(150.525959 68.628607)scale(0.08 -0.08)">
     <defs>
      <path id="CMR17-38" d="M 1741 2289 
C 2144 2494 2554 2803 2554 3298 
C 2554 3884 1990 4224 1472 4224 
C 890 4224 378 3800 378 3215 
C 378 3054 416 2777 666 2533 
C 730 2469 998 2276 1171 2154 
C 883 2006 211 1652 211 945 
C 211 282 838 -128 1459 -128 
C 2144 -128 2720 366 2720 1022 
C 2720 1607 2330 1877 2074 2051 
L 1741 2289 
z
M 902 2855 
C 851 2887 595 3086 595 3388 
C 595 3781 998 4076 1459 4076 
C 1965 4076 2336 3716 2336 3298 
C 2336 2700 1670 2359 1638 2359 
C 1632 2359 1626 2359 1574 2398 
L 902 2855 
z
M 2080 1536 
C 2176 1466 2483 1253 2483 861 
C 2483 385 2010 25 1472 25 
C 890 25 448 443 448 951 
C 448 1459 838 1884 1280 2083 
L 2080 1536 
z
" transform="scale(0.015625)"/>
     </defs>
     <use xlink:href="#CMR17-31" transform="scale(0.996264)"/>
     <use xlink:href="#CMR17-38" transform="translate(45.690477 0)scale(0.996264)"/>
    </g>
   </g>
   <g id="text_26">
    <!-- $22$ -->
    <g style="fill: #fee08b" transform="translate(159.866076 68.629657)scale(0.08 -0.08)">
     <use xlink:href="#CMR17-32" transform="scale(0.996264)"/>
     <use xlink:href="#CMR17-32" transform="translate(45.690477 0)scale(0.996264)"/>
    </g>
   </g>
   <g id="text_27">
    <!-- $26$ -->
    <g style="fill: #e0df99" transform="translate(169.206194 68.630291)scale(0.08 -0.08)">
     <use xlink:href="#CMR17-32" transform="scale(0.996264)"/>
     <use xlink:href="#CMR17-36" transform="translate(45.690477 0)scale(0.996264)"/>
    </g>
   </g>
   <g id="text_28">
    <!-- $30$ -->
    <g style="fill: #bdc97b" transform="translate(178.546312 68.630703)scale(0.08 -0.08)">
     <defs>
      <path id="CMR17-33" d="M 1414 2176 
C 1984 2176 2234 1673 2234 1094 
C 2234 322 1824 25 1453 25 
C 1114 25 563 193 390 691 
C 422 678 454 678 486 678 
C 640 678 755 780 755 947 
C 755 1132 614 1216 486 1216 
C 378 1216 211 1164 211 927 
C 211 335 787 -128 1466 -128 
C 2176 -128 2720 432 2720 1087 
C 2720 1718 2208 2176 1600 2246 
C 2086 2347 2554 2776 2554 3353 
C 2554 3856 2048 4224 1472 4224 
C 890 4224 378 3862 378 3347 
C 378 3123 544 3084 627 3084 
C 762 3084 877 3167 877 3334 
C 877 3500 762 3584 627 3584 
C 602 3584 570 3584 544 3571 
C 730 3999 1235 4076 1459 4076 
C 1683 4076 2106 3966 2106 3347 
C 2106 3167 2080 2851 1862 2574 
C 1670 2329 1453 2316 1242 2297 
C 1210 2297 1062 2284 1037 2284 
C 992 2278 966 2272 966 2227 
C 966 2182 973 2176 1101 2176 
L 1414 2176 
z
" transform="scale(0.015625)"/>
     </defs>
     <use xlink:href="#CMR17-33" transform="scale(0.996264)"/>
     <use xlink:href="#CMR17-30" transform="translate(45.690477 0)scale(0.996264)"/>
    </g>
   </g>
   <g id="text_29">
    <!-- $34$ -->
    <g style="fill: #aadca4" transform="translate(187.88643 68.630986)scale(0.08 -0.08)">
     <use xlink:href="#CMR17-33" transform="scale(0.996264)"/>
     <use xlink:href="#CMR17-34" transform="translate(45.690477 0)scale(0.996264)"/>
    </g>
   </g>
   <g id="text_30">
    <!-- $38$ -->
    <g style="fill: #66c2a5" transform="translate(197.226548 68.63119)scale(0.08 -0.08)">
     <use xlink:href="#CMR17-33" transform="scale(0.996264)"/>
     <use xlink:href="#CMR17-38" transform="translate(45.690477 0)scale(0.996264)"/>
    </g>
   </g>
   <g id="text_31">
    <!-- $42$ -->
    <g style="fill: #3387bc" transform="translate(206.566666 68.631341)scale(0.08 -0.08)">
     <use xlink:href="#CMR17-34" transform="scale(0.996264)"/>
     <use xlink:href="#CMR17-32" transform="translate(45.690477 0)scale(0.996264)"/>
    </g>
   </g>
   <g id="text_32">
    <!-- $46$ -->
    <g style="fill: #5e4fa2" transform="translate(215.906783 68.631457)scale(0.08 -0.08)">
     <use xlink:href="#CMR17-34" transform="scale(0.996264)"/>
     <use xlink:href="#CMR17-36" transform="translate(45.690477 0)scale(0.996264)"/>
    </g>
   </g>
   <g id="text_33">
    <!-- $L$ -->
    <g transform="translate(115.267014 68.631457)scale(0.08 -0.08)">
     <defs>
      <path id="CMMI12-4c" d="M 2349 3860 
C 2406 4102 2426 4166 2989 4166 
C 3162 4166 3206 4166 3206 4287 
C 3206 4352 3136 4352 3110 4352 
C 2982 4352 2835 4339 2707 4339 
L 1850 4339 
C 1728 4339 1587 4352 1466 4352 
C 1414 4352 1344 4352 1344 4230 
C 1344 4166 1402 4166 1498 4166 
C 1888 4166 1888 4115 1888 4045 
C 1888 4032 1888 3994 1862 3898 
L 998 472 
C 941 249 928 185 480 185 
C 358 185 294 185 294 70 
C 294 0 333 0 461 0 
L 3328 0 
C 3469 0 3475 6 3520 121 
L 4013 1478 
C 4026 1510 4038 1548 4038 1567 
C 4038 1605 4006 1631 3974 1631 
C 3968 1631 3936 1631 3923 1605 
C 3910 1599 3910 1586 3859 1465 
C 3654 905 3366 185 2285 185 
L 1670 185 
C 1581 185 1568 185 1530 191 
C 1459 198 1453 211 1453 262 
C 1453 306 1466 344 1478 402 
L 2349 3860 
z
" transform="scale(0.015625)"/>
     </defs>
     <use xlink:href="#CMMI12-4c" transform="scale(0.996264)"/>
    </g>
   </g>
  </g>
 </g>
 <defs>
  <clipPath id="p62874ef9e7">
   <rect x="29.85942" y="0.72" width="196.06464" height="116.630791"/>
  </clipPath>
  <clipPath id="pb606b514ff">
   <rect x="108.285276" y="0.72" width="117.638784" height="69.978475"/>
  </clipPath>
 </defs>
</svg>
