<?xml version="1.0" encoding="utf-8" standalone="no"?>
<!DOCTYPE svg PUBLIC "-//W3C//DTD SVG 1.1//EN"
  "http://www.w3.org/Graphics/SVG/1.1/DTD/svg11.dtd">
<svg xmlns:xlink="http://www.w3.org/1999/xlink" width="229.529624pt" height="140.125451pt" viewBox="0 0 229.529624 140.125451" xmlns="http://www.w3.org/2000/svg" version="1.1">
 <metadata>
  <rdf:RDF xmlns:dc="http://purl.org/dc/elements/1.1/" xmlns:cc="http://creativecommons.org/ns#" xmlns:rdf="http://www.w3.org/1999/02/22-rdf-syntax-ns#">
   <cc:Work>
    <dc:type rdf:resource="http://purl.org/dc/dcmitype/StillImage"/>
    <dc:date>2022-06-18T11:35:45.699017</dc:date>
    <dc:format>image/svg+xml</dc:format>
    <dc:creator>
     <cc:Agent>
      <dc:title>Matplotlib v3.5.1, https://matplotlib.org/</dc:title>
     </cc:Agent>
    </dc:creator>
   </cc:Work>
  </rdf:RDF>
 </metadata>
 <defs>
  <style type="text/css">*{stroke-linejoin: round; stroke-linecap: butt}</style>
 </defs>
 <g id="figure_1">
  <g id="patch_1">
   <path d="M 0 140.125451 
L 229.529624 140.125451 
L 229.529624 0 
L 0 0 
L 0 140.125451 
z
" style="fill: none"/>
  </g>
  <g id="axes_1">
   <g id="patch_2">
    <path d="M 30.744984 117.350791 
L 226.809624 117.350791 
L 226.809624 0.72 
L 30.744984 0.72 
L 30.744984 117.350791 
z
" style="fill: none"/>
   </g>
   <g id="matplotlib.axis_1">
    <g id="xtick_1">
     <g id="line2d_1">
      <defs>
       <path id="m482234b348" d="M 0 0 
L 0 2 
" style="stroke: #000000; stroke-width: 0.35"/>
      </defs>
      <g>
       <use xlink:href="#m482234b348" x="34.246139" y="117.350791" style="stroke: #000000; stroke-width: 0.35"/>
      </g>
     </g>
     <g id="text_1">
      <!-- $\mathdefault{0}$ -->
      <g transform="translate(32.129047 127.885593)scale(0.08 -0.08)">
       <defs>
        <path id="CMR17-30" d="M 2688 2038 
C 2688 2430 2682 3099 2413 3613 
C 2176 4063 1798 4224 1466 4224 
C 1158 4224 768 4082 525 3620 
C 269 3137 243 2539 243 2038 
C 243 1671 250 1112 448 623 
C 723 -39 1216 -128 1466 -128 
C 1760 -128 2208 -7 2470 604 
C 2662 1048 2688 1568 2688 2038 
z
M 1466 -26 
C 1056 -26 813 328 723 816 
C 653 1196 653 1749 653 2109 
C 653 2604 653 3015 736 3407 
C 858 3954 1216 4121 1466 4121 
C 1728 4121 2067 3947 2189 3420 
C 2272 3054 2278 2623 2278 2109 
C 2278 1691 2278 1176 2202 797 
C 2067 96 1690 -26 1466 -26 
z
" transform="scale(0.015625)"/>
       </defs>
       <use xlink:href="#CMR17-30" transform="scale(0.996264)"/>
      </g>
     </g>
    </g>
    <g id="xtick_2">
     <g id="line2d_2">
      <g>
       <use xlink:href="#m482234b348" x="69.257682" y="117.350791" style="stroke: #000000; stroke-width: 0.35"/>
      </g>
     </g>
     <g id="text_2">
      <!-- $\mathdefault{1}$ -->
      <g transform="translate(67.14059 127.885593)scale(0.08 -0.08)">
       <defs>
        <path id="CMR17-31" d="M 1702 4083 
C 1702 4217 1696 4224 1606 4224 
C 1357 3927 979 3833 621 3820 
C 602 3820 570 3820 563 3808 
C 557 3795 557 3782 557 3648 
C 755 3648 1088 3686 1344 3839 
L 1344 467 
C 1344 243 1331 166 781 166 
L 589 166 
L 589 0 
C 896 6 1216 12 1523 12 
C 1830 12 2150 6 2458 0 
L 2458 166 
L 2266 166 
C 1715 166 1702 236 1702 467 
L 1702 4083 
z
" transform="scale(0.015625)"/>
       </defs>
       <use xlink:href="#CMR17-31" transform="scale(0.996264)"/>
      </g>
     </g>
    </g>
    <g id="xtick_3">
     <g id="line2d_3">
      <g>
       <use xlink:href="#m482234b348" x="104.269224" y="117.350791" style="stroke: #000000; stroke-width: 0.35"/>
      </g>
     </g>
     <g id="text_3">
      <!-- $\mathdefault{2}$ -->
      <g transform="translate(102.152133 127.885593)scale(0.08 -0.08)">
       <defs>
        <path id="CMR17-32" d="M 2669 990 
L 2554 990 
C 2490 537 2438 460 2413 422 
C 2381 371 1920 371 1830 371 
L 602 371 
C 832 620 1280 1073 1824 1596 
C 2214 1966 2669 2400 2669 3033 
C 2669 3788 2067 4224 1395 4224 
C 691 4224 262 3603 262 3027 
C 262 2777 448 2745 525 2745 
C 589 2745 781 2783 781 3007 
C 781 3206 614 3264 525 3264 
C 486 3264 448 3257 422 3244 
C 544 3788 915 4057 1306 4057 
C 1862 4057 2227 3616 2227 3033 
C 2227 2477 1901 1998 1536 1583 
L 262 147 
L 262 0 
L 2515 0 
L 2669 990 
z
" transform="scale(0.015625)"/>
       </defs>
       <use xlink:href="#CMR17-32" transform="scale(0.996264)"/>
      </g>
     </g>
    </g>
    <g id="xtick_4">
     <g id="line2d_4">
      <g>
       <use xlink:href="#m482234b348" x="139.280767" y="117.350791" style="stroke: #000000; stroke-width: 0.35"/>
      </g>
     </g>
     <g id="text_4">
      <!-- $\mathdefault{3}$ -->
      <g transform="translate(137.163676 127.885593)scale(0.08 -0.08)">
       <defs>
        <path id="CMR17-33" d="M 1414 2176 
C 1984 2176 2234 1673 2234 1094 
C 2234 322 1824 25 1453 25 
C 1114 25 563 193 390 691 
C 422 678 454 678 486 678 
C 640 678 755 780 755 947 
C 755 1132 614 1216 486 1216 
C 378 1216 211 1164 211 927 
C 211 335 787 -128 1466 -128 
C 2176 -128 2720 432 2720 1087 
C 2720 1718 2208 2176 1600 2246 
C 2086 2347 2554 2776 2554 3353 
C 2554 3856 2048 4224 1472 4224 
C 890 4224 378 3862 378 3347 
C 378 3123 544 3084 627 3084 
C 762 3084 877 3167 877 3334 
C 877 3500 762 3584 627 3584 
C 602 3584 570 3584 544 3571 
C 730 3999 1235 4076 1459 4076 
C 1683 4076 2106 3966 2106 3347 
C 2106 3167 2080 2851 1862 2574 
C 1670 2329 1453 2316 1242 2297 
C 1210 2297 1062 2284 1037 2284 
C 992 2278 966 2272 966 2227 
C 966 2182 973 2176 1101 2176 
L 1414 2176 
z
" transform="scale(0.015625)"/>
       </defs>
       <use xlink:href="#CMR17-33" transform="scale(0.996264)"/>
      </g>
     </g>
    </g>
    <g id="xtick_5">
     <g id="line2d_5">
      <g>
       <use xlink:href="#m482234b348" x="174.29231" y="117.350791" style="stroke: #000000; stroke-width: 0.35"/>
      </g>
     </g>
     <g id="text_5">
      <!-- $\mathdefault{4}$ -->
      <g transform="translate(172.175219 127.885593)scale(0.08 -0.08)">
       <defs>
        <path id="CMR17-34" d="M 2150 4147 
C 2150 4281 2144 4288 2029 4288 
L 128 1254 
L 128 1088 
L 1779 1088 
L 1779 460 
C 1779 230 1766 166 1318 166 
L 1197 166 
L 1197 0 
C 1402 12 1747 12 1965 12 
C 2182 12 2528 12 2733 0 
L 2733 166 
L 2611 166 
C 2163 166 2150 230 2150 460 
L 2150 1088 
L 2803 1088 
L 2803 1254 
L 2150 1254 
L 2150 4147 
z
M 1798 3723 
L 1798 1254 
L 256 1254 
L 1798 3723 
z
" transform="scale(0.015625)"/>
       </defs>
       <use xlink:href="#CMR17-34" transform="scale(0.996264)"/>
      </g>
     </g>
    </g>
    <g id="xtick_6">
     <g id="line2d_6">
      <g>
       <use xlink:href="#m482234b348" x="209.303853" y="117.350791" style="stroke: #000000; stroke-width: 0.35"/>
      </g>
     </g>
     <g id="text_6">
      <!-- $\mathdefault{5}$ -->
      <g transform="translate(207.186762 127.885593)scale(0.08 -0.08)">
       <defs>
        <path id="CMR17-35" d="M 730 3750 
C 794 3724 1056 3641 1325 3641 
C 1920 3641 2246 3961 2432 4140 
C 2432 4191 2432 4224 2394 4224 
C 2387 4224 2374 4224 2323 4198 
C 2099 4102 1837 4032 1517 4032 
C 1325 4032 1037 4055 723 4191 
C 653 4224 640 4224 634 4224 
C 602 4224 595 4217 595 4090 
L 595 2231 
C 595 2113 595 2080 659 2080 
C 691 2080 704 2093 736 2139 
C 941 2435 1222 2560 1542 2560 
C 1766 2560 2246 2415 2246 1293 
C 2246 1087 2246 716 2054 422 
C 1894 159 1645 25 1370 25 
C 947 25 518 319 403 812 
C 429 806 480 793 506 793 
C 589 793 749 838 749 1036 
C 749 1209 627 1280 506 1280 
C 358 1280 262 1190 262 1011 
C 262 454 704 -128 1382 -128 
C 2042 -128 2669 441 2669 1267 
C 2669 2054 2170 2662 1549 2662 
C 1222 2662 947 2540 730 2304 
L 730 3750 
z
" transform="scale(0.015625)"/>
       </defs>
       <use xlink:href="#CMR17-35" transform="scale(0.996264)"/>
      </g>
     </g>
    </g>
    <g id="text_7">
     <!-- $2v t/L$ -->
     <g transform="translate(117.929867 137.412923)scale(0.08 -0.08)">
      <defs>
       <path id="CMMI12-76" d="M 2925 2388 
C 2925 2790 2720 2816 2669 2816 
C 2515 2816 2374 2662 2374 2534 
C 2374 2458 2419 2413 2445 2388 
C 2509 2330 2675 2158 2675 1826 
C 2675 1558 2291 64 1523 64 
C 1133 64 1056 389 1056 625 
C 1056 945 1203 1392 1376 1851 
C 1478 2113 1504 2177 1504 2305 
C 1504 2573 1312 2816 998 2816 
C 410 2816 173 1890 173 1838 
C 173 1813 198 1781 243 1781 
C 301 1781 307 1807 333 1896 
C 486 2445 736 2687 979 2687 
C 1037 2687 1146 2687 1146 2477 
C 1146 2311 1075 2126 979 1883 
C 672 1066 672 868 672 715 
C 672 574 691 313 890 134 
C 1120 -64 1440 -64 1498 -64 
C 2560 -64 2925 2024 2925 2388 
z
" transform="scale(0.015625)"/>
       <path id="CMMI12-74" d="M 1286 2566 
L 1875 2566 
C 1997 2566 2061 2566 2061 2681 
C 2061 2752 2022 2752 1894 2752 
L 1331 2752 
L 1568 3664 
C 1594 3752 1594 3764 1594 3808 
C 1594 3910 1510 3968 1427 3968 
C 1376 3968 1229 3948 1178 3746 
L 928 2752 
L 326 2752 
C 198 2752 141 2752 141 2630 
C 141 2566 186 2566 307 2566 
L 877 2566 
L 454 881 
C 403 657 384 593 384 510 
C 384 210 595 -64 954 -64 
C 1600 -64 1946 868 1946 913 
C 1946 951 1920 970 1882 970 
C 1869 970 1843 970 1830 944 
C 1824 938 1818 932 1773 830 
C 1638 510 1344 64 973 64 
C 781 64 768 223 768 364 
C 768 370 768 491 787 568 
L 1286 2566 
z
" transform="scale(0.015625)"/>
       <path id="CMMI12-3d" d="M 2746 4563 
C 2746 4569 2784 4665 2784 4678 
C 2784 4755 2720 4800 2669 4800 
C 2637 4800 2579 4800 2528 4659 
L 384 -1364 
C 384 -1370 346 -1466 346 -1479 
C 346 -1556 410 -1600 461 -1600 
C 499 -1600 557 -1594 602 -1460 
L 2746 4563 
z
" transform="scale(0.015625)"/>
       <path id="CMMI12-4c" d="M 2349 3860 
C 2406 4102 2426 4166 2989 4166 
C 3162 4166 3206 4166 3206 4287 
C 3206 4352 3136 4352 3110 4352 
C 2982 4352 2835 4339 2707 4339 
L 1850 4339 
C 1728 4339 1587 4352 1466 4352 
C 1414 4352 1344 4352 1344 4230 
C 1344 4166 1402 4166 1498 4166 
C 1888 4166 1888 4115 1888 4045 
C 1888 4032 1888 3994 1862 3898 
L 998 472 
C 941 249 928 185 480 185 
C 358 185 294 185 294 70 
C 294 0 333 0 461 0 
L 3328 0 
C 3469 0 3475 6 3520 121 
L 4013 1478 
C 4026 1510 4038 1548 4038 1567 
C 4038 1605 4006 1631 3974 1631 
C 3968 1631 3936 1631 3923 1605 
C 3910 1599 3910 1586 3859 1465 
C 3654 905 3366 185 2285 185 
L 1670 185 
C 1581 185 1568 185 1530 191 
C 1459 198 1453 211 1453 262 
C 1453 306 1466 344 1478 402 
L 2349 3860 
z
" transform="scale(0.015625)"/>
      </defs>
      <use xlink:href="#CMR17-32" transform="scale(0.996264)"/>
      <use xlink:href="#CMMI12-76" transform="translate(45.690477 0)scale(0.996264)"/>
      <use xlink:href="#CMMI12-74" transform="translate(96.425651 0)scale(0.996264)"/>
      <use xlink:href="#CMMI12-3d" transform="translate(131.651981 0)scale(0.996264)"/>
      <use xlink:href="#CMMI12-4c" transform="translate(180.426899 0)scale(0.996264)"/>
     </g>
    </g>
   </g>
   <g id="matplotlib.axis_2">
    <g id="ytick_1">
     <g id="line2d_7">
      <defs>
       <path id="mddcd6e7cec" d="M 0 0 
L -2 0 
" style="stroke: #000000; stroke-width: 0.35"/>
      </defs>
      <g>
       <use xlink:href="#mddcd6e7cec" x="30.744984" y="117.350791" style="stroke: #000000; stroke-width: 0.35"/>
      </g>
     </g>
     <g id="text_8">
      <!-- $\mathdefault{0.00}$ -->
      <g transform="translate(10.690112 120.118192)scale(0.08 -0.08)">
       <defs>
        <path id="CMMI12-3a" d="M 1178 307 
C 1178 492 1024 620 870 620 
C 685 620 557 467 557 313 
C 557 128 710 0 864 0 
C 1050 0 1178 153 1178 307 
z
" transform="scale(0.015625)"/>
       </defs>
       <use xlink:href="#CMR17-30" transform="scale(0.996264)"/>
       <use xlink:href="#CMMI12-3a" transform="translate(45.690477 0)scale(0.996264)"/>
       <use xlink:href="#CMR17-30" transform="translate(72.787654 0)scale(0.996264)"/>
       <use xlink:href="#CMR17-30" transform="translate(118.478131 0)scale(0.996264)"/>
      </g>
     </g>
    </g>
    <g id="ytick_2">
     <g id="line2d_8">
      <g>
       <use xlink:href="#mddcd6e7cec" x="30.744984" y="84.497047" style="stroke: #000000; stroke-width: 0.35"/>
      </g>
     </g>
     <g id="text_9">
      <!-- $\mathdefault{0.02}$ -->
      <g transform="translate(10.690112 87.264448)scale(0.08 -0.08)">
       <use xlink:href="#CMR17-30" transform="scale(0.996264)"/>
       <use xlink:href="#CMMI12-3a" transform="translate(45.690477 0)scale(0.996264)"/>
       <use xlink:href="#CMR17-30" transform="translate(72.787654 0)scale(0.996264)"/>
       <use xlink:href="#CMR17-32" transform="translate(118.478131 0)scale(0.996264)"/>
      </g>
     </g>
    </g>
    <g id="ytick_3">
     <g id="line2d_9">
      <g>
       <use xlink:href="#mddcd6e7cec" x="30.744984" y="51.643303" style="stroke: #000000; stroke-width: 0.35"/>
      </g>
     </g>
     <g id="text_10">
      <!-- $\mathdefault{0.04}$ -->
      <g transform="translate(10.690112 54.410704)scale(0.08 -0.08)">
       <use xlink:href="#CMR17-30" transform="scale(0.996264)"/>
       <use xlink:href="#CMMI12-3a" transform="translate(45.690477 0)scale(0.996264)"/>
       <use xlink:href="#CMR17-30" transform="translate(72.787654 0)scale(0.996264)"/>
       <use xlink:href="#CMR17-34" transform="translate(118.478131 0)scale(0.996264)"/>
      </g>
     </g>
    </g>
    <g id="ytick_4">
     <g id="line2d_10">
      <g>
       <use xlink:href="#mddcd6e7cec" x="30.744984" y="18.789559" style="stroke: #000000; stroke-width: 0.35"/>
      </g>
     </g>
     <g id="text_11">
      <!-- $\mathdefault{0.06}$ -->
      <g transform="translate(10.690112 21.55696)scale(0.08 -0.08)">
       <defs>
        <path id="CMR17-36" d="M 678 2198 
C 678 3712 1395 4076 1811 4076 
C 1946 4076 2272 4049 2400 3782 
C 2298 3782 2106 3782 2106 3558 
C 2106 3385 2246 3328 2336 3328 
C 2394 3328 2566 3353 2566 3571 
C 2566 3987 2246 4224 1805 4224 
C 1043 4224 243 3411 243 2011 
C 243 257 966 -128 1478 -128 
C 2099 -128 2688 431 2688 1295 
C 2688 2101 2170 2688 1517 2688 
C 1126 2688 838 2430 678 1979 
L 678 2198 
z
M 1478 25 
C 691 25 691 1212 691 1450 
C 691 1914 909 2585 1504 2585 
C 1613 2585 1926 2585 2138 2140 
C 2253 1889 2253 1624 2253 1302 
C 2253 954 2253 696 2118 438 
C 1978 173 1773 25 1478 25 
z
" transform="scale(0.015625)"/>
       </defs>
       <use xlink:href="#CMR17-30" transform="scale(0.996264)"/>
       <use xlink:href="#CMMI12-3a" transform="translate(45.690477 0)scale(0.996264)"/>
       <use xlink:href="#CMR17-30" transform="translate(72.787654 0)scale(0.996264)"/>
       <use xlink:href="#CMR17-36" transform="translate(118.478131 0)scale(0.996264)"/>
      </g>
     </g>
    </g>
    <g id="text_12">
     <!-- $S_1(t)-\ln(N)$ -->
     <g transform="translate(6.697584 84.290284)rotate(-90)scale(0.08 -0.08)">
      <defs>
       <path id="CMMI12-53" d="M 4064 4422 
C 4064 4480 4019 4480 4006 4480 
C 3981 4480 3974 4473 3898 4377 
C 3859 4332 3597 4002 3590 3996 
C 3379 4409 2957 4480 2688 4480 
C 1875 4480 1139 3742 1139 3024 
C 1139 2547 1427 2268 1741 2160 
C 1811 2134 2189 2033 2381 1988 
C 2707 1899 2790 1874 2925 1734 
C 2950 1702 3078 1556 3078 1258 
C 3078 667 2528 57 1888 57 
C 1363 57 781 279 781 991 
C 781 1112 806 1264 826 1328 
C 826 1347 832 1378 832 1391 
C 832 1417 819 1448 768 1448 
C 710 1448 704 1436 678 1328 
L 352 25 
C 352 19 326 -64 326 -71 
C 326 -128 378 -128 390 -128 
C 416 -128 422 -122 499 -26 
L 794 356 
C 947 127 1280 -128 1875 -128 
C 2701 -128 3456 667 3456 1461 
C 3456 1728 3392 1963 3149 2198 
C 3014 2331 2899 2363 2310 2516 
C 1882 2630 1824 2649 1709 2751 
C 1600 2859 1517 3011 1517 3227 
C 1517 3761 2061 4307 2669 4307 
C 3296 4307 3590 3926 3590 3322 
C 3590 3157 3558 2986 3558 2960 
C 3558 2903 3610 2903 3629 2903 
C 3686 2903 3693 2922 3718 3024 
L 4064 4422 
z
" transform="scale(0.015625)"/>
       <path id="CMR17-28" d="M 1958 -1562 
C 1958 -1556 1958 -1543 1939 -1524 
C 1645 -1223 858 -403 858 1596 
C 858 3595 1632 4408 1946 4729 
C 1946 4735 1958 4748 1958 4767 
C 1958 4787 1939 4800 1914 4800 
C 1843 4800 1299 4325 986 3620 
C 666 2909 576 2218 576 1603 
C 576 1141 621 360 1005 -467 
C 1312 -1133 1837 -1600 1914 -1600 
C 1946 -1600 1958 -1588 1958 -1562 
z
" transform="scale(0.015625)"/>
       <path id="CMR17-29" d="M 1683 1596 
C 1683 2057 1638 2839 1254 3665 
C 947 4332 422 4800 346 4800 
C 326 4800 301 4793 301 4761 
C 301 4748 307 4742 314 4729 
C 621 4408 1402 3595 1402 1603 
C 1402 -396 627 -1210 314 -1530 
C 307 -1543 301 -1549 301 -1562 
C 301 -1594 326 -1600 346 -1600 
C 416 -1600 960 -1127 1274 -422 
C 1594 289 1683 981 1683 1596 
z
" transform="scale(0.015625)"/>
       <path id="CMSY10-0" d="M 4218 1472 
C 4326 1472 4442 1472 4442 1600 
C 4442 1728 4326 1728 4218 1728 
L 755 1728 
C 646 1728 531 1728 531 1600 
C 531 1472 646 1472 755 1472 
L 4218 1472 
z
" transform="scale(0.015625)"/>
       <path id="CMR17-6c" d="M 979 4416 
L 218 4345 
L 218 4179 
C 595 4179 653 4141 653 3835 
L 653 439 
C 653 198 627 166 218 166 
L 218 0 
C 371 12 653 12 813 12 
C 979 12 1261 12 1414 0 
L 1414 166 
C 1005 166 979 191 979 439 
L 979 4416 
z
" transform="scale(0.015625)"/>
       <path id="CMR17-6e" d="M 2656 1954 
C 2656 2282 2592 2816 1837 2816 
C 1331 2816 1069 2424 973 2166 
L 966 2166 
L 966 2816 
L 211 2745 
L 211 2578 
C 589 2578 646 2540 646 2231 
L 646 443 
C 646 198 621 166 211 166 
L 211 0 
C 365 12 646 12 813 12 
C 979 12 1267 12 1421 0 
L 1421 166 
C 1011 166 986 192 986 443 
L 986 1678 
C 986 2269 1344 2713 1792 2713 
C 2266 2713 2317 2289 2317 1980 
L 2317 443 
C 2317 198 2291 166 1882 166 
L 1882 0 
C 2035 12 2317 12 2483 12 
C 2650 12 2938 12 3091 0 
L 3091 166 
C 2682 166 2656 192 2656 443 
L 2656 1954 
z
" transform="scale(0.015625)"/>
       <path id="CMMI12-4e" d="M 4736 3682 
C 4806 3956 4909 4147 5395 4166 
C 5414 4166 5491 4172 5491 4281 
C 5491 4352 5434 4352 5408 4352 
C 5280 4352 4954 4339 4826 4339 
L 4518 4339 
C 4429 4339 4314 4352 4224 4352 
C 4186 4352 4109 4352 4109 4230 
C 4109 4166 4160 4166 4205 4166 
C 4589 4153 4614 4007 4614 3892 
C 4614 3835 4608 3816 4589 3726 
L 3866 854 
L 2496 4243 
C 2451 4345 2445 4352 2304 4352 
L 1523 4352 
C 1395 4352 1338 4352 1338 4230 
C 1338 4166 1382 4166 1504 4166 
C 1536 4166 1914 4166 1914 4109 
C 1914 4096 1901 4045 1894 4026 
L 1043 650 
C 966 338 813 204 390 185 
C 358 185 294 179 294 64 
C 294 0 358 0 378 0 
C 506 0 832 12 960 12 
L 1267 12 
C 1357 12 1466 0 1555 0 
C 1600 0 1670 0 1670 121 
C 1670 179 1606 185 1581 185 
C 1370 191 1165 230 1165 459 
C 1165 510 1178 567 1190 618 
L 2054 4026 
C 2093 3962 2093 3949 2118 3892 
L 3642 115 
C 3674 38 3686 0 3744 0 
C 3808 0 3814 19 3840 128 
L 4736 3682 
z
" transform="scale(0.015625)"/>
      </defs>
      <use xlink:href="#CMMI12-53" transform="scale(0.996264)"/>
      <use xlink:href="#CMR17-31" transform="translate(59.994488 -14.943915)scale(0.697382)"/>
      <use xlink:href="#CMR17-28" transform="translate(92.475802 0)scale(0.996264)"/>
      <use xlink:href="#CMMI12-74" transform="translate(127.75657 0)scale(0.996264)"/>
      <use xlink:href="#CMR17-29" transform="translate(162.9829 0)scale(0.996264)"/>
      <use xlink:href="#CMSY10-0" transform="translate(220.402875 0)scale(0.996264)"/>
      <use xlink:href="#CMR17-6c" transform="translate(320.029549 0)scale(0.996264)"/>
      <use xlink:href="#CMR17-6e" transform="translate(344.900608 0)scale(0.996264)"/>
      <use xlink:href="#CMR17-28" transform="translate(395.795977 0)scale(0.996264)"/>
      <use xlink:href="#CMMI12-4e" transform="translate(431.076745 0)scale(0.996264)"/>
      <use xlink:href="#CMR17-29" transform="translate(519.598518 0)scale(0.996264)"/>
     </g>
    </g>
   </g>
   <g id="line2d_11">
    <path d="M 34.246139 117.350791 
L 37.166365 108.95158 
L 40.086592 91.199427 
L 43.006819 71.013357 
L 45.927046 53.969862 
L 48.847272 44.184063 
L 51.767499 43.867848 
L 54.687726 53.09118 
L 57.607953 69.774737 
L 60.528179 89.913739 
L 63.448406 108.010777 
L 66.368633 117.292324 
L 69.28886 109.855307 
L 72.209086 92.47546 
L 75.129313 72.265377 
L 78.04954 54.878998 
L 80.969767 44.539893 
L 83.889993 43.591539 
L 86.81022 52.243791 
L 89.730447 68.550815 
L 92.650674 88.620011 
L 95.5709 107.034824 
L 98.491127 117.140357 
L 101.411354 110.719994 
L 104.331581 93.740208 
L 107.251807 73.529477 
L 110.172034 55.817716 
L 113.092261 44.935011 
L 116.012488 43.355388 
L 118.932714 51.428501 
L 121.852941 67.34286 
L 124.773168 87.319839 
L 127.693395 106.025613 
L 130.613621 116.908285 
L 133.533848 111.543624 
L 136.454075 94.992025 
L 139.374302 74.804311 
L 142.294528 56.785111 
L 145.214755 45.369056 
L 148.134982 43.15961 
L 151.055209 50.646083 
L 153.975435 66.152119 
L 156.895662 86.014805 
L 159.815889 104.985002 
L 162.736116 116.603402 
L 165.656342 112.324125 
L 168.576569 96.229252 
L 171.496796 76.08851 
L 174.417023 57.780249 
L 177.337249 45.841628 
L 180.257476 43.004385 
L 183.177703 49.897275 
L 186.09793 64.97981 
L 189.018156 84.706472 
L 191.938383 103.914826 
L 194.85861 116.230948 
L 197.778836 113.05935 
L 200.699063 97.45021 
L 203.61929 77.380682 
L 206.539517 58.80216 
" clip-path="url(#p48ea7553da)" style="fill: none; stroke: #9e0142; stroke-linecap: round"/>
   </g>
   <g id="line2d_12">
    <path d="M 34.246139 117.350791 
L 35.706252 110.69599 
L 37.166365 96.003222 
L 38.626479 77.662846 
L 40.086592 59.081999 
L 41.546706 42.904594 
L 43.006819 30.857983 
L 44.466932 23.678933 
L 45.927046 21.165758 
L 47.387159 22.345709 
L 48.847272 25.729507 
L 50.307386 29.614032 
L 51.767499 32.414277 
L 53.227613 33.202512 
L 54.687726 32.334643 
L 56.147839 31.05767 
L 57.607953 30.827007 
L 59.068066 32.978111 
L 60.528179 38.490709 
L 61.988293 47.785677 
L 63.448406 60.568029 
L 64.90852 75.727036 
L 66.368633 91.295645 
L 67.828746 104.425235 
L 69.28886 111.200779 
L 70.748973 108.190658 
L 72.209086 96.523352 
L 73.6692 79.519254 
L 75.129313 60.561425 
L 76.589427 42.58998 
L 78.04954 27.912484 
L 79.509653 18.008611 
L 80.969767 13.42466 
L 82.42988 13.792352 
L 83.889993 17.972242 
L 85.350107 24.302478 
L 86.81022 30.90996 
L 88.270334 36.073609 
L 89.730447 38.9974 
L 91.19056 40.409651 
L 92.650674 41.658622 
L 94.110787 44.046367 
L 95.5709 48.55838 
L 97.031014 55.665111 
L 98.491127 65.195425 
L 99.951241 76.283529 
L 101.411354 87.368047 
L 102.871467 96.235797 
L 104.331581 100.363876 
L 105.791694 98.192943 
L 107.251807 89.882645 
L 108.711921 76.688245 
L 110.172034 60.648994 
L 111.632147 44.070323 
L 113.092261 29.086377 
L 114.552374 17.427773 
L 116.012488 10.254939 
L 117.472601 8.046168 
L 118.932714 10.560374 
L 120.392828 16.889403 
L 121.852941 25.60317 
L 123.313054 34.97435 
L 124.773168 43.293909 
L 126.233281 49.506557 
L 127.693395 53.840753 
L 129.153508 57.268467 
L 130.613621 60.819384 
L 132.073735 65.251296 
L 133.533848 70.827491 
L 134.993961 77.183701 
L 136.454075 83.321344 
L 137.914188 87.799804 
L 139.374302 89.225474 
L 140.834415 86.80286 
L 142.294528 80.428532 
L 143.754642 70.522305 
L 145.214755 58.032255 
L 146.674868 44.380186 
L 148.134982 31.139957 
L 149.595095 19.770673 
L 151.055209 11.483556 
L 152.515322 7.151026 
L 153.975435 7.224875 
L 155.435549 11.668274 
L 156.895662 19.919441 
L 158.355775 30.908322 
L 159.815889 43.144912 
L 161.276002 54.906753 
L 162.736116 64.639548 
L 164.196229 71.581047 
L 165.656342 75.868991 
L 167.116456 78.084052 
L 168.576569 78.912534 
L 170.036682 78.9409 
L 171.496796 78.515809 
L 172.956909 77.679118 
L 174.417023 76.17984 
L 175.877136 73.560062 
L 177.337249 69.298381 
L 178.797363 62.97576 
L 180.257476 54.464822 
L 181.717589 44.187048 
L 183.177703 33.19759 
L 184.637816 22.847279 
L 186.09793 14.43674 
L 187.558043 9.055593 
L 189.018156 7.49998 
L 190.47827 10.208376 
L 191.938383 17.199653 
L 193.398496 28.015279 
L 194.85861 41.680845 
L 196.318723 56.711083 
L 197.778836 71.190347 
L 199.23895 83.017084 
L 200.699063 90.494423 
L 202.159177 92.8786 
L 203.61929 90.393322 
L 205.079403 84.292886 
L 206.539517 76.544713 
L 207.99963 68.982258 
" clip-path="url(#p48ea7553da)" style="fill: none; stroke: #e95c47; stroke-linecap: round"/>
   </g>
   <g id="line2d_13">
    <path d="M 34.246139 117.350791 
L 35.219548 110.892639 
L 36.192957 96.591938 
L 39.113183 44.207418 
L 40.086592 31.900177 
L 41.060001 24.165441 
L 42.03341 20.863213 
L 43.006819 21.143946 
L 43.980228 23.699978 
L 44.953637 27.064988 
L 45.927046 29.934569 
L 46.900455 31.49757 
L 47.873864 31.616156 
L 48.847272 30.641511 
L 50.79409 27.543361 
L 51.767499 26.304145 
L 52.740908 25.575512 
L 53.714317 25.3811 
L 54.687726 25.656425 
L 55.661135 26.310781 
L 56.634544 27.253007 
L 58.581362 29.621822 
L 60.528179 32.242083 
L 61.501588 33.99442 
L 62.474997 36.673916 
L 63.448406 40.889248 
L 64.421815 47.142297 
L 65.395224 55.649727 
L 67.342042 77.914356 
L 68.315451 89.369903 
L 69.28886 98.345423 
L 70.262269 102.131909 
L 71.235677 99.028692 
L 72.209086 89.770972 
L 73.182495 76.181856 
L 75.129313 44.611474 
L 76.102722 30.779873 
L 77.076131 20.309766 
L 78.04954 13.941996 
L 79.022949 11.712944 
L 79.996358 13.020053 
L 80.969767 16.780592 
L 82.916584 26.414389 
L 83.889993 30.081673 
L 84.863402 32.27581 
L 85.836811 33.112859 
L 86.81022 32.997701 
L 87.783629 32.357273 
L 88.757038 31.465849 
L 89.730447 30.408927 
L 92.650674 26.522087 
L 93.624083 25.815424 
L 94.597491 26.290702 
L 95.5709 28.53442 
L 96.544309 32.917627 
L 97.517718 39.452953 
L 98.491127 47.741332 
L 101.411354 74.954713 
L 102.384763 81.881915 
L 103.358172 86.548478 
L 104.331581 88.488524 
L 105.30499 87.517156 
L 106.278398 83.826994 
L 107.251807 77.889228 
L 108.225216 70.213659 
L 110.172034 51.319569 
L 112.118852 30.738159 
L 113.092261 21.597481 
L 114.06567 14.499982 
L 115.039079 10.203132 
L 116.012488 9.040927 
L 116.985897 10.853656 
L 117.959305 15.021818 
L 120.879532 31.664015 
L 121.852941 35.492972 
L 122.82635 37.688349 
L 123.799759 38.335929 
L 124.773168 37.719483 
L 125.746577 36.184019 
L 128.666804 29.708154 
L 129.640212 28.443064 
L 130.613621 28.621133 
L 131.58703 30.879632 
L 132.560439 35.697187 
L 133.533848 43.228947 
L 134.507257 53.171237 
L 137.427484 86.725579 
L 138.400893 93.738548 
L 139.374302 96.022643 
L 140.34771 93.043678 
L 141.321119 85.444869 
L 143.267937 63.128314 
L 144.241346 51.835221 
L 145.214755 41.955632 
L 146.188164 33.933926 
L 147.161573 27.751468 
L 148.134982 23.072705 
L 149.108391 19.441188 
L 150.0818 16.536576 
L 151.055209 14.397093 
L 152.028617 13.343703 
L 153.002026 13.722362 
L 153.975435 15.714281 
L 154.948844 19.22757 
L 156.895662 28.96559 
L 157.869071 33.786209 
L 158.84248 37.676788 
L 159.815889 40.24129 
L 160.789298 41.374302 
L 161.762707 41.23783 
L 162.736116 40.200378 
L 164.682933 37.327859 
L 165.656342 36.414347 
L 166.629751 36.404612 
L 167.60316 37.707536 
L 168.576569 40.739081 
L 169.549978 45.867325 
L 170.523387 53.288176 
L 171.496796 62.85442 
L 173.443614 85.087727 
L 174.417023 94.393567 
L 175.390431 99.410453 
L 176.36384 98.258418 
L 177.337249 90.284562 
L 178.310658 76.748703 
L 181.230885 28.085922 
L 182.204294 16.397553 
L 183.177703 9.06828 
L 184.151112 6.220035 
L 185.124521 7.266724 
L 186.09793 11.081285 
L 188.044747 21.352012 
L 189.018156 25.472722 
L 189.991565 28.283443 
L 190.964974 29.908334 
L 191.938383 30.719529 
L 192.911792 31.199561 
L 193.885201 31.808637 
L 194.85861 32.86973 
L 195.832019 34.513643 
L 196.805428 36.693648 
L 200.699063 46.609081 
L 201.672472 48.262572 
L 204.592699 51.782585 
L 205.566108 53.916269 
L 206.539517 57.348348 
L 207.512926 62.339441 
L 208.486335 68.773197 
L 208.486335 68.773197 
" clip-path="url(#p48ea7553da)" style="fill: none; stroke: #fdbf6f; stroke-linecap: round"/>
   </g>
   <g id="line2d_14">
    <path d="M 34.246139 117.350791 
L 34.976195 110.955951 
L 35.706252 96.781837 
L 37.896422 44.643874 
L 38.626479 32.266643 
L 39.356536 24.369946 
L 40.086592 20.829499 
L 40.816649 20.827483 
L 41.546706 23.102251 
L 43.006819 29.016673 
L 43.736876 30.634548 
L 44.466932 30.913828 
L 45.196989 30.125557 
L 47.387159 26.136623 
L 48.117216 25.47286 
L 48.847272 25.359627 
L 49.577329 25.734426 
L 50.307386 26.468122 
L 52.497556 29.162573 
L 53.227613 29.659765 
L 53.957669 29.72961 
L 54.687726 29.333824 
L 55.417783 28.536172 
L 57.607953 25.536172 
L 58.338009 25.024403 
L 59.068066 24.987716 
L 59.798123 25.446226 
L 60.528179 26.366204 
L 61.258236 27.713633 
L 61.988293 29.500252 
L 62.718349 31.800571 
L 63.448406 34.746326 
L 64.178463 38.515038 
L 64.90852 43.310981 
L 65.638576 49.310876 
L 67.09869 64.904731 
L 68.558803 82.441296 
L 69.28886 89.452703 
L 70.018916 93.285524 
L 70.748973 92.699885 
L 71.47903 87.454683 
L 72.209086 78.256934 
L 73.6692 53.376112 
L 75.129313 29.620081 
L 75.85937 21.203273 
L 76.589427 15.974237 
L 77.319483 13.959422 
L 78.04954 14.681341 
L 78.779597 17.267633 
L 80.23971 23.821795 
L 80.969767 26.127433 
L 81.699823 27.41248 
L 82.42988 27.97951 
L 83.159937 28.34992 
L 83.889993 28.985413 
L 84.62005 30.083016 
L 86.080163 32.77215 
L 86.81022 33.346945 
L 87.540277 32.758077 
L 88.270334 30.880692 
L 90.460504 22.124872 
L 91.19056 20.596953 
L 91.920617 20.663923 
L 92.650674 22.339553 
L 93.38073 25.239071 
L 94.840844 31.8732 
L 95.5709 34.166029 
L 96.300957 35.308269 
L 97.031014 35.554876 
L 97.76107 35.528666 
L 98.491127 35.979254 
L 99.221184 37.58787 
L 99.951241 40.843876 
L 100.681297 45.978483 
L 101.411354 52.93809 
L 102.871467 70.648894 
L 103.601524 79.789599 
L 104.331581 87.501226 
L 105.061637 92.244432 
L 105.791694 92.692982 
L 106.521751 88.423192 
L 107.251807 79.961969 
L 108.711921 55.128155 
L 110.172034 29.921881 
L 110.902091 20.752924 
L 111.632147 15.032822 
L 112.362204 12.923649 
L 113.092261 13.987672 
L 113.822318 17.266013 
L 115.282431 25.214014 
L 116.012488 27.531245 
L 116.742544 28.009488 
L 117.472601 26.900388 
L 118.932714 23.192292 
L 119.662771 22.445502 
L 120.392828 23.248037 
L 121.122884 25.649012 
L 123.313054 36.501366 
L 124.043111 38.2825 
L 124.773168 37.929229 
L 125.503225 35.418312 
L 126.233281 31.293834 
L 127.693395 21.986671 
L 128.423451 18.786949 
L 129.153508 17.568691 
L 129.883565 18.678989 
L 130.613621 22.071851 
L 131.343678 27.322914 
L 133.533848 46.372103 
L 134.263905 51.380404 
L 134.993961 55.342334 
L 139.374302 74.883756 
L 140.104358 77.320687 
L 140.834415 78.172494 
L 141.564472 76.896338 
L 142.294528 73.290836 
L 143.024585 67.516001 
L 143.754642 59.997403 
L 147.404925 17.38483 
L 148.134982 12.232904 
L 148.865038 9.455787 
L 149.595095 9.264721 
L 150.325152 11.542967 
L 151.055209 15.787555 
L 152.515322 26.426633 
L 153.245379 30.556116 
L 153.975435 32.70041 
L 154.705492 32.693467 
L 155.435549 31.083337 
L 156.165605 28.86602 
L 156.895662 27.097606 
L 157.625719 26.567028 
L 158.355775 27.582456 
L 159.085832 29.887931 
L 159.815889 32.723586 
L 160.545945 35.037938 
L 161.276002 35.838852 
L 162.006059 34.601996 
L 162.736116 31.54269 
L 164.196229 23.860493 
L 164.926286 21.616163 
L 165.656342 21.61479 
L 166.386399 24.132908 
L 167.116456 28.907641 
L 170.036682 54.444647 
L 170.766739 59.03945 
L 172.226852 66.21109 
L 174.417023 76.229973 
L 175.147079 78.583905 
L 175.877136 79.302491 
L 176.607193 77.714379 
L 177.337249 73.486933 
L 178.067306 66.743206 
L 179.527419 48.27326 
L 180.987533 29.51333 
L 181.717589 22.246422 
L 182.447646 17.095973 
L 183.177703 14.183624 
L 183.907759 13.320736 
L 184.637816 14.077857 
L 185.367873 15.889321 
L 187.558043 22.400258 
L 188.2881 23.895055 
L 189.018156 24.979445 
L 191.208326 27.559548 
L 191.938383 28.757344 
L 193.398496 31.816708 
L 194.85861 34.767883 
L 195.588666 35.669513 
L 196.318723 35.899219 
L 197.04878 35.294825 
L 197.778836 33.798133 
L 198.508893 31.512242 
L 199.969007 25.979405 
L 200.699063 23.880877 
L 201.42912 23.151253 
L 202.159177 24.432119 
L 202.889233 28.157602 
L 203.61929 34.420951 
L 204.349347 42.879355 
L 206.539517 71.579258 
L 207.269573 77.945425 
L 207.99963 81.126025 
L 208.729687 81.070613 
L 208.729687 81.070613 
" clip-path="url(#p48ea7553da)" style="fill: none; stroke: #bdc97b; stroke-linecap: round"/>
   </g>
   <g id="line2d_15">
    <path d="M 34.246139 117.350791 
L 34.830184 110.984472 
L 35.414229 96.867489 
L 37.166365 44.843405 
L 37.750411 32.436784 
L 38.334456 24.469779 
L 38.918502 20.824905 
L 39.502547 20.698154 
L 40.086592 22.847846 
L 41.254683 28.610676 
L 41.838728 30.238641 
L 42.422774 30.576972 
L 43.006819 29.87779 
L 44.758955 26.11556 
L 45.343 25.425685 
L 45.927046 25.20829 
L 46.511091 25.412846 
L 47.095136 25.946448 
L 49.431318 29.014866 
L 50.015363 29.359599 
L 50.599408 29.33559 
L 51.183454 28.950093 
L 52.351545 27.511321 
L 52.93559 26.779699 
L 53.519635 26.245987 
L 54.103681 26.000157 
L 54.687726 26.057754 
L 55.271771 26.36686 
L 57.023907 27.777111 
L 57.607953 28.068162 
L 58.191998 28.15649 
L 58.776043 28.025269 
L 59.360089 27.696857 
L 61.112225 26.305972 
L 61.69627 26.107911 
L 62.280315 26.279757 
L 62.864361 26.963557 
L 63.448406 28.294259 
L 64.032452 30.404172 
L 64.616497 33.423815 
L 65.200542 37.468157 
L 65.784588 42.611703 
L 66.952678 56.116909 
L 69.28886 86.716598 
L 69.872905 90.408866 
L 70.45695 90.375019 
L 71.040996 86.287125 
L 71.625041 78.61128 
L 72.793132 56.55054 
L 73.961222 33.800673 
L 74.545268 24.971135 
L 75.129313 18.79208 
L 75.713359 15.494997 
L 76.297404 14.89559 
L 76.881449 16.430501 
L 78.633585 25.033469 
L 79.217631 26.601179 
L 79.801676 27.05808 
L 80.385721 26.769809 
L 80.969767 26.317337 
L 81.553812 26.257172 
L 82.137857 26.929524 
L 82.721903 28.350236 
L 83.889993 31.93379 
L 84.474039 32.941861 
L 85.058084 32.806229 
L 85.642129 31.463855 
L 87.394265 24.498874 
L 87.978311 23.127883 
L 88.562356 22.83471 
L 89.146402 23.560093 
L 90.898538 28.03272 
L 91.482583 28.902004 
L 92.066628 29.178431 
L 92.650674 29.016691 
L 93.818764 28.341652 
L 96.154946 27.489361 
L 96.738991 27.072292 
L 97.323036 26.80263 
L 97.907082 27.079114 
L 98.491127 28.350553 
L 99.075172 30.973928 
L 99.659218 35.090966 
L 100.827309 46.976355 
L 102.579445 66.162493 
L 103.16349 71.087379 
L 103.747535 74.919484 
L 104.331581 77.536476 
L 104.915626 78.811536 
L 105.499671 78.620532 
L 106.083717 76.830362 
L 106.667762 73.30868 
L 107.251807 68.023109 
L 108.419898 53.054545 
L 110.172034 27.767446 
L 110.756079 21.300683 
L 111.340125 16.70922 
L 111.92417 14.195165 
L 112.508216 13.693426 
L 113.092261 14.893867 
L 113.676306 17.294484 
L 114.844397 23.2356 
L 115.428442 25.649164 
L 116.012488 27.229814 
L 116.596533 27.946351 
L 117.180578 28.008414 
L 117.764624 27.789003 
L 118.348669 27.709214 
L 118.932714 28.111432 
L 119.51676 29.148721 
L 121.268896 33.773276 
L 121.852941 34.138568 
L 122.436986 33.167492 
L 123.021032 30.868652 
L 124.773168 21.572136 
L 125.357213 20.150359 
L 125.941259 20.370356 
L 126.525304 22.146989 
L 128.27744 30.653101 
L 128.861485 31.961553 
L 129.445531 31.816872 
L 130.029576 30.52 
L 131.197667 27.28987 
L 131.781712 26.796567 
L 132.365757 27.607178 
L 132.949803 29.7 
L 134.117893 36.294763 
L 137.03812 54.49808 
L 138.206211 65.186266 
L 139.374302 76.643208 
L 139.958347 80.582516 
L 140.542392 81.996091 
L 141.126438 80.274026 
L 141.710483 75.431754 
L 142.294528 68.060101 
L 144.63071 32.769475 
L 145.214755 26.56309 
L 145.7988 22.154201 
L 146.382846 19.467558 
L 146.966891 18.262649 
L 147.550936 18.216041 
L 148.134982 18.990197 
L 149.303073 21.732753 
L 149.887118 23.087858 
L 150.471163 24.052577 
L 151.055209 24.438756 
L 151.639254 24.221669 
L 152.807345 22.85915 
L 153.39139 22.501431 
L 153.975435 22.915425 
L 154.559481 24.370209 
L 155.143526 26.900314 
L 156.895662 37.059006 
L 157.479707 38.966045 
L 158.063753 38.990631 
L 158.647798 36.958182 
L 159.231843 33.254224 
L 160.399934 24.205672 
L 160.983979 20.66475 
L 161.568025 18.632503 
L 162.15207 18.313484 
L 162.736116 19.548761 
L 163.320161 21.896907 
L 165.072297 29.978684 
L 165.656342 31.665295 
L 166.240388 32.693425 
L 167.992524 34.631321 
L 168.576569 35.965781 
L 169.160614 37.952463 
L 169.74466 40.59548 
L 170.91275 47.459644 
L 173.248932 62.898155 
L 174.417023 68.947407 
L 175.001068 71.149918 
L 175.585113 72.631641 
L 176.169159 73.192867 
L 176.753204 72.560028 
L 177.337249 70.395495 
L 177.921295 66.35985 
L 178.50534 60.254131 
L 179.673431 42.688342 
L 180.841521 23.030582 
L 181.425567 15.107659 
L 182.009612 9.776782 
L 182.593657 7.577073 
L 183.177703 8.534356 
L 183.761748 12.149146 
L 185.513884 28.368077 
L 186.09793 31.725381 
L 186.681975 32.968279 
L 187.26602 32.259098 
L 187.850066 30.140319 
L 189.602202 22.188059 
L 190.186247 20.86368 
L 190.770292 20.755308 
L 191.354338 21.967989 
L 191.938383 24.453564 
L 193.106474 32.134656 
L 193.690519 36.262101 
L 194.274564 39.585187 
L 194.85861 41.312992 
L 195.442655 40.853751 
L 196.0267 38.035582 
L 196.610746 33.24147 
L 197.778836 21.511899 
L 198.362882 16.841874 
L 198.946927 14.21437 
L 199.530973 14.099636 
L 200.115018 16.499324 
L 200.699063 20.964625 
L 202.451199 38.051653 
L 203.035245 42.090483 
L 203.61929 44.663371 
L 204.203335 46.086339 
L 205.371426 47.856468 
L 205.955471 49.304754 
L 206.539517 51.541977 
L 207.707607 58.140425 
L 208.875698 65.359378 
L 208.875698 65.359378 
" clip-path="url(#p48ea7553da)" style="fill: none; stroke: #bfe5a0; stroke-linecap: round"/>
   </g>
   <g id="line2d_16">
    <path d="M 34.246139 117.350791 
L 34.732843 110.999777 
L 35.219548 96.91349 
L 36.679661 44.951315 
L 37.166365 32.529498 
L 37.65307 24.525463 
L 38.139774 20.825299 
L 38.626479 20.632294 
L 39.113183 22.715302 
L 40.086592 28.395411 
L 40.573297 30.026412 
L 41.060001 30.394861 
L 41.546706 29.742708 
L 43.006819 26.089786 
L 43.493523 25.394547 
L 43.980228 25.147702 
L 44.466932 25.301349 
L 44.953637 25.766078 
L 46.900455 28.575668 
L 47.387159 28.927434 
L 47.873864 28.949291 
L 48.360568 28.63946 
L 49.333977 27.400126 
L 49.820681 26.778385 
L 50.307386 26.354848 
L 50.79409 26.212965 
L 51.280795 26.358172 
L 52.254204 27.205902 
L 53.227613 28.061462 
L 53.714317 28.286475 
L 54.201021 28.342072 
L 54.687726 28.241365 
L 55.661135 27.693224 
L 57.121248 26.610692 
L 57.607953 26.369864 
L 58.094657 26.258329 
L 58.581362 26.2882 
L 59.554771 26.665996 
L 60.528179 27.094735 
L 61.501588 27.231524 
L 62.474997 27.194108 
L 62.961702 27.279693 
L 63.448406 27.574621 
L 63.935111 28.210068 
L 64.421815 29.331813 
L 64.90852 31.092065 
L 65.395224 33.642339 
L 65.881928 37.12646 
L 66.368633 41.664068 
L 67.342042 54.018819 
L 69.28886 83.560681 
L 69.775564 87.728824 
L 70.262269 88.696816 
L 70.748973 86.031284 
L 71.235677 79.930528 
L 72.209086 60.446715 
L 73.6692 28.682115 
L 74.155904 21.295234 
L 74.642609 16.509469 
L 75.129313 14.416241 
L 75.616018 14.733615 
L 76.102722 16.850952 
L 77.562835 25.549136 
L 78.04954 26.919237 
L 78.536244 27.21418 
L 79.996358 26.110424 
L 80.483062 26.621155 
L 80.969767 27.825738 
L 81.943176 31.010334 
L 82.42988 31.980356 
L 82.916584 31.976366 
L 83.403289 30.917764 
L 85.350107 23.926274 
L 85.836811 23.779694 
L 86.323516 24.558054 
L 87.783629 28.670332 
L 88.270334 29.192812 
L 88.757038 28.990673 
L 90.217151 26.748972 
L 90.703856 26.535272 
L 91.19056 26.790029 
L 92.163969 27.901948 
L 92.650674 28.179413 
L 93.137378 28.011002 
L 93.624083 27.427184 
L 94.597491 25.930316 
L 95.084196 25.571866 
L 95.5709 25.692887 
L 96.057605 26.258303 
L 97.517718 28.706888 
L 98.977832 30.500997 
L 99.464536 31.717387 
L 99.951241 33.662162 
L 100.437945 36.440608 
L 101.411354 44.248153 
L 102.871467 59.239742 
L 104.331581 74.800092 
L 104.818285 78.69804 
L 105.30499 80.879941 
L 105.791694 80.678509 
L 106.278398 77.729017 
L 106.765103 72.094287 
L 107.738512 54.965475 
L 108.711921 35.919113 
L 109.198625 27.925264 
L 109.68533 21.784239 
L 110.172034 17.761055 
L 110.658739 15.833273 
L 111.145443 15.739642 
L 111.632147 17.049783 
L 113.578965 25.850311 
L 114.06567 26.723719 
L 114.552374 26.675083 
L 115.039079 25.884706 
L 116.012488 23.685699 
L 116.499192 23.23719 
L 116.985897 23.733497 
L 117.472601 25.297293 
L 118.44601 30.684518 
L 118.932714 33.416084 
L 119.419419 35.275241 
L 119.906123 35.752499 
L 120.392828 34.696548 
L 120.879532 32.365743 
L 122.339646 23.671082 
L 122.82635 22.079581 
L 123.313054 21.598417 
L 123.799759 22.130012 
L 124.286463 23.381508 
L 125.259872 26.475472 
L 125.746577 27.660786 
L 126.233281 28.415829 
L 126.719986 28.803595 
L 127.693395 29.067781 
L 129.153508 29.26152 
L 129.640212 29.060087 
L 130.126917 28.556071 
L 130.613621 27.722006 
L 132.073735 24.689734 
L 132.560439 24.478174 
L 133.047144 25.201189 
L 133.533848 27.046227 
L 134.020553 30.021143 
L 134.993961 38.38534 
L 135.96737 46.994056 
L 136.940779 53.063246 
L 138.400893 59.949572 
L 139.374302 66.415853 
L 140.34771 72.776975 
L 140.834415 74.283835 
L 141.321119 73.784782 
L 141.807824 70.950779 
L 142.294528 65.878479 
L 143.267937 51.187436 
L 144.728051 28.327419 
L 145.214755 22.556145 
L 145.70146 18.128446 
L 146.188164 15.15726 
L 146.674868 13.710413 
L 147.161573 13.79409 
L 147.648277 15.303637 
L 148.134982 17.969955 
L 149.595095 27.620029 
L 150.0818 29.282021 
L 150.568504 29.47083 
L 151.055209 28.308309 
L 152.515322 22.694592 
L 153.002026 22.368719 
L 153.488731 23.450568 
L 153.975435 25.818643 
L 155.435549 35.08362 
L 155.922253 36.550308 
L 156.408958 36.439514 
L 156.895662 34.832138 
L 157.869071 28.958279 
L 158.84248 23.346072 
L 159.329184 21.701735 
L 159.815889 21.051689 
L 160.302593 21.343009 
L 160.789298 22.386029 
L 162.736116 28.163226 
L 163.22282 28.774654 
L 163.709524 28.930918 
L 165.169638 28.590713 
L 165.656342 28.892726 
L 166.143047 29.526734 
L 167.116456 31.133209 
L 167.60316 31.583977 
L 168.089865 31.536354 
L 169.549978 30.16452 
L 170.036682 30.96105 
L 170.523387 33.333008 
L 171.010091 37.580263 
L 171.9835 51.048603 
L 172.956909 66.290668 
L 173.443614 71.960559 
L 173.930318 75.178989 
L 174.417023 75.686745 
L 174.903727 73.801528 
L 175.877136 66.028494 
L 176.850545 58.153357 
L 178.797363 45.081964 
L 179.770772 34.703271 
L 180.74418 23.32987 
L 181.230885 18.978132 
L 181.717589 16.2527 
L 182.204294 15.337194 
L 182.690998 16.073343 
L 183.177703 18.01603 
L 184.151112 23.042089 
L 184.637816 24.983049 
L 185.124521 26.090112 
L 185.611225 26.329928 
L 186.09793 25.870701 
L 187.558043 23.184625 
L 188.044747 22.754772 
L 188.531452 22.893112 
L 189.018156 23.731047 
L 189.504861 25.336254 
L 190.47827 30.547848 
L 191.451679 36.353102 
L 191.938383 38.217843 
L 192.425087 38.718957 
L 192.911792 37.600426 
L 193.398496 34.933431 
L 195.345314 19.336669 
L 195.832019 17.446339 
L 196.318723 17.210611 
L 196.805428 18.597965 
L 197.292132 21.279843 
L 198.752245 30.792849 
L 199.23895 32.290393 
L 199.725654 32.437531 
L 200.212359 31.498005 
L 201.185768 28.665728 
L 201.672472 27.966732 
L 202.159177 28.248023 
L 202.645881 29.536496 
L 204.592699 37.809743 
L 205.079403 38.927511 
L 206.052812 40.726935 
L 206.539517 42.406708 
L 207.026221 45.155912 
L 207.512926 49.092166 
L 208.973039 64.993956 
L 208.973039 64.993956 
" clip-path="url(#p48ea7553da)" style="fill: none; stroke: #54aead; stroke-linecap: round"/>
   </g>
   <g id="line2d_17">
    <path d="M 34.246139 117.350791 
L 34.695404 111.004895 
L 35.14467 96.928877 
L 36.492467 44.987534 
L 36.941733 32.56073 
L 37.390998 24.544427 
L 37.840264 20.825901 
L 38.28953 20.610856 
L 38.738795 22.671638 
L 39.637327 28.323876 
L 40.086592 29.95557 
L 40.535858 30.33378 
L 40.985124 29.696912 
L 42.33292 26.0824 
L 42.782186 25.386091 
L 43.231452 25.128295 
L 43.680717 25.262827 
L 44.129983 25.704154 
L 46.376311 28.807313 
L 46.825577 28.840507 
L 47.274843 28.547075 
L 48.173374 27.340018 
L 49.071905 26.297073 
L 49.521171 26.140752 
L 49.970437 26.265841 
L 50.868968 27.088307 
L 51.767499 27.987688 
L 52.216765 28.263671 
L 52.666031 28.380772 
L 53.115296 28.342141 
L 54.013827 27.885563 
L 55.81089 26.568791 
L 56.260156 26.44852 
L 56.709421 26.476911 
L 57.607953 26.875646 
L 58.506484 27.31643 
L 58.95575 27.403818 
L 59.854281 27.255418 
L 61.651344 26.643357 
L 62.549875 26.598707 
L 62.999141 26.705027 
L 63.448406 26.963582 
L 63.897672 27.457741 
L 64.346937 28.291338 
L 64.796203 29.580744 
L 65.245469 31.451487 
L 65.694734 34.039334 
L 66.144 37.485587 
L 67.042531 47.3906 
L 67.941063 61.144748 
L 69.28886 82.486879 
L 69.738125 86.592544 
L 70.187391 87.59625 
L 70.636657 85.052312 
L 71.085922 79.163183 
L 71.984454 60.393797 
L 73.332251 30.100426 
L 73.781516 23.088327 
L 74.230782 18.482866 
L 74.680048 16.320165 
L 75.129313 16.310459 
L 75.578579 17.886067 
L 76.926376 24.525956 
L 77.375641 25.352476 
L 77.824907 25.281399 
L 78.723438 24.282327 
L 79.172704 24.444852 
L 79.62197 25.507457 
L 80.071235 27.435227 
L 80.969767 32.198193 
L 81.419032 33.758992 
L 81.868298 34.031737 
L 82.317564 32.856934 
L 83.216095 27.605891 
L 83.665361 24.883932 
L 84.114626 22.987369 
L 84.563892 22.296898 
L 85.013158 22.851465 
L 85.462423 24.360184 
L 86.360954 28.071986 
L 86.81022 29.203203 
L 87.259486 29.492652 
L 87.708751 29.06578 
L 88.607283 27.577076 
L 89.056548 27.261816 
L 89.505814 27.439286 
L 90.404345 28.509566 
L 90.853611 28.705022 
L 91.302877 28.302339 
L 91.752142 27.300515 
L 92.650674 24.719422 
L 93.099939 24.005819 
L 93.549205 24.109339 
L 93.998471 25.06815 
L 95.346268 29.848878 
L 95.795533 30.529459 
L 96.244799 30.280785 
L 96.694065 29.232183 
L 97.592596 26.339328 
L 98.041861 25.415719 
L 98.491127 25.286848 
L 98.940393 26.074299 
L 99.389658 27.7485 
L 99.838924 30.199192 
L 100.737455 37.036597 
L 101.635987 46.229157 
L 103.433049 67.490353 
L 103.882315 71.355369 
L 104.331581 73.878179 
L 104.780846 74.903028 
L 105.230112 74.469447 
L 105.679378 72.770241 
L 106.128643 70.050641 
L 107.027175 62.125832 
L 107.925706 50.790943 
L 110.172034 16.947156 
L 110.6213 13.772797 
L 111.070565 12.85979 
L 111.519831 14.053207 
L 111.969097 16.845977 
L 113.316894 26.947625 
L 113.766159 28.556407 
L 114.215425 28.820531 
L 114.664691 27.996404 
L 115.563222 25.176336 
L 116.012488 24.290283 
L 116.461753 24.281617 
L 116.911019 25.276169 
L 117.360285 27.152341 
L 118.708082 33.829214 
L 119.157347 34.620395 
L 119.606613 34.089814 
L 120.055878 32.292105 
L 121.852941 22.116908 
L 122.302207 21.561578 
L 122.751472 22.24164 
L 123.650004 25.855875 
L 124.099269 27.637268 
L 124.548535 28.703719 
L 124.997801 28.859132 
L 125.447066 28.269267 
L 126.345598 26.686484 
L 126.794863 26.602556 
L 127.244129 27.246796 
L 128.591926 30.556973 
L 129.041192 30.489004 
L 129.490457 29.348786 
L 130.838254 22.982834 
L 131.28752 21.888997 
L 131.736785 22.099532 
L 132.186051 23.679267 
L 133.084582 29.679602 
L 133.983114 35.727899 
L 134.432379 37.585866 
L 134.881645 38.560744 
L 135.780176 39.299928 
L 136.229442 40.092774 
L 136.678708 41.775085 
L 137.127973 44.593569 
L 138.026505 53.524859 
L 139.374302 69.904234 
L 139.823567 74.03717 
L 140.272833 76.602338 
L 140.722099 77.221881 
L 141.171364 75.728789 
L 141.62063 72.168452 
L 142.069895 66.744214 
L 142.968427 51.654268 
L 144.316224 26.360879 
L 144.765489 19.913434 
L 145.214755 15.46612 
L 145.664021 13.316762 
L 146.113286 13.448052 
L 146.562552 15.507645 
L 148.359615 28.24991 
L 148.80888 29.052311 
L 149.258146 28.483684 
L 149.707412 26.953915 
L 150.605943 23.228898 
L 151.055209 21.962823 
L 151.504474 21.442606 
L 151.95374 21.736372 
L 152.403006 22.816698 
L 152.852271 24.601135 
L 153.750802 29.722879 
L 154.649334 35.180823 
L 155.098599 36.992889 
L 155.547865 37.559503 
L 155.997131 36.588114 
L 156.446396 34.104864 
L 158.243459 20.022419 
L 158.692725 18.910105 
L 159.14199 19.480544 
L 159.591256 21.475444 
L 160.939053 29.42589 
L 161.388319 30.481306 
L 161.837584 30.304403 
L 162.28685 29.229284 
L 163.185381 26.649053 
L 163.634647 26.130504 
L 164.083912 26.411807 
L 164.533178 27.361182 
L 165.431709 29.752853 
L 165.880975 30.335722 
L 166.330241 30.159816 
L 166.779506 29.279503 
L 167.678038 26.779288 
L 168.127303 26.090766 
L 168.576569 26.314625 
L 169.025835 27.661881 
L 169.4751 30.146225 
L 170.373632 37.681827 
L 171.721429 49.782912 
L 172.61996 55.205407 
L 173.967757 61.847339 
L 175.315554 69.902348 
L 175.764819 71.3827 
L 176.214085 71.179067 
L 176.663351 68.816283 
L 177.112616 64.204704 
L 178.011148 50.076222 
L 178.909679 35.049134 
L 179.358945 29.231188 
L 179.80821 25.114597 
L 180.257476 22.674594 
L 180.706742 21.568672 
L 181.156007 21.262896 
L 181.605273 21.20618 
L 182.054539 21.010486 
L 183.402336 19.809128 
L 183.851601 20.063839 
L 184.300867 20.947524 
L 186.09793 26.246004 
L 186.547195 26.361981 
L 186.996461 25.852997 
L 187.445726 25.085008 
L 187.894992 24.543378 
L 188.344258 24.671263 
L 188.793523 25.729518 
L 189.242789 27.709498 
L 190.590586 35.238705 
L 191.039852 36.394995 
L 191.489117 36.216799 
L 191.938383 34.758897 
L 192.836914 29.517038 
L 193.735446 24.310367 
L 194.184711 22.570404 
L 194.633977 21.588619 
L 195.083243 21.367487 
L 195.532508 21.842535 
L 195.981774 22.89803 
L 197.778836 28.766375 
L 198.228102 29.340818 
L 198.677368 29.201287 
L 199.126633 28.436932 
L 200.025165 26.333469 
L 200.47443 25.871796 
L 200.923696 26.282857 
L 201.372962 27.665323 
L 203.170024 35.825619 
L 203.61929 35.872637 
L 204.068556 34.69574 
L 204.967087 30.891014 
L 205.416353 29.956633 
L 205.865618 30.748304 
L 206.314884 33.751331 
L 206.76415 39.042397 
L 207.662681 54.584415 
L 208.561212 70.158853 
L 209.010478 75.129845 
L 209.010478 75.129845 
" clip-path="url(#p48ea7553da)" style="fill: none; stroke: #5e4fa2; stroke-linecap: round"/>
   </g>
   <g id="patch_3">
    <path d="M 30.744984 117.350791 
L 30.744984 0.72 
" style="fill: none; stroke: #000000; stroke-width: 0.35; stroke-linejoin: miter; stroke-linecap: square"/>
   </g>
   <g id="patch_4">
    <path d="M 226.809624 117.350791 
L 226.809624 0.72 
" style="fill: none; stroke: #000000; stroke-width: 0.35; stroke-linejoin: miter; stroke-linecap: square"/>
   </g>
   <g id="patch_5">
    <path d="M 30.744984 117.350791 
L 226.809624 117.350791 
" style="fill: none; stroke: #000000; stroke-width: 0.35; stroke-linejoin: miter; stroke-linecap: square"/>
   </g>
   <g id="patch_6">
    <path d="M 30.744984 0.72 
L 226.809624 0.72 
" style="fill: none; stroke: #000000; stroke-width: 0.35; stroke-linejoin: miter; stroke-linecap: square"/>
   </g>
   <g id="text_13">
    <!-- $2$ -->
    <g style="fill: #9e0142" transform="translate(212.805007 80.089665)scale(0.08 -0.08)">
     <use xlink:href="#CMR17-32" transform="scale(0.996264)"/>
    </g>
   </g>
   <g id="text_14">
    <!-- $4$ -->
    <g style="fill: #e95c47" transform="translate(212.805007 54.426852)scale(0.08 -0.08)">
     <use xlink:href="#CMR17-34" transform="scale(0.996264)"/>
    </g>
   </g>
   <g id="text_15">
    <!-- $6$ -->
    <g style="fill: #fdbf6f" transform="translate(212.805007 47.586029)scale(0.08 -0.08)">
     <use xlink:href="#CMR17-36" transform="scale(0.996264)"/>
    </g>
   </g>
   <g id="text_16">
    <!-- $8$ -->
    <g style="fill: #bdc97b" transform="translate(212.805007 41.788034)scale(0.08 -0.08)">
     <defs>
      <path id="CMR17-38" d="M 1741 2289 
C 2144 2494 2554 2803 2554 3298 
C 2554 3884 1990 4224 1472 4224 
C 890 4224 378 3800 378 3215 
C 378 3054 416 2777 666 2533 
C 730 2469 998 2276 1171 2154 
C 883 2006 211 1652 211 945 
C 211 282 838 -128 1459 -128 
C 2144 -128 2720 366 2720 1022 
C 2720 1607 2330 1877 2074 2051 
L 1741 2289 
z
M 902 2855 
C 851 2887 595 3086 595 3388 
C 595 3781 998 4076 1459 4076 
C 1965 4076 2336 3716 2336 3298 
C 2336 2700 1670 2359 1638 2359 
C 1632 2359 1626 2359 1574 2398 
L 902 2855 
z
M 2080 1536 
C 2176 1466 2483 1253 2483 861 
C 2483 385 2010 25 1472 25 
C 890 25 448 443 448 951 
C 448 1459 838 1884 1280 2083 
L 2080 1536 
z
" transform="scale(0.015625)"/>
     </defs>
     <use xlink:href="#CMR17-38" transform="scale(0.996264)"/>
    </g>
   </g>
   <g id="text_17">
    <!-- $10$ -->
    <g style="fill: #bfe5a0" transform="translate(212.805007 35.548186)scale(0.08 -0.08)">
     <use xlink:href="#CMR17-31" transform="scale(0.996264)"/>
     <use xlink:href="#CMR17-30" transform="translate(45.690477 0)scale(0.996264)"/>
    </g>
   </g>
   <g id="text_18">
    <!-- $12$ -->
    <g style="fill: #54aead" transform="translate(212.805007 28.860641)scale(0.08 -0.08)">
     <use xlink:href="#CMR17-31" transform="scale(0.996264)"/>
     <use xlink:href="#CMR17-32" transform="translate(45.690477 0)scale(0.996264)"/>
    </g>
   </g>
   <g id="text_19">
    <!-- $13$ -->
    <g style="fill: #5e4fa2" transform="translate(212.805007 23.213216)scale(0.08 -0.08)">
     <use xlink:href="#CMR17-31" transform="scale(0.996264)"/>
     <use xlink:href="#CMR17-33" transform="translate(45.690477 0)scale(0.996264)"/>
    </g>
   </g>
   <g id="text_20">
    <!-- $N$ -->
    <g transform="translate(212.805007 17.46381)scale(0.08 -0.08)">
     <use xlink:href="#CMMI12-4e" transform="scale(0.996264)"/>
    </g>
   </g>
   <g id="LineCollection_1">
    <path d="M 226.809624 79.076237 
L 226.809624 76.175031 
" style="fill: none; stroke: #9e0142"/>
   </g>
   <g id="LineCollection_2">
    <path d="M 226.809624 54.514838 
L 226.809624 49.410803 
" style="fill: none; stroke: #e95c47"/>
   </g>
   <g id="LineCollection_3">
    <path d="M 226.809624 45.919808 
L 226.809624 41.038814 
" style="fill: none; stroke: #fdbf6f"/>
   </g>
   <g id="LineCollection_4">
    <path d="M 226.809624 41.746459 
L 226.809624 36.244474 
" style="fill: none; stroke: #bdc97b"/>
   </g>
   <g id="LineCollection_5">
    <path d="M 226.809624 38.576867 
L 226.809624 34.162193 
" style="fill: none; stroke: #bfe5a0"/>
   </g>
   <g id="LineCollection_6">
    <path d="M 226.809624 36.494456 
L 226.809624 32.725636 
" style="fill: none; stroke: #54aead"/>
   </g>
   <g id="LineCollection_7">
    <path d="M 226.809624 36.056334 
L 226.809624 31.725031 
" style="fill: none; stroke: #5e4fa2"/>
   </g>
   <g id="line2d_18">
    <path d="M 226.809624 77.625634 
" style="fill: none; stroke: #1f77b4; stroke-linecap: round"/>
    <defs>
     <path id="me25702eb2e" d="M 0 2 
C 0.530406 2 1.03916 1.789267 1.414214 1.414214 
C 1.789267 1.03916 2 0.530406 2 0 
C 2 -0.530406 1.789267 -1.03916 1.414214 -1.414214 
C 1.03916 -1.789267 0.530406 -2 0 -2 
C -0.530406 -2 -1.03916 -1.789267 -1.414214 -1.414214 
C -1.789267 -1.03916 -2 -0.530406 -2 0 
C -2 0.530406 -1.789267 1.03916 -1.414214 1.414214 
C -1.03916 1.789267 -0.530406 2 0 2 
z
" style="stroke: #9e0142"/>
    </defs>
    <g>
     <use xlink:href="#me25702eb2e" x="226.809624" y="77.625634" style="fill: #ffffff; stroke: #9e0142"/>
    </g>
   </g>
   <g id="line2d_19">
    <path d="M 226.809624 51.962821 
" style="fill: none; stroke: #ff7f0e; stroke-linecap: round"/>
    <defs>
     <path id="ma61cb7a1b3" d="M 0 2 
C 0.530406 2 1.03916 1.789267 1.414214 1.414214 
C 1.789267 1.03916 2 0.530406 2 0 
C 2 -0.530406 1.789267 -1.03916 1.414214 -1.414214 
C 1.03916 -1.789267 0.530406 -2 0 -2 
C -0.530406 -2 -1.03916 -1.789267 -1.414214 -1.414214 
C -1.789267 -1.03916 -2 -0.530406 -2 0 
C -2 0.530406 -1.789267 1.03916 -1.414214 1.414214 
C -1.03916 1.789267 -0.530406 2 0 2 
z
" style="stroke: #e95c47"/>
    </defs>
    <g>
     <use xlink:href="#ma61cb7a1b3" x="226.809624" y="51.962821" style="fill: #ffffff; stroke: #e95c47"/>
    </g>
   </g>
   <g id="line2d_20">
    <path d="M 226.809624 43.479311 
" style="fill: none; stroke: #2ca02c; stroke-linecap: round"/>
    <defs>
     <path id="m5404e61769" d="M 0 2 
C 0.530406 2 1.03916 1.789267 1.414214 1.414214 
C 1.789267 1.03916 2 0.530406 2 0 
C 2 -0.530406 1.789267 -1.03916 1.414214 -1.414214 
C 1.03916 -1.789267 0.530406 -2 0 -2 
C -0.530406 -2 -1.03916 -1.789267 -1.414214 -1.414214 
C -1.789267 -1.03916 -2 -0.530406 -2 0 
C -2 0.530406 -1.789267 1.03916 -1.414214 1.414214 
C -1.03916 1.789267 -0.530406 2 0 2 
z
" style="stroke: #fdbf6f"/>
    </defs>
    <g>
     <use xlink:href="#m5404e61769" x="226.809624" y="43.479311" style="fill: #ffffff; stroke: #fdbf6f"/>
    </g>
   </g>
   <g id="line2d_21">
    <path d="M 226.809624 38.995466 
" style="fill: none; stroke: #d62728; stroke-linecap: round"/>
    <defs>
     <path id="mc36bb3655d" d="M 0 2 
C 0.530406 2 1.03916 1.789267 1.414214 1.414214 
C 1.789267 1.03916 2 0.530406 2 0 
C 2 -0.530406 1.789267 -1.03916 1.414214 -1.414214 
C 1.03916 -1.789267 0.530406 -2 0 -2 
C -0.530406 -2 -1.03916 -1.789267 -1.414214 -1.414214 
C -1.789267 -1.03916 -2 -0.530406 -2 0 
C -2 0.530406 -1.789267 1.03916 -1.414214 1.414214 
C -1.03916 1.789267 -0.530406 2 0 2 
z
" style="stroke: #bdc97b"/>
    </defs>
    <g>
     <use xlink:href="#mc36bb3655d" x="226.809624" y="38.995466" style="fill: #ffffff; stroke: #bdc97b"/>
    </g>
   </g>
   <g id="line2d_22">
    <path d="M 226.809624 36.36953 
" style="fill: none; stroke: #9467bd; stroke-linecap: round"/>
    <defs>
     <path id="m48ca40f0d4" d="M 0 2 
C 0.530406 2 1.03916 1.789267 1.414214 1.414214 
C 1.789267 1.03916 2 0.530406 2 0 
C 2 -0.530406 1.789267 -1.03916 1.414214 -1.414214 
C 1.03916 -1.789267 0.530406 -2 0 -2 
C -0.530406 -2 -1.03916 -1.789267 -1.414214 -1.414214 
C -1.789267 -1.03916 -2 -0.530406 -2 0 
C -2 0.530406 -1.789267 1.03916 -1.414214 1.414214 
C -1.03916 1.789267 -0.530406 2 0 2 
z
" style="stroke: #bfe5a0"/>
    </defs>
    <g>
     <use xlink:href="#m48ca40f0d4" x="226.809624" y="36.36953" style="fill: #ffffff; stroke: #bfe5a0"/>
    </g>
   </g>
   <g id="line2d_23">
    <path d="M 226.809624 34.610046 
" style="fill: none; stroke: #8c564b; stroke-linecap: round"/>
    <defs>
     <path id="ma3090e4095" d="M 0 2 
C 0.530406 2 1.03916 1.789267 1.414214 1.414214 
C 1.789267 1.03916 2 0.530406 2 0 
C 2 -0.530406 1.789267 -1.03916 1.414214 -1.414214 
C 1.03916 -1.789267 0.530406 -2 0 -2 
C -0.530406 -2 -1.03916 -1.789267 -1.414214 -1.414214 
C -1.789267 -1.03916 -2 -0.530406 -2 0 
C -2 0.530406 -1.789267 1.03916 -1.414214 1.414214 
C -1.03916 1.789267 -0.530406 2 0 2 
z
" style="stroke: #54aead"/>
    </defs>
    <g>
     <use xlink:href="#ma3090e4095" x="226.809624" y="34.610046" style="fill: #ffffff; stroke: #54aead"/>
    </g>
   </g>
   <g id="line2d_24">
    <path d="M 226.809624 33.890682 
" style="fill: none; stroke: #e377c2; stroke-linecap: round"/>
    <defs>
     <path id="m2329afa21e" d="M 0 2 
C 0.530406 2 1.03916 1.789267 1.414214 1.414214 
C 1.789267 1.03916 2 0.530406 2 0 
C 2 -0.530406 1.789267 -1.03916 1.414214 -1.414214 
C 1.03916 -1.789267 0.530406 -2 0 -2 
C -0.530406 -2 -1.03916 -1.789267 -1.414214 -1.414214 
C -1.789267 -1.03916 -2 -0.530406 -2 0 
C -2 0.530406 -1.789267 1.03916 -1.414214 1.414214 
C -1.03916 1.789267 -0.530406 2 0 2 
z
" style="stroke: #5e4fa2"/>
    </defs>
    <g>
     <use xlink:href="#m2329afa21e" x="226.809624" y="33.890682" style="fill: #ffffff; stroke: #5e4fa2"/>
    </g>
   </g>
  </g>
 </g>
 <defs>
  <clipPath id="p48ea7553da">
   <rect x="30.744984" y="0.72" width="196.06464" height="116.630791"/>
  </clipPath>
 </defs>
</svg>
