<?xml version="1.0" encoding="utf-8" standalone="no"?>
<!DOCTYPE svg PUBLIC "-//W3C//DTD SVG 1.1//EN"
  "http://www.w3.org/Graphics/SVG/1.1/DTD/svg11.dtd">
<svg xmlns:xlink="http://www.w3.org/1999/xlink" width="223.295442pt" height="140.125451pt" viewBox="0 0 223.295442 140.125451" xmlns="http://www.w3.org/2000/svg" version="1.1">
 <metadata>
  <rdf:RDF xmlns:dc="http://purl.org/dc/elements/1.1/" xmlns:cc="http://creativecommons.org/ns#" xmlns:rdf="http://www.w3.org/1999/02/22-rdf-syntax-ns#">
   <cc:Work>
    <dc:type rdf:resource="http://purl.org/dc/dcmitype/StillImage"/>
    <dc:date>2022-06-19T16:37:28.708787</dc:date>
    <dc:format>image/svg+xml</dc:format>
    <dc:creator>
     <cc:Agent>
      <dc:title>Matplotlib v3.5.1, https://matplotlib.org/</dc:title>
     </cc:Agent>
    </dc:creator>
   </cc:Work>
  </rdf:RDF>
 </metadata>
 <defs>
  <style type="text/css">*{stroke-linejoin: round; stroke-linecap: butt}</style>
 </defs>
 <g id="figure_1">
  <g id="patch_1">
   <path d="M 0 140.125451 
L 223.295442 140.125451 
L 223.295442 0 
L 0 0 
L 0 140.125451 
z
" style="fill: none"/>
  </g>
  <g id="axes_1">
   <g id="patch_2">
    <path d="M 26.510802 117.350791 
L 222.575442 117.350791 
L 222.575442 0.72 
L 26.510802 0.72 
L 26.510802 117.350791 
z
" style="fill: none"/>
   </g>
   <g id="matplotlib.axis_1">
    <g id="xtick_1">
     <g id="line2d_1">
      <defs>
       <path id="mfa42f324e6" d="M 0 0 
L 0 2 
" style="stroke: #000000; stroke-width: 0.35"/>
      </defs>
      <g>
       <use xlink:href="#mfa42f324e6" x="31.179007" y="117.350791" style="stroke: #000000; stroke-width: 0.35"/>
      </g>
     </g>
     <g id="text_1">
      <!-- $\mathdefault{−2}$ -->
      <g transform="translate(25.768663 127.885593)scale(0.08 -0.08)">
       <defs>
        <path id="CMSY10-0" d="M 4218 1472 
C 4326 1472 4442 1472 4442 1600 
C 4442 1728 4326 1728 4218 1728 
L 755 1728 
C 646 1728 531 1728 531 1600 
C 531 1472 646 1472 755 1472 
L 4218 1472 
z
" transform="scale(0.015625)"/>
        <path id="CMR17-32" d="M 2669 990 
L 2554 990 
C 2490 537 2438 460 2413 422 
C 2381 371 1920 371 1830 371 
L 602 371 
C 832 620 1280 1073 1824 1596 
C 2214 1966 2669 2400 2669 3033 
C 2669 3788 2067 4224 1395 4224 
C 691 4224 262 3603 262 3027 
C 262 2777 448 2745 525 2745 
C 589 2745 781 2783 781 3007 
C 781 3206 614 3264 525 3264 
C 486 3264 448 3257 422 3244 
C 544 3788 915 4057 1306 4057 
C 1862 4057 2227 3616 2227 3033 
C 2227 2477 1901 1998 1536 1583 
L 262 147 
L 262 0 
L 2515 0 
L 2669 990 
z
" transform="scale(0.015625)"/>
       </defs>
       <use xlink:href="#CMSY10-0" transform="scale(0.996264)"/>
       <use xlink:href="#CMR17-32" transform="translate(77.487468 0)scale(0.996264)"/>
      </g>
     </g>
    </g>
    <g id="xtick_2">
     <g id="line2d_2">
      <g>
       <use xlink:href="#mfa42f324e6" x="77.861064" y="117.350791" style="stroke: #000000; stroke-width: 0.35"/>
      </g>
     </g>
     <g id="text_2">
      <!-- $\mathdefault{−1}$ -->
      <g transform="translate(72.45072 127.885593)scale(0.08 -0.08)">
       <defs>
        <path id="CMR17-31" d="M 1702 4083 
C 1702 4217 1696 4224 1606 4224 
C 1357 3927 979 3833 621 3820 
C 602 3820 570 3820 563 3808 
C 557 3795 557 3782 557 3648 
C 755 3648 1088 3686 1344 3839 
L 1344 467 
C 1344 243 1331 166 781 166 
L 589 166 
L 589 0 
C 896 6 1216 12 1523 12 
C 1830 12 2150 6 2458 0 
L 2458 166 
L 2266 166 
C 1715 166 1702 236 1702 467 
L 1702 4083 
z
" transform="scale(0.015625)"/>
       </defs>
       <use xlink:href="#CMSY10-0" transform="scale(0.996264)"/>
       <use xlink:href="#CMR17-31" transform="translate(77.487468 0)scale(0.996264)"/>
      </g>
     </g>
    </g>
    <g id="xtick_3">
     <g id="line2d_3">
      <g>
       <use xlink:href="#mfa42f324e6" x="124.543122" y="117.350791" style="stroke: #000000; stroke-width: 0.35"/>
      </g>
     </g>
     <g id="text_3">
      <!-- $\mathdefault{0}$ -->
      <g transform="translate(122.42603 127.885593)scale(0.08 -0.08)">
       <defs>
        <path id="CMR17-30" d="M 2688 2038 
C 2688 2430 2682 3099 2413 3613 
C 2176 4063 1798 4224 1466 4224 
C 1158 4224 768 4082 525 3620 
C 269 3137 243 2539 243 2038 
C 243 1671 250 1112 448 623 
C 723 -39 1216 -128 1466 -128 
C 1760 -128 2208 -7 2470 604 
C 2662 1048 2688 1568 2688 2038 
z
M 1466 -26 
C 1056 -26 813 328 723 816 
C 653 1196 653 1749 653 2109 
C 653 2604 653 3015 736 3407 
C 858 3954 1216 4121 1466 4121 
C 1728 4121 2067 3947 2189 3420 
C 2272 3054 2278 2623 2278 2109 
C 2278 1691 2278 1176 2202 797 
C 2067 96 1690 -26 1466 -26 
z
" transform="scale(0.015625)"/>
       </defs>
       <use xlink:href="#CMR17-30" transform="scale(0.996264)"/>
      </g>
     </g>
    </g>
    <g id="xtick_4">
     <g id="line2d_4">
      <g>
       <use xlink:href="#mfa42f324e6" x="171.225179" y="117.350791" style="stroke: #000000; stroke-width: 0.35"/>
      </g>
     </g>
     <g id="text_4">
      <!-- $\mathdefault{1}$ -->
      <g transform="translate(169.108087 127.885593)scale(0.08 -0.08)">
       <use xlink:href="#CMR17-31" transform="scale(0.996264)"/>
      </g>
     </g>
    </g>
    <g id="xtick_5">
     <g id="line2d_5">
      <g>
       <use xlink:href="#mfa42f324e6" x="217.907236" y="117.350791" style="stroke: #000000; stroke-width: 0.35"/>
      </g>
     </g>
     <g id="text_5">
      <!-- $\mathdefault{2}$ -->
      <g transform="translate(215.790144 127.885593)scale(0.08 -0.08)">
       <use xlink:href="#CMR17-32" transform="scale(0.996264)"/>
      </g>
     </g>
    </g>
    <g id="text_6">
     <!-- $V/J$ -->
     <g transform="translate(117.176893 137.412923)scale(0.08 -0.08)">
      <defs>
       <path id="CMMI12-56" d="M 3962 3644 
C 4179 3987 4378 4140 4704 4166 
C 4768 4172 4819 4172 4819 4287 
C 4819 4313 4806 4352 4749 4352 
C 4634 4352 4358 4339 4243 4339 
C 4058 4339 3866 4352 3686 4352 
C 3635 4352 3571 4352 3571 4230 
C 3571 4172 3629 4166 3654 4166 
C 3891 4146 3917 4032 3917 3956 
C 3917 3860 3827 3714 3821 3708 
L 1811 540 
L 1363 3968 
C 1363 4153 1696 4166 1766 4166 
C 1862 4166 1920 4166 1920 4287 
C 1920 4352 1850 4352 1830 4352 
C 1722 4352 1594 4339 1485 4339 
L 1126 4339 
C 659 4339 467 4352 461 4352 
C 422 4352 346 4352 346 4236 
C 346 4166 390 4166 493 4166 
C 819 4166 838 4108 858 3949 
L 1370 25 
C 1389 -109 1389 -128 1478 -128 
C 1555 -128 1587 -109 1651 -7 
L 3962 3644 
z
" transform="scale(0.015625)"/>
       <path id="CMMI12-3d" d="M 2746 4563 
C 2746 4569 2784 4665 2784 4678 
C 2784 4755 2720 4800 2669 4800 
C 2637 4800 2579 4800 2528 4659 
L 384 -1364 
C 384 -1370 346 -1466 346 -1479 
C 346 -1556 410 -1600 461 -1600 
C 499 -1600 557 -1594 602 -1460 
L 2746 4563 
z
" transform="scale(0.015625)"/>
       <path id="CMMI12-4a" d="M 3418 3911 
C 3469 4102 3482 4166 3795 4166 
C 3898 4166 3962 4166 3962 4281 
C 3962 4352 3904 4352 3878 4352 
C 3770 4352 3648 4339 3533 4339 
L 3181 4339 
C 2912 4339 2630 4352 2362 4352 
C 2304 4352 2227 4352 2227 4236 
C 2227 4172 2278 4172 2278 4166 
L 2438 4166 
C 2950 4166 2950 4115 2950 4019 
C 2950 4013 2950 3968 2925 3866 
L 2189 953 
C 2022 304 1594 0 1286 0 
C 1069 0 762 99 685 428 
C 710 422 742 415 768 415 
C 979 415 1146 601 1146 787 
C 1146 889 1082 1024 890 1024 
C 774 1024 506 959 506 543 
C 506 149 838 -128 1299 -128 
C 1882 -128 2509 304 2662 908 
L 3418 3911 
z
" transform="scale(0.015625)"/>
      </defs>
      <use xlink:href="#CMMI12-56" transform="scale(0.996264)"/>
      <use xlink:href="#CMMI12-3d" transform="translate(67.70845 0)scale(0.996264)"/>
      <use xlink:href="#CMMI12-4a" transform="translate(116.483369 0)scale(0.996264)"/>
     </g>
    </g>
   </g>
   <g id="matplotlib.axis_2">
    <g id="ytick_1">
     <g id="line2d_6">
      <defs>
       <path id="me2141fe661" d="M 0 0 
L -2 0 
" style="stroke: #000000; stroke-width: 0.35"/>
      </defs>
      <g>
       <use xlink:href="#me2141fe661" x="26.510802" y="117.350791" style="stroke: #000000; stroke-width: 0.35"/>
      </g>
     </g>
     <g id="text_7">
      <!-- 0.0 -->
      <g transform="translate(10.690112 120.118192)scale(0.08 -0.08)">
       <defs>
        <path id="CMR17-2e" d="M 1062 262 
C 1062 422 934 524 800 524 
C 672 524 538 422 538 262 
C 538 102 666 0 800 0 
C 928 0 1062 102 1062 262 
z
" transform="scale(0.015625)"/>
       </defs>
       <use xlink:href="#CMR17-30" transform="scale(0.996264)"/>
       <use xlink:href="#CMR17-2e" transform="translate(45.690477 0)scale(0.996264)"/>
       <use xlink:href="#CMR17-30" transform="translate(70.561536 0)scale(0.996264)"/>
      </g>
     </g>
    </g>
    <g id="ytick_2">
     <g id="line2d_7">
      <g>
       <use xlink:href="#me2141fe661" x="26.510802" y="87.44546" style="stroke: #000000; stroke-width: 0.35"/>
      </g>
     </g>
     <g id="text_8">
      <!-- 0.1 -->
      <g transform="translate(10.690112 90.212861)scale(0.08 -0.08)">
       <use xlink:href="#CMR17-30" transform="scale(0.996264)"/>
       <use xlink:href="#CMR17-2e" transform="translate(45.690477 0)scale(0.996264)"/>
       <use xlink:href="#CMR17-31" transform="translate(70.561536 0)scale(0.996264)"/>
      </g>
     </g>
    </g>
    <g id="ytick_3">
     <g id="line2d_8">
      <g>
       <use xlink:href="#me2141fe661" x="26.510802" y="57.540129" style="stroke: #000000; stroke-width: 0.35"/>
      </g>
     </g>
     <g id="text_9">
      <!-- 0.2 -->
      <g transform="translate(10.690112 60.30753)scale(0.08 -0.08)">
       <use xlink:href="#CMR17-30" transform="scale(0.996264)"/>
       <use xlink:href="#CMR17-2e" transform="translate(45.690477 0)scale(0.996264)"/>
       <use xlink:href="#CMR17-32" transform="translate(70.561536 0)scale(0.996264)"/>
      </g>
     </g>
    </g>
    <g id="ytick_4">
     <g id="line2d_9">
      <g>
       <use xlink:href="#me2141fe661" x="26.510802" y="27.634798" style="stroke: #000000; stroke-width: 0.35"/>
      </g>
     </g>
     <g id="text_10">
      <!-- 0.3 -->
      <g transform="translate(10.690112 30.402199)scale(0.08 -0.08)">
       <defs>
        <path id="CMR17-33" d="M 1414 2176 
C 1984 2176 2234 1673 2234 1094 
C 2234 322 1824 25 1453 25 
C 1114 25 563 193 390 691 
C 422 678 454 678 486 678 
C 640 678 755 780 755 947 
C 755 1132 614 1216 486 1216 
C 378 1216 211 1164 211 927 
C 211 335 787 -128 1466 -128 
C 2176 -128 2720 432 2720 1087 
C 2720 1718 2208 2176 1600 2246 
C 2086 2347 2554 2776 2554 3353 
C 2554 3856 2048 4224 1472 4224 
C 890 4224 378 3862 378 3347 
C 378 3123 544 3084 627 3084 
C 762 3084 877 3167 877 3334 
C 877 3500 762 3584 627 3584 
C 602 3584 570 3584 544 3571 
C 730 3999 1235 4076 1459 4076 
C 1683 4076 2106 3966 2106 3347 
C 2106 3167 2080 2851 1862 2574 
C 1670 2329 1453 2316 1242 2297 
C 1210 2297 1062 2284 1037 2284 
C 992 2278 966 2272 966 2227 
C 966 2182 973 2176 1101 2176 
L 1414 2176 
z
" transform="scale(0.015625)"/>
       </defs>
       <use xlink:href="#CMR17-30" transform="scale(0.996264)"/>
       <use xlink:href="#CMR17-2e" transform="translate(45.690477 0)scale(0.996264)"/>
       <use xlink:href="#CMR17-33" transform="translate(70.561536 0)scale(0.996264)"/>
      </g>
     </g>
    </g>
    <g id="text_11">
     <!-- $A_\alpha(t\rightarrow\infty)$ -->
     <g transform="translate(6.697584 80.503421)rotate(-90)scale(0.08 -0.08)">
      <defs>
       <path id="CMMI12-41" d="M 1088 720 
C 864 335 646 205 339 185 
C 269 179 218 179 218 64 
C 218 25 250 0 294 0 
C 410 0 698 12 813 12 
C 998 12 1203 0 1382 0 
C 1421 0 1498 0 1498 121 
C 1498 179 1446 185 1408 185 
C 1261 198 1139 250 1139 407 
C 1139 498 1178 570 1261 714 
L 1747 1536 
L 3379 1536 
C 3386 1477 3386 1425 3392 1366 
C 3411 1196 3488 518 3488 394 
C 3488 198 3162 185 3059 185 
C 2989 185 2918 185 2918 70 
C 2918 0 2976 0 3014 0 
C 3123 0 3251 12 3360 12 
L 3725 12 
C 4115 12 4397 0 4403 0 
C 4448 0 4518 0 4518 121 
C 4518 185 4461 185 4365 185 
C 4013 185 4006 244 3987 440 
L 3597 4403 
C 3584 4531 3558 4544 3488 4544 
C 3424 4544 3386 4531 3328 4435 
L 1088 720 
z
M 1856 1721 
L 3142 3831 
L 3360 1721 
L 1856 1721 
z
" transform="scale(0.015625)"/>
       <path id="CMMI12-b" d="M 2963 1615 
C 2963 2234 2611 2816 1933 2816 
C 1094 2816 256 1902 256 996 
C 256 440 602 -64 1254 -64 
C 1651 -64 2125 89 2579 472 
C 2669 115 2867 -64 3142 -64 
C 3488 -64 3661 293 3661 376 
C 3661 434 3616 434 3597 434 
C 3546 434 3539 415 3520 364 
C 3462 204 3315 64 3162 64 
C 2963 64 2963 472 2963 862 
C 3616 1641 3770 2445 3770 2451 
C 3770 2509 3718 2509 3699 2509 
C 3642 2509 3635 2490 3610 2375 
C 3526 2094 3360 1596 2963 1072 
L 2963 1615 
z
M 2560 625 
C 1997 121 1491 64 1267 64 
C 813 64 685 466 685 766 
C 685 1040 826 1692 1024 2043 
C 1286 2490 1645 2687 1933 2687 
C 2554 2687 2554 1877 2554 1340 
C 2554 1181 2547 1015 2547 855 
C 2547 728 2554 696 2560 625 
z
" transform="scale(0.015625)"/>
       <path id="CMR17-28" d="M 1958 -1562 
C 1958 -1556 1958 -1543 1939 -1524 
C 1645 -1223 858 -403 858 1596 
C 858 3595 1632 4408 1946 4729 
C 1946 4735 1958 4748 1958 4767 
C 1958 4787 1939 4800 1914 4800 
C 1843 4800 1299 4325 986 3620 
C 666 2909 576 2218 576 1603 
C 576 1141 621 360 1005 -467 
C 1312 -1133 1837 -1600 1914 -1600 
C 1946 -1600 1958 -1588 1958 -1562 
z
" transform="scale(0.015625)"/>
       <path id="CMMI12-74" d="M 1286 2566 
L 1875 2566 
C 1997 2566 2061 2566 2061 2681 
C 2061 2752 2022 2752 1894 2752 
L 1331 2752 
L 1568 3664 
C 1594 3752 1594 3764 1594 3808 
C 1594 3910 1510 3968 1427 3968 
C 1376 3968 1229 3948 1178 3746 
L 928 2752 
L 326 2752 
C 198 2752 141 2752 141 2630 
C 141 2566 186 2566 307 2566 
L 877 2566 
L 454 881 
C 403 657 384 593 384 510 
C 384 210 595 -64 954 -64 
C 1600 -64 1946 868 1946 913 
C 1946 951 1920 970 1882 970 
C 1869 970 1843 970 1830 944 
C 1824 938 1818 932 1773 830 
C 1638 510 1344 64 973 64 
C 781 64 768 223 768 364 
C 768 370 768 491 787 568 
L 1286 2566 
z
" transform="scale(0.015625)"/>
       <path id="CMSY10-21" d="M 5338 1472 
C 4986 1203 4813 940 4762 857 
C 4474 415 4422 12 4422 6 
C 4422 -71 4499 -71 4550 -71 
C 4659 -71 4666 -58 4691 57 
C 4838 684 5216 1222 5939 1516 
C 6016 1542 6035 1555 6035 1600 
C 6035 1644 5997 1664 5984 1670 
C 5702 1779 4928 2099 4685 3174 
C 4666 3251 4659 3270 4550 3270 
C 4499 3270 4422 3270 4422 3193 
C 4422 3180 4480 2777 4749 2348 
C 4877 2156 5062 1932 5338 1728 
L 582 1728 
C 467 1728 352 1728 352 1600 
C 352 1472 467 1472 582 1472 
L 5338 1472 
z
" transform="scale(0.015625)"/>
       <path id="CMSY10-31" d="M 3251 1736 
C 2906 2170 2829 2266 2630 2426 
C 2272 2713 1914 2828 1587 2828 
C 838 2828 352 2126 352 1379 
C 352 645 826 -64 1562 -64 
C 2298 -64 2829 517 3142 1028 
C 3488 594 3565 498 3763 338 
C 4122 51 4480 -64 4806 -64 
C 5555 -64 6042 638 6042 1385 
C 6042 2119 5568 2828 4832 2828 
C 4096 2828 3565 2247 3251 1736 
z
M 3418 1519 
C 3680 1979 4154 2624 4877 2624 
C 5555 2624 5901 1960 5901 1385 
C 5901 760 5472 242 4909 242 
C 4538 242 4250 511 4115 645 
C 3955 817 3808 1015 3418 1519 
z
M 2976 1245 
C 2714 785 2240 140 1517 140 
C 838 140 493 804 493 1379 
C 493 2004 922 2521 1485 2521 
C 1856 2521 2144 2253 2278 2119 
C 2438 1947 2586 1749 2976 1245 
z
" transform="scale(0.015625)"/>
       <path id="CMR17-29" d="M 1683 1596 
C 1683 2057 1638 2839 1254 3665 
C 947 4332 422 4800 346 4800 
C 326 4800 301 4793 301 4761 
C 301 4748 307 4742 314 4729 
C 621 4408 1402 3595 1402 1603 
C 1402 -396 627 -1210 314 -1530 
C 307 -1543 301 -1549 301 -1562 
C 301 -1594 326 -1600 346 -1600 
C 416 -1600 960 -1127 1274 -422 
C 1594 289 1683 981 1683 1596 
z
" transform="scale(0.015625)"/>
      </defs>
      <use xlink:href="#CMMI12-41" transform="scale(0.996264)"/>
      <use xlink:href="#CMMI12-b" transform="translate(73.127885 -14.943915)scale(0.697382)"/>
      <use xlink:href="#CMR17-28" transform="translate(117.502542 0)scale(0.996264)"/>
      <use xlink:href="#CMMI12-74" transform="translate(152.78331 0)scale(0.996264)"/>
      <use xlink:href="#CMSY10-21" transform="translate(215.683648 0)scale(0.996264)"/>
      <use xlink:href="#CMSY10-31" transform="translate(342.984332 0)scale(0.996264)"/>
      <use xlink:href="#CMR17-29" transform="translate(442.611006 0)scale(0.996264)"/>
     </g>
    </g>
   </g>
   <g id="LineCollection_1">
    <path clip-path="url(#p62a16687c2)" style="fill: none; stroke: #9e0142"/>
    <path clip-path="url(#p62a16687c2)" style="fill: none; stroke: #9e0142"/>
    <path clip-path="url(#p62a16687c2)" style="fill: none; stroke: #9e0142"/>
    <path d="M 49.85183 9.176205 
L 49.85183 1.328471 
" clip-path="url(#p62a16687c2)" style="fill: none; stroke: #9e0142"/>
    <path d="M 54.520036 21.434648 
L 54.520036 13.646514 
" clip-path="url(#p62a16687c2)" style="fill: none; stroke: #9e0142"/>
    <path d="M 59.188242 31.335931 
L 59.188242 23.8914 
" clip-path="url(#p62a16687c2)" style="fill: none; stroke: #9e0142"/>
    <path d="M 63.856447 39.828221 
L 63.856447 33.262982 
" clip-path="url(#p62a16687c2)" style="fill: none; stroke: #9e0142"/>
    <path d="M 68.524653 49.390701 
L 68.524653 43.443035 
" clip-path="url(#p62a16687c2)" style="fill: none; stroke: #9e0142"/>
    <path d="M 73.192859 59.123459 
L 73.192859 53.098799 
" clip-path="url(#p62a16687c2)" style="fill: none; stroke: #9e0142"/>
    <path d="M 77.861064 67.466798 
L 77.861064 62.25976 
" clip-path="url(#p62a16687c2)" style="fill: none; stroke: #9e0142"/>
    <path d="M 82.52927 75.762195 
L 82.52927 71.18737 
" clip-path="url(#p62a16687c2)" style="fill: none; stroke: #9e0142"/>
    <path d="M 87.197476 83.127033 
L 87.197476 78.631252 
" clip-path="url(#p62a16687c2)" style="fill: none; stroke: #9e0142"/>
    <path d="M 91.865682 89.465707 
L 91.865682 86.24298 
" clip-path="url(#p62a16687c2)" style="fill: none; stroke: #9e0142"/>
    <path d="M 96.533887 95.889295 
L 96.533887 93.610558 
" clip-path="url(#p62a16687c2)" style="fill: none; stroke: #9e0142"/>
    <path d="M 101.202093 101.617515 
L 101.202093 99.881719 
" clip-path="url(#p62a16687c2)" style="fill: none; stroke: #9e0142"/>
    <path d="M 105.870299 106.603879 
L 105.870299 105.465785 
" clip-path="url(#p62a16687c2)" style="fill: none; stroke: #9e0142"/>
    <path d="M 110.538504 110.847309 
L 110.538504 110.094159 
" clip-path="url(#p62a16687c2)" style="fill: none; stroke: #9e0142"/>
    <path d="M 115.20671 114.122841 
L 115.20671 113.735042 
" clip-path="url(#p62a16687c2)" style="fill: none; stroke: #9e0142"/>
    <path d="M 119.874916 116.406733 
L 119.874916 116.294482 
" clip-path="url(#p62a16687c2)" style="fill: none; stroke: #9e0142"/>
    <path d="M 124.543122 117.350791 
L 124.543122 117.350791 
" clip-path="url(#p62a16687c2)" style="fill: none; stroke: #9e0142"/>
    <path d="M 129.211327 116.443898 
L 129.211327 116.327341 
" clip-path="url(#p62a16687c2)" style="fill: none; stroke: #9e0142"/>
    <path d="M 133.879533 114.389771 
L 133.879533 113.956142 
" clip-path="url(#p62a16687c2)" style="fill: none; stroke: #9e0142"/>
    <path d="M 138.547739 111.516078 
L 138.547739 110.854633 
" clip-path="url(#p62a16687c2)" style="fill: none; stroke: #9e0142"/>
    <path d="M 143.215944 108.118955 
L 143.215944 107.058961 
" clip-path="url(#p62a16687c2)" style="fill: none; stroke: #9e0142"/>
    <path d="M 147.88415 104.276974 
L 147.88415 102.697006 
" clip-path="url(#p62a16687c2)" style="fill: none; stroke: #9e0142"/>
    <path d="M 152.552356 100.112107 
L 152.552356 98.133742 
" clip-path="url(#p62a16687c2)" style="fill: none; stroke: #9e0142"/>
    <path d="M 157.220562 95.518029 
L 157.220562 93.221248 
" clip-path="url(#p62a16687c2)" style="fill: none; stroke: #9e0142"/>
    <path d="M 161.888767 90.92892 
L 161.888767 87.998766 
" clip-path="url(#p62a16687c2)" style="fill: none; stroke: #9e0142"/>
    <path d="M 166.556973 86.54448 
L 166.556973 82.784013 
" clip-path="url(#p62a16687c2)" style="fill: none; stroke: #9e0142"/>
    <path d="M 171.225179 81.558597 
L 171.225179 77.35032 
" clip-path="url(#p62a16687c2)" style="fill: none; stroke: #9e0142"/>
    <path d="M 175.893384 76.315525 
L 175.893384 72.157409 
" clip-path="url(#p62a16687c2)" style="fill: none; stroke: #9e0142"/>
    <path d="M 180.56159 71.303278 
L 180.56159 66.370129 
" clip-path="url(#p62a16687c2)" style="fill: none; stroke: #9e0142"/>
    <path d="M 185.229796 66.460566 
L 185.229796 61.131763 
" clip-path="url(#p62a16687c2)" style="fill: none; stroke: #9e0142"/>
    <path d="M 189.898002 61.397939 
L 189.898002 55.925209 
" clip-path="url(#p62a16687c2)" style="fill: none; stroke: #9e0142"/>
    <path d="M 194.566207 56.241782 
L 194.566207 50.428771 
" clip-path="url(#p62a16687c2)" style="fill: none; stroke: #9e0142"/>
    <path d="M 199.234413 50.984687 
L 199.234413 44.990944 
" clip-path="url(#p62a16687c2)" style="fill: none; stroke: #9e0142"/>
    <path d="M 203.902619 46.050244 
L 203.902619 39.799214 
" clip-path="url(#p62a16687c2)" style="fill: none; stroke: #9e0142"/>
    <path d="M 208.570824 41.09386 
L 208.570824 34.79835 
" clip-path="url(#p62a16687c2)" style="fill: none; stroke: #9e0142"/>
    <path d="M 213.23903 35.533817 
L 213.23903 29.421089 
" clip-path="url(#p62a16687c2)" style="fill: none; stroke: #9e0142"/>
   </g>
   <g id="line2d_10">
    <path d="M 63.292954 -1 
L 63.856447 1.496898 
L 66.19055 11.067162 
L 68.524653 19.96178 
L 70.858756 28.257532 
L 73.192859 36.015982 
L 75.526962 43.286945 
L 77.861064 50.111019 
L 80.195167 56.521508 
L 82.52927 62.545832 
L 84.863373 68.206665 
L 87.197476 73.522745 
L 89.531579 78.509569 
L 91.865682 83.179832 
L 94.199784 87.543844 
L 96.533887 91.609816 
L 98.86799 95.384013 
L 101.202093 98.870888 
L 103.536196 102.073302 
L 105.870299 104.992225 
L 108.204402 107.626796 
L 110.538504 109.974056 
L 112.872607 112.028537 
L 115.20671 113.781541 
L 117.540813 115.219856 
L 119.874916 116.323183 
L 122.209019 117.05788 
L 124.543122 117.350791 
L 126.877224 117.066173 
L 129.211327 116.379614 
L 131.54543 115.390888 
L 133.879533 114.154613 
L 136.213636 112.708794 
L 138.547739 111.082164 
L 140.881842 109.297402 
L 143.215944 107.372882 
L 145.550047 105.323727 
L 147.88415 103.162518 
L 150.218253 100.899824 
L 152.552356 98.54429 
L 154.886459 96.103475 
L 157.220562 93.583308 
L 159.554664 90.988873 
L 161.888767 88.324137 
L 164.22287 85.592183 
L 166.556973 82.795235 
L 168.891076 79.934697 
L 171.225179 77.011166 
L 173.559282 74.024424 
L 175.893384 70.97342 
L 178.227487 67.856173 
L 180.56159 64.669743 
L 182.895693 61.410066 
L 185.229796 58.07178 
L 187.563899 54.647968 
L 189.898002 51.129832 
L 192.232104 47.506151 
L 194.566207 43.762589 
L 196.90031 39.880621 
L 199.234413 35.835905 
L 201.568516 31.595685 
L 203.902619 27.114425 
L 206.236722 22.325964 
L 208.570824 17.128034 
L 210.904927 11.347505 
L 213.23903 4.645252 
L 214.788668 -1 
" clip-path="url(#p62a16687c2)" style="fill: none; stroke-dasharray: 3.7,1.6; stroke-dashoffset: 0; stroke: #9e0142; stroke-linecap: round"/>
   </g>
   <g id="LineCollection_2">
    <path d="M 35.847213 4.125246 
L 35.847213 -1 
" clip-path="url(#p62a16687c2)" style="fill: none; stroke: #fdbf6f"/>
    <path d="M 40.515419 18.408787 
L 40.515419 7.742606 
" clip-path="url(#p62a16687c2)" style="fill: none; stroke: #fdbf6f"/>
    <path d="M 45.183624 31.966242 
L 45.183624 22.207882 
" clip-path="url(#p62a16687c2)" style="fill: none; stroke: #fdbf6f"/>
    <path d="M 49.85183 43.512894 
L 49.85183 35.122978 
" clip-path="url(#p62a16687c2)" style="fill: none; stroke: #fdbf6f"/>
    <path d="M 54.520036 55.181479 
L 54.520036 46.784402 
" clip-path="url(#p62a16687c2)" style="fill: none; stroke: #fdbf6f"/>
    <path d="M 59.188242 63.641757 
L 59.188242 56.373706 
" clip-path="url(#p62a16687c2)" style="fill: none; stroke: #fdbf6f"/>
    <path d="M 63.856447 70.857835 
L 63.856447 64.440539 
" clip-path="url(#p62a16687c2)" style="fill: none; stroke: #fdbf6f"/>
    <path d="M 68.524653 78.072132 
L 68.524653 73.02801 
" clip-path="url(#p62a16687c2)" style="fill: none; stroke: #fdbf6f"/>
    <path d="M 73.192859 85.431155 
L 73.192859 80.608631 
" clip-path="url(#p62a16687c2)" style="fill: none; stroke: #fdbf6f"/>
    <path d="M 77.861064 91.282899 
L 77.861064 87.388668 
" clip-path="url(#p62a16687c2)" style="fill: none; stroke: #fdbf6f"/>
    <path d="M 82.52927 96.59726 
L 82.52927 93.41331 
" clip-path="url(#p62a16687c2)" style="fill: none; stroke: #fdbf6f"/>
    <path d="M 87.197476 101.279663 
L 87.197476 98.382209 
" clip-path="url(#p62a16687c2)" style="fill: none; stroke: #fdbf6f"/>
    <path d="M 91.865682 104.948837 
L 91.865682 103.089782 
" clip-path="url(#p62a16687c2)" style="fill: none; stroke: #fdbf6f"/>
    <path d="M 96.533887 108.412674 
L 96.533887 107.202748 
" clip-path="url(#p62a16687c2)" style="fill: none; stroke: #fdbf6f"/>
    <path d="M 101.202093 111.261851 
L 101.202093 110.422213 
" clip-path="url(#p62a16687c2)" style="fill: none; stroke: #fdbf6f"/>
    <path d="M 105.870299 113.532131 
L 105.870299 113.036038 
" clip-path="url(#p62a16687c2)" style="fill: none; stroke: #fdbf6f"/>
    <path d="M 110.538504 115.256935 
L 110.538504 114.977627 
" clip-path="url(#p62a16687c2)" style="fill: none; stroke: #fdbf6f"/>
    <path d="M 115.20671 116.434003 
L 115.20671 116.30059 
" clip-path="url(#p62a16687c2)" style="fill: none; stroke: #fdbf6f"/>
    <path d="M 119.874916 117.127567 
L 119.874916 117.097073 
" clip-path="url(#p62a16687c2)" style="fill: none; stroke: #fdbf6f"/>
    <path d="M 124.543122 117.350791 
L 124.543122 117.350791 
" clip-path="url(#p62a16687c2)" style="fill: none; stroke: #fdbf6f"/>
    <path d="M 129.211327 117.137355 
L 129.211327 117.105815 
" clip-path="url(#p62a16687c2)" style="fill: none; stroke: #fdbf6f"/>
    <path d="M 133.879533 116.516852 
L 133.879533 116.379127 
" clip-path="url(#p62a16687c2)" style="fill: none; stroke: #fdbf6f"/>
    <path d="M 138.547739 115.514237 
L 138.547739 115.26522 
" clip-path="url(#p62a16687c2)" style="fill: none; stroke: #fdbf6f"/>
    <path d="M 143.215944 114.177192 
L 143.215944 113.734551 
" clip-path="url(#p62a16687c2)" style="fill: none; stroke: #fdbf6f"/>
    <path d="M 147.88415 112.509424 
L 147.88415 111.789335 
" clip-path="url(#p62a16687c2)" style="fill: none; stroke: #fdbf6f"/>
    <path d="M 152.552356 110.557825 
L 152.552356 109.599309 
" clip-path="url(#p62a16687c2)" style="fill: none; stroke: #fdbf6f"/>
    <path d="M 157.220562 108.251699 
L 157.220562 107.074229 
" clip-path="url(#p62a16687c2)" style="fill: none; stroke: #fdbf6f"/>
    <path d="M 161.888767 105.828844 
L 161.888767 104.187088 
" clip-path="url(#p62a16687c2)" style="fill: none; stroke: #fdbf6f"/>
    <path d="M 166.556973 103.293035 
L 166.556973 101.102761 
" clip-path="url(#p62a16687c2)" style="fill: none; stroke: #fdbf6f"/>
    <path d="M 171.225179 100.46249 
L 171.225179 97.860631 
" clip-path="url(#p62a16687c2)" style="fill: none; stroke: #fdbf6f"/>
    <path d="M 175.893384 97.232017 
L 175.893384 94.574131 
" clip-path="url(#p62a16687c2)" style="fill: none; stroke: #fdbf6f"/>
    <path d="M 180.56159 93.999174 
L 180.56159 90.793799 
" clip-path="url(#p62a16687c2)" style="fill: none; stroke: #fdbf6f"/>
    <path d="M 185.229796 90.817419 
L 185.229796 87.114717 
" clip-path="url(#p62a16687c2)" style="fill: none; stroke: #fdbf6f"/>
    <path d="M 189.898002 87.374776 
L 189.898002 83.525828 
" clip-path="url(#p62a16687c2)" style="fill: none; stroke: #fdbf6f"/>
    <path d="M 194.566207 83.689474 
L 194.566207 79.490268 
" clip-path="url(#p62a16687c2)" style="fill: none; stroke: #fdbf6f"/>
    <path d="M 199.234413 79.905341 
L 199.234413 75.445436 
" clip-path="url(#p62a16687c2)" style="fill: none; stroke: #fdbf6f"/>
    <path d="M 203.902619 76.19733 
L 203.902619 71.275147 
" clip-path="url(#p62a16687c2)" style="fill: none; stroke: #fdbf6f"/>
    <path d="M 208.570824 72.330525 
L 208.570824 67.297697 
" clip-path="url(#p62a16687c2)" style="fill: none; stroke: #fdbf6f"/>
    <path d="M 213.23903 68.105251 
L 213.23903 63.098549 
" clip-path="url(#p62a16687c2)" style="fill: none; stroke: #fdbf6f"/>
   </g>
   <g id="line2d_11">
    <path d="M 52.031457 -1 
L 52.185933 0.000877 
L 54.520036 12.965315 
L 56.854139 24.229617 
L 59.188242 34.125305 
L 61.522344 42.897511 
L 63.856447 50.731127 
L 66.19055 57.768125 
L 68.524653 64.11927 
L 70.858756 69.872313 
L 73.192859 75.097727 
L 75.526962 79.852848 
L 77.861064 84.184936 
L 80.195167 88.13338 
L 82.52927 91.731411 
L 84.863373 95.007373 
L 87.197476 97.985704 
L 89.531579 100.687684 
L 91.865682 103.132039 
L 94.199784 105.335377 
L 96.533887 107.312612 
L 98.86799 109.077172 
L 101.202093 110.641276 
L 103.536196 112.016104 
L 105.870299 113.212035 
L 108.204402 114.238414 
L 110.538504 115.104156 
L 112.872607 115.8175 
L 115.20671 116.38612 
L 117.540813 116.81722 
L 119.874916 117.117545 
L 122.209019 117.293423 
L 124.543122 117.350791 
L 126.877224 117.29522 
L 129.211327 117.13193 
L 131.54543 116.865809 
L 133.879533 116.501422 
L 136.213636 116.043028 
L 138.547739 115.494582 
L 140.881842 114.859738 
L 143.215944 114.14188 
L 145.550047 113.344089 
L 147.88415 112.469165 
L 150.218253 111.51955 
L 152.552356 110.497641 
L 154.886459 109.405298 
L 157.220562 108.244174 
L 159.554664 107.015618 
L 161.888767 105.720664 
L 164.22287 104.360015 
L 166.556973 102.934036 
L 168.891076 101.442675 
L 171.225179 99.88551 
L 173.559282 98.261664 
L 175.893384 96.569693 
L 178.227487 94.807606 
L 180.56159 92.972771 
L 182.895693 91.061695 
L 185.229796 89.069941 
L 187.563899 86.991894 
L 189.898002 84.820454 
L 192.232104 82.546638 
L 194.566207 80.158975 
L 196.90031 77.642656 
L 199.234413 74.97819 
L 201.568516 72.139341 
L 203.902619 69.089598 
L 206.236722 65.775868 
L 208.570824 62.116043 
L 210.904927 57.971119 
L 213.23903 53.068914 
L 215.573133 46.704605 
" clip-path="url(#p62a16687c2)" style="fill: none; stroke-dasharray: 3.7,1.6; stroke-dashoffset: 0; stroke: #fdbf6f; stroke-linecap: round"/>
   </g>
   <g id="LineCollection_3">
    <path d="M 35.847213 22.075319 
L 35.847213 -1 
" clip-path="url(#p62a16687c2)" style="fill: none; stroke: #bfe5a0"/>
    <path d="M 40.515419 35.663767 
L 40.515419 26.077746 
" clip-path="url(#p62a16687c2)" style="fill: none; stroke: #bfe5a0"/>
    <path d="M 45.183624 47.873437 
L 45.183624 39.297409 
" clip-path="url(#p62a16687c2)" style="fill: none; stroke: #bfe5a0"/>
    <path d="M 49.85183 58.00647 
L 49.85183 50.830145 
" clip-path="url(#p62a16687c2)" style="fill: none; stroke: #bfe5a0"/>
    <path d="M 54.520036 67.986632 
L 54.520036 60.962805 
" clip-path="url(#p62a16687c2)" style="fill: none; stroke: #bfe5a0"/>
    <path d="M 59.188242 75.066616 
L 59.188242 69.085741 
" clip-path="url(#p62a16687c2)" style="fill: none; stroke: #bfe5a0"/>
    <path d="M 63.856447 81.016871 
L 63.856447 75.812103 
" clip-path="url(#p62a16687c2)" style="fill: none; stroke: #bfe5a0"/>
    <path d="M 68.524653 86.862608 
L 68.524653 82.82269 
" clip-path="url(#p62a16687c2)" style="fill: none; stroke: #bfe5a0"/>
    <path d="M 73.192859 92.739274 
L 73.192859 88.924157 
" clip-path="url(#p62a16687c2)" style="fill: none; stroke: #bfe5a0"/>
    <path d="M 77.861064 97.35664 
L 77.861064 94.306789 
" clip-path="url(#p62a16687c2)" style="fill: none; stroke: #bfe5a0"/>
    <path d="M 82.52927 101.500442 
L 82.52927 99.033789 
" clip-path="url(#p62a16687c2)" style="fill: none; stroke: #bfe5a0"/>
    <path d="M 87.197476 105.130694 
L 87.197476 102.901883 
" clip-path="url(#p62a16687c2)" style="fill: none; stroke: #bfe5a0"/>
    <path d="M 91.865682 107.950191 
L 91.865682 106.532016 
" clip-path="url(#p62a16687c2)" style="fill: none; stroke: #bfe5a0"/>
    <path d="M 96.533887 110.596151 
L 96.533887 109.677608 
" clip-path="url(#p62a16687c2)" style="fill: none; stroke: #bfe5a0"/>
    <path d="M 101.202093 112.760715 
L 101.202093 112.125545 
" clip-path="url(#p62a16687c2)" style="fill: none; stroke: #bfe5a0"/>
    <path d="M 105.870299 114.477672 
L 105.870299 114.103541 
" clip-path="url(#p62a16687c2)" style="fill: none; stroke: #bfe5a0"/>
    <path d="M 110.538504 115.777682 
L 110.538504 115.56756 
" clip-path="url(#p62a16687c2)" style="fill: none; stroke: #bfe5a0"/>
    <path d="M 115.20671 116.662677 
L 115.20671 116.562483 
" clip-path="url(#p62a16687c2)" style="fill: none; stroke: #bfe5a0"/>
    <path d="M 119.874916 117.183342 
L 119.874916 117.160464 
" clip-path="url(#p62a16687c2)" style="fill: none; stroke: #bfe5a0"/>
    <path d="M 124.543122 117.350791 
L 124.543122 117.350791 
" clip-path="url(#p62a16687c2)" style="fill: none; stroke: #bfe5a0"/>
    <path d="M 129.211327 117.190686 
L 129.211327 117.167023 
" clip-path="url(#p62a16687c2)" style="fill: none; stroke: #bfe5a0"/>
    <path d="M 133.879533 116.724905 
L 133.879533 116.621481 
" clip-path="url(#p62a16687c2)" style="fill: none; stroke: #bfe5a0"/>
    <path d="M 138.547739 115.971289 
L 138.547739 115.784018 
" clip-path="url(#p62a16687c2)" style="fill: none; stroke: #bfe5a0"/>
    <path d="M 143.215944 114.964374 
L 143.215944 114.630803 
" clip-path="url(#p62a16687c2)" style="fill: none; stroke: #bfe5a0"/>
    <path d="M 147.88415 113.70514 
L 147.88415 113.161202 
" clip-path="url(#p62a16687c2)" style="fill: none; stroke: #bfe5a0"/>
    <path d="M 152.552356 112.22722 
L 152.552356 111.501033 
" clip-path="url(#p62a16687c2)" style="fill: none; stroke: #bfe5a0"/>
    <path d="M 157.220562 110.474739 
L 157.220562 109.579653 
" clip-path="url(#p62a16687c2)" style="fill: none; stroke: #bfe5a0"/>
    <path d="M 161.888767 108.625864 
L 161.888767 107.37308 
" clip-path="url(#p62a16687c2)" style="fill: none; stroke: #bfe5a0"/>
    <path d="M 166.556973 106.682421 
L 166.556973 105.002741 
" clip-path="url(#p62a16687c2)" style="fill: none; stroke: #bfe5a0"/>
    <path d="M 171.225179 104.503506 
L 171.225179 102.500297 
" clip-path="url(#p62a16687c2)" style="fill: none; stroke: #bfe5a0"/>
    <path d="M 175.893384 102.004244 
L 175.893384 99.947672 
" clip-path="url(#p62a16687c2)" style="fill: none; stroke: #bfe5a0"/>
    <path d="M 180.56159 99.489076 
L 180.56159 96.994612 
" clip-path="url(#p62a16687c2)" style="fill: none; stroke: #bfe5a0"/>
    <path d="M 185.229796 97.001877 
L 185.229796 94.100999 
" clip-path="url(#p62a16687c2)" style="fill: none; stroke: #bfe5a0"/>
    <path d="M 189.898002 94.290494 
L 189.898002 91.260649 
" clip-path="url(#p62a16687c2)" style="fill: none; stroke: #bfe5a0"/>
    <path d="M 194.566207 91.366115 
L 194.566207 88.04068 
" clip-path="url(#p62a16687c2)" style="fill: none; stroke: #bfe5a0"/>
    <path d="M 199.234413 88.353606 
L 199.234413 84.791239 
" clip-path="url(#p62a16687c2)" style="fill: none; stroke: #bfe5a0"/>
    <path d="M 203.902619 85.372508 
L 203.902619 81.408786 
" clip-path="url(#p62a16687c2)" style="fill: none; stroke: #bfe5a0"/>
    <path d="M 208.570824 82.240368 
L 208.570824 78.165293 
" clip-path="url(#p62a16687c2)" style="fill: none; stroke: #bfe5a0"/>
    <path d="M 213.23903 78.824912 
L 213.23903 74.715028 
" clip-path="url(#p62a16687c2)" style="fill: none; stroke: #bfe5a0"/>
   </g>
   <g id="line2d_12">
    <path d="M 48.612067 -1 
L 49.85183 7.710899 
L 52.185933 21.271506 
L 54.520036 32.69069 
L 56.854139 42.453552 
L 59.188242 50.906038 
L 61.522344 58.300628 
L 63.856447 64.82546 
L 66.19055 70.623385 
L 68.524653 75.804734 
L 70.858756 80.456085 
L 73.192859 84.646311 
L 75.526962 88.430992 
L 77.861064 91.855523 
L 80.195167 94.957431 
L 82.52927 97.768085 
L 84.863373 100.313987 
L 87.197476 102.617776 
L 89.531579 104.698952 
L 91.865682 106.574485 
L 94.199784 108.259263 
L 96.533887 109.766461 
L 98.86799 111.10782 
L 101.202093 112.293899 
L 103.536196 113.334175 
L 105.870299 114.237311 
L 108.204402 115.011193 
L 110.538504 115.66305 
L 112.872607 116.199534 
L 115.20671 116.626778 
L 117.540813 116.950457 
L 119.874916 117.175827 
L 122.209019 117.307763 
L 124.543122 117.350791 
L 126.877224 117.309111 
L 129.211327 117.186619 
L 131.54543 116.986925 
L 133.879533 116.713369 
L 136.213636 116.369031 
L 138.547739 115.956744 
L 140.881842 115.4791 
L 143.215944 114.938457 
L 145.550047 114.336944 
L 147.88415 113.676464 
L 150.218253 112.958697 
L 152.552356 112.185095 
L 154.886459 111.356865 
L 157.220562 110.47504 
L 159.554664 109.540352 
L 161.888767 108.553305 
L 164.22287 107.514138 
L 166.556973 106.422812 
L 168.891076 105.27898 
L 171.225179 104.081961 
L 173.559282 102.830703 
L 175.893384 101.523734 
L 178.227487 100.159097 
L 180.56159 98.734272 
L 182.895693 97.246075 
L 185.229796 95.690501 
L 187.563899 94.062565 
L 189.898002 92.356031 
L 192.232104 90.563062 
L 194.566207 88.673718 
L 196.90031 86.67522 
L 199.234413 84.550821 
L 201.568516 82.278027 
L 203.902619 79.825604 
L 206.236722 77.148188 
L 208.570824 74.175743 
L 210.904927 70.789746 
L 213.23903 66.758269 
L 215.573133 61.480938 
" clip-path="url(#p62a16687c2)" style="fill: none; stroke-dasharray: 3.7,1.6; stroke-dashoffset: 0; stroke: #bfe5a0; stroke-linecap: round"/>
   </g>
   <g id="LineCollection_4">
    <path d="M 35.847213 40.390078 
L 35.847213 19.635882 
" clip-path="url(#p62a16687c2)" style="fill: none; stroke: #5e4fa2"/>
    <path d="M 40.515419 52.722816 
L 40.515419 45.6969 
" clip-path="url(#p62a16687c2)" style="fill: none; stroke: #5e4fa2"/>
    <path d="M 45.183624 62.796764 
L 45.183624 56.790822 
" clip-path="url(#p62a16687c2)" style="fill: none; stroke: #5e4fa2"/>
    <path d="M 49.85183 70.951642 
L 49.85183 65.738672 
" clip-path="url(#p62a16687c2)" style="fill: none; stroke: #5e4fa2"/>
    <path d="M 54.520036 78.478087 
L 54.520036 73.952941 
" clip-path="url(#p62a16687c2)" style="fill: none; stroke: #5e4fa2"/>
    <path d="M 59.188242 84.116206 
L 59.188242 79.987466 
" clip-path="url(#p62a16687c2)" style="fill: none; stroke: #5e4fa2"/>
    <path d="M 63.856447 88.63081 
L 63.856447 85.20952 
" clip-path="url(#p62a16687c2)" style="fill: none; stroke: #5e4fa2"/>
    <path d="M 68.524653 93.318752 
L 68.524653 90.367262 
" clip-path="url(#p62a16687c2)" style="fill: none; stroke: #5e4fa2"/>
    <path d="M 73.192859 97.794638 
L 73.192859 94.949741 
" clip-path="url(#p62a16687c2)" style="fill: none; stroke: #5e4fa2"/>
    <path d="M 77.861064 101.348646 
L 77.861064 99.051403 
" clip-path="url(#p62a16687c2)" style="fill: none; stroke: #5e4fa2"/>
    <path d="M 82.52927 104.597175 
L 82.52927 102.719457 
" clip-path="url(#p62a16687c2)" style="fill: none; stroke: #5e4fa2"/>
    <path d="M 87.197476 107.441196 
L 87.197476 105.685544 
" clip-path="url(#p62a16687c2)" style="fill: none; stroke: #5e4fa2"/>
    <path d="M 91.865682 109.69571 
L 91.865682 108.550042 
" clip-path="url(#p62a16687c2)" style="fill: none; stroke: #5e4fa2"/>
    <path d="M 96.533887 111.80807 
L 96.533887 111.074484 
" clip-path="url(#p62a16687c2)" style="fill: none; stroke: #5e4fa2"/>
    <path d="M 101.202093 113.566593 
L 101.202093 113.052025 
" clip-path="url(#p62a16687c2)" style="fill: none; stroke: #5e4fa2"/>
    <path d="M 105.870299 114.973328 
L 105.870299 114.665955 
" clip-path="url(#p62a16687c2)" style="fill: none; stroke: #5e4fa2"/>
    <path d="M 110.538504 116.044802 
L 110.538504 115.871274 
" clip-path="url(#p62a16687c2)" style="fill: none; stroke: #5e4fa2"/>
    <path d="M 115.20671 116.778351 
L 115.20671 116.695203 
" clip-path="url(#p62a16687c2)" style="fill: none; stroke: #5e4fa2"/>
    <path d="M 119.874916 117.211308 
L 119.874916 117.192263 
" clip-path="url(#p62a16687c2)" style="fill: none; stroke: #5e4fa2"/>
    <path d="M 124.543122 117.350791 
L 124.543122 117.350791 
" clip-path="url(#p62a16687c2)" style="fill: none; stroke: #5e4fa2"/>
    <path d="M 129.211327 117.217426 
L 129.211327 117.197726 
" clip-path="url(#p62a16687c2)" style="fill: none; stroke: #5e4fa2"/>
    <path d="M 133.879533 116.830104 
L 133.879533 116.744263 
" clip-path="url(#p62a16687c2)" style="fill: none; stroke: #5e4fa2"/>
    <path d="M 138.547739 116.205149 
L 138.547739 116.050723 
" clip-path="url(#p62a16687c2)" style="fill: none; stroke: #5e4fa2"/>
    <path d="M 143.215944 115.374552 
L 143.215944 115.100419 
" clip-path="url(#p62a16687c2)" style="fill: none; stroke: #5e4fa2"/>
    <path d="M 147.88415 114.342055 
L 147.88415 113.897685 
" clip-path="url(#p62a16687c2)" style="fill: none; stroke: #5e4fa2"/>
    <path d="M 152.552356 113.1383 
L 152.552356 112.548182 
" clip-path="url(#p62a16687c2)" style="fill: none; stroke: #5e4fa2"/>
    <path d="M 157.220562 111.72135 
L 157.220562 111.000522 
" clip-path="url(#p62a16687c2)" style="fill: none; stroke: #5e4fa2"/>
    <path d="M 161.888767 110.236998 
L 161.888767 109.23813 
" clip-path="url(#p62a16687c2)" style="fill: none; stroke: #5e4fa2"/>
    <path d="M 166.556973 108.698308 
L 166.556973 107.376896 
" clip-path="url(#p62a16687c2)" style="fill: none; stroke: #5e4fa2"/>
    <path d="M 171.225179 106.968027 
L 171.225179 105.386876 
" clip-path="url(#p62a16687c2)" style="fill: none; stroke: #5e4fa2"/>
    <path d="M 175.893384 105.003903 
L 175.893384 103.394256 
" clip-path="url(#p62a16687c2)" style="fill: none; stroke: #5e4fa2"/>
    <path d="M 180.56159 103.035331 
L 180.56159 101.09346 
" clip-path="url(#p62a16687c2)" style="fill: none; stroke: #5e4fa2"/>
    <path d="M 185.229796 101.097804 
L 185.229796 98.871373 
" clip-path="url(#p62a16687c2)" style="fill: none; stroke: #5e4fa2"/>
    <path d="M 189.898002 99.010534 
L 189.898002 96.643588 
" clip-path="url(#p62a16687c2)" style="fill: none; stroke: #5e4fa2"/>
    <path d="M 194.566207 96.733827 
L 194.566207 94.140915 
" clip-path="url(#p62a16687c2)" style="fill: none; stroke: #5e4fa2"/>
    <path d="M 199.234413 94.380847 
L 199.234413 91.61028 
" clip-path="url(#p62a16687c2)" style="fill: none; stroke: #5e4fa2"/>
    <path d="M 203.902619 92.046221 
L 203.902619 89.01585 
" clip-path="url(#p62a16687c2)" style="fill: none; stroke: #5e4fa2"/>
    <path d="M 208.570824 89.636546 
L 208.570824 86.509149 
" clip-path="url(#p62a16687c2)" style="fill: none; stroke: #5e4fa2"/>
    <path d="M 213.23903 86.907273 
L 213.23903 83.689563 
" clip-path="url(#p62a16687c2)" style="fill: none; stroke: #5e4fa2"/>
   </g>
   <g id="line2d_13">
    <path d="M 45.830518 -1 
L 47.517727 12.30387 
L 49.85183 26.854525 
L 52.185933 38.64757 
L 54.520036 48.407934 
L 56.854139 56.629473 
L 59.188242 63.657974 
L 61.522344 69.741609 
L 63.856447 75.062428 
L 66.19055 79.756661 
L 68.524653 83.928038 
L 70.858756 87.656807 
L 73.192859 91.005872 
L 75.526962 94.02526 
L 77.861064 96.755131 
L 80.195167 99.228117 
L 82.52927 101.470952 
L 84.863373 103.505823 
L 87.197476 105.351218 
L 89.531579 107.022732 
L 91.865682 108.533679 
L 94.199784 109.895366 
L 96.533887 111.117694 
L 98.86799 112.209327 
L 101.202093 113.177899 
L 103.536196 114.030264 
L 105.870299 114.772598 
L 108.204402 115.41055 
L 110.538504 115.949326 
L 112.872607 116.393762 
L 115.20671 116.748389 
L 117.540813 117.017472 
L 119.874916 117.205046 
L 122.209019 117.314941 
L 124.543122 117.350795 
L 126.877224 117.316064 
L 129.211327 117.214033 
L 131.54543 117.047812 
L 133.879533 116.820339 
L 136.213636 116.534377 
L 138.547739 116.192513 
L 140.881842 115.797151 
L 143.215944 115.350514 
L 145.550047 114.854632 
L 147.88415 114.311344 
L 150.218253 113.722291 
L 152.552356 113.088907 
L 154.886459 112.412434 
L 157.220562 111.693883 
L 159.554664 110.934046 
L 161.888767 110.133504 
L 164.22287 109.292569 
L 166.556973 108.411311 
L 168.891076 107.489489 
L 171.225179 106.526684 
L 173.559282 105.522019 
L 175.893384 104.474297 
L 178.227487 103.381905 
L 180.56159 102.242747 
L 182.895693 101.054164 
L 185.229796 99.812829 
L 187.563899 98.514535 
L 189.898002 97.154086 
L 192.232104 95.724934 
L 194.566207 94.218791 
L 196.90031 92.625003 
L 199.234413 90.929635 
L 201.568516 89.114001 
L 203.902619 87.152141 
L 206.236722 85.006433 
L 208.570824 82.618768 
L 210.904927 79.890922 
L 213.23903 76.63066 
L 215.573133 72.340362 
" clip-path="url(#p62a16687c2)" style="fill: none; stroke-dasharray: 3.7,1.6; stroke-dashoffset: 0; stroke: #5e4fa2; stroke-linecap: round"/>
   </g>
   <g id="line2d_14">
    <defs>
     <path id="mf0f0aa5cae" d="M 0 2 
C 0.530406 2 1.03916 1.789267 1.414214 1.414214 
C 1.789267 1.03916 2 0.530406 2 0 
C 2 -0.530406 1.789267 -1.03916 1.414214 -1.414214 
C 1.03916 -1.789267 0.530406 -2 0 -2 
C -0.530406 -2 -1.03916 -1.789267 -1.414214 -1.414214 
C -1.789267 -1.03916 -2 -0.530406 -2 0 
C -2 0.530406 -1.789267 1.03916 -1.414214 1.414214 
C -1.03916 1.789267 -0.530406 2 0 2 
z
" style="stroke: #9e0142"/>
    </defs>
    <g clip-path="url(#p62a16687c2)">
     <use xlink:href="#mf0f0aa5cae" x="47.460663" y="-1" style="fill: #ce7fa0; stroke: #9e0142"/>
     <use xlink:href="#mf0f0aa5cae" x="49.85183" y="5.252338" style="fill: #ce7fa0; stroke: #9e0142"/>
     <use xlink:href="#mf0f0aa5cae" x="54.520036" y="17.540581" style="fill: #ce7fa0; stroke: #9e0142"/>
     <use xlink:href="#mf0f0aa5cae" x="59.188242" y="27.613666" style="fill: #ce7fa0; stroke: #9e0142"/>
     <use xlink:href="#mf0f0aa5cae" x="63.856447" y="36.545602" style="fill: #ce7fa0; stroke: #9e0142"/>
     <use xlink:href="#mf0f0aa5cae" x="68.524653" y="46.416868" style="fill: #ce7fa0; stroke: #9e0142"/>
     <use xlink:href="#mf0f0aa5cae" x="73.192859" y="56.111129" style="fill: #ce7fa0; stroke: #9e0142"/>
     <use xlink:href="#mf0f0aa5cae" x="77.861064" y="64.863279" style="fill: #ce7fa0; stroke: #9e0142"/>
     <use xlink:href="#mf0f0aa5cae" x="82.52927" y="73.474783" style="fill: #ce7fa0; stroke: #9e0142"/>
     <use xlink:href="#mf0f0aa5cae" x="87.197476" y="80.879143" style="fill: #ce7fa0; stroke: #9e0142"/>
     <use xlink:href="#mf0f0aa5cae" x="91.865682" y="87.854343" style="fill: #ce7fa0; stroke: #9e0142"/>
     <use xlink:href="#mf0f0aa5cae" x="96.533887" y="94.749926" style="fill: #ce7fa0; stroke: #9e0142"/>
     <use xlink:href="#mf0f0aa5cae" x="101.202093" y="100.749617" style="fill: #ce7fa0; stroke: #9e0142"/>
     <use xlink:href="#mf0f0aa5cae" x="105.870299" y="106.034832" style="fill: #ce7fa0; stroke: #9e0142"/>
     <use xlink:href="#mf0f0aa5cae" x="110.538504" y="110.470734" style="fill: #ce7fa0; stroke: #9e0142"/>
     <use xlink:href="#mf0f0aa5cae" x="115.20671" y="113.928941" style="fill: #ce7fa0; stroke: #9e0142"/>
     <use xlink:href="#mf0f0aa5cae" x="119.874916" y="116.350608" style="fill: #ce7fa0; stroke: #9e0142"/>
     <use xlink:href="#mf0f0aa5cae" x="124.543122" y="117.350791" style="fill: #ce7fa0; stroke: #9e0142"/>
     <use xlink:href="#mf0f0aa5cae" x="129.211327" y="116.385619" style="fill: #ce7fa0; stroke: #9e0142"/>
     <use xlink:href="#mf0f0aa5cae" x="133.879533" y="114.172957" style="fill: #ce7fa0; stroke: #9e0142"/>
     <use xlink:href="#mf0f0aa5cae" x="138.547739" y="111.185355" style="fill: #ce7fa0; stroke: #9e0142"/>
     <use xlink:href="#mf0f0aa5cae" x="143.215944" y="107.588958" style="fill: #ce7fa0; stroke: #9e0142"/>
     <use xlink:href="#mf0f0aa5cae" x="147.88415" y="103.48699" style="fill: #ce7fa0; stroke: #9e0142"/>
     <use xlink:href="#mf0f0aa5cae" x="152.552356" y="99.122924" style="fill: #ce7fa0; stroke: #9e0142"/>
     <use xlink:href="#mf0f0aa5cae" x="157.220562" y="94.369639" style="fill: #ce7fa0; stroke: #9e0142"/>
     <use xlink:href="#mf0f0aa5cae" x="161.888767" y="89.463843" style="fill: #ce7fa0; stroke: #9e0142"/>
     <use xlink:href="#mf0f0aa5cae" x="166.556973" y="84.664247" style="fill: #ce7fa0; stroke: #9e0142"/>
     <use xlink:href="#mf0f0aa5cae" x="171.225179" y="79.454458" style="fill: #ce7fa0; stroke: #9e0142"/>
     <use xlink:href="#mf0f0aa5cae" x="175.893384" y="74.236467" style="fill: #ce7fa0; stroke: #9e0142"/>
     <use xlink:href="#mf0f0aa5cae" x="180.56159" y="68.836704" style="fill: #ce7fa0; stroke: #9e0142"/>
     <use xlink:href="#mf0f0aa5cae" x="185.229796" y="63.796165" style="fill: #ce7fa0; stroke: #9e0142"/>
     <use xlink:href="#mf0f0aa5cae" x="189.898002" y="58.661574" style="fill: #ce7fa0; stroke: #9e0142"/>
     <use xlink:href="#mf0f0aa5cae" x="194.566207" y="53.335277" style="fill: #ce7fa0; stroke: #9e0142"/>
     <use xlink:href="#mf0f0aa5cae" x="199.234413" y="47.987815" style="fill: #ce7fa0; stroke: #9e0142"/>
     <use xlink:href="#mf0f0aa5cae" x="203.902619" y="42.924729" style="fill: #ce7fa0; stroke: #9e0142"/>
     <use xlink:href="#mf0f0aa5cae" x="208.570824" y="37.946105" style="fill: #ce7fa0; stroke: #9e0142"/>
     <use xlink:href="#mf0f0aa5cae" x="213.23903" y="32.477453" style="fill: #ce7fa0; stroke: #9e0142"/>
    </g>
   </g>
   <g id="line2d_15">
    <defs>
     <path id="m9e404ae066" d="M 0 2 
C 0.530406 2 1.03916 1.789267 1.414214 1.414214 
C 1.789267 1.03916 2 0.530406 2 0 
C 2 -0.530406 1.789267 -1.03916 1.414214 -1.414214 
C 1.03916 -1.789267 0.530406 -2 0 -2 
C -0.530406 -2 -1.03916 -1.789267 -1.414214 -1.414214 
C -1.789267 -1.03916 -2 -0.530406 -2 0 
C -2 0.530406 -1.789267 1.03916 -1.414214 1.414214 
C -1.03916 1.789267 -0.530406 2 0 2 
z
" style="stroke: #fdbf6f"/>
    </defs>
    <g clip-path="url(#p62a16687c2)">
     <use xlink:href="#m9e404ae066" x="37.730875" y="-1" style="fill: #fddeb6; stroke: #fdbf6f"/>
     <use xlink:href="#m9e404ae066" x="40.515419" y="13.075697" style="fill: #fddeb6; stroke: #fdbf6f"/>
     <use xlink:href="#m9e404ae066" x="45.183624" y="27.087062" style="fill: #fddeb6; stroke: #fdbf6f"/>
     <use xlink:href="#m9e404ae066" x="49.85183" y="39.317936" style="fill: #fddeb6; stroke: #fdbf6f"/>
     <use xlink:href="#m9e404ae066" x="54.520036" y="50.98294" style="fill: #fddeb6; stroke: #fdbf6f"/>
     <use xlink:href="#m9e404ae066" x="59.188242" y="60.007732" style="fill: #fddeb6; stroke: #fdbf6f"/>
     <use xlink:href="#m9e404ae066" x="63.856447" y="67.649187" style="fill: #fddeb6; stroke: #fdbf6f"/>
     <use xlink:href="#m9e404ae066" x="68.524653" y="75.550071" style="fill: #fddeb6; stroke: #fdbf6f"/>
     <use xlink:href="#m9e404ae066" x="73.192859" y="83.019893" style="fill: #fddeb6; stroke: #fdbf6f"/>
     <use xlink:href="#m9e404ae066" x="77.861064" y="89.335784" style="fill: #fddeb6; stroke: #fdbf6f"/>
     <use xlink:href="#m9e404ae066" x="82.52927" y="95.005285" style="fill: #fddeb6; stroke: #fdbf6f"/>
     <use xlink:href="#m9e404ae066" x="87.197476" y="99.830936" style="fill: #fddeb6; stroke: #fdbf6f"/>
     <use xlink:href="#m9e404ae066" x="91.865682" y="104.01931" style="fill: #fddeb6; stroke: #fdbf6f"/>
     <use xlink:href="#m9e404ae066" x="96.533887" y="107.807711" style="fill: #fddeb6; stroke: #fdbf6f"/>
     <use xlink:href="#m9e404ae066" x="101.202093" y="110.842032" style="fill: #fddeb6; stroke: #fdbf6f"/>
     <use xlink:href="#m9e404ae066" x="105.870299" y="113.284085" style="fill: #fddeb6; stroke: #fdbf6f"/>
     <use xlink:href="#m9e404ae066" x="110.538504" y="115.117281" style="fill: #fddeb6; stroke: #fdbf6f"/>
     <use xlink:href="#m9e404ae066" x="115.20671" y="116.367296" style="fill: #fddeb6; stroke: #fdbf6f"/>
     <use xlink:href="#m9e404ae066" x="119.874916" y="117.11232" style="fill: #fddeb6; stroke: #fdbf6f"/>
     <use xlink:href="#m9e404ae066" x="124.543122" y="117.350791" style="fill: #fddeb6; stroke: #fdbf6f"/>
     <use xlink:href="#m9e404ae066" x="129.211327" y="117.121585" style="fill: #fddeb6; stroke: #fdbf6f"/>
     <use xlink:href="#m9e404ae066" x="133.879533" y="116.44799" style="fill: #fddeb6; stroke: #fdbf6f"/>
     <use xlink:href="#m9e404ae066" x="138.547739" y="115.389728" style="fill: #fddeb6; stroke: #fdbf6f"/>
     <use xlink:href="#m9e404ae066" x="143.215944" y="113.955871" style="fill: #fddeb6; stroke: #fdbf6f"/>
     <use xlink:href="#m9e404ae066" x="147.88415" y="112.14938" style="fill: #fddeb6; stroke: #fdbf6f"/>
     <use xlink:href="#m9e404ae066" x="152.552356" y="110.078567" style="fill: #fddeb6; stroke: #fdbf6f"/>
     <use xlink:href="#m9e404ae066" x="157.220562" y="107.662964" style="fill: #fddeb6; stroke: #fdbf6f"/>
     <use xlink:href="#m9e404ae066" x="161.888767" y="105.007966" style="fill: #fddeb6; stroke: #fdbf6f"/>
     <use xlink:href="#m9e404ae066" x="166.556973" y="102.197898" style="fill: #fddeb6; stroke: #fdbf6f"/>
     <use xlink:href="#m9e404ae066" x="171.225179" y="99.161561" style="fill: #fddeb6; stroke: #fdbf6f"/>
     <use xlink:href="#m9e404ae066" x="175.893384" y="95.903074" style="fill: #fddeb6; stroke: #fdbf6f"/>
     <use xlink:href="#m9e404ae066" x="180.56159" y="92.396487" style="fill: #fddeb6; stroke: #fdbf6f"/>
     <use xlink:href="#m9e404ae066" x="185.229796" y="88.966068" style="fill: #fddeb6; stroke: #fdbf6f"/>
     <use xlink:href="#m9e404ae066" x="189.898002" y="85.450302" style="fill: #fddeb6; stroke: #fdbf6f"/>
     <use xlink:href="#m9e404ae066" x="194.566207" y="81.589871" style="fill: #fddeb6; stroke: #fdbf6f"/>
     <use xlink:href="#m9e404ae066" x="199.234413" y="77.675389" style="fill: #fddeb6; stroke: #fdbf6f"/>
     <use xlink:href="#m9e404ae066" x="203.902619" y="73.736238" style="fill: #fddeb6; stroke: #fdbf6f"/>
     <use xlink:href="#m9e404ae066" x="208.570824" y="69.814111" style="fill: #fddeb6; stroke: #fdbf6f"/>
     <use xlink:href="#m9e404ae066" x="213.23903" y="65.6019" style="fill: #fddeb6; stroke: #fdbf6f"/>
    </g>
   </g>
   <g id="line2d_16">
    <defs>
     <path id="m676aa8e19a" d="M 0 2 
C 0.530406 2 1.03916 1.789267 1.414214 1.414214 
C 1.789267 1.03916 2 0.530406 2 0 
C 2 -0.530406 1.789267 -1.03916 1.414214 -1.414214 
C 1.03916 -1.789267 0.530406 -2 0 -2 
C -0.530406 -2 -1.03916 -1.789267 -1.414214 -1.414214 
C -1.789267 -1.03916 -2 -0.530406 -2 0 
C -2 0.530406 -1.789267 1.03916 -1.414214 1.414214 
C -1.03916 1.789267 -0.530406 2 0 2 
z
" style="stroke: #bfe5a0"/>
    </defs>
    <g clip-path="url(#p62a16687c2)">
     <use xlink:href="#m676aa8e19a" x="35.847213" y="8.432765" style="fill: #def1cf; stroke: #bfe5a0"/>
     <use xlink:href="#m676aa8e19a" x="40.515419" y="30.870756" style="fill: #def1cf; stroke: #bfe5a0"/>
     <use xlink:href="#m676aa8e19a" x="45.183624" y="43.585423" style="fill: #def1cf; stroke: #bfe5a0"/>
     <use xlink:href="#m676aa8e19a" x="49.85183" y="54.418308" style="fill: #def1cf; stroke: #bfe5a0"/>
     <use xlink:href="#m676aa8e19a" x="54.520036" y="64.474719" style="fill: #def1cf; stroke: #bfe5a0"/>
     <use xlink:href="#m676aa8e19a" x="59.188242" y="72.076179" style="fill: #def1cf; stroke: #bfe5a0"/>
     <use xlink:href="#m676aa8e19a" x="63.856447" y="78.414487" style="fill: #def1cf; stroke: #bfe5a0"/>
     <use xlink:href="#m676aa8e19a" x="68.524653" y="84.842649" style="fill: #def1cf; stroke: #bfe5a0"/>
     <use xlink:href="#m676aa8e19a" x="73.192859" y="90.831715" style="fill: #def1cf; stroke: #bfe5a0"/>
     <use xlink:href="#m676aa8e19a" x="77.861064" y="95.831714" style="fill: #def1cf; stroke: #bfe5a0"/>
     <use xlink:href="#m676aa8e19a" x="82.52927" y="100.267115" style="fill: #def1cf; stroke: #bfe5a0"/>
     <use xlink:href="#m676aa8e19a" x="87.197476" y="104.016288" style="fill: #def1cf; stroke: #bfe5a0"/>
     <use xlink:href="#m676aa8e19a" x="91.865682" y="107.241104" style="fill: #def1cf; stroke: #bfe5a0"/>
     <use xlink:href="#m676aa8e19a" x="96.533887" y="110.13688" style="fill: #def1cf; stroke: #bfe5a0"/>
     <use xlink:href="#m676aa8e19a" x="101.202093" y="112.44313" style="fill: #def1cf; stroke: #bfe5a0"/>
     <use xlink:href="#m676aa8e19a" x="105.870299" y="114.290606" style="fill: #def1cf; stroke: #bfe5a0"/>
     <use xlink:href="#m676aa8e19a" x="110.538504" y="115.672621" style="fill: #def1cf; stroke: #bfe5a0"/>
     <use xlink:href="#m676aa8e19a" x="115.20671" y="116.61258" style="fill: #def1cf; stroke: #bfe5a0"/>
     <use xlink:href="#m676aa8e19a" x="119.874916" y="117.171903" style="fill: #def1cf; stroke: #bfe5a0"/>
     <use xlink:href="#m676aa8e19a" x="124.543122" y="117.350791" style="fill: #def1cf; stroke: #bfe5a0"/>
     <use xlink:href="#m676aa8e19a" x="129.211327" y="117.178855" style="fill: #def1cf; stroke: #bfe5a0"/>
     <use xlink:href="#m676aa8e19a" x="133.879533" y="116.673193" style="fill: #def1cf; stroke: #bfe5a0"/>
     <use xlink:href="#m676aa8e19a" x="138.547739" y="115.877653" style="fill: #def1cf; stroke: #bfe5a0"/>
     <use xlink:href="#m676aa8e19a" x="143.215944" y="114.797589" style="fill: #def1cf; stroke: #bfe5a0"/>
     <use xlink:href="#m676aa8e19a" x="147.88415" y="113.433171" style="fill: #def1cf; stroke: #bfe5a0"/>
     <use xlink:href="#m676aa8e19a" x="152.552356" y="111.864126" style="fill: #def1cf; stroke: #bfe5a0"/>
     <use xlink:href="#m676aa8e19a" x="157.220562" y="110.027196" style="fill: #def1cf; stroke: #bfe5a0"/>
     <use xlink:href="#m676aa8e19a" x="161.888767" y="107.999472" style="fill: #def1cf; stroke: #bfe5a0"/>
     <use xlink:href="#m676aa8e19a" x="166.556973" y="105.842581" style="fill: #def1cf; stroke: #bfe5a0"/>
     <use xlink:href="#m676aa8e19a" x="171.225179" y="103.501901" style="fill: #def1cf; stroke: #bfe5a0"/>
     <use xlink:href="#m676aa8e19a" x="175.893384" y="100.975958" style="fill: #def1cf; stroke: #bfe5a0"/>
     <use xlink:href="#m676aa8e19a" x="180.56159" y="98.241844" style="fill: #def1cf; stroke: #bfe5a0"/>
     <use xlink:href="#m676aa8e19a" x="185.229796" y="95.551438" style="fill: #def1cf; stroke: #bfe5a0"/>
     <use xlink:href="#m676aa8e19a" x="189.898002" y="92.775572" style="fill: #def1cf; stroke: #bfe5a0"/>
     <use xlink:href="#m676aa8e19a" x="194.566207" y="89.703397" style="fill: #def1cf; stroke: #bfe5a0"/>
     <use xlink:href="#m676aa8e19a" x="199.234413" y="86.572422" style="fill: #def1cf; stroke: #bfe5a0"/>
     <use xlink:href="#m676aa8e19a" x="203.902619" y="83.390647" style="fill: #def1cf; stroke: #bfe5a0"/>
     <use xlink:href="#m676aa8e19a" x="208.570824" y="80.202831" style="fill: #def1cf; stroke: #bfe5a0"/>
     <use xlink:href="#m676aa8e19a" x="213.23903" y="76.76997" style="fill: #def1cf; stroke: #bfe5a0"/>
    </g>
   </g>
   <g id="line2d_17">
    <defs>
     <path id="mc32e508fba" d="M 0 2 
C 0.530406 2 1.03916 1.789267 1.414214 1.414214 
C 1.789267 1.03916 2 0.530406 2 0 
C 2 -0.530406 1.789267 -1.03916 1.414214 -1.414214 
C 1.03916 -1.789267 0.530406 -2 0 -2 
C -0.530406 -2 -1.03916 -1.789267 -1.414214 -1.414214 
C -1.789267 -1.03916 -2 -0.530406 -2 0 
C -2 0.530406 -1.789267 1.03916 -1.414214 1.414214 
C -1.03916 1.789267 -0.530406 2 0 2 
z
" style="stroke: #5e4fa2"/>
    </defs>
    <g clip-path="url(#p62a16687c2)">
     <use xlink:href="#mc32e508fba" x="35.847213" y="30.01298" style="fill: #aea6d0; stroke: #5e4fa2"/>
     <use xlink:href="#mc32e508fba" x="40.515419" y="49.209858" style="fill: #aea6d0; stroke: #5e4fa2"/>
     <use xlink:href="#mc32e508fba" x="45.183624" y="59.793793" style="fill: #aea6d0; stroke: #5e4fa2"/>
     <use xlink:href="#mc32e508fba" x="49.85183" y="68.345157" style="fill: #aea6d0; stroke: #5e4fa2"/>
     <use xlink:href="#mc32e508fba" x="54.520036" y="76.215514" style="fill: #aea6d0; stroke: #5e4fa2"/>
     <use xlink:href="#mc32e508fba" x="59.188242" y="82.051836" style="fill: #aea6d0; stroke: #5e4fa2"/>
     <use xlink:href="#mc32e508fba" x="63.856447" y="86.920165" style="fill: #aea6d0; stroke: #5e4fa2"/>
     <use xlink:href="#mc32e508fba" x="68.524653" y="91.843007" style="fill: #aea6d0; stroke: #5e4fa2"/>
     <use xlink:href="#mc32e508fba" x="73.192859" y="96.37219" style="fill: #aea6d0; stroke: #5e4fa2"/>
     <use xlink:href="#mc32e508fba" x="77.861064" y="100.200025" style="fill: #aea6d0; stroke: #5e4fa2"/>
     <use xlink:href="#mc32e508fba" x="82.52927" y="103.658316" style="fill: #aea6d0; stroke: #5e4fa2"/>
     <use xlink:href="#mc32e508fba" x="87.197476" y="106.56337" style="fill: #aea6d0; stroke: #5e4fa2"/>
     <use xlink:href="#mc32e508fba" x="91.865682" y="109.122876" style="fill: #aea6d0; stroke: #5e4fa2"/>
     <use xlink:href="#mc32e508fba" x="96.533887" y="111.441277" style="fill: #aea6d0; stroke: #5e4fa2"/>
     <use xlink:href="#mc32e508fba" x="101.202093" y="113.309309" style="fill: #aea6d0; stroke: #5e4fa2"/>
     <use xlink:href="#mc32e508fba" x="105.870299" y="114.819642" style="fill: #aea6d0; stroke: #5e4fa2"/>
     <use xlink:href="#mc32e508fba" x="110.538504" y="115.958038" style="fill: #aea6d0; stroke: #5e4fa2"/>
     <use xlink:href="#mc32e508fba" x="115.20671" y="116.736777" style="fill: #aea6d0; stroke: #5e4fa2"/>
     <use xlink:href="#mc32e508fba" x="119.874916" y="117.201785" style="fill: #aea6d0; stroke: #5e4fa2"/>
     <use xlink:href="#mc32e508fba" x="124.543122" y="117.350791" style="fill: #aea6d0; stroke: #5e4fa2"/>
     <use xlink:href="#mc32e508fba" x="129.211327" y="117.207576" style="fill: #aea6d0; stroke: #5e4fa2"/>
     <use xlink:href="#mc32e508fba" x="133.879533" y="116.787184" style="fill: #aea6d0; stroke: #5e4fa2"/>
     <use xlink:href="#mc32e508fba" x="138.547739" y="116.127936" style="fill: #aea6d0; stroke: #5e4fa2"/>
     <use xlink:href="#mc32e508fba" x="143.215944" y="115.237485" style="fill: #aea6d0; stroke: #5e4fa2"/>
     <use xlink:href="#mc32e508fba" x="147.88415" y="114.11987" style="fill: #aea6d0; stroke: #5e4fa2"/>
     <use xlink:href="#mc32e508fba" x="152.552356" y="112.843241" style="fill: #aea6d0; stroke: #5e4fa2"/>
     <use xlink:href="#mc32e508fba" x="157.220562" y="111.360936" style="fill: #aea6d0; stroke: #5e4fa2"/>
     <use xlink:href="#mc32e508fba" x="161.888767" y="109.737564" style="fill: #aea6d0; stroke: #5e4fa2"/>
     <use xlink:href="#mc32e508fba" x="166.556973" y="108.037602" style="fill: #aea6d0; stroke: #5e4fa2"/>
     <use xlink:href="#mc32e508fba" x="171.225179" y="106.177452" style="fill: #aea6d0; stroke: #5e4fa2"/>
     <use xlink:href="#mc32e508fba" x="175.893384" y="104.19908" style="fill: #aea6d0; stroke: #5e4fa2"/>
     <use xlink:href="#mc32e508fba" x="180.56159" y="102.064396" style="fill: #aea6d0; stroke: #5e4fa2"/>
     <use xlink:href="#mc32e508fba" x="185.229796" y="99.984588" style="fill: #aea6d0; stroke: #5e4fa2"/>
     <use xlink:href="#mc32e508fba" x="189.898002" y="97.827061" style="fill: #aea6d0; stroke: #5e4fa2"/>
     <use xlink:href="#mc32e508fba" x="194.566207" y="95.437371" style="fill: #aea6d0; stroke: #5e4fa2"/>
     <use xlink:href="#mc32e508fba" x="199.234413" y="92.995563" style="fill: #aea6d0; stroke: #5e4fa2"/>
     <use xlink:href="#mc32e508fba" x="203.902619" y="90.531036" style="fill: #aea6d0; stroke: #5e4fa2"/>
     <use xlink:href="#mc32e508fba" x="208.570824" y="88.072848" style="fill: #aea6d0; stroke: #5e4fa2"/>
     <use xlink:href="#mc32e508fba" x="213.23903" y="85.298418" style="fill: #aea6d0; stroke: #5e4fa2"/>
    </g>
   </g>
   <g id="patch_3">
    <path d="M 26.510802 117.350791 
L 26.510802 0.72 
" style="fill: none; stroke: #000000; stroke-width: 0.35; stroke-linejoin: miter; stroke-linecap: square"/>
   </g>
   <g id="patch_4">
    <path d="M 222.575442 117.350791 
L 222.575442 0.72 
" style="fill: none; stroke: #000000; stroke-width: 0.35; stroke-linejoin: miter; stroke-linecap: square"/>
   </g>
   <g id="patch_5">
    <path d="M 26.510802 117.350791 
L 222.575442 117.350791 
" style="fill: none; stroke: #000000; stroke-width: 0.35; stroke-linejoin: miter; stroke-linecap: square"/>
   </g>
   <g id="patch_6">
    <path d="M 26.510802 0.72 
L 222.575442 0.72 
" style="fill: none; stroke: #000000; stroke-width: 0.35; stroke-linejoin: miter; stroke-linecap: square"/>
   </g>
  </g>
 </g>
 <defs>
  <clipPath id="p62a16687c2">
   <rect x="26.510802" y="0.72" width="196.06464" height="116.630791"/>
  </clipPath>
 </defs>
</svg>
