<?xml version="1.0" encoding="utf-8" standalone="no"?>
<!DOCTYPE svg PUBLIC "-//W3C//DTD SVG 1.1//EN"
  "http://www.w3.org/Graphics/SVG/1.1/DTD/svg11.dtd">
<svg xmlns:xlink="http://www.w3.org/1999/xlink" width="213.32533pt" height="139.239886pt" viewBox="0 0 213.32533 139.239886" xmlns="http://www.w3.org/2000/svg" version="1.1">
 <metadata>
  <rdf:RDF xmlns:dc="http://purl.org/dc/elements/1.1/" xmlns:cc="http://creativecommons.org/ns#" xmlns:rdf="http://www.w3.org/1999/02/22-rdf-syntax-ns#">
   <cc:Work>
    <dc:type rdf:resource="http://purl.org/dc/dcmitype/StillImage"/>
    <dc:date>2022-06-18T18:05:03.678341</dc:date>
    <dc:format>image/svg+xml</dc:format>
    <dc:creator>
     <cc:Agent>
      <dc:title>Matplotlib v3.5.1, https://matplotlib.org/</dc:title>
     </cc:Agent>
    </dc:creator>
   </cc:Work>
  </rdf:RDF>
 </metadata>
 <defs>
  <style type="text/css">*{stroke-linejoin: round; stroke-linecap: butt}</style>
 </defs>
 <g id="figure_1">
  <g id="patch_1">
   <path d="M 0 139.239886 
L 213.32533 139.239886 
L 213.32533 0 
L 0 0 
L 0 139.239886 
z
" style="fill: none"/>
  </g>
  <g id="axes_1">
   <g id="patch_2">
    <path d="M 16.54069 117.350791 
L 212.60533 117.350791 
L 212.60533 0.72 
L 16.54069 0.72 
L 16.54069 117.350791 
z
" style="fill: none"/>
   </g>
   <g id="line2d_1">
    <defs>
     <path id="m3d4fa96166" d="M 0 2.5 
C 0.663008 2.5 1.29895 2.236584 1.767767 1.767767 
C 2.236584 1.29895 2.5 0.663008 2.5 0 
C 2.5 -0.663008 2.236584 -1.29895 1.767767 -1.767767 
C 1.29895 -2.236584 0.663008 -2.5 0 -2.5 
C -0.663008 -2.5 -1.29895 -2.236584 -1.767767 -1.767767 
C -2.236584 -1.29895 -2.5 -0.663008 -2.5 0 
C -2.5 0.663008 -2.236584 1.29895 -1.767767 1.767767 
C -1.29895 2.236584 -0.663008 2.5 0 2.5 
z
" style="stroke: #5e4fa2"/>
    </defs>
    <g clip-path="url(#p57500660c7)">
     <use xlink:href="#m3d4fa96166" x="25.452719" y="112.049392" style="fill: #aea6d0; stroke: #5e4fa2"/>
     <use xlink:href="#m3d4fa96166" x="33.202309" y="110.701666" style="fill: #aea6d0; stroke: #5e4fa2"/>
     <use xlink:href="#m3d4fa96166" x="40.9519" y="107.761272" style="fill: #aea6d0; stroke: #5e4fa2"/>
     <use xlink:href="#m3d4fa96166" x="48.70149" y="102.624369" style="fill: #aea6d0; stroke: #5e4fa2"/>
     <use xlink:href="#m3d4fa96166" x="56.451081" y="93.977327" style="fill: #aea6d0; stroke: #5e4fa2"/>
     <use xlink:href="#m3d4fa96166" x="64.200671" y="78.579317" style="fill: #aea6d0; stroke: #5e4fa2"/>
     <use xlink:href="#m3d4fa96166" x="71.950262" y="39.491474" style="fill: #aea6d0; stroke: #5e4fa2"/>
     <use xlink:href="#m3d4fa96166" x="79.699852" y="24.093465" style="fill: #aea6d0; stroke: #5e4fa2"/>
     <use xlink:href="#m3d4fa96166" x="87.449443" y="15.446422" style="fill: #aea6d0; stroke: #5e4fa2"/>
     <use xlink:href="#m3d4fa96166" x="95.199033" y="10.309519" style="fill: #aea6d0; stroke: #5e4fa2"/>
     <use xlink:href="#m3d4fa96166" x="102.948624" y="7.369126" style="fill: #aea6d0; stroke: #5e4fa2"/>
     <use xlink:href="#m3d4fa96166" x="110.698214" y="6.0214" style="fill: #aea6d0; stroke: #5e4fa2"/>
     <use xlink:href="#m3d4fa96166" x="118.447805" y="6.0214" style="fill: #aea6d0; stroke: #5e4fa2"/>
     <use xlink:href="#m3d4fa96166" x="126.197395" y="7.369126" style="fill: #aea6d0; stroke: #5e4fa2"/>
     <use xlink:href="#m3d4fa96166" x="133.946986" y="10.309519" style="fill: #aea6d0; stroke: #5e4fa2"/>
     <use xlink:href="#m3d4fa96166" x="141.696576" y="15.446422" style="fill: #aea6d0; stroke: #5e4fa2"/>
     <use xlink:href="#m3d4fa96166" x="149.446167" y="24.093465" style="fill: #aea6d0; stroke: #5e4fa2"/>
     <use xlink:href="#m3d4fa96166" x="157.195757" y="39.491474" style="fill: #aea6d0; stroke: #5e4fa2"/>
     <use xlink:href="#m3d4fa96166" x="164.945348" y="78.579317" style="fill: #aea6d0; stroke: #5e4fa2"/>
     <use xlink:href="#m3d4fa96166" x="172.694938" y="93.977327" style="fill: #aea6d0; stroke: #5e4fa2"/>
     <use xlink:href="#m3d4fa96166" x="180.444529" y="102.624369" style="fill: #aea6d0; stroke: #5e4fa2"/>
     <use xlink:href="#m3d4fa96166" x="188.194119" y="107.761272" style="fill: #aea6d0; stroke: #5e4fa2"/>
     <use xlink:href="#m3d4fa96166" x="195.94371" y="110.701666" style="fill: #aea6d0; stroke: #5e4fa2"/>
     <use xlink:href="#m3d4fa96166" x="203.6933" y="112.049392" style="fill: #aea6d0; stroke: #5e4fa2"/>
    </g>
   </g>
   <g id="matplotlib.axis_1">
    <g id="xtick_1">
     <g id="line2d_2">
      <defs>
       <path id="m20353fafd9" d="M 0 0 
L 0 2 
" style="stroke: #000000; stroke-width: 0.35"/>
      </defs>
      <g>
       <use xlink:href="#m20353fafd9" x="25.769244" y="117.350791" style="stroke: #000000; stroke-width: 0.35"/>
      </g>
     </g>
     <g id="text_1">
      <!-- $\mathdefault{−3}$ -->
      <g transform="translate(20.358899 127.885593)scale(0.08 -0.08)">
       <defs>
        <path id="CMSY10-0" d="M 4218 1472 
C 4326 1472 4442 1472 4442 1600 
C 4442 1728 4326 1728 4218 1728 
L 755 1728 
C 646 1728 531 1728 531 1600 
C 531 1472 646 1472 755 1472 
L 4218 1472 
z
" transform="scale(0.015625)"/>
        <path id="CMR17-33" d="M 1414 2176 
C 1984 2176 2234 1673 2234 1094 
C 2234 322 1824 25 1453 25 
C 1114 25 563 193 390 691 
C 422 678 454 678 486 678 
C 640 678 755 780 755 947 
C 755 1132 614 1216 486 1216 
C 378 1216 211 1164 211 927 
C 211 335 787 -128 1466 -128 
C 2176 -128 2720 432 2720 1087 
C 2720 1718 2208 2176 1600 2246 
C 2086 2347 2554 2776 2554 3353 
C 2554 3856 2048 4224 1472 4224 
C 890 4224 378 3862 378 3347 
C 378 3123 544 3084 627 3084 
C 762 3084 877 3167 877 3334 
C 877 3500 762 3584 627 3584 
C 602 3584 570 3584 544 3571 
C 730 3999 1235 4076 1459 4076 
C 1683 4076 2106 3966 2106 3347 
C 2106 3167 2080 2851 1862 2574 
C 1670 2329 1453 2316 1242 2297 
C 1210 2297 1062 2284 1037 2284 
C 992 2278 966 2272 966 2227 
C 966 2182 973 2176 1101 2176 
L 1414 2176 
z
" transform="scale(0.015625)"/>
       </defs>
       <use xlink:href="#CMSY10-0" transform="scale(0.996264)"/>
       <use xlink:href="#CMR17-33" transform="translate(77.487468 0)scale(0.996264)"/>
      </g>
     </g>
    </g>
    <g id="xtick_2">
     <g id="line2d_3">
      <g>
       <use xlink:href="#m20353fafd9" x="55.370499" y="117.350791" style="stroke: #000000; stroke-width: 0.35"/>
      </g>
     </g>
     <g id="text_2">
      <!-- $\mathdefault{−2}$ -->
      <g transform="translate(49.960154 127.885593)scale(0.08 -0.08)">
       <defs>
        <path id="CMR17-32" d="M 2669 990 
L 2554 990 
C 2490 537 2438 460 2413 422 
C 2381 371 1920 371 1830 371 
L 602 371 
C 832 620 1280 1073 1824 1596 
C 2214 1966 2669 2400 2669 3033 
C 2669 3788 2067 4224 1395 4224 
C 691 4224 262 3603 262 3027 
C 262 2777 448 2745 525 2745 
C 589 2745 781 2783 781 3007 
C 781 3206 614 3264 525 3264 
C 486 3264 448 3257 422 3244 
C 544 3788 915 4057 1306 4057 
C 1862 4057 2227 3616 2227 3033 
C 2227 2477 1901 1998 1536 1583 
L 262 147 
L 262 0 
L 2515 0 
L 2669 990 
z
" transform="scale(0.015625)"/>
       </defs>
       <use xlink:href="#CMSY10-0" transform="scale(0.996264)"/>
       <use xlink:href="#CMR17-32" transform="translate(77.487468 0)scale(0.996264)"/>
      </g>
     </g>
    </g>
    <g id="xtick_3">
     <g id="line2d_4">
      <g>
       <use xlink:href="#m20353fafd9" x="84.971754" y="117.350791" style="stroke: #000000; stroke-width: 0.35"/>
      </g>
     </g>
     <g id="text_3">
      <!-- $\mathdefault{−1}$ -->
      <g transform="translate(79.561409 127.885593)scale(0.08 -0.08)">
       <defs>
        <path id="CMR17-31" d="M 1702 4083 
C 1702 4217 1696 4224 1606 4224 
C 1357 3927 979 3833 621 3820 
C 602 3820 570 3820 563 3808 
C 557 3795 557 3782 557 3648 
C 755 3648 1088 3686 1344 3839 
L 1344 467 
C 1344 243 1331 166 781 166 
L 589 166 
L 589 0 
C 896 6 1216 12 1523 12 
C 1830 12 2150 6 2458 0 
L 2458 166 
L 2266 166 
C 1715 166 1702 236 1702 467 
L 1702 4083 
z
" transform="scale(0.015625)"/>
       </defs>
       <use xlink:href="#CMSY10-0" transform="scale(0.996264)"/>
       <use xlink:href="#CMR17-31" transform="translate(77.487468 0)scale(0.996264)"/>
      </g>
     </g>
    </g>
    <g id="xtick_4">
     <g id="line2d_5">
      <g>
       <use xlink:href="#m20353fafd9" x="114.57301" y="117.350791" style="stroke: #000000; stroke-width: 0.35"/>
      </g>
     </g>
     <g id="text_4">
      <!-- $\mathdefault{0}$ -->
      <g transform="translate(112.455918 127.885593)scale(0.08 -0.08)">
       <defs>
        <path id="CMR17-30" d="M 2688 2038 
C 2688 2430 2682 3099 2413 3613 
C 2176 4063 1798 4224 1466 4224 
C 1158 4224 768 4082 525 3620 
C 269 3137 243 2539 243 2038 
C 243 1671 250 1112 448 623 
C 723 -39 1216 -128 1466 -128 
C 1760 -128 2208 -7 2470 604 
C 2662 1048 2688 1568 2688 2038 
z
M 1466 -26 
C 1056 -26 813 328 723 816 
C 653 1196 653 1749 653 2109 
C 653 2604 653 3015 736 3407 
C 858 3954 1216 4121 1466 4121 
C 1728 4121 2067 3947 2189 3420 
C 2272 3054 2278 2623 2278 2109 
C 2278 1691 2278 1176 2202 797 
C 2067 96 1690 -26 1466 -26 
z
" transform="scale(0.015625)"/>
       </defs>
       <use xlink:href="#CMR17-30" transform="scale(0.996264)"/>
      </g>
     </g>
    </g>
    <g id="xtick_5">
     <g id="line2d_6">
      <g>
       <use xlink:href="#m20353fafd9" x="144.174265" y="117.350791" style="stroke: #000000; stroke-width: 0.35"/>
      </g>
     </g>
     <g id="text_5">
      <!-- $\mathdefault{1}$ -->
      <g transform="translate(142.057173 127.885593)scale(0.08 -0.08)">
       <use xlink:href="#CMR17-31" transform="scale(0.996264)"/>
      </g>
     </g>
    </g>
    <g id="xtick_6">
     <g id="line2d_7">
      <g>
       <use xlink:href="#m20353fafd9" x="173.77552" y="117.350791" style="stroke: #000000; stroke-width: 0.35"/>
      </g>
     </g>
     <g id="text_6">
      <!-- $\mathdefault{2}$ -->
      <g transform="translate(171.658429 127.885593)scale(0.08 -0.08)">
       <use xlink:href="#CMR17-32" transform="scale(0.996264)"/>
      </g>
     </g>
    </g>
    <g id="xtick_7">
     <g id="line2d_8">
      <g>
       <use xlink:href="#m20353fafd9" x="203.376775" y="117.350791" style="stroke: #000000; stroke-width: 0.35"/>
      </g>
     </g>
     <g id="text_7">
      <!-- $\mathdefault{3}$ -->
      <g transform="translate(201.259684 127.885593)scale(0.08 -0.08)">
       <use xlink:href="#CMR17-33" transform="scale(0.996264)"/>
      </g>
     </g>
    </g>
    <g id="text_8">
     <!-- $q$ -->
     <g transform="translate(112.682615 136.97014)scale(0.08 -0.08)">
      <defs>
       <path id="CMMI12-71" d="M 2822 2751 
C 2822 2783 2797 2809 2765 2809 
C 2714 2809 2464 2579 2342 2356 
C 2227 2643 2029 2816 1754 2816 
C 1030 2816 250 1883 250 938 
C 250 306 621 -64 1056 -64 
C 1395 -64 1677 191 1811 338 
L 1818 332 
L 1574 -613 
L 1517 -838 
C 1459 -1025 1363 -1025 1062 -1031 
C 992 -1031 928 -1031 928 -1152 
C 928 -1197 966 -1216 1011 -1216 
C 1101 -1216 1216 -1204 1306 -1204 
L 1958 -1204 
C 2054 -1204 2163 -1216 2259 -1216 
C 2298 -1216 2374 -1216 2374 -1095 
C 2374 -1031 2323 -1031 2227 -1031 
C 1926 -1031 1907 -987 1907 -937 
C 1907 -906 1914 -900 1933 -819 
L 2822 2751 
z
M 1920 759 
C 1888 651 1888 638 1798 517 
C 1658 338 1376 64 1075 64 
C 813 64 666 300 666 676 
C 666 1028 864 1743 986 2011 
C 1203 2458 1504 2687 1754 2687 
C 2176 2687 2259 2164 2259 2113 
C 2259 2107 2240 2024 2234 2011 
L 1920 759 
z
" transform="scale(0.015625)"/>
      </defs>
      <use xlink:href="#CMMI12-71" transform="scale(0.996264)"/>
     </g>
    </g>
   </g>
   <g id="matplotlib.axis_2">
    <g id="ytick_1">
     <g id="line2d_9">
      <defs>
       <path id="m6bc8341d45" d="M 0 0 
L -2 0 
" style="stroke: #000000; stroke-width: 0.35"/>
      </defs>
      <g>
       <use xlink:href="#m6bc8341d45" x="16.54069" y="112.265616" style="stroke: #000000; stroke-width: 0.35"/>
      </g>
     </g>
     <g id="text_9">
      <!-- $\mathdefault{0.0}$ -->
      <g transform="translate(0.72 115.033016)scale(0.08 -0.08)">
       <defs>
        <path id="CMMI12-3a" d="M 1178 307 
C 1178 492 1024 620 870 620 
C 685 620 557 467 557 313 
C 557 128 710 0 864 0 
C 1050 0 1178 153 1178 307 
z
" transform="scale(0.015625)"/>
       </defs>
       <use xlink:href="#CMR17-30" transform="scale(0.996264)"/>
       <use xlink:href="#CMMI12-3a" transform="translate(45.690477 0)scale(0.996264)"/>
       <use xlink:href="#CMR17-30" transform="translate(72.787654 0)scale(0.996264)"/>
      </g>
     </g>
    </g>
    <g id="ytick_2">
     <g id="line2d_10">
      <g>
       <use xlink:href="#m6bc8341d45" x="16.54069" y="90.973529" style="stroke: #000000; stroke-width: 0.35"/>
      </g>
     </g>
     <g id="text_10">
      <!-- $\mathdefault{0.2}$ -->
      <g transform="translate(0.72 93.74093)scale(0.08 -0.08)">
       <use xlink:href="#CMR17-30" transform="scale(0.996264)"/>
       <use xlink:href="#CMMI12-3a" transform="translate(45.690477 0)scale(0.996264)"/>
       <use xlink:href="#CMR17-32" transform="translate(72.787654 0)scale(0.996264)"/>
      </g>
     </g>
    </g>
    <g id="ytick_3">
     <g id="line2d_11">
      <g>
       <use xlink:href="#m6bc8341d45" x="16.54069" y="69.681443" style="stroke: #000000; stroke-width: 0.35"/>
      </g>
     </g>
     <g id="text_11">
      <!-- $\mathdefault{0.4}$ -->
      <g transform="translate(0.72 72.448844)scale(0.08 -0.08)">
       <defs>
        <path id="CMR17-34" d="M 2150 4147 
C 2150 4281 2144 4288 2029 4288 
L 128 1254 
L 128 1088 
L 1779 1088 
L 1779 460 
C 1779 230 1766 166 1318 166 
L 1197 166 
L 1197 0 
C 1402 12 1747 12 1965 12 
C 2182 12 2528 12 2733 0 
L 2733 166 
L 2611 166 
C 2163 166 2150 230 2150 460 
L 2150 1088 
L 2803 1088 
L 2803 1254 
L 2150 1254 
L 2150 4147 
z
M 1798 3723 
L 1798 1254 
L 256 1254 
L 1798 3723 
z
" transform="scale(0.015625)"/>
       </defs>
       <use xlink:href="#CMR17-30" transform="scale(0.996264)"/>
       <use xlink:href="#CMMI12-3a" transform="translate(45.690477 0)scale(0.996264)"/>
       <use xlink:href="#CMR17-34" transform="translate(72.787654 0)scale(0.996264)"/>
      </g>
     </g>
    </g>
    <g id="ytick_4">
     <g id="line2d_12">
      <g>
       <use xlink:href="#m6bc8341d45" x="16.54069" y="48.389357" style="stroke: #000000; stroke-width: 0.35"/>
      </g>
     </g>
     <g id="text_12">
      <!-- $\mathdefault{0.6}$ -->
      <g transform="translate(0.72 51.156758)scale(0.08 -0.08)">
       <defs>
        <path id="CMR17-36" d="M 678 2198 
C 678 3712 1395 4076 1811 4076 
C 1946 4076 2272 4049 2400 3782 
C 2298 3782 2106 3782 2106 3558 
C 2106 3385 2246 3328 2336 3328 
C 2394 3328 2566 3353 2566 3571 
C 2566 3987 2246 4224 1805 4224 
C 1043 4224 243 3411 243 2011 
C 243 257 966 -128 1478 -128 
C 2099 -128 2688 431 2688 1295 
C 2688 2101 2170 2688 1517 2688 
C 1126 2688 838 2430 678 1979 
L 678 2198 
z
M 1478 25 
C 691 25 691 1212 691 1450 
C 691 1914 909 2585 1504 2585 
C 1613 2585 1926 2585 2138 2140 
C 2253 1889 2253 1624 2253 1302 
C 2253 954 2253 696 2118 438 
C 1978 173 1773 25 1478 25 
z
" transform="scale(0.015625)"/>
       </defs>
       <use xlink:href="#CMR17-30" transform="scale(0.996264)"/>
       <use xlink:href="#CMMI12-3a" transform="translate(45.690477 0)scale(0.996264)"/>
       <use xlink:href="#CMR17-36" transform="translate(72.787654 0)scale(0.996264)"/>
      </g>
     </g>
    </g>
    <g id="ytick_5">
     <g id="line2d_13">
      <g>
       <use xlink:href="#m6bc8341d45" x="16.54069" y="27.09727" style="stroke: #000000; stroke-width: 0.35"/>
      </g>
     </g>
     <g id="text_13">
      <!-- $\mathdefault{0.8}$ -->
      <g transform="translate(0.72 29.864671)scale(0.08 -0.08)">
       <defs>
        <path id="CMR17-38" d="M 1741 2289 
C 2144 2494 2554 2803 2554 3298 
C 2554 3884 1990 4224 1472 4224 
C 890 4224 378 3800 378 3215 
C 378 3054 416 2777 666 2533 
C 730 2469 998 2276 1171 2154 
C 883 2006 211 1652 211 945 
C 211 282 838 -128 1459 -128 
C 2144 -128 2720 366 2720 1022 
C 2720 1607 2330 1877 2074 2051 
L 1741 2289 
z
M 902 2855 
C 851 2887 595 3086 595 3388 
C 595 3781 998 4076 1459 4076 
C 1965 4076 2336 3716 2336 3298 
C 2336 2700 1670 2359 1638 2359 
C 1632 2359 1626 2359 1574 2398 
L 902 2855 
z
M 2080 1536 
C 2176 1466 2483 1253 2483 861 
C 2483 385 2010 25 1472 25 
C 890 25 448 443 448 951 
C 448 1459 838 1884 1280 2083 
L 2080 1536 
z
" transform="scale(0.015625)"/>
       </defs>
       <use xlink:href="#CMR17-30" transform="scale(0.996264)"/>
       <use xlink:href="#CMMI12-3a" transform="translate(45.690477 0)scale(0.996264)"/>
       <use xlink:href="#CMR17-38" transform="translate(72.787654 0)scale(0.996264)"/>
      </g>
     </g>
    </g>
    <g id="ytick_6">
     <g id="line2d_14">
      <g>
       <use xlink:href="#m6bc8341d45" x="16.54069" y="5.805184" style="stroke: #000000; stroke-width: 0.35"/>
      </g>
     </g>
     <g id="text_14">
      <!-- $\mathdefault{1.0}$ -->
      <g transform="translate(0.72 8.572585)scale(0.08 -0.08)">
       <use xlink:href="#CMR17-31" transform="scale(0.996264)"/>
       <use xlink:href="#CMMI12-3a" transform="translate(45.690477 0)scale(0.996264)"/>
       <use xlink:href="#CMR17-30" transform="translate(72.787654 0)scale(0.996264)"/>
      </g>
     </g>
    </g>
   </g>
   <g id="line2d_15">
    <defs>
     <path id="m747011111a" d="M 0 3.535534 
L 3.535534 0 
L 0 -3.535534 
L -3.535534 0 
z
" style="stroke: #9e0142; stroke-linejoin: miter"/>
    </defs>
    <g clip-path="url(#p57500660c7)">
     <use xlink:href="#m747011111a" x="25.452719" y="107.638291" style="fill: #ce7fa0; stroke: #9e0142; stroke-linejoin: miter"/>
     <use xlink:href="#m747011111a" x="33.202309" y="104.89617" style="fill: #ce7fa0; stroke: #9e0142; stroke-linejoin: miter"/>
     <use xlink:href="#m747011111a" x="40.9519" y="99.658969" style="fill: #ce7fa0; stroke: #9e0142; stroke-linejoin: miter"/>
     <use xlink:href="#m747011111a" x="48.70149" y="92.331744" style="fill: #ce7fa0; stroke: #9e0142; stroke-linejoin: miter"/>
     <use xlink:href="#m747011111a" x="56.451081" y="82.108035" style="fill: #ce7fa0; stroke: #9e0142; stroke-linejoin: miter"/>
     <use xlink:href="#m747011111a" x="64.200671" y="71.285312" style="fill: #ce7fa0; stroke: #9e0142; stroke-linejoin: miter"/>
     <use xlink:href="#m747011111a" x="71.950262" y="46.785479" style="fill: #ce7fa0; stroke: #9e0142; stroke-linejoin: miter"/>
     <use xlink:href="#m747011111a" x="79.699852" y="35.962756" style="fill: #ce7fa0; stroke: #9e0142; stroke-linejoin: miter"/>
     <use xlink:href="#m747011111a" x="87.449443" y="25.739047" style="fill: #ce7fa0; stroke: #9e0142; stroke-linejoin: miter"/>
     <use xlink:href="#m747011111a" x="95.199033" y="18.411822" style="fill: #ce7fa0; stroke: #9e0142; stroke-linejoin: miter"/>
     <use xlink:href="#m747011111a" x="102.948624" y="13.174622" style="fill: #ce7fa0; stroke: #9e0142; stroke-linejoin: miter"/>
     <use xlink:href="#m747011111a" x="110.698214" y="10.4325" style="fill: #ce7fa0; stroke: #9e0142; stroke-linejoin: miter"/>
     <use xlink:href="#m747011111a" x="118.447805" y="10.4325" style="fill: #ce7fa0; stroke: #9e0142; stroke-linejoin: miter"/>
     <use xlink:href="#m747011111a" x="126.197395" y="13.174622" style="fill: #ce7fa0; stroke: #9e0142; stroke-linejoin: miter"/>
     <use xlink:href="#m747011111a" x="133.946986" y="18.411822" style="fill: #ce7fa0; stroke: #9e0142; stroke-linejoin: miter"/>
     <use xlink:href="#m747011111a" x="141.696576" y="25.739047" style="fill: #ce7fa0; stroke: #9e0142; stroke-linejoin: miter"/>
     <use xlink:href="#m747011111a" x="149.446167" y="35.962756" style="fill: #ce7fa0; stroke: #9e0142; stroke-linejoin: miter"/>
     <use xlink:href="#m747011111a" x="157.195757" y="46.785479" style="fill: #ce7fa0; stroke: #9e0142; stroke-linejoin: miter"/>
     <use xlink:href="#m747011111a" x="164.945348" y="71.285312" style="fill: #ce7fa0; stroke: #9e0142; stroke-linejoin: miter"/>
     <use xlink:href="#m747011111a" x="172.694938" y="82.108035" style="fill: #ce7fa0; stroke: #9e0142; stroke-linejoin: miter"/>
     <use xlink:href="#m747011111a" x="180.444529" y="92.331744" style="fill: #ce7fa0; stroke: #9e0142; stroke-linejoin: miter"/>
     <use xlink:href="#m747011111a" x="188.194119" y="99.658969" style="fill: #ce7fa0; stroke: #9e0142; stroke-linejoin: miter"/>
     <use xlink:href="#m747011111a" x="195.94371" y="104.89617" style="fill: #ce7fa0; stroke: #9e0142; stroke-linejoin: miter"/>
     <use xlink:href="#m747011111a" x="203.6933" y="107.638291" style="fill: #ce7fa0; stroke: #9e0142; stroke-linejoin: miter"/>
    </g>
   </g>
   <g id="patch_3">
    <path d="M 16.54069 117.350791 
L 16.54069 0.72 
" style="fill: none; stroke: #000000; stroke-width: 0.35; stroke-linejoin: miter; stroke-linecap: square"/>
   </g>
   <g id="patch_4">
    <path d="M 212.60533 117.350791 
L 212.60533 0.72 
" style="fill: none; stroke: #000000; stroke-width: 0.35; stroke-linejoin: miter; stroke-linecap: square"/>
   </g>
   <g id="patch_5">
    <path d="M 16.54069 117.350791 
L 212.60533 117.350791 
" style="fill: none; stroke: #000000; stroke-width: 0.35; stroke-linejoin: miter; stroke-linecap: square"/>
   </g>
   <g id="patch_6">
    <path d="M 16.54069 0.72 
L 212.60533 0.72 
" style="fill: none; stroke: #000000; stroke-width: 0.35; stroke-linejoin: miter; stroke-linecap: square"/>
   </g>
   <g id="legend_1">
    <g id="line2d_16">
     <g>
      <use xlink:href="#m747011111a" x="71.95685" y="95.889227" style="fill: #ce7fa0; stroke: #9e0142; stroke-linejoin: miter"/>
     </g>
    </g>
    <g id="text_15">
     <!-- $N\overline{\rho_1(q,t)},$ $V/J=-1.8$ -->
     <g transform="translate(77.15685 98.689227)scale(0.08 -0.08)">
      <defs>
       <path id="CMMI12-4e" d="M 4736 3682 
C 4806 3956 4909 4147 5395 4166 
C 5414 4166 5491 4172 5491 4281 
C 5491 4352 5434 4352 5408 4352 
C 5280 4352 4954 4339 4826 4339 
L 4518 4339 
C 4429 4339 4314 4352 4224 4352 
C 4186 4352 4109 4352 4109 4230 
C 4109 4166 4160 4166 4205 4166 
C 4589 4153 4614 4007 4614 3892 
C 4614 3835 4608 3816 4589 3726 
L 3866 854 
L 2496 4243 
C 2451 4345 2445 4352 2304 4352 
L 1523 4352 
C 1395 4352 1338 4352 1338 4230 
C 1338 4166 1382 4166 1504 4166 
C 1536 4166 1914 4166 1914 4109 
C 1914 4096 1901 4045 1894 4026 
L 1043 650 
C 966 338 813 204 390 185 
C 358 185 294 179 294 64 
C 294 0 358 0 378 0 
C 506 0 832 12 960 12 
L 1267 12 
C 1357 12 1466 0 1555 0 
C 1600 0 1670 0 1670 121 
C 1670 179 1606 185 1581 185 
C 1370 191 1165 230 1165 459 
C 1165 510 1178 567 1190 618 
L 2054 4026 
C 2093 3962 2093 3949 2118 3892 
L 3642 115 
C 3674 38 3686 0 3744 0 
C 3808 0 3814 19 3840 128 
L 4736 3682 
z
" transform="scale(0.015625)"/>
       <path id="CMMI12-1a" d="M 198 -1085 
C 192 -1116 179 -1154 179 -1191 
C 179 -1287 256 -1351 352 -1351 
C 448 -1351 538 -1287 576 -1198 
C 602 -1141 781 -390 986 389 
C 1114 70 1350 -64 1600 -64 
C 2323 -64 3142 830 3142 1794 
C 3142 2477 2726 2816 2285 2816 
C 1722 2816 1037 2234 826 1385 
L 198 -1085 
z
M 1594 64 
C 1158 64 1050 568 1050 645 
C 1050 683 1210 1289 1229 1385 
C 1555 2656 2182 2687 2278 2687 
C 2566 2687 2726 2426 2726 2049 
C 2726 1724 2554 1091 2445 823 
C 2253 383 1920 64 1594 64 
z
" transform="scale(0.015625)"/>
       <path id="CMR17-28" d="M 1958 -1562 
C 1958 -1556 1958 -1543 1939 -1524 
C 1645 -1223 858 -403 858 1596 
C 858 3595 1632 4408 1946 4729 
C 1946 4735 1958 4748 1958 4767 
C 1958 4787 1939 4800 1914 4800 
C 1843 4800 1299 4325 986 3620 
C 666 2909 576 2218 576 1603 
C 576 1141 621 360 1005 -467 
C 1312 -1133 1837 -1600 1914 -1600 
C 1946 -1600 1958 -1588 1958 -1562 
z
" transform="scale(0.015625)"/>
       <path id="CMMI12-3b" d="M 1248 -26 
C 1248 345 1126 620 864 620 
C 659 620 557 454 557 313 
C 557 172 653 0 870 0 
C 954 0 1024 25 1082 83 
C 1094 96 1101 96 1107 96 
C 1120 96 1120 6 1120 -26 
C 1120 -233 1082 -642 710 -1051 
C 640 -1127 640 -1140 640 -1152 
C 640 -1184 672 -1216 704 -1216 
C 755 -1216 1248 -749 1248 -26 
z
" transform="scale(0.015625)"/>
       <path id="CMMI12-74" d="M 1286 2566 
L 1875 2566 
C 1997 2566 2061 2566 2061 2681 
C 2061 2752 2022 2752 1894 2752 
L 1331 2752 
L 1568 3664 
C 1594 3752 1594 3764 1594 3808 
C 1594 3910 1510 3968 1427 3968 
C 1376 3968 1229 3948 1178 3746 
L 928 2752 
L 326 2752 
C 198 2752 141 2752 141 2630 
C 141 2566 186 2566 307 2566 
L 877 2566 
L 454 881 
C 403 657 384 593 384 510 
C 384 210 595 -64 954 -64 
C 1600 -64 1946 868 1946 913 
C 1946 951 1920 970 1882 970 
C 1869 970 1843 970 1830 944 
C 1824 938 1818 932 1773 830 
C 1638 510 1344 64 973 64 
C 781 64 768 223 768 364 
C 768 370 768 491 787 568 
L 1286 2566 
z
" transform="scale(0.015625)"/>
       <path id="CMR17-29" d="M 1683 1596 
C 1683 2057 1638 2839 1254 3665 
C 947 4332 422 4800 346 4800 
C 326 4800 301 4793 301 4761 
C 301 4748 307 4742 314 4729 
C 621 4408 1402 3595 1402 1603 
C 1402 -396 627 -1210 314 -1530 
C 307 -1543 301 -1549 301 -1562 
C 301 -1594 326 -1600 346 -1600 
C 416 -1600 960 -1127 1274 -422 
C 1594 289 1683 981 1683 1596 
z
" transform="scale(0.015625)"/>
       <path id="CMMI12-56" d="M 3962 3644 
C 4179 3987 4378 4140 4704 4166 
C 4768 4172 4819 4172 4819 4287 
C 4819 4313 4806 4352 4749 4352 
C 4634 4352 4358 4339 4243 4339 
C 4058 4339 3866 4352 3686 4352 
C 3635 4352 3571 4352 3571 4230 
C 3571 4172 3629 4166 3654 4166 
C 3891 4146 3917 4032 3917 3956 
C 3917 3860 3827 3714 3821 3708 
L 1811 540 
L 1363 3968 
C 1363 4153 1696 4166 1766 4166 
C 1862 4166 1920 4166 1920 4287 
C 1920 4352 1850 4352 1830 4352 
C 1722 4352 1594 4339 1485 4339 
L 1126 4339 
C 659 4339 467 4352 461 4352 
C 422 4352 346 4352 346 4236 
C 346 4166 390 4166 493 4166 
C 819 4166 838 4108 858 3949 
L 1370 25 
C 1389 -109 1389 -128 1478 -128 
C 1555 -128 1587 -109 1651 -7 
L 3962 3644 
z
" transform="scale(0.015625)"/>
       <path id="CMMI12-3d" d="M 2746 4563 
C 2746 4569 2784 4665 2784 4678 
C 2784 4755 2720 4800 2669 4800 
C 2637 4800 2579 4800 2528 4659 
L 384 -1364 
C 384 -1370 346 -1466 346 -1479 
C 346 -1556 410 -1600 461 -1600 
C 499 -1600 557 -1594 602 -1460 
L 2746 4563 
z
" transform="scale(0.015625)"/>
       <path id="CMMI12-4a" d="M 3418 3911 
C 3469 4102 3482 4166 3795 4166 
C 3898 4166 3962 4166 3962 4281 
C 3962 4352 3904 4352 3878 4352 
C 3770 4352 3648 4339 3533 4339 
L 3181 4339 
C 2912 4339 2630 4352 2362 4352 
C 2304 4352 2227 4352 2227 4236 
C 2227 4172 2278 4172 2278 4166 
L 2438 4166 
C 2950 4166 2950 4115 2950 4019 
C 2950 4013 2950 3968 2925 3866 
L 2189 953 
C 2022 304 1594 0 1286 0 
C 1069 0 762 99 685 428 
C 710 422 742 415 768 415 
C 979 415 1146 601 1146 787 
C 1146 889 1082 1024 890 1024 
C 774 1024 506 959 506 543 
C 506 149 838 -128 1299 -128 
C 1882 -128 2509 304 2662 908 
L 3418 3911 
z
" transform="scale(0.015625)"/>
       <path id="CMR17-3d" d="M 4115 2048 
C 4211 2048 4307 2048 4307 2156 
C 4307 2272 4198 2272 4090 2272 
L 512 2272 
C 403 2272 294 2272 294 2156 
C 294 2048 390 2048 486 2048 
L 4115 2048 
z
M 4090 927 
C 4198 927 4307 927 4307 1043 
C 4307 1152 4211 1152 4115 1152 
L 486 1152 
C 390 1152 294 1152 294 1043 
C 294 927 403 927 512 927 
L 4090 927 
z
" transform="scale(0.015625)"/>
      </defs>
      <use xlink:href="#CMMI12-4e" transform="scale(0.996264)"/>
      <use xlink:href="#CMMI12-1a" transform="translate(88.521773 0)scale(0.996264)"/>
      <use xlink:href="#CMR17-31" transform="translate(138.836145 -14.943915)scale(0.697382)"/>
      <use xlink:href="#CMR17-28" transform="translate(171.317459 0)scale(0.996264)"/>
      <use xlink:href="#CMMI12-71" transform="translate(206.598227 0)scale(0.996264)"/>
      <use xlink:href="#CMMI12-3b" transform="translate(253.424551 0)scale(0.996264)"/>
      <use xlink:href="#CMMI12-74" transform="translate(297.126133 0)scale(0.996264)"/>
      <use xlink:href="#CMR17-29" transform="translate(332.352464 0)scale(0.996264)"/>
      <use xlink:href="#CMMI12-3b" transform="translate(367.633231 0)scale(0.996264)"/>
      <use xlink:href="#CMMI12-56" transform="translate(424.806375 0)scale(0.996264)"/>
      <use xlink:href="#CMMI12-3d" transform="translate(492.514825 0)scale(0.996264)"/>
      <use xlink:href="#CMMI12-4a" transform="translate(541.289744 0)scale(0.996264)"/>
      <use xlink:href="#CMR17-3d" transform="translate(632.106423 0)scale(0.996264)"/>
      <use xlink:href="#CMSY10-0" transform="translate(731.49522 0)scale(0.996264)"/>
      <use xlink:href="#CMR17-31" transform="translate(808.982688 0)scale(0.996264)"/>
      <use xlink:href="#CMMI12-3a" transform="translate(854.673165 0)scale(0.996264)"/>
      <use xlink:href="#CMR17-38" transform="translate(881.770342 0)scale(0.996264)"/>
      <path d="M 88.521773 86.584959 
L 367.633231 86.584959 
L 367.633231 90.569909 
L 88.521773 90.569909 
L 88.521773 86.584959 
z
"/>
     </g>
    </g>
    <g id="line2d_17">
     <g>
      <use xlink:href="#m3d4fa96166" x="71.95685" y="105.859339" style="fill: #aea6d0; stroke: #5e4fa2"/>
     </g>
    </g>
    <g id="text_16">
     <!-- $N\rho_1(q)$, $V/J=-1.8$ -->
     <g transform="translate(77.15685 108.659339)scale(0.08 -0.08)">
      <defs>
       <path id="CMR17-2c" d="M 1011 102 
C 1024 44 1024 25 1024 -76 
C 1024 -451 896 -795 627 -1108 
C 595 -1140 595 -1152 595 -1165 
C 595 -1191 621 -1216 646 -1216 
C 685 -1216 1126 -776 1126 -82 
C 1126 128 1101 524 800 524 
C 659 524 538 428 538 262 
C 538 96 659 0 800 0 
C 877 0 960 32 1011 102 
z
" transform="scale(0.015625)"/>
      </defs>
      <use xlink:href="#CMMI12-4e" transform="scale(0.996264)"/>
      <use xlink:href="#CMMI12-1a" transform="translate(88.521773 0)scale(0.996264)"/>
      <use xlink:href="#CMR17-31" transform="translate(138.836145 -14.943915)scale(0.697382)"/>
      <use xlink:href="#CMR17-28" transform="translate(171.317459 0)scale(0.996264)"/>
      <use xlink:href="#CMMI12-71" transform="translate(206.598227 0)scale(0.996264)"/>
      <use xlink:href="#CMR17-29" transform="translate(253.424551 0)scale(0.996264)"/>
      <use xlink:href="#CMR17-2c" transform="translate(288.705319 0)scale(0.996264)"/>
      <use xlink:href="#CMMI12-56" transform="translate(343.652344 0)scale(0.996264)"/>
      <use xlink:href="#CMMI12-3d" transform="translate(411.360794 0)scale(0.996264)"/>
      <use xlink:href="#CMMI12-4a" transform="translate(460.135712 0)scale(0.996264)"/>
      <use xlink:href="#CMR17-3d" transform="translate(550.952392 0)scale(0.996264)"/>
      <use xlink:href="#CMSY10-0" transform="translate(650.341189 0)scale(0.996264)"/>
      <use xlink:href="#CMR17-31" transform="translate(727.828656 0)scale(0.996264)"/>
      <use xlink:href="#CMMI12-3a" transform="translate(773.519134 0)scale(0.996264)"/>
      <use xlink:href="#CMR17-38" transform="translate(800.616311 0)scale(0.996264)"/>
     </g>
    </g>
   </g>
  </g>
 </g>
 <defs>
  <clipPath id="p57500660c7">
   <rect x="16.54069" y="0.72" width="196.06464" height="116.630791"/>
  </clipPath>
 </defs>
</svg>
