<?xml version="1.0" encoding="utf-8" standalone="no"?>
<!DOCTYPE svg PUBLIC "-//W3C//DTD SVG 1.1//EN"
  "http://www.w3.org/Graphics/SVG/1.1/DTD/svg11.dtd">
<svg xmlns:xlink="http://www.w3.org/1999/xlink" width="223.295442pt" height="139.239886pt" viewBox="0 0 223.295442 139.239886" xmlns="http://www.w3.org/2000/svg" version="1.1">
 <metadata>
  <rdf:RDF xmlns:dc="http://purl.org/dc/elements/1.1/" xmlns:cc="http://creativecommons.org/ns#" xmlns:rdf="http://www.w3.org/1999/02/22-rdf-syntax-ns#">
   <cc:Work>
    <dc:type rdf:resource="http://purl.org/dc/dcmitype/StillImage"/>
    <dc:date>2022-06-20T22:34:24.372831</dc:date>
    <dc:format>image/svg+xml</dc:format>
    <dc:creator>
     <cc:Agent>
      <dc:title>Matplotlib v3.5.1, https://matplotlib.org/</dc:title>
     </cc:Agent>
    </dc:creator>
   </cc:Work>
  </rdf:RDF>
 </metadata>
 <defs>
  <style type="text/css">*{stroke-linejoin: round; stroke-linecap: butt}</style>
 </defs>
 <g id="figure_1">
  <g id="patch_1">
   <path d="M 0 139.239886 
L 223.295442 139.239886 
L 223.295442 0 
L 0 0 
L 0 139.239886 
z
" style="fill: none"/>
  </g>
  <g id="axes_1">
   <g id="patch_2">
    <path d="M 26.510802 117.350791 
L 222.575442 117.350791 
L 222.575442 0.72 
L 26.510802 0.72 
L 26.510802 117.350791 
z
" style="fill: none"/>
   </g>
   <g id="matplotlib.axis_1">
    <g id="xtick_1">
     <g id="line2d_1">
      <defs>
       <path id="m22fcd4c950" d="M 0 0 
L 0 2 
" style="stroke: #000000; stroke-width: 0.35"/>
      </defs>
      <g>
       <use xlink:href="#m22fcd4c950" x="35.739356" y="117.350791" style="stroke: #000000; stroke-width: 0.35"/>
      </g>
     </g>
     <g id="text_1">
      <!-- $\mathdefault{−3}$ -->
      <g transform="translate(30.329011 127.885593)scale(0.08 -0.08)">
       <defs>
        <path id="CMSY10-0" d="M 4218 1472 
C 4326 1472 4442 1472 4442 1600 
C 4442 1728 4326 1728 4218 1728 
L 755 1728 
C 646 1728 531 1728 531 1600 
C 531 1472 646 1472 755 1472 
L 4218 1472 
z
" transform="scale(0.015625)"/>
        <path id="CMR17-33" d="M 1414 2176 
C 1984 2176 2234 1673 2234 1094 
C 2234 322 1824 25 1453 25 
C 1114 25 563 193 390 691 
C 422 678 454 678 486 678 
C 640 678 755 780 755 947 
C 755 1132 614 1216 486 1216 
C 378 1216 211 1164 211 927 
C 211 335 787 -128 1466 -128 
C 2176 -128 2720 432 2720 1087 
C 2720 1718 2208 2176 1600 2246 
C 2086 2347 2554 2776 2554 3353 
C 2554 3856 2048 4224 1472 4224 
C 890 4224 378 3862 378 3347 
C 378 3123 544 3084 627 3084 
C 762 3084 877 3167 877 3334 
C 877 3500 762 3584 627 3584 
C 602 3584 570 3584 544 3571 
C 730 3999 1235 4076 1459 4076 
C 1683 4076 2106 3966 2106 3347 
C 2106 3167 2080 2851 1862 2574 
C 1670 2329 1453 2316 1242 2297 
C 1210 2297 1062 2284 1037 2284 
C 992 2278 966 2272 966 2227 
C 966 2182 973 2176 1101 2176 
L 1414 2176 
z
" transform="scale(0.015625)"/>
       </defs>
       <use xlink:href="#CMSY10-0" transform="scale(0.996264)"/>
       <use xlink:href="#CMR17-33" transform="translate(77.487468 0)scale(0.996264)"/>
      </g>
     </g>
    </g>
    <g id="xtick_2">
     <g id="line2d_2">
      <g>
       <use xlink:href="#m22fcd4c950" x="65.340611" y="117.350791" style="stroke: #000000; stroke-width: 0.35"/>
      </g>
     </g>
     <g id="text_2">
      <!-- $\mathdefault{−2}$ -->
      <g transform="translate(59.930266 127.885593)scale(0.08 -0.08)">
       <defs>
        <path id="CMR17-32" d="M 2669 990 
L 2554 990 
C 2490 537 2438 460 2413 422 
C 2381 371 1920 371 1830 371 
L 602 371 
C 832 620 1280 1073 1824 1596 
C 2214 1966 2669 2400 2669 3033 
C 2669 3788 2067 4224 1395 4224 
C 691 4224 262 3603 262 3027 
C 262 2777 448 2745 525 2745 
C 589 2745 781 2783 781 3007 
C 781 3206 614 3264 525 3264 
C 486 3264 448 3257 422 3244 
C 544 3788 915 4057 1306 4057 
C 1862 4057 2227 3616 2227 3033 
C 2227 2477 1901 1998 1536 1583 
L 262 147 
L 262 0 
L 2515 0 
L 2669 990 
z
" transform="scale(0.015625)"/>
       </defs>
       <use xlink:href="#CMSY10-0" transform="scale(0.996264)"/>
       <use xlink:href="#CMR17-32" transform="translate(77.487468 0)scale(0.996264)"/>
      </g>
     </g>
    </g>
    <g id="xtick_3">
     <g id="line2d_3">
      <g>
       <use xlink:href="#m22fcd4c950" x="94.941866" y="117.350791" style="stroke: #000000; stroke-width: 0.35"/>
      </g>
     </g>
     <g id="text_3">
      <!-- $\mathdefault{−1}$ -->
      <g transform="translate(89.531522 127.885593)scale(0.08 -0.08)">
       <defs>
        <path id="CMR17-31" d="M 1702 4083 
C 1702 4217 1696 4224 1606 4224 
C 1357 3927 979 3833 621 3820 
C 602 3820 570 3820 563 3808 
C 557 3795 557 3782 557 3648 
C 755 3648 1088 3686 1344 3839 
L 1344 467 
C 1344 243 1331 166 781 166 
L 589 166 
L 589 0 
C 896 6 1216 12 1523 12 
C 1830 12 2150 6 2458 0 
L 2458 166 
L 2266 166 
C 1715 166 1702 236 1702 467 
L 1702 4083 
z
" transform="scale(0.015625)"/>
       </defs>
       <use xlink:href="#CMSY10-0" transform="scale(0.996264)"/>
       <use xlink:href="#CMR17-31" transform="translate(77.487468 0)scale(0.996264)"/>
      </g>
     </g>
    </g>
    <g id="xtick_4">
     <g id="line2d_4">
      <g>
       <use xlink:href="#m22fcd4c950" x="124.543122" y="117.350791" style="stroke: #000000; stroke-width: 0.35"/>
      </g>
     </g>
     <g id="text_4">
      <!-- $\mathdefault{0}$ -->
      <g transform="translate(122.42603 127.885593)scale(0.08 -0.08)">
       <defs>
        <path id="CMR17-30" d="M 2688 2038 
C 2688 2430 2682 3099 2413 3613 
C 2176 4063 1798 4224 1466 4224 
C 1158 4224 768 4082 525 3620 
C 269 3137 243 2539 243 2038 
C 243 1671 250 1112 448 623 
C 723 -39 1216 -128 1466 -128 
C 1760 -128 2208 -7 2470 604 
C 2662 1048 2688 1568 2688 2038 
z
M 1466 -26 
C 1056 -26 813 328 723 816 
C 653 1196 653 1749 653 2109 
C 653 2604 653 3015 736 3407 
C 858 3954 1216 4121 1466 4121 
C 1728 4121 2067 3947 2189 3420 
C 2272 3054 2278 2623 2278 2109 
C 2278 1691 2278 1176 2202 797 
C 2067 96 1690 -26 1466 -26 
z
" transform="scale(0.015625)"/>
       </defs>
       <use xlink:href="#CMR17-30" transform="scale(0.996264)"/>
      </g>
     </g>
    </g>
    <g id="xtick_5">
     <g id="line2d_5">
      <g>
       <use xlink:href="#m22fcd4c950" x="154.144377" y="117.350791" style="stroke: #000000; stroke-width: 0.35"/>
      </g>
     </g>
     <g id="text_5">
      <!-- $\mathdefault{1}$ -->
      <g transform="translate(152.027285 127.885593)scale(0.08 -0.08)">
       <use xlink:href="#CMR17-31" transform="scale(0.996264)"/>
      </g>
     </g>
    </g>
    <g id="xtick_6">
     <g id="line2d_6">
      <g>
       <use xlink:href="#m22fcd4c950" x="183.745632" y="117.350791" style="stroke: #000000; stroke-width: 0.35"/>
      </g>
     </g>
     <g id="text_6">
      <!-- $\mathdefault{2}$ -->
      <g transform="translate(181.628541 127.885593)scale(0.08 -0.08)">
       <use xlink:href="#CMR17-32" transform="scale(0.996264)"/>
      </g>
     </g>
    </g>
    <g id="xtick_7">
     <g id="line2d_7">
      <g>
       <use xlink:href="#m22fcd4c950" x="213.346887" y="117.350791" style="stroke: #000000; stroke-width: 0.35"/>
      </g>
     </g>
     <g id="text_7">
      <!-- $\mathdefault{3}$ -->
      <g transform="translate(211.229796 127.885593)scale(0.08 -0.08)">
       <use xlink:href="#CMR17-33" transform="scale(0.996264)"/>
      </g>
     </g>
    </g>
    <g id="text_8">
     <!-- $q$ -->
     <g transform="translate(122.652727 136.97014)scale(0.08 -0.08)">
      <defs>
       <path id="CMMI12-71" d="M 2822 2751 
C 2822 2783 2797 2809 2765 2809 
C 2714 2809 2464 2579 2342 2356 
C 2227 2643 2029 2816 1754 2816 
C 1030 2816 250 1883 250 938 
C 250 306 621 -64 1056 -64 
C 1395 -64 1677 191 1811 338 
L 1818 332 
L 1574 -613 
L 1517 -838 
C 1459 -1025 1363 -1025 1062 -1031 
C 992 -1031 928 -1031 928 -1152 
C 928 -1197 966 -1216 1011 -1216 
C 1101 -1216 1216 -1204 1306 -1204 
L 1958 -1204 
C 2054 -1204 2163 -1216 2259 -1216 
C 2298 -1216 2374 -1216 2374 -1095 
C 2374 -1031 2323 -1031 2227 -1031 
C 1926 -1031 1907 -987 1907 -937 
C 1907 -906 1914 -900 1933 -819 
L 2822 2751 
z
M 1920 759 
C 1888 651 1888 638 1798 517 
C 1658 338 1376 64 1075 64 
C 813 64 666 300 666 676 
C 666 1028 864 1743 986 2011 
C 1203 2458 1504 2687 1754 2687 
C 2176 2687 2259 2164 2259 2113 
C 2259 2107 2240 2024 2234 2011 
L 1920 759 
z
" transform="scale(0.015625)"/>
      </defs>
      <use xlink:href="#CMMI12-71" transform="scale(0.996264)"/>
     </g>
    </g>
   </g>
   <g id="matplotlib.axis_2">
    <g id="ytick_1">
     <g id="line2d_8">
      <defs>
       <path id="m61f3a231e6" d="M 0 0 
L -2 0 
" style="stroke: #000000; stroke-width: 0.35"/>
      </defs>
      <g>
       <use xlink:href="#m61f3a231e6" x="26.510802" y="108.127918" style="stroke: #000000; stroke-width: 0.35"/>
      </g>
     </g>
     <g id="text_9">
      <!-- $\mathdefault{0.3}$ -->
      <g transform="translate(10.690112 110.895319)scale(0.08 -0.08)">
       <defs>
        <path id="CMMI12-3a" d="M 1178 307 
C 1178 492 1024 620 870 620 
C 685 620 557 467 557 313 
C 557 128 710 0 864 0 
C 1050 0 1178 153 1178 307 
z
" transform="scale(0.015625)"/>
       </defs>
       <use xlink:href="#CMR17-30" transform="scale(0.996264)"/>
       <use xlink:href="#CMMI12-3a" transform="translate(45.690477 0)scale(0.996264)"/>
       <use xlink:href="#CMR17-33" transform="translate(72.787654 0)scale(0.996264)"/>
      </g>
     </g>
    </g>
    <g id="ytick_2">
     <g id="line2d_9">
      <g>
       <use xlink:href="#m61f3a231e6" x="26.510802" y="83.581662" style="stroke: #000000; stroke-width: 0.35"/>
      </g>
     </g>
     <g id="text_10">
      <!-- $\mathdefault{0.4}$ -->
      <g transform="translate(10.690112 86.349063)scale(0.08 -0.08)">
       <defs>
        <path id="CMR17-34" d="M 2150 4147 
C 2150 4281 2144 4288 2029 4288 
L 128 1254 
L 128 1088 
L 1779 1088 
L 1779 460 
C 1779 230 1766 166 1318 166 
L 1197 166 
L 1197 0 
C 1402 12 1747 12 1965 12 
C 2182 12 2528 12 2733 0 
L 2733 166 
L 2611 166 
C 2163 166 2150 230 2150 460 
L 2150 1088 
L 2803 1088 
L 2803 1254 
L 2150 1254 
L 2150 4147 
z
M 1798 3723 
L 1798 1254 
L 256 1254 
L 1798 3723 
z
" transform="scale(0.015625)"/>
       </defs>
       <use xlink:href="#CMR17-30" transform="scale(0.996264)"/>
       <use xlink:href="#CMMI12-3a" transform="translate(45.690477 0)scale(0.996264)"/>
       <use xlink:href="#CMR17-34" transform="translate(72.787654 0)scale(0.996264)"/>
      </g>
     </g>
    </g>
    <g id="ytick_3">
     <g id="line2d_10">
      <g>
       <use xlink:href="#m61f3a231e6" x="26.510802" y="59.035405" style="stroke: #000000; stroke-width: 0.35"/>
      </g>
     </g>
     <g id="text_11">
      <!-- $\mathdefault{0.5}$ -->
      <g transform="translate(10.690112 61.802806)scale(0.08 -0.08)">
       <defs>
        <path id="CMR17-35" d="M 730 3750 
C 794 3724 1056 3641 1325 3641 
C 1920 3641 2246 3961 2432 4140 
C 2432 4191 2432 4224 2394 4224 
C 2387 4224 2374 4224 2323 4198 
C 2099 4102 1837 4032 1517 4032 
C 1325 4032 1037 4055 723 4191 
C 653 4224 640 4224 634 4224 
C 602 4224 595 4217 595 4090 
L 595 2231 
C 595 2113 595 2080 659 2080 
C 691 2080 704 2093 736 2139 
C 941 2435 1222 2560 1542 2560 
C 1766 2560 2246 2415 2246 1293 
C 2246 1087 2246 716 2054 422 
C 1894 159 1645 25 1370 25 
C 947 25 518 319 403 812 
C 429 806 480 793 506 793 
C 589 793 749 838 749 1036 
C 749 1209 627 1280 506 1280 
C 358 1280 262 1190 262 1011 
C 262 454 704 -128 1382 -128 
C 2042 -128 2669 441 2669 1267 
C 2669 2054 2170 2662 1549 2662 
C 1222 2662 947 2540 730 2304 
L 730 3750 
z
" transform="scale(0.015625)"/>
       </defs>
       <use xlink:href="#CMR17-30" transform="scale(0.996264)"/>
       <use xlink:href="#CMMI12-3a" transform="translate(45.690477 0)scale(0.996264)"/>
       <use xlink:href="#CMR17-35" transform="translate(72.787654 0)scale(0.996264)"/>
      </g>
     </g>
    </g>
    <g id="ytick_4">
     <g id="line2d_11">
      <g>
       <use xlink:href="#m61f3a231e6" x="26.510802" y="34.489149" style="stroke: #000000; stroke-width: 0.35"/>
      </g>
     </g>
     <g id="text_12">
      <!-- $\mathdefault{0.6}$ -->
      <g transform="translate(10.690112 37.25655)scale(0.08 -0.08)">
       <defs>
        <path id="CMR17-36" d="M 678 2198 
C 678 3712 1395 4076 1811 4076 
C 1946 4076 2272 4049 2400 3782 
C 2298 3782 2106 3782 2106 3558 
C 2106 3385 2246 3328 2336 3328 
C 2394 3328 2566 3353 2566 3571 
C 2566 3987 2246 4224 1805 4224 
C 1043 4224 243 3411 243 2011 
C 243 257 966 -128 1478 -128 
C 2099 -128 2688 431 2688 1295 
C 2688 2101 2170 2688 1517 2688 
C 1126 2688 838 2430 678 1979 
L 678 2198 
z
M 1478 25 
C 691 25 691 1212 691 1450 
C 691 1914 909 2585 1504 2585 
C 1613 2585 1926 2585 2138 2140 
C 2253 1889 2253 1624 2253 1302 
C 2253 954 2253 696 2118 438 
C 1978 173 1773 25 1478 25 
z
" transform="scale(0.015625)"/>
       </defs>
       <use xlink:href="#CMR17-30" transform="scale(0.996264)"/>
       <use xlink:href="#CMMI12-3a" transform="translate(45.690477 0)scale(0.996264)"/>
       <use xlink:href="#CMR17-36" transform="translate(72.787654 0)scale(0.996264)"/>
      </g>
     </g>
    </g>
    <g id="ytick_5">
     <g id="line2d_12">
      <g>
       <use xlink:href="#m61f3a231e6" x="26.510802" y="9.942893" style="stroke: #000000; stroke-width: 0.35"/>
      </g>
     </g>
     <g id="text_13">
      <!-- $\mathdefault{0.7}$ -->
      <g transform="translate(10.690112 12.710294)scale(0.08 -0.08)">
       <defs>
        <path id="CMR17-37" d="M 2886 3955 
L 2886 4096 
L 1382 4096 
C 634 4096 621 4166 595 4288 
L 480 4288 
L 294 3104 
L 410 3104 
C 429 3226 474 3552 550 3673 
C 589 3724 1062 3724 1171 3724 
L 2579 3724 
L 1869 2670 
C 1395 1961 1069 1003 1069 166 
C 1069 89 1069 -128 1299 -128 
C 1530 -128 1530 89 1530 172 
L 1530 466 
C 1530 1514 1709 2204 2003 2644 
L 2886 3955 
z
" transform="scale(0.015625)"/>
       </defs>
       <use xlink:href="#CMR17-30" transform="scale(0.996264)"/>
       <use xlink:href="#CMMI12-3a" transform="translate(45.690477 0)scale(0.996264)"/>
       <use xlink:href="#CMR17-37" transform="translate(72.787654 0)scale(0.996264)"/>
      </g>
     </g>
    </g>
    <g id="text_14">
     <!-- $N\rho_1(q,t)$ -->
     <g transform="translate(6.697584 75.801852)rotate(-90)scale(0.08 -0.08)">
      <defs>
       <path id="CMMI12-4e" d="M 4736 3682 
C 4806 3956 4909 4147 5395 4166 
C 5414 4166 5491 4172 5491 4281 
C 5491 4352 5434 4352 5408 4352 
C 5280 4352 4954 4339 4826 4339 
L 4518 4339 
C 4429 4339 4314 4352 4224 4352 
C 4186 4352 4109 4352 4109 4230 
C 4109 4166 4160 4166 4205 4166 
C 4589 4153 4614 4007 4614 3892 
C 4614 3835 4608 3816 4589 3726 
L 3866 854 
L 2496 4243 
C 2451 4345 2445 4352 2304 4352 
L 1523 4352 
C 1395 4352 1338 4352 1338 4230 
C 1338 4166 1382 4166 1504 4166 
C 1536 4166 1914 4166 1914 4109 
C 1914 4096 1901 4045 1894 4026 
L 1043 650 
C 966 338 813 204 390 185 
C 358 185 294 179 294 64 
C 294 0 358 0 378 0 
C 506 0 832 12 960 12 
L 1267 12 
C 1357 12 1466 0 1555 0 
C 1600 0 1670 0 1670 121 
C 1670 179 1606 185 1581 185 
C 1370 191 1165 230 1165 459 
C 1165 510 1178 567 1190 618 
L 2054 4026 
C 2093 3962 2093 3949 2118 3892 
L 3642 115 
C 3674 38 3686 0 3744 0 
C 3808 0 3814 19 3840 128 
L 4736 3682 
z
" transform="scale(0.015625)"/>
       <path id="CMMI12-1a" d="M 198 -1085 
C 192 -1116 179 -1154 179 -1191 
C 179 -1287 256 -1351 352 -1351 
C 448 -1351 538 -1287 576 -1198 
C 602 -1141 781 -390 986 389 
C 1114 70 1350 -64 1600 -64 
C 2323 -64 3142 830 3142 1794 
C 3142 2477 2726 2816 2285 2816 
C 1722 2816 1037 2234 826 1385 
L 198 -1085 
z
M 1594 64 
C 1158 64 1050 568 1050 645 
C 1050 683 1210 1289 1229 1385 
C 1555 2656 2182 2687 2278 2687 
C 2566 2687 2726 2426 2726 2049 
C 2726 1724 2554 1091 2445 823 
C 2253 383 1920 64 1594 64 
z
" transform="scale(0.015625)"/>
       <path id="CMR17-28" d="M 1958 -1562 
C 1958 -1556 1958 -1543 1939 -1524 
C 1645 -1223 858 -403 858 1596 
C 858 3595 1632 4408 1946 4729 
C 1946 4735 1958 4748 1958 4767 
C 1958 4787 1939 4800 1914 4800 
C 1843 4800 1299 4325 986 3620 
C 666 2909 576 2218 576 1603 
C 576 1141 621 360 1005 -467 
C 1312 -1133 1837 -1600 1914 -1600 
C 1946 -1600 1958 -1588 1958 -1562 
z
" transform="scale(0.015625)"/>
       <path id="CMMI12-3b" d="M 1248 -26 
C 1248 345 1126 620 864 620 
C 659 620 557 454 557 313 
C 557 172 653 0 870 0 
C 954 0 1024 25 1082 83 
C 1094 96 1101 96 1107 96 
C 1120 96 1120 6 1120 -26 
C 1120 -233 1082 -642 710 -1051 
C 640 -1127 640 -1140 640 -1152 
C 640 -1184 672 -1216 704 -1216 
C 755 -1216 1248 -749 1248 -26 
z
" transform="scale(0.015625)"/>
       <path id="CMMI12-74" d="M 1286 2566 
L 1875 2566 
C 1997 2566 2061 2566 2061 2681 
C 2061 2752 2022 2752 1894 2752 
L 1331 2752 
L 1568 3664 
C 1594 3752 1594 3764 1594 3808 
C 1594 3910 1510 3968 1427 3968 
C 1376 3968 1229 3948 1178 3746 
L 928 2752 
L 326 2752 
C 198 2752 141 2752 141 2630 
C 141 2566 186 2566 307 2566 
L 877 2566 
L 454 881 
C 403 657 384 593 384 510 
C 384 210 595 -64 954 -64 
C 1600 -64 1946 868 1946 913 
C 1946 951 1920 970 1882 970 
C 1869 970 1843 970 1830 944 
C 1824 938 1818 932 1773 830 
C 1638 510 1344 64 973 64 
C 781 64 768 223 768 364 
C 768 370 768 491 787 568 
L 1286 2566 
z
" transform="scale(0.015625)"/>
       <path id="CMR17-29" d="M 1683 1596 
C 1683 2057 1638 2839 1254 3665 
C 947 4332 422 4800 346 4800 
C 326 4800 301 4793 301 4761 
C 301 4748 307 4742 314 4729 
C 621 4408 1402 3595 1402 1603 
C 1402 -396 627 -1210 314 -1530 
C 307 -1543 301 -1549 301 -1562 
C 301 -1594 326 -1600 346 -1600 
C 416 -1600 960 -1127 1274 -422 
C 1594 289 1683 981 1683 1596 
z
" transform="scale(0.015625)"/>
      </defs>
      <use xlink:href="#CMMI12-4e" transform="scale(0.996264)"/>
      <use xlink:href="#CMMI12-1a" transform="translate(88.521773 0)scale(0.996264)"/>
      <use xlink:href="#CMR17-31" transform="translate(138.836145 -14.943915)scale(0.697382)"/>
      <use xlink:href="#CMR17-28" transform="translate(171.317459 0)scale(0.996264)"/>
      <use xlink:href="#CMMI12-71" transform="translate(206.598227 0)scale(0.996264)"/>
      <use xlink:href="#CMMI12-3b" transform="translate(253.424551 0)scale(0.996264)"/>
      <use xlink:href="#CMMI12-74" transform="translate(297.126133 0)scale(0.996264)"/>
      <use xlink:href="#CMR17-29" transform="translate(332.352464 0)scale(0.996264)"/>
     </g>
    </g>
   </g>
   <g id="line2d_13">
    <path d="M 35.422831 112.049392 
L 43.172421 110.626319 
L 50.922012 104.525578 
L 58.671602 96.939943 
L 66.421193 69.909454 
L 74.170783 52.559352 
L 81.920374 65.511439 
L 89.669964 48.161337 
L 97.419555 21.130848 
L 105.169145 13.545214 
L 112.918736 7.444472 
L 120.668326 6.0214 
L 128.417917 6.0214 
L 136.167507 7.444472 
L 143.917098 13.545214 
L 151.666688 21.130848 
L 159.416279 48.161337 
L 167.165869 65.511439 
L 174.91546 52.559352 
L 182.66505 69.909454 
L 190.414641 96.939943 
L 198.164231 104.525578 
L 205.913822 110.626319 
L 213.663412 112.049392 
" clip-path="url(#p8c216b27de)" style="fill: none; stroke: #aea6d0; stroke-width: 1.5; stroke-linecap: round"/>
    <defs>
     <path id="m0a3f23cc3d" d="M -2.5 2.5 
L 2.5 2.5 
L 2.5 -2.5 
L -2.5 -2.5 
z
" style="stroke: #5e4fa2; stroke-linejoin: miter"/>
    </defs>
    <g clip-path="url(#p8c216b27de)">
     <use xlink:href="#m0a3f23cc3d" x="35.422831" y="112.049392" style="fill: #aea6d0; stroke: #5e4fa2; stroke-linejoin: miter"/>
     <use xlink:href="#m0a3f23cc3d" x="43.172421" y="110.626319" style="fill: #aea6d0; stroke: #5e4fa2; stroke-linejoin: miter"/>
     <use xlink:href="#m0a3f23cc3d" x="50.922012" y="104.525578" style="fill: #aea6d0; stroke: #5e4fa2; stroke-linejoin: miter"/>
     <use xlink:href="#m0a3f23cc3d" x="58.671602" y="96.939943" style="fill: #aea6d0; stroke: #5e4fa2; stroke-linejoin: miter"/>
     <use xlink:href="#m0a3f23cc3d" x="66.421193" y="69.909454" style="fill: #aea6d0; stroke: #5e4fa2; stroke-linejoin: miter"/>
     <use xlink:href="#m0a3f23cc3d" x="74.170783" y="52.559352" style="fill: #aea6d0; stroke: #5e4fa2; stroke-linejoin: miter"/>
     <use xlink:href="#m0a3f23cc3d" x="81.920374" y="65.511439" style="fill: #aea6d0; stroke: #5e4fa2; stroke-linejoin: miter"/>
     <use xlink:href="#m0a3f23cc3d" x="89.669964" y="48.161337" style="fill: #aea6d0; stroke: #5e4fa2; stroke-linejoin: miter"/>
     <use xlink:href="#m0a3f23cc3d" x="97.419555" y="21.130848" style="fill: #aea6d0; stroke: #5e4fa2; stroke-linejoin: miter"/>
     <use xlink:href="#m0a3f23cc3d" x="105.169145" y="13.545214" style="fill: #aea6d0; stroke: #5e4fa2; stroke-linejoin: miter"/>
     <use xlink:href="#m0a3f23cc3d" x="112.918736" y="7.444472" style="fill: #aea6d0; stroke: #5e4fa2; stroke-linejoin: miter"/>
     <use xlink:href="#m0a3f23cc3d" x="120.668326" y="6.0214" style="fill: #aea6d0; stroke: #5e4fa2; stroke-linejoin: miter"/>
     <use xlink:href="#m0a3f23cc3d" x="128.417917" y="6.0214" style="fill: #aea6d0; stroke: #5e4fa2; stroke-linejoin: miter"/>
     <use xlink:href="#m0a3f23cc3d" x="136.167507" y="7.444472" style="fill: #aea6d0; stroke: #5e4fa2; stroke-linejoin: miter"/>
     <use xlink:href="#m0a3f23cc3d" x="143.917098" y="13.545214" style="fill: #aea6d0; stroke: #5e4fa2; stroke-linejoin: miter"/>
     <use xlink:href="#m0a3f23cc3d" x="151.666688" y="21.130848" style="fill: #aea6d0; stroke: #5e4fa2; stroke-linejoin: miter"/>
     <use xlink:href="#m0a3f23cc3d" x="159.416279" y="48.161337" style="fill: #aea6d0; stroke: #5e4fa2; stroke-linejoin: miter"/>
     <use xlink:href="#m0a3f23cc3d" x="167.165869" y="65.511439" style="fill: #aea6d0; stroke: #5e4fa2; stroke-linejoin: miter"/>
     <use xlink:href="#m0a3f23cc3d" x="174.91546" y="52.559352" style="fill: #aea6d0; stroke: #5e4fa2; stroke-linejoin: miter"/>
     <use xlink:href="#m0a3f23cc3d" x="182.66505" y="69.909454" style="fill: #aea6d0; stroke: #5e4fa2; stroke-linejoin: miter"/>
     <use xlink:href="#m0a3f23cc3d" x="190.414641" y="96.939943" style="fill: #aea6d0; stroke: #5e4fa2; stroke-linejoin: miter"/>
     <use xlink:href="#m0a3f23cc3d" x="198.164231" y="104.525578" style="fill: #aea6d0; stroke: #5e4fa2; stroke-linejoin: miter"/>
     <use xlink:href="#m0a3f23cc3d" x="205.913822" y="110.626319" style="fill: #aea6d0; stroke: #5e4fa2; stroke-linejoin: miter"/>
     <use xlink:href="#m0a3f23cc3d" x="213.663412" y="112.049392" style="fill: #aea6d0; stroke: #5e4fa2; stroke-linejoin: miter"/>
    </g>
   </g>
   <g id="line2d_14">
    <path d="M 35.422831 109.502591 
L 43.172421 105.618051 
L 50.922012 98.774462 
L 58.671602 90.558419 
L 66.421193 87.437137 
L 74.170783 67.702672 
L 81.920374 50.368119 
L 89.669964 30.633655 
L 97.419555 27.512372 
L 105.169145 19.296329 
L 112.918736 12.45274 
L 120.668326 8.5682 
L 128.417917 8.5682 
L 136.167507 12.45274 
L 143.917098 19.296329 
L 151.666688 27.512372 
L 159.416279 30.633655 
L 167.165869 50.368119 
L 174.91546 67.702672 
L 182.66505 87.437137 
L 190.414641 90.558419 
L 198.164231 98.774462 
L 205.913822 105.618051 
L 213.663412 109.502591 
" clip-path="url(#p8c216b27de)" style="fill: none; stroke: #ce7fa0; stroke-width: 1.5; stroke-linecap: round"/>
    <defs>
     <path id="m3370048589" d="M 0 2.5 
C 0.663008 2.5 1.29895 2.236584 1.767767 1.767767 
C 2.236584 1.29895 2.5 0.663008 2.5 0 
C 2.5 -0.663008 2.236584 -1.29895 1.767767 -1.767767 
C 1.29895 -2.236584 0.663008 -2.5 0 -2.5 
C -0.663008 -2.5 -1.29895 -2.236584 -1.767767 -1.767767 
C -2.236584 -1.29895 -2.5 -0.663008 -2.5 0 
C -2.5 0.663008 -2.236584 1.29895 -1.767767 1.767767 
C -1.29895 2.236584 -0.663008 2.5 0 2.5 
z
" style="stroke: #9e0142"/>
    </defs>
    <g clip-path="url(#p8c216b27de)">
     <use xlink:href="#m3370048589" x="35.422831" y="109.502591" style="fill: #ce7fa0; stroke: #9e0142"/>
     <use xlink:href="#m3370048589" x="43.172421" y="105.618051" style="fill: #ce7fa0; stroke: #9e0142"/>
     <use xlink:href="#m3370048589" x="50.922012" y="98.774462" style="fill: #ce7fa0; stroke: #9e0142"/>
     <use xlink:href="#m3370048589" x="58.671602" y="90.558419" style="fill: #ce7fa0; stroke: #9e0142"/>
     <use xlink:href="#m3370048589" x="66.421193" y="87.437137" style="fill: #ce7fa0; stroke: #9e0142"/>
     <use xlink:href="#m3370048589" x="74.170783" y="67.702672" style="fill: #ce7fa0; stroke: #9e0142"/>
     <use xlink:href="#m3370048589" x="81.920374" y="50.368119" style="fill: #ce7fa0; stroke: #9e0142"/>
     <use xlink:href="#m3370048589" x="89.669964" y="30.633655" style="fill: #ce7fa0; stroke: #9e0142"/>
     <use xlink:href="#m3370048589" x="97.419555" y="27.512372" style="fill: #ce7fa0; stroke: #9e0142"/>
     <use xlink:href="#m3370048589" x="105.169145" y="19.296329" style="fill: #ce7fa0; stroke: #9e0142"/>
     <use xlink:href="#m3370048589" x="112.918736" y="12.45274" style="fill: #ce7fa0; stroke: #9e0142"/>
     <use xlink:href="#m3370048589" x="120.668326" y="8.5682" style="fill: #ce7fa0; stroke: #9e0142"/>
     <use xlink:href="#m3370048589" x="128.417917" y="8.5682" style="fill: #ce7fa0; stroke: #9e0142"/>
     <use xlink:href="#m3370048589" x="136.167507" y="12.45274" style="fill: #ce7fa0; stroke: #9e0142"/>
     <use xlink:href="#m3370048589" x="143.917098" y="19.296329" style="fill: #ce7fa0; stroke: #9e0142"/>
     <use xlink:href="#m3370048589" x="151.666688" y="27.512372" style="fill: #ce7fa0; stroke: #9e0142"/>
     <use xlink:href="#m3370048589" x="159.416279" y="30.633655" style="fill: #ce7fa0; stroke: #9e0142"/>
     <use xlink:href="#m3370048589" x="167.165869" y="50.368119" style="fill: #ce7fa0; stroke: #9e0142"/>
     <use xlink:href="#m3370048589" x="174.91546" y="67.702672" style="fill: #ce7fa0; stroke: #9e0142"/>
     <use xlink:href="#m3370048589" x="182.66505" y="87.437137" style="fill: #ce7fa0; stroke: #9e0142"/>
     <use xlink:href="#m3370048589" x="190.414641" y="90.558419" style="fill: #ce7fa0; stroke: #9e0142"/>
     <use xlink:href="#m3370048589" x="198.164231" y="98.774462" style="fill: #ce7fa0; stroke: #9e0142"/>
     <use xlink:href="#m3370048589" x="205.913822" y="105.618051" style="fill: #ce7fa0; stroke: #9e0142"/>
     <use xlink:href="#m3370048589" x="213.663412" y="109.502591" style="fill: #ce7fa0; stroke: #9e0142"/>
    </g>
   </g>
   <g id="patch_3">
    <path d="M 26.510802 117.350791 
L 26.510802 0.72 
" style="fill: none; stroke: #000000; stroke-width: 0.35; stroke-linejoin: miter; stroke-linecap: square"/>
   </g>
   <g id="patch_4">
    <path d="M 222.575442 117.350791 
L 222.575442 0.72 
" style="fill: none; stroke: #000000; stroke-width: 0.35; stroke-linejoin: miter; stroke-linecap: square"/>
   </g>
   <g id="patch_5">
    <path d="M 26.510802 117.350791 
L 222.575442 117.350791 
" style="fill: none; stroke: #000000; stroke-width: 0.35; stroke-linejoin: miter; stroke-linecap: square"/>
   </g>
   <g id="patch_6">
    <path d="M 26.510802 0.72 
L 222.575442 0.72 
" style="fill: none; stroke: #000000; stroke-width: 0.35; stroke-linejoin: miter; stroke-linecap: square"/>
   </g>
   <g id="text_15">
    <!-- $V/J= 20.0$ -->
    <g transform="translate(31.59518 34.489149)scale(0.08 -0.08)">
     <defs>
      <path id="CMMI12-56" d="M 3962 3644 
C 4179 3987 4378 4140 4704 4166 
C 4768 4172 4819 4172 4819 4287 
C 4819 4313 4806 4352 4749 4352 
C 4634 4352 4358 4339 4243 4339 
C 4058 4339 3866 4352 3686 4352 
C 3635 4352 3571 4352 3571 4230 
C 3571 4172 3629 4166 3654 4166 
C 3891 4146 3917 4032 3917 3956 
C 3917 3860 3827 3714 3821 3708 
L 1811 540 
L 1363 3968 
C 1363 4153 1696 4166 1766 4166 
C 1862 4166 1920 4166 1920 4287 
C 1920 4352 1850 4352 1830 4352 
C 1722 4352 1594 4339 1485 4339 
L 1126 4339 
C 659 4339 467 4352 461 4352 
C 422 4352 346 4352 346 4236 
C 346 4166 390 4166 493 4166 
C 819 4166 838 4108 858 3949 
L 1370 25 
C 1389 -109 1389 -128 1478 -128 
C 1555 -128 1587 -109 1651 -7 
L 3962 3644 
z
" transform="scale(0.015625)"/>
      <path id="CMMI12-3d" d="M 2746 4563 
C 2746 4569 2784 4665 2784 4678 
C 2784 4755 2720 4800 2669 4800 
C 2637 4800 2579 4800 2528 4659 
L 384 -1364 
C 384 -1370 346 -1466 346 -1479 
C 346 -1556 410 -1600 461 -1600 
C 499 -1600 557 -1594 602 -1460 
L 2746 4563 
z
" transform="scale(0.015625)"/>
      <path id="CMMI12-4a" d="M 3418 3911 
C 3469 4102 3482 4166 3795 4166 
C 3898 4166 3962 4166 3962 4281 
C 3962 4352 3904 4352 3878 4352 
C 3770 4352 3648 4339 3533 4339 
L 3181 4339 
C 2912 4339 2630 4352 2362 4352 
C 2304 4352 2227 4352 2227 4236 
C 2227 4172 2278 4172 2278 4166 
L 2438 4166 
C 2950 4166 2950 4115 2950 4019 
C 2950 4013 2950 3968 2925 3866 
L 2189 953 
C 2022 304 1594 0 1286 0 
C 1069 0 762 99 685 428 
C 710 422 742 415 768 415 
C 979 415 1146 601 1146 787 
C 1146 889 1082 1024 890 1024 
C 774 1024 506 959 506 543 
C 506 149 838 -128 1299 -128 
C 1882 -128 2509 304 2662 908 
L 3418 3911 
z
" transform="scale(0.015625)"/>
      <path id="CMR17-3d" d="M 4115 2048 
C 4211 2048 4307 2048 4307 2156 
C 4307 2272 4198 2272 4090 2272 
L 512 2272 
C 403 2272 294 2272 294 2156 
C 294 2048 390 2048 486 2048 
L 4115 2048 
z
M 4090 927 
C 4198 927 4307 927 4307 1043 
C 4307 1152 4211 1152 4115 1152 
L 486 1152 
C 390 1152 294 1152 294 1043 
C 294 927 403 927 512 927 
L 4090 927 
z
" transform="scale(0.015625)"/>
     </defs>
     <use xlink:href="#CMMI12-56" transform="scale(0.996264)"/>
     <use xlink:href="#CMMI12-3d" transform="translate(67.70845 0)scale(0.996264)"/>
     <use xlink:href="#CMMI12-4a" transform="translate(116.483369 0)scale(0.996264)"/>
     <use xlink:href="#CMR17-3d" transform="translate(207.300048 0)scale(0.996264)"/>
     <use xlink:href="#CMR17-32" transform="translate(306.688845 0)scale(0.996264)"/>
     <use xlink:href="#CMR17-30" transform="translate(352.379322 0)scale(0.996264)"/>
     <use xlink:href="#CMMI12-3a" transform="translate(398.069799 0)scale(0.996264)"/>
     <use xlink:href="#CMR17-30" transform="translate(425.166976 0)scale(0.996264)"/>
    </g>
   </g>
   <g id="legend_1">
    <g id="line2d_15">
     <path d="M 33.710802 10.72 
L 34.510802 10.72 
L 35.310802 10.72 
" style="fill: none; stroke: #aea6d0; stroke-width: 1.5; stroke-linecap: round"/>
     <g>
      <use xlink:href="#m0a3f23cc3d" x="34.510802" y="10.72" style="fill: #aea6d0; stroke: #5e4fa2; stroke-linejoin: miter"/>
     </g>
    </g>
    <g id="text_16">
     <!--  $tJ= 14.0$ -->
     <g transform="translate(43.310802 13.52)scale(0.08 -0.08)">
      <use xlink:href="#CMMI12-74" transform="scale(0.996264)"/>
      <use xlink:href="#CMMI12-4a" transform="translate(35.22633 0)scale(0.996264)"/>
      <use xlink:href="#CMR17-3d" transform="translate(126.043009 0)scale(0.996264)"/>
      <use xlink:href="#CMR17-31" transform="translate(225.431807 0)scale(0.996264)"/>
      <use xlink:href="#CMR17-34" transform="translate(271.122284 0)scale(0.996264)"/>
      <use xlink:href="#CMMI12-3a" transform="translate(316.812761 0)scale(0.996264)"/>
      <use xlink:href="#CMR17-30" transform="translate(343.909938 0)scale(0.996264)"/>
     </g>
    </g>
    <g id="line2d_16">
     <path d="M 33.710802 19.869746 
L 34.510802 19.869746 
L 35.310802 19.869746 
" style="fill: none; stroke: #ce7fa0; stroke-width: 1.5; stroke-linecap: round"/>
     <g>
      <use xlink:href="#m3370048589" x="34.510802" y="19.869746" style="fill: #ce7fa0; stroke: #9e0142"/>
     </g>
    </g>
    <g id="text_17">
     <!--  $tJ=46.0$ -->
     <g transform="translate(43.310802 22.669746)scale(0.08 -0.08)">
      <use xlink:href="#CMMI12-74" transform="scale(0.996264)"/>
      <use xlink:href="#CMMI12-4a" transform="translate(35.22633 0)scale(0.996264)"/>
      <use xlink:href="#CMR17-3d" transform="translate(126.043009 0)scale(0.996264)"/>
      <use xlink:href="#CMR17-34" transform="translate(225.431807 0)scale(0.996264)"/>
      <use xlink:href="#CMR17-36" transform="translate(271.122284 0)scale(0.996264)"/>
      <use xlink:href="#CMMI12-3a" transform="translate(316.812761 0)scale(0.996264)"/>
      <use xlink:href="#CMR17-30" transform="translate(343.909938 0)scale(0.996264)"/>
     </g>
    </g>
   </g>
  </g>
  <g id="axes_2">
   <g id="patch_7">
    <path d="M 87.29084 117.350791 
L 161.795403 117.350791 
L 161.795403 79.095892 
L 87.29084 79.095892 
L 87.29084 117.350791 
z
" style="fill: none"/>
   </g>
   <g id="line2d_17">
    <path d="M 90.677411 104.470054 
L 93.622255 104.06605 
L 96.5671 103.273598 
L 99.511944 102.128722 
L 102.456789 100.695339 
L 105.401633 99.069917 
L 108.346477 97.37676 
L 111.291322 95.751339 
L 114.236166 94.317956 
L 117.181011 93.17308 
L 120.125855 92.380628 
L 123.070699 91.976623 
L 126.015544 91.976623 
L 128.960388 92.380628 
L 131.905233 93.17308 
L 134.850077 94.317956 
L 137.794921 95.751339 
L 140.739766 97.37676 
L 143.68461 99.069917 
L 146.629455 100.695339 
L 149.574299 102.128722 
L 152.519143 103.273598 
L 155.463988 104.06605 
L 158.408832 104.470054 
" clip-path="url(#pc246078462)" style="fill: none; stroke: #a0a0a0; stroke-linecap: round"/>
    <defs>
     <path id="mb4cb90aaa3" d="M 0 1.5 
C 0.397805 1.5 0.77937 1.341951 1.06066 1.06066 
C 1.341951 0.77937 1.5 0.397805 1.5 0 
C 1.5 -0.397805 1.341951 -0.77937 1.06066 -1.06066 
C 0.77937 -1.341951 0.397805 -1.5 0 -1.5 
C -0.397805 -1.5 -0.77937 -1.341951 -1.06066 -1.06066 
C -1.341951 -0.77937 -1.5 -0.397805 -1.5 0 
C -1.5 0.397805 -1.341951 0.77937 -1.06066 1.06066 
C -0.77937 1.341951 -0.397805 1.5 0 1.5 
z
" style="stroke: #a0a0a0"/>
    </defs>
    <g clip-path="url(#pc246078462)">
     <use xlink:href="#mb4cb90aaa3" x="90.677411" y="104.470054" style="fill: #cfcfcf; stroke: #a0a0a0"/>
     <use xlink:href="#mb4cb90aaa3" x="93.622255" y="104.06605" style="fill: #cfcfcf; stroke: #a0a0a0"/>
     <use xlink:href="#mb4cb90aaa3" x="96.5671" y="103.273598" style="fill: #cfcfcf; stroke: #a0a0a0"/>
     <use xlink:href="#mb4cb90aaa3" x="99.511944" y="102.128722" style="fill: #cfcfcf; stroke: #a0a0a0"/>
     <use xlink:href="#mb4cb90aaa3" x="102.456789" y="100.695339" style="fill: #cfcfcf; stroke: #a0a0a0"/>
     <use xlink:href="#mb4cb90aaa3" x="105.401633" y="99.069917" style="fill: #cfcfcf; stroke: #a0a0a0"/>
     <use xlink:href="#mb4cb90aaa3" x="108.346477" y="97.37676" style="fill: #cfcfcf; stroke: #a0a0a0"/>
     <use xlink:href="#mb4cb90aaa3" x="111.291322" y="95.751339" style="fill: #cfcfcf; stroke: #a0a0a0"/>
     <use xlink:href="#mb4cb90aaa3" x="114.236166" y="94.317956" style="fill: #cfcfcf; stroke: #a0a0a0"/>
     <use xlink:href="#mb4cb90aaa3" x="117.181011" y="93.17308" style="fill: #cfcfcf; stroke: #a0a0a0"/>
     <use xlink:href="#mb4cb90aaa3" x="120.125855" y="92.380628" style="fill: #cfcfcf; stroke: #a0a0a0"/>
     <use xlink:href="#mb4cb90aaa3" x="123.070699" y="91.976623" style="fill: #cfcfcf; stroke: #a0a0a0"/>
     <use xlink:href="#mb4cb90aaa3" x="126.015544" y="91.976623" style="fill: #cfcfcf; stroke: #a0a0a0"/>
     <use xlink:href="#mb4cb90aaa3" x="128.960388" y="92.380628" style="fill: #cfcfcf; stroke: #a0a0a0"/>
     <use xlink:href="#mb4cb90aaa3" x="131.905233" y="93.17308" style="fill: #cfcfcf; stroke: #a0a0a0"/>
     <use xlink:href="#mb4cb90aaa3" x="134.850077" y="94.317956" style="fill: #cfcfcf; stroke: #a0a0a0"/>
     <use xlink:href="#mb4cb90aaa3" x="137.794921" y="95.751339" style="fill: #cfcfcf; stroke: #a0a0a0"/>
     <use xlink:href="#mb4cb90aaa3" x="140.739766" y="97.37676" style="fill: #cfcfcf; stroke: #a0a0a0"/>
     <use xlink:href="#mb4cb90aaa3" x="143.68461" y="99.069917" style="fill: #cfcfcf; stroke: #a0a0a0"/>
     <use xlink:href="#mb4cb90aaa3" x="146.629455" y="100.695339" style="fill: #cfcfcf; stroke: #a0a0a0"/>
     <use xlink:href="#mb4cb90aaa3" x="149.574299" y="102.128722" style="fill: #cfcfcf; stroke: #a0a0a0"/>
     <use xlink:href="#mb4cb90aaa3" x="152.519143" y="103.273598" style="fill: #cfcfcf; stroke: #a0a0a0"/>
     <use xlink:href="#mb4cb90aaa3" x="155.463988" y="104.06605" style="fill: #cfcfcf; stroke: #a0a0a0"/>
     <use xlink:href="#mb4cb90aaa3" x="158.408832" y="104.470054" style="fill: #cfcfcf; stroke: #a0a0a0"/>
    </g>
   </g>
   <g id="line2d_18">
    <g clip-path="url(#pc246078462)">
     <use xlink:href="#mb4cb90aaa3" x="109.920101" y="110.974975" style="fill: #cfcfcf; stroke: #a0a0a0"/>
    </g>
   </g>
   <g id="matplotlib.axis_3">
    <g id="xtick_8">
     <g id="line2d_19">
      <defs>
       <path id="m0f09e65e8b" d="M 0 0 
L 0 -2 
" style="stroke: #000000; stroke-width: 0.35"/>
      </defs>
      <g>
       <use xlink:href="#m0f09e65e8b" x="96.421929" y="79.095892" style="stroke: #000000; stroke-width: 0.35"/>
      </g>
     </g>
     <g id="text_18">
      <!-- $\mathdefault{−2.5}$ -->
      <g transform="translate(87.718331 75.446146)scale(0.08 -0.08)">
       <use xlink:href="#CMSY10-0" transform="scale(0.996264)"/>
       <use xlink:href="#CMR17-32" transform="translate(77.487468 0)scale(0.996264)"/>
       <use xlink:href="#CMMI12-3a" transform="translate(123.177945 0)scale(0.996264)"/>
       <use xlink:href="#CMR17-35" transform="translate(150.275122 0)scale(0.996264)"/>
      </g>
     </g>
    </g>
    <g id="xtick_9">
     <g id="line2d_20">
      <g>
       <use xlink:href="#m0f09e65e8b" x="124.543122" y="79.095892" style="stroke: #000000; stroke-width: 0.35"/>
      </g>
     </g>
     <g id="text_19">
      <!-- $\mathdefault{0.0}$ -->
      <g transform="translate(119.132777 75.446146)scale(0.08 -0.08)">
       <use xlink:href="#CMR17-30" transform="scale(0.996264)"/>
       <use xlink:href="#CMMI12-3a" transform="translate(45.690477 0)scale(0.996264)"/>
       <use xlink:href="#CMR17-30" transform="translate(72.787654 0)scale(0.996264)"/>
      </g>
     </g>
    </g>
    <g id="xtick_10">
     <g id="line2d_21">
      <g>
       <use xlink:href="#m0f09e65e8b" x="152.664314" y="79.095892" style="stroke: #000000; stroke-width: 0.35"/>
      </g>
     </g>
     <g id="text_20">
      <!-- $\mathdefault{2.5}$ -->
      <g transform="translate(147.253969 75.446146)scale(0.08 -0.08)">
       <use xlink:href="#CMR17-32" transform="scale(0.996264)"/>
       <use xlink:href="#CMMI12-3a" transform="translate(45.690477 0)scale(0.996264)"/>
       <use xlink:href="#CMR17-35" transform="translate(72.787654 0)scale(0.996264)"/>
      </g>
     </g>
    </g>
    <g id="text_21">
     <!-- $q$ -->
     <g transform="translate(122.652727 65.911344)scale(0.08 -0.08)">
      <use xlink:href="#CMMI12-71" transform="scale(0.996264)"/>
     </g>
    </g>
   </g>
   <g id="matplotlib.axis_4">
    <g id="ytick_6">
     <g id="line2d_22">
      <g>
       <use xlink:href="#m61f3a231e6" x="87.29084" y="110.974975" style="stroke: #000000; stroke-width: 0.35"/>
      </g>
     </g>
     <g id="text_22">
      <!-- $\mathdefault{0.3}$ -->
      <g transform="translate(74.37015 113.742375)scale(0.08 -0.08)">
       <use xlink:href="#CMR17-30" transform="scale(0.996264)"/>
       <use xlink:href="#CMMI12-3a" transform="translate(45.690477 0)scale(0.996264)"/>
       <use xlink:href="#CMR17-33" transform="translate(72.787654 0)scale(0.996264)"/>
      </g>
     </g>
    </g>
    <g id="ytick_7">
     <g id="line2d_23">
      <g>
       <use xlink:href="#m61f3a231e6" x="87.29084" y="98.223341" style="stroke: #000000; stroke-width: 0.35"/>
      </g>
     </g>
     <g id="text_23">
      <!-- $\mathdefault{0.5}$ -->
      <g transform="translate(74.37015 100.990742)scale(0.08 -0.08)">
       <use xlink:href="#CMR17-30" transform="scale(0.996264)"/>
       <use xlink:href="#CMMI12-3a" transform="translate(45.690477 0)scale(0.996264)"/>
       <use xlink:href="#CMR17-35" transform="translate(72.787654 0)scale(0.996264)"/>
      </g>
     </g>
    </g>
    <g id="ytick_8">
     <g id="line2d_24">
      <g>
       <use xlink:href="#m61f3a231e6" x="87.29084" y="85.471708" style="stroke: #000000; stroke-width: 0.35"/>
      </g>
     </g>
     <g id="text_24">
      <!-- $\mathdefault{0.7}$ -->
      <g transform="translate(74.37015 88.239109)scale(0.08 -0.08)">
       <use xlink:href="#CMR17-30" transform="scale(0.996264)"/>
       <use xlink:href="#CMMI12-3a" transform="translate(45.690477 0)scale(0.996264)"/>
       <use xlink:href="#CMR17-37" transform="translate(72.787654 0)scale(0.996264)"/>
      </g>
     </g>
    </g>
   </g>
   <g id="patch_8">
    <path d="M 87.29084 117.350791 
L 87.29084 79.095892 
" style="fill: none; stroke: #000000; stroke-width: 0.35; stroke-linejoin: miter; stroke-linecap: square"/>
   </g>
   <g id="patch_9">
    <path d="M 161.795403 117.350791 
L 161.795403 79.095892 
" style="fill: none; stroke: #000000; stroke-width: 0.35; stroke-linejoin: miter; stroke-linecap: square"/>
   </g>
   <g id="patch_10">
    <path d="M 87.29084 117.350791 
L 161.795403 117.350791 
" style="fill: none; stroke: #000000; stroke-width: 0.35; stroke-linejoin: miter; stroke-linecap: square"/>
   </g>
   <g id="patch_11">
    <path d="M 87.29084 79.095892 
L 161.795403 79.095892 
" style="fill: none; stroke: #000000; stroke-width: 0.35; stroke-linejoin: miter; stroke-linecap: square"/>
   </g>
   <g id="text_25">
    <!-- $N\rho_1(q)$ -->
    <g transform="translate(113.43723 112.967503)scale(0.08 -0.08)">
     <use xlink:href="#CMMI12-4e" transform="scale(0.996264)"/>
     <use xlink:href="#CMMI12-1a" transform="translate(88.521773 0)scale(0.996264)"/>
     <use xlink:href="#CMR17-31" transform="translate(138.836145 -14.943915)scale(0.697382)"/>
     <use xlink:href="#CMR17-28" transform="translate(171.317459 0)scale(0.996264)"/>
     <use xlink:href="#CMMI12-71" transform="translate(206.598227 0)scale(0.996264)"/>
     <use xlink:href="#CMR17-29" transform="translate(253.424551 0)scale(0.996264)"/>
    </g>
   </g>
  </g>
 </g>
 <defs>
  <clipPath id="p8c216b27de">
   <rect x="26.510802" y="0.72" width="196.06464" height="116.630791"/>
  </clipPath>
  <clipPath id="pc246078462">
   <rect x="87.29084" y="79.095892" width="74.504563" height="38.2549"/>
  </clipPath>
 </defs>
</svg>
